<svg width="50" height="50" viewBox="0 0 50 50" fill="none" xmlns="http://www.w3.org/2000/svg">
<path d="M24.9981 48.8048C38.1451 48.8048 48.8029 38.1471 48.8029 25.0001C48.8029 11.8531 38.1451 1.19531 24.9981 1.19531C11.8511 1.19531 1.19336 11.8531 1.19336 25.0001C1.19336 38.1471 11.8511 48.8048 24.9981 48.8048Z" fill="white" stroke="black" stroke-width="0.7" stroke-miterlimit="10"/>
<path fill-rule="evenodd" clip-rule="evenodd" d="M25 1.39048C11.9608 1.39048 1.39048 11.9608 1.39048 25C1.39048 38.0392 11.9608 48.6095 25 48.6095C38.0392 48.6095 48.6095 38.0392 48.6095 25C48.6095 11.9608 38.0392 1.39048 25 1.39048ZM1 25C1 11.7452 11.7452 1 25 1C38.2548 1 49 11.7452 49 25C49 38.2548 38.2548 49 25 49C11.7452 49 1 38.2548 1 25Z" fill="black"/>
<path d="M25.2672 43.5666C35.3171 43.5666 43.4641 35.4196 43.4641 25.3697C43.4641 15.3199 35.3171 7.17285 25.2672 7.17285C15.2173 7.17285 7.07031 15.3199 7.07031 25.3697C7.07031 35.4196 15.2173 43.5666 25.2672 43.5666Z" fill="#FFE927"/>
<path d="M16.7503 25.3707C18.1355 25.3707 19.2584 24.2478 19.2584 22.8626C19.2584 21.4774 18.1355 20.3545 16.7503 20.3545C15.3651 20.3545 14.2422 21.4774 14.2422 22.8626C14.2422 24.2478 15.3651 25.3707 16.7503 25.3707Z" fill="black"/>
<path d="M34.5979 25.3707C35.9831 25.3707 37.106 24.2478 37.106 22.8626C37.106 21.4774 35.9831 20.3545 34.5979 20.3545C33.2127 20.3545 32.0898 21.4774 32.0898 22.8626C32.0898 24.2478 33.2127 25.3707 34.5979 25.3707Z" fill="black"/>
<path fill-rule="evenodd" clip-rule="evenodd" d="M20.9971 24.8574C21.4884 24.8574 21.8868 25.2557 21.8868 25.7471C21.8868 26.2814 22.1833 26.8439 22.8202 27.3062C23.456 27.7678 24.3788 28.0808 25.4392 28.0808C27.5615 28.0808 28.5766 26.8905 28.5766 25.7471C28.5766 25.2557 28.975 24.8574 29.4663 24.8574C29.9576 24.8574 30.356 25.2557 30.356 25.7471C30.356 28.1627 28.2272 29.8602 25.4392 29.8602C24.0445 29.8602 22.7463 29.4513 21.7748 28.7461C20.8043 28.0415 20.1074 26.9923 20.1074 25.7471C20.1074 25.2557 20.5057 24.8574 20.9971 24.8574Z" fill="black"/>
</svg>
