<svg width="52" height="52" viewBox="0 0 52 52" fill="none" xmlns="http://www.w3.org/2000/svg">
<path d="M25.9978 50.7964C39.6926 50.7964 50.7944 39.6946 50.7944 25.9998C50.7944 12.305 39.6926 1.20312 25.9978 1.20312C12.303 1.20312 1.20117 12.305 1.20117 25.9998C1.20117 39.6946 12.303 50.7964 25.9978 50.7964Z" fill="white" stroke="black" stroke-width="0.7" stroke-miterlimit="10"/>
<path fill-rule="evenodd" clip-rule="evenodd" d="M26 1.40675C12.4175 1.40675 1.40675 12.4175 1.40675 26C1.40675 39.5825 12.4175 50.5933 26 50.5933C39.5825 50.5933 50.5933 39.5825 50.5933 26C50.5933 12.4175 39.5825 1.40675 26 1.40675ZM1 26C1 12.1929 12.1929 1 26 1C39.8071 1 51 12.1929 51 26C51 39.8071 39.8071 51 26 51C12.1929 51 1 39.8071 1 26Z" fill="black"/>
<path d="M26.2774 45.3399C36.746 45.3399 45.2325 36.8534 45.2325 26.3848C45.2325 15.9162 36.746 7.42969 26.2774 7.42969C15.8087 7.42969 7.32227 15.9162 7.32227 26.3848C7.32227 36.8534 15.8087 45.3399 26.2774 45.3399Z" fill="#FFE927"/>
<path d="M17.4075 26.3863C18.8504 26.3863 20.0201 25.2166 20.0201 23.7737C20.0201 22.3308 18.8504 21.1611 17.4075 21.1611C15.9646 21.1611 14.7949 22.3308 14.7949 23.7737C14.7949 25.2166 15.9646 26.3863 17.4075 26.3863Z" fill="black"/>
<path d="M35.9974 26.3863C37.4402 26.3863 38.6099 25.2166 38.6099 23.7737C38.6099 22.3308 37.4402 21.1611 35.9974 21.1611C34.5545 21.1611 33.3848 22.3308 33.3848 23.7737C33.3848 25.2166 34.5545 26.3863 35.9974 26.3863Z" fill="black"/>
<path fill-rule="evenodd" clip-rule="evenodd" d="M21.831 25.8516C22.3429 25.8516 22.7578 26.2665 22.7578 26.7783C22.7578 27.3349 23.0667 27.9208 23.7301 28.4023C24.3924 28.8832 25.3537 29.2093 26.4583 29.2093C28.6689 29.2093 29.7264 27.9693 29.7264 26.7783C29.7264 26.2665 30.1413 25.8516 30.6531 25.8516C31.1649 25.8516 31.5799 26.2665 31.5799 26.7783C31.5799 29.2946 29.3624 31.0628 26.4583 31.0628C25.0054 31.0628 23.6531 30.6369 22.6412 29.9022C21.6303 29.1683 20.9043 28.0754 20.9043 26.7783C20.9043 26.2665 21.3192 25.8516 21.831 25.8516Z" fill="black"/>
</svg>
