<svg width="174" height="61" viewBox="0 0 174 61" fill="none" xmlns="http://www.w3.org/2000/svg">
<path d="M167.33 34.4C169.119 31.5 170.114 28 170.114 24.1C170.114 19.4 168.324 4 145.259 4H140.685C137.007 4 134.123 5 131.936 6.5C128.655 4.8 124.977 4 121.398 4C118.713 4 115.93 4.4 113.345 5.4C111.058 2.7 107.578 1 103.403 1H100.42C96.2444 1 92.7647 2.7 90.4781 5.5C87.4955 4.6 83.9163 4 79.5419 4H74.9685C72.8807 4 70.9917 4.3 69.401 4.9C67.9097 4.3 66.2196 4 64.6289 4H52.6984C49.1193 4 45.5402 4.7 42.2593 6.4C40.0721 4.8 37.3878 4 34.8028 4H22.8724C12.3339 4 1 10.5 1 28.9V44.2C1.09942 50.4 5.67274 57 15.4159 57C24.7614 57 29.3347 51 29.8318 45H33.3115C37.1889 53.6 45.0431 57 52.599 57H64.6289C66.2196 57 67.8103 56.7 69.401 56.1C71.0912 56.7 72.9801 57 75.068 57C77.454 57 79.4424 56.6 81.232 55.9C84.7117 58.6 88.7879 60 93.1624 60C93.7589 60 94.4549 60 95.0514 59.9L96.0456 59.8L97.0398 59.5C100.52 58.5 103.204 56.4 104.993 53.7C105.988 53.5 106.982 53.3 107.877 53C109.567 53.6 111.555 54 113.842 54C115.532 54 117.023 53.8 118.415 53.4C120.801 55.5 124.181 57 128.755 57C131.041 57 133.03 56.6 134.72 56C136.41 56.6 138.399 57 140.685 57C143.071 57 145.06 56.6 146.849 55.9C150.329 58.6 154.405 60 158.78 60C159.376 60 160.072 60 160.669 59.9L161.663 59.8L162.657 59.5C168.622 57.7 172.4 53 172.897 46.9C172.897 46.5 172.997 46 172.997 45.6C173.096 40.9 170.909 36.9 167.33 34.4Z" fill="white" stroke="black" stroke-width="0.6" stroke-miterlimit="10"/>
<path d="M19.7955 34.8564V43.8737C19.7955 45.8764 18.2981 46.8833 15.3089 46.8833C12.3475 46.8833 10.8501 45.9043 10.8223 43.9465V28.7703C10.839 18.7964 14.8246 13.8066 22.7902 13.8066H34.7582C36.751 13.8066 37.753 15.3114 37.753 18.3153C37.753 21.3192 36.7566 22.824 34.7582 22.824H22.8125V22.8967H22.7902C21.4042 22.8967 20.4968 23.8756 20.0794 25.8335H34.7582C36.751 25.8335 37.753 27.3382 37.753 30.3421C37.753 33.3461 36.7566 34.8508 34.7582 34.8508H19.7955V34.8564Z" fill="black"/>
<path d="M64.6723 13.8074C66.6651 13.8074 67.6671 15.3121 67.6671 18.316C67.6671 21.3199 66.6707 22.8247 64.6723 22.8247H52.7043C51.2848 22.7799 50.3719 23.7812 49.9712 25.8342H61.6831C63.6759 25.8342 64.6778 27.3389 64.6778 30.3429C64.6778 33.3468 63.6815 34.8515 61.6831 34.8515H49.9712C50.3775 36.8541 51.2904 37.861 52.7043 37.861H64.6723C66.6651 37.861 67.6671 39.3658 67.6671 42.3697C67.6671 45.3736 66.6707 46.8784 64.6723 46.8784H52.7043C44.7275 46.9231 40.7363 41.939 40.7363 31.9147V28.9052C40.7363 18.8362 44.7275 13.8018 52.7043 13.8018H64.6723V13.8074Z" fill="black"/>
<path d="M79.6373 37.0604V43.8738C79.6373 45.8764 78.1399 46.8833 75.1507 46.8833C72.1893 46.8833 70.6919 45.9043 70.6641 43.9465V16.7434C70.6975 14.8024 72.1726 13.8234 75.1061 13.8066H79.6428C89.618 13.8066 94.6056 17.1965 94.6056 23.9763C94.6056 28.8933 91.9949 32.0315 86.7735 33.3964C90.7758 38.705 93.5758 41.6082 95.1678 42.1117C96.9101 42.6599 97.7173 43.9353 97.5781 45.9379C97.4389 47.9405 96.3702 49.2439 94.3774 49.8368C90.8872 50.1501 87.8812 48.8523 85.3541 45.9379C83.0774 43.1521 81.1792 40.193 79.6373 37.0604ZM79.6373 21.4423V26.5383C83.6284 26.5383 85.6213 25.688 85.6213 23.9875C85.6213 22.2926 83.6229 21.4423 79.6373 21.4423Z" fill="black"/>
<path d="M97.5879 13.8083C97.5879 11.8057 98.5843 10.7988 100.583 10.7988H103.577C105.57 10.7988 106.572 11.8001 106.572 13.8083V16.8178C106.572 18.8204 105.576 19.8273 103.577 19.8273H100.583C98.5899 19.8273 97.5879 18.826 97.5879 16.8178V13.8083ZM106.561 40.8715C106.561 42.8741 105.064 43.881 102.074 43.881C99.1131 43.881 97.6157 42.9021 97.5879 40.9442V25.7625C97.6213 23.8046 99.1131 22.8257 102.074 22.8257C105.069 22.8257 106.561 23.827 106.561 25.8352V40.8715Z" fill="black"/>
<path d="M133.536 43.8737C133.536 45.8764 132.038 46.8833 129.049 46.8833C126.06 46.8833 124.562 45.8819 124.562 43.8737V37.8603H118.573V40.8698C118.573 42.8724 117.075 43.8793 114.086 43.8793C111.125 43.8793 109.627 42.9004 109.6 40.9425V28.843C109.6 18.8188 113.591 13.8066 121.568 13.8066C129.544 13.8066 133.536 18.8188 133.536 28.843V43.8737ZM118.573 28.843H124.557C124.557 24.8322 123.56 22.8296 121.562 22.8296C119.575 22.8296 118.573 24.8322 118.573 28.843Z" fill="#2CA6BC"/>
<path d="M145.502 37.0604V43.8738C145.502 45.8764 144.005 46.8833 141.016 46.8833C138.055 46.8833 136.557 45.9043 136.529 43.9465V16.7434C136.563 14.8024 138.038 13.8234 140.971 13.8066H145.508C155.483 13.8066 160.471 17.1965 160.471 23.9763C160.471 28.8933 157.86 32.0315 152.639 33.3964C156.641 38.705 159.441 41.6082 161.033 42.1117C162.775 42.6599 163.582 43.9353 163.443 45.9379C163.304 47.9405 162.235 49.2439 160.243 49.8368C156.752 50.1501 153.746 48.8523 151.219 45.9379C148.948 43.1521 147.044 40.193 145.502 37.0604ZM145.502 21.4423V26.5383C149.494 26.5383 151.486 25.688 151.486 23.9875C151.486 22.2926 149.494 21.4423 145.502 21.4423Z" fill="#2CA6BC"/>
</svg>
