<svg width="400" height="371" viewBox="0 0 400 371" fill="none" xmlns="http://www.w3.org/2000/svg">
<path d="M323.61 168.701C324.639 82.3779 255.429 11.5036 169.025 10.3988C82.6203 9.29397 11.7414 78.377 10.7122 164.7C9.68296 251.023 78.8932 321.898 165.298 323.002C251.702 324.107 322.581 255.024 323.61 168.701Z" fill="white" stroke="black" stroke-width="1.2" stroke-miterlimit="10"/>
<path d="M297.235 168.363C298.091 96.5914 240.547 37.6645 168.708 36.7459C96.8691 35.8273 37.9383 93.265 37.0826 165.036C36.2269 236.808 93.7703 295.735 165.609 296.653C237.448 297.572 296.379 240.134 297.235 168.363Z" fill="#FF20AC"/>
<path d="M99.166 159.681L141.969 222.025L241.844 111.364" stroke="white" stroke-width="30" stroke-linecap="round" stroke-linejoin="round"/>
<path d="M313.268 347.372C361.169 334.875 389.596 286.936 376.762 240.297C363.929 193.659 314.693 165.983 266.793 178.481C218.892 190.979 190.464 238.918 203.298 285.556C216.132 332.194 265.367 359.87 313.268 347.372Z" fill="white"/>
<path fill-rule="evenodd" clip-rule="evenodd" d="M266.986 179.173C219.478 191.568 191.283 239.114 204.012 285.369C216.74 331.625 265.572 359.074 313.08 346.679C360.588 334.283 388.782 286.737 376.053 240.482C363.325 194.226 314.494 166.777 266.986 179.173Z" stroke="black" stroke-width="1.5" stroke-miterlimit="10"/>
<path d="M309.138 328.536C345.755 318.983 367.485 282.337 357.675 246.686C347.864 211.035 310.228 189.879 273.611 199.432C236.995 208.986 215.264 245.631 225.075 281.283C234.885 316.934 272.522 338.09 309.138 328.536Z" fill="#FFE927"/>
<path d="M296.14 280.38C290.352 281.802 281.699 281.488 273.881 271.183C272.662 269.741 272.966 267.344 274.727 266.32C276.178 265.129 278.372 265.52 279.663 267.198C284.063 273.106 288.81 275.065 294.361 273.712C300.149 272.291 303.096 268.358 304.008 261.166C304.218 259.309 306.146 257.981 308.029 258.204C309.913 258.428 311.276 260.342 311.066 262.199C309.379 274.489 301.929 278.958 296.14 280.38Z" fill="black"/>
<path d="M264.014 259.849C262.702 254.849 257.541 251.81 252.486 253.06C247.431 254.311 244.396 259.378 245.707 264.378C247.019 269.378 252.18 272.417 257.235 271.166C262.29 269.916 265.325 264.849 264.014 259.849Z" fill="black"/>
<path d="M332.223 242.412C330.911 237.413 325.75 234.373 320.695 235.624C315.64 236.874 312.605 241.941 313.916 246.941C315.228 251.941 320.389 254.98 325.444 253.73C330.499 252.479 333.534 247.412 332.223 242.412Z" fill="black"/>
</svg>
