<svg width="400" height="370" viewBox="0 0 400 370" fill="none" xmlns="http://www.w3.org/2000/svg">
<path d="M322.798 168.637C323.824 82.3468 254.788 11.4998 168.6 10.3954C82.4127 9.29098 11.7116 78.3475 10.685 164.637C9.65841 250.927 78.695 321.774 164.882 322.879C251.07 323.983 321.771 254.927 322.798 168.637Z" fill="white" stroke="black" stroke-width="1.2" stroke-miterlimit="10"/>
<path d="M296.49 168.297C297.344 96.5536 239.945 37.6493 168.286 36.7311C96.6272 35.8129 37.8444 93.2284 36.9908 164.972C36.1373 236.716 93.5362 295.62 165.195 296.539C236.854 297.457 295.637 240.041 296.49 168.297Z" fill="#FF20AC"/>
<path d="M98.918 159.614L141.614 221.935L241.238 111.316" stroke="white" stroke-width="30" stroke-linecap="round" stroke-linejoin="round"/>
<path d="M313.294 346.5C360.686 334.006 388.812 286.082 376.114 239.459C363.417 192.836 314.704 165.168 267.312 177.662C219.919 190.156 191.793 238.08 204.491 284.703C217.189 331.327 265.901 358.994 313.294 346.5Z" fill="white"/>
<path fill-rule="evenodd" clip-rule="evenodd" d="M267.502 178.354C220.498 190.746 192.603 238.277 205.197 284.518C217.79 330.759 266.103 358.199 313.107 345.808C360.111 333.416 388.006 285.885 375.412 239.644C362.819 193.403 314.506 165.963 267.502 178.354ZM203.789 284.889C190.987 237.883 219.344 189.566 267.125 176.97C314.906 164.373 364.018 192.268 376.82 239.273C389.622 286.279 361.265 334.596 313.484 347.192C265.703 359.789 216.591 331.895 203.789 284.889Z" fill="black"/>
<path d="M309.207 327.671C345.435 318.12 366.935 281.486 357.228 245.846C347.522 210.207 310.285 189.057 274.057 198.608C237.829 208.158 216.329 244.792 226.036 280.432C235.742 316.072 272.979 337.222 309.207 327.671Z" fill="#FFE927"/>
<path d="M296.348 279.528C290.621 280.949 282.06 280.636 274.324 270.334C273.118 268.892 273.419 266.496 275.162 265.472C276.598 264.282 278.768 264.672 280.046 266.35C284.398 272.256 289.096 274.215 294.587 272.862C300.314 271.441 303.229 267.51 304.132 260.32C304.34 258.464 306.247 257.136 308.111 257.359C309.974 257.583 311.323 259.496 311.115 261.352C309.446 273.639 302.075 278.107 296.348 279.528Z" fill="black"/>
<path d="M337.603 243.268L337.612 243.28L337.622 243.292C338.253 244.082 338.035 245.262 337.084 245.829L337.058 245.845L337.034 245.863C336.187 246.52 334.996 246.292 334.454 245.404L334.447 245.392L334.438 245.381C333.021 243.329 331.43 241.898 329.658 241.104C327.879 240.306 325.959 240.169 323.923 240.637C321.883 241.106 320.266 242.071 319.049 243.578C317.842 245.074 317.054 247.072 316.603 249.573C316.358 250.64 315.367 251.348 314.386 251.152C313.308 250.937 312.611 249.993 312.826 249.034L312.828 249.026L312.83 249.017C313.604 244.896 315.234 242.16 317.132 240.335C319.033 238.506 321.231 237.564 323.178 237.081C325.116 236.6 327.526 236.461 330.04 237.276C332.547 238.088 335.197 239.861 337.603 243.268Z" fill="black" stroke="black"/>
<path d="M267.095 260.116L267.103 260.128L267.113 260.14C267.745 260.929 267.526 262.11 266.575 262.677L266.549 262.693L266.525 262.711C265.678 263.367 264.487 263.14 263.945 262.252L263.938 262.24L263.93 262.228C262.512 260.177 260.922 258.746 259.149 257.951C257.37 257.154 255.45 257.016 253.415 257.484C251.375 257.953 249.757 258.918 248.541 260.426C247.333 261.921 246.545 263.92 246.095 266.421C245.85 267.487 244.858 268.195 243.877 268C242.799 267.785 242.102 266.841 242.318 265.882L242.32 265.873L242.321 265.865C243.095 261.744 244.726 259.008 246.623 257.183C248.524 255.354 250.722 254.412 252.669 253.929C254.607 253.447 257.017 253.309 259.531 254.123C262.038 254.935 264.688 256.709 267.095 260.116Z" fill="black" stroke="black"/>
</svg>
