<svg width="50" height="50" viewBox="0 0 50 50" fill="none" xmlns="http://www.w3.org/2000/svg">
<path d="M14.5 32.5815V33.0815H15H19.5V49.0036C8.6279 46.4933 0.5 36.7371 0.5 25.0627C0.5 11.503 11.4773 0.5 25 0.5C38.5227 0.5 49.5 11.503 49.5 25.0627C49.5 37.6221 40.1069 47.9632 28 49.4416V33.0815H35H35.5V32.5815V25.0627V24.5627H35H28V20.0501C28 18.9466 28.9023 18.0439 30 18.0439H35H35.5V17.5439V10.0251V9.52506H35H28.75C23.6477 9.52506 19.5 13.6849 19.5 18.797V24.5627H15H14.5V25.0627V32.5815Z" fill="#FF20AC" stroke="black"/>
</svg>
