<svg width="50" height="50" viewBox="0 0 50 50" fill="none" xmlns="http://www.w3.org/2000/svg">
<path d="M0 16.7708C0 10.8386 0 7.87254 1.17278 5.61485C2.16106 3.71232 3.71232 2.16106 5.61485 1.17278C7.87254 0 10.8386 0 16.7708 0H33.2292C39.1614 0 42.1275 0 44.3852 1.17278C46.2877 2.16106 47.8389 3.71232 48.8272 5.61485C50 7.87254 50 10.8386 50 16.7708V33.2292C50 39.1614 50 42.1275 48.8272 44.3852C47.8389 46.2877 46.2877 47.8389 44.3852 48.8272C42.1275 50 39.1614 50 33.2292 50H16.7708C10.8386 50 7.87254 50 5.61485 48.8272C3.71232 47.8389 2.16106 46.2877 1.17278 44.3852C0 42.1275 0 39.1614 0 33.2292V16.7708Z" fill="#FF20AC"/>
<path fill-rule="evenodd" clip-rule="evenodd" d="M33.2292 0.746269H16.7708C13.7922 0.746269 11.6039 0.746868 9.87666 0.890306C8.15839 1.033 6.96343 1.31319 5.95886 1.83503C4.19263 2.75251 2.75251 4.19263 1.83503 5.95886C1.31319 6.96343 1.033 8.15839 0.890306 9.87666C0.746868 11.6039 0.746269 13.7922 0.746269 16.7708V33.2292C0.746269 36.2078 0.746868 38.3961 0.890306 40.1233C1.033 41.8416 1.31319 43.0366 1.83503 44.0411C2.75251 45.8074 4.19263 47.2475 5.95886 48.165C6.96343 48.6868 8.15839 48.967 9.87666 49.1097C11.6039 49.2531 13.7922 49.2537 16.7708 49.2537H33.2292C36.2078 49.2537 38.3961 49.2531 40.1233 49.1097C41.8416 48.967 43.0366 48.6868 44.0411 48.165C45.8074 47.2475 47.2475 45.8074 48.165 44.0411C48.6868 43.0366 48.967 41.8416 49.1097 40.1233C49.2531 38.3961 49.2537 36.2078 49.2537 33.2292V16.7708C49.2537 13.7922 49.2531 11.6039 49.1097 9.87666C48.967 8.15839 48.6868 6.96343 48.165 5.95886C47.2475 4.19263 45.8074 2.75251 44.0411 1.83503C43.0366 1.31319 41.8416 1.033 40.1233 0.890306C38.3961 0.746868 36.2078 0.746269 33.2292 0.746269ZM1.17278 5.61485C0 7.87254 0 10.8386 0 16.7708V33.2292C0 39.1614 0 42.1275 1.17278 44.3852C2.16106 46.2877 3.71232 47.8389 5.61485 48.8272C7.87254 50 10.8386 50 16.7708 50H33.2292C39.1614 50 42.1275 50 44.3852 48.8272C46.2877 47.8389 47.8389 46.2877 48.8272 44.3852C50 42.1275 50 39.1614 50 33.2292V16.7708C50 10.8386 50 7.87254 48.8272 5.61485C47.8389 3.71232 46.2877 2.16106 44.3852 1.17278C42.1275 0 39.1614 0 33.2292 0H16.7708C10.8386 0 7.87254 0 5.61485 1.17278C3.71232 2.16106 2.16106 3.71232 1.17278 5.61485Z" fill="black"/>
<path d="M31.37 17.4552C29.6427 15.8037 27.4457 14.9628 24.9987 14.9628C20.6578 14.9628 16.9836 17.8946 15.673 21.834C15.3396 22.834 15.1502 23.9022 15.1502 25.0007C15.1502 26.0992 15.3396 27.1673 15.6729 28.1673C16.9835 32.1067 20.6578 35.0385 24.9987 35.0385C27.2412 35.0385 29.1503 34.4476 30.6427 33.4476C32.4078 32.2658 33.5821 30.5007 33.9684 28.4174H24.9987V21.9704H40.6957C40.8927 23.0613 40.9987 24.1977 40.9987 25.3795C40.9987 30.4553 39.1806 34.728 36.029 37.6295C33.2715 40.1749 29.4987 41.6673 24.9987 41.6673C18.4836 41.6673 12.8472 37.9325 10.1048 32.4855C8.976 30.2355 8.33203 27.6901 8.33203 25.0007C8.33203 22.3113 8.97597 19.7658 10.1048 17.5158C12.8472 12.0689 18.4836 8.33398 24.9987 8.33398C29.4912 8.33398 33.2639 9.9855 36.1503 12.6749L31.37 17.4552Z" fill="white"/>
<path fill-rule="evenodd" clip-rule="evenodd" d="M33.7926 29.1636C33.2874 30.9218 32.1929 32.4097 30.6427 33.4476C29.1503 34.4476 27.2412 35.0385 24.9987 35.0385C20.6578 35.0385 16.9835 32.1067 15.6729 28.1673C15.3396 27.1673 15.1502 26.0992 15.1502 25.0007C15.1502 23.9022 15.3396 22.834 15.673 21.834C16.9836 17.8946 20.6578 14.9628 24.9987 14.9628C27.4457 14.9628 29.6427 15.8037 31.37 17.4552L36.1503 12.6749C35.9678 12.5049 35.7818 12.339 35.5923 12.1775C32.784 9.7833 29.2072 8.33398 24.9987 8.33398C18.4836 8.33398 12.8472 12.0689 10.1048 17.5158C8.97597 19.7658 8.33203 22.3113 8.33203 25.0007C8.33203 27.6901 8.976 30.2355 10.1048 32.4855C12.8472 37.9325 18.4836 41.6673 24.9987 41.6673C29.4987 41.6673 33.2715 40.1749 36.029 37.6295C39.1806 34.728 40.9987 30.4553 40.9987 25.3795C40.9987 24.1977 40.8927 23.0613 40.6957 21.9704H24.9987V28.4174H33.9684C33.9214 28.671 33.8627 28.9199 33.7926 29.1636ZM25.745 27.6711H34.8658L34.7022 28.5535C34.2786 30.8373 32.9876 32.7756 31.0581 34.0676C29.431 35.1578 27.3742 35.7848 24.9987 35.7848C20.3107 35.7848 16.3685 32.6221 14.9648 28.4029C14.6081 27.3325 14.404 26.1849 14.404 25.0007C14.404 23.8163 14.6081 22.6685 14.965 21.598C16.3688 17.379 20.3109 14.2165 24.9987 14.2165C27.3775 14.2165 29.5574 14.9601 31.3395 16.4303L35.0629 12.7069C32.3916 10.4465 29.0004 9.08025 24.9987 9.08025C18.7765 9.08025 13.3922 12.6462 10.7715 17.851C9.69318 20.0007 9.0783 22.4317 9.0783 25.0007C9.0783 27.5697 9.69321 30.0007 10.7715 32.1503C13.3923 37.3551 18.7766 40.921 24.9987 40.921C29.3276 40.921 32.9148 39.4885 35.5229 37.0812L35.5236 37.0805C38.5033 34.3371 40.2525 30.2729 40.2525 25.3795C40.2525 24.4628 40.1862 23.5752 40.0613 22.7167H25.745V27.6711Z" fill="black"/>
</svg>
