<svg width="502" height="476" viewBox="0 0 502 476" fill="none" xmlns="http://www.w3.org/2000/svg">
<path d="M405.268 216.596C406.554 105.818 320.071 14.866 212.102 13.4482C104.133 12.0304 15.5639 100.684 14.2778 211.462C12.9918 322.239 99.4754 413.191 207.444 414.609C315.413 416.027 403.982 327.373 405.268 216.596Z" fill="white" stroke="black" stroke-width="1.2" stroke-miterlimit="10"/>
<path d="M372.311 216.162C373.381 124.058 301.476 48.4377 211.707 47.2589C121.939 46.0801 48.3003 119.789 47.231 211.893C46.1617 303.996 118.067 379.617 207.835 380.796C297.604 381.974 371.242 308.265 372.311 216.162Z" fill="#FF20AC"/>
<path d="M124.809 205.014L178.295 285.02L303.096 143.01" stroke="white" stroke-width="30" stroke-linecap="round" stroke-linejoin="round"/>
<path d="M393.362 444.935C452.732 428.896 487.966 367.372 472.059 307.517C456.153 247.663 395.129 212.144 335.76 228.184C276.39 244.223 241.157 305.747 257.063 365.601C272.97 425.456 333.993 460.975 393.362 444.935Z" fill="white"/>
<path fill-rule="evenodd" clip-rule="evenodd" d="M335.999 229.072C277.116 244.98 242.171 305.999 257.947 365.363C273.723 424.726 334.246 459.954 393.129 444.046C452.012 428.138 486.956 367.118 471.18 307.755C455.404 248.392 394.881 213.164 335.999 229.072ZM256.184 365.839C240.147 305.494 275.67 243.465 335.526 227.294C395.383 211.123 456.907 246.933 472.944 307.279C488.981 367.624 453.458 429.652 393.601 445.823C333.745 461.994 272.221 426.184 256.184 365.839Z" fill="black"/>
<path d="M388.244 420.763C433.627 408.502 460.561 361.472 448.401 315.718C436.242 269.964 389.594 242.812 344.211 255.073C298.828 267.334 271.894 314.364 284.053 360.118C296.213 405.872 342.86 433.024 388.244 420.763Z" fill="#FFE927"/>
<path d="M372.135 358.957C364.96 360.781 354.236 360.379 344.545 347.154C343.035 345.303 343.412 342.226 345.595 340.912C347.393 339.385 350.112 339.886 351.712 342.039C357.165 349.622 363.05 352.136 369.929 350.4C377.104 348.575 380.755 343.528 381.886 334.298C382.147 331.915 384.536 330.21 386.87 330.497C389.205 330.784 390.894 333.24 390.634 335.623C388.543 351.397 379.309 357.132 372.135 358.957Z" fill="black"/>
<path d="M423.923 312.335L423.932 312.347L423.941 312.359C424.793 313.449 424.484 315.054 423.239 315.814L423.213 315.83L423.189 315.849C422.074 316.735 420.485 316.436 419.759 315.216L419.752 315.204L419.744 315.192C417.98 312.575 416.006 310.759 413.815 309.753C411.619 308.743 409.243 308.567 406.717 309.162C404.186 309.759 402.185 310.984 400.679 312.895C399.182 314.794 398.201 317.339 397.639 320.537C397.322 321.962 396.025 322.931 394.713 322.662C393.3 322.373 392.359 321.094 392.649 319.773L392.651 319.764L392.652 319.756C393.626 314.442 395.68 310.905 398.077 308.542C400.477 306.176 403.251 304.958 405.706 304.333C408.151 303.711 411.197 303.531 414.375 304.586C417.548 305.64 420.892 307.937 423.923 312.335Z" fill="black" stroke="black"/>
<path d="M335.595 333.963L335.604 333.975L335.613 333.987C336.465 335.077 336.155 336.682 334.911 337.442L334.885 337.458L334.861 337.477C333.746 338.363 332.157 338.064 331.431 336.844L331.424 336.832L331.416 336.82C329.651 334.203 327.678 332.387 325.487 331.381C323.29 330.371 320.915 330.195 318.389 330.79C315.858 331.387 313.857 332.612 312.351 334.523C310.854 336.422 309.873 338.966 309.311 342.165C308.994 343.59 307.697 344.559 306.385 344.29C304.972 344.001 304.031 342.722 304.321 341.401L304.322 341.392L304.324 341.384C305.298 336.07 307.352 332.533 309.749 330.17C312.149 327.804 314.923 326.586 317.378 325.961C319.823 325.339 322.868 325.159 326.047 326.214C329.22 327.268 332.564 329.565 335.595 333.963Z" fill="black" stroke="black"/>
</svg>
