<svg width="50" height="50" viewBox="0 0 50 50" fill="none" xmlns="http://www.w3.org/2000/svg">
<mask id="path-1-inside-1_1725_1849" fill="white">
<path fill-rule="evenodd" clip-rule="evenodd" d="M35.3019 0.151042C32.6358 0.0297113 31.7865 1.14015e-05 24.9984 0C18.2123 1.14015e-05 17.36 0.0297113 14.6939 0.151042C12.0324 0.272917 10.2157 0.694271 8.62612 1.3125C6.98184 1.95104 5.58703 2.80521 4.19744 4.19531C2.80681 5.5849 1.95263 6.97969 1.312 8.62344C0.692201 10.2135 0.270314 12.0307 0.150521 14.6911C0.0312494 17.3578 0 18.2104 0 25C0 31.7896 0.0302114 32.6391 0.151046 35.3057C0.273442 37.9672 0.694809 39.7839 1.31252 41.3734C1.95159 43.0177 2.80577 44.4125 4.19588 45.8021C5.58496 47.1927 6.97975 48.049 8.62299 48.6875C10.2136 49.3057 12.0308 49.7271 14.6918 49.849C17.3585 49.9703 18.21 50 24.9992 50C31.7893 50 32.6389 49.9703 35.3056 49.849C37.9671 49.7271 39.7859 49.3057 41.3765 48.6875C43.0203 48.049 44.413 47.1927 45.8021 45.8021C47.1927 44.4125 48.0468 43.0177 48.6875 41.374C49.3021 39.7839 49.724 37.9667 49.849 35.3062C49.9687 32.6396 50 31.7896 50 25C50 18.2104 49.9687 17.3583 49.849 14.6917C49.724 12.0302 49.3021 10.2135 48.6875 8.62396C48.0468 6.97969 47.1927 5.5849 45.8021 4.19531C44.4114 2.80469 43.0208 1.95052 41.3749 1.3125C39.7812 0.694271 37.9634 0.272917 35.3019 0.151042ZM35.6162 12.3123C35.6162 10.4954 37.0897 9.02344 38.9058 9.02344C40.7219 9.02344 42.1953 10.4959 42.1953 12.3123C42.1953 14.1286 40.7219 15.6022 38.9058 15.6022C37.0897 15.6022 35.6162 14.1286 35.6162 12.3123ZM10.1953 26.9469C10.1953 19.1715 16.4986 12.8674 24.273 12.8674C32.0474 12.8674 38.3484 19.1715 38.3484 26.9469C38.3484 34.7223 32.0474 41.0234 24.273 41.0234C16.4986 41.0234 10.1953 34.7223 10.1953 26.9469ZM33.4106 26.9469C33.4106 21.8994 29.3192 17.8081 24.273 17.8081C19.2262 17.8081 15.1353 21.8994 15.1353 26.9469C15.1353 31.9938 19.2262 36.0856 24.273 36.0856C29.3192 36.0856 33.4106 31.9938 33.4106 26.9469Z"/>
</mask>
<path fill-rule="evenodd" clip-rule="evenodd" d="M35.3019 0.151042C32.6358 0.0297113 31.7865 1.14015e-05 24.9984 0C18.2123 1.14015e-05 17.36 0.0297113 14.6939 0.151042C12.0324 0.272917 10.2157 0.694271 8.62612 1.3125C6.98184 1.95104 5.58703 2.80521 4.19744 4.19531C2.80681 5.5849 1.95263 6.97969 1.312 8.62344C0.692201 10.2135 0.270314 12.0307 0.150521 14.6911C0.0312494 17.3578 0 18.2104 0 25C0 31.7896 0.0302114 32.6391 0.151046 35.3057C0.273442 37.9672 0.694809 39.7839 1.31252 41.3734C1.95159 43.0177 2.80577 44.4125 4.19588 45.8021C5.58496 47.1927 6.97975 48.049 8.62299 48.6875C10.2136 49.3057 12.0308 49.7271 14.6918 49.849C17.3585 49.9703 18.21 50 24.9992 50C31.7893 50 32.6389 49.9703 35.3056 49.849C37.9671 49.7271 39.7859 49.3057 41.3765 48.6875C43.0203 48.049 44.413 47.1927 45.8021 45.8021C47.1927 44.4125 48.0468 43.0177 48.6875 41.374C49.3021 39.7839 49.724 37.9667 49.849 35.3062C49.9687 32.6396 50 31.7896 50 25C50 18.2104 49.9687 17.3583 49.849 14.6917C49.724 12.0302 49.3021 10.2135 48.6875 8.62396C48.0468 6.97969 47.1927 5.5849 45.8021 4.19531C44.4114 2.80469 43.0208 1.95052 41.3749 1.3125C39.7812 0.694271 37.9634 0.272917 35.3019 0.151042ZM35.6162 12.3123C35.6162 10.4954 37.0897 9.02344 38.9058 9.02344C40.7219 9.02344 42.1953 10.4959 42.1953 12.3123C42.1953 14.1286 40.7219 15.6022 38.9058 15.6022C37.0897 15.6022 35.6162 14.1286 35.6162 12.3123ZM10.1953 26.9469C10.1953 19.1715 16.4986 12.8674 24.273 12.8674C32.0474 12.8674 38.3484 19.1715 38.3484 26.9469C38.3484 34.7223 32.0474 41.0234 24.273 41.0234C16.4986 41.0234 10.1953 34.7223 10.1953 26.9469ZM33.4106 26.9469C33.4106 21.8994 29.3192 17.8081 24.273 17.8081C19.2262 17.8081 15.1353 21.8994 15.1353 26.9469C15.1353 31.9938 19.2262 36.0856 24.273 36.0856C29.3192 36.0856 33.4106 31.9938 33.4106 26.9469Z" fill="#FF20AC"/>
<path d="M24.9984 0L24.9984 -0.8L24.9984 -0.8L24.9984 0ZM35.3019 0.151042L35.3385 -0.64812L35.3383 -0.648131L35.3019 0.151042ZM14.6939 0.151042L14.6575 -0.648131L14.6573 -0.64812L14.6939 0.151042ZM8.62612 1.3125L8.91573 2.05824L8.9161 2.0581L8.62612 1.3125ZM4.19744 4.19531L4.76291 4.76121L4.76323 4.76089L4.19744 4.19531ZM1.312 8.62344L2.05738 8.91397L2.05739 8.91394L1.312 8.62344ZM0.150521 14.6911L-0.648669 14.6552L-0.64868 14.6554L0.150521 14.6911ZM0.151046 35.3057L-0.648135 35.3419L-0.64811 35.3425L0.151046 35.3057ZM1.31252 41.3734L0.566845 41.6632L0.566861 41.6632L1.31252 41.3734ZM4.19588 45.8021L4.76188 45.2367L4.76146 45.2363L4.19588 45.8021ZM8.62299 48.6875L8.91281 47.9418L8.91275 47.9418L8.62299 48.6875ZM14.6918 49.849L14.6552 50.6481L14.6554 50.6481L14.6918 49.849ZM35.3056 49.849L35.342 50.6481L35.3422 50.6481L35.3056 49.849ZM41.3765 48.6875L41.0868 47.9418L41.0867 47.9418L41.3765 48.6875ZM45.8021 45.8021L45.2366 45.2362L45.2361 45.2367L45.8021 45.8021ZM48.6875 41.374L49.4329 41.6645L49.4337 41.6624L48.6875 41.374ZM49.849 35.3062L50.6481 35.3438L50.6482 35.3421L49.849 35.3062ZM49.849 14.6917L50.6482 14.6558L50.6481 14.6541L49.849 14.6917ZM48.6875 8.62396L49.4336 8.33546L49.4329 8.33353L48.6875 8.62396ZM45.8021 4.19531L45.2364 4.761L45.2366 4.76121L45.8021 4.19531ZM41.3749 1.3125L41.0856 2.05835L41.0858 2.05841L41.3749 1.3125ZM24.9984 0.8C31.7824 0.800011 32.6175 0.829707 35.2656 0.950215L35.3383 -0.648131C32.6541 -0.770284 31.7907 -0.799989 24.9984 -0.8L24.9984 0.8ZM14.7302 0.950215C17.3783 0.829707 18.2165 0.800011 24.9984 0.8L24.9984 -0.8C18.2082 -0.799989 17.3418 -0.770285 14.6575 -0.648131L14.7302 0.950215ZM8.9161 2.0581C10.4147 1.47525 12.1444 1.06863 14.7305 0.950205L14.6573 -0.64812C11.9204 -0.522791 10.0167 -0.0867037 8.33614 0.566905L8.9161 2.0581ZM4.76323 4.76089C6.06861 3.45503 7.36729 2.65956 8.91573 2.05824L8.33652 0.566758C6.59639 1.24252 5.10546 2.15539 3.63165 3.62973L4.76323 4.76089ZM2.05739 8.91394C2.66092 7.36538 3.45659 6.06655 4.76291 4.76121L3.63197 3.62941C2.15702 5.10325 1.24434 6.59399 0.566607 8.33293L2.05739 8.91394ZM0.949711 14.7271C1.06609 12.1426 1.47315 10.4128 2.05738 8.91397L0.566619 8.3329C-0.0887496 10.0143 -0.525459 11.9188 -0.648669 14.6552L0.949711 14.7271ZM0.8 25C0.8 18.215 0.831233 17.3761 0.949722 14.7269L-0.64868 14.6554C-0.768734 17.3396 -0.8 18.2058 -0.8 25H0.8ZM0.950226 35.2695C0.830203 32.6208 0.8 31.7853 0.8 25H-0.8C-0.8 31.7939 -0.76978 32.6574 -0.648134 35.3419L0.950226 35.2695ZM2.0582 41.0837C1.47578 39.5849 1.06913 37.8551 0.950201 35.269L-0.64811 35.3425C-0.522248 38.0793 -0.0861575 39.9828 0.566845 41.6632L2.0582 41.0837ZM4.76146 45.2363C3.45559 43.9309 2.66006 42.6322 2.05818 41.0836L0.566861 41.6632C1.24312 43.4032 2.15595 44.8941 3.63031 46.3679L4.76146 45.2363ZM8.91275 47.9418C7.36581 47.3407 6.06704 46.5433 4.76188 45.2367L3.62988 46.3675C5.10287 47.8421 6.59369 48.7572 8.33323 49.4332L8.91275 47.9418ZM14.7284 49.0498C12.1429 48.9314 10.4126 48.5248 8.91281 47.9418L8.33318 49.4332C10.0147 50.0867 11.9188 50.5228 14.6552 50.6481L14.7284 49.0498ZM24.9992 49.2C18.2142 49.2 17.3768 49.1703 14.7282 49.0498L14.6554 50.6481C17.3402 50.7703 18.2059 50.8 24.9992 50.8V49.2ZM35.2692 49.0498C32.6206 49.1703 31.7852 49.2 24.9992 49.2V50.8C31.7935 50.8 32.6572 50.7703 35.342 50.6481L35.2692 49.0498ZM41.0867 47.9418C39.587 48.5247 37.8551 48.9314 35.269 49.0498L35.3422 50.6481C38.079 50.5228 39.9847 50.0867 41.6663 49.4332L41.0867 47.9418ZM45.2361 45.2367C43.9307 46.5436 42.6339 47.3408 41.0868 47.9418L41.6662 49.4332C43.4066 48.7571 44.8953 47.8419 46.3681 46.3675L45.2361 45.2367ZM47.9421 41.0835C47.3386 42.632 46.5429 43.9309 45.2366 45.2362L46.3675 46.368C47.8425 44.8941 48.7551 43.4034 49.4329 41.6645L47.9421 41.0835ZM49.0498 35.2687C48.9284 37.854 48.5212 39.5852 47.9413 41.0855L49.4337 41.6624C50.083 39.9825 50.5195 38.0793 50.6481 35.3438L49.0498 35.2687ZM49.2 25C49.2 31.785 49.1688 32.6213 49.0498 35.2703L50.6482 35.3421C50.7687 32.6579 50.8 31.7941 50.8 25H49.2ZM49.0498 14.7276C49.1688 17.3766 49.2 18.215 49.2 25H50.8C50.8 18.2059 50.7687 17.34 50.6482 14.6558L49.0498 14.7276ZM47.9413 8.91245C48.5212 10.4122 48.9284 12.1429 49.0498 14.7292L50.6481 14.6541C50.5195 11.9176 50.083 10.0148 49.4336 8.33546L47.9413 8.91245ZM45.2366 4.76121C46.5429 6.06653 47.3385 7.36534 47.9421 8.91438L49.4329 8.33353C48.7552 6.59403 47.8425 5.10326 46.3675 3.62941L45.2366 4.76121ZM41.0858 2.05841C42.6348 2.65889 43.9294 3.45405 45.2364 4.761L46.3677 3.62962C44.8934 2.15532 43.4068 1.24215 41.6641 0.566586L41.0858 2.05841ZM35.2653 0.950205C37.8513 1.06862 39.5824 1.47523 41.0856 2.05835L41.6643 0.566649C39.98 -0.0866876 38.0755 -0.522787 35.3385 -0.64812L35.2653 0.950205ZM38.9058 8.22344C36.6482 8.22344 34.8162 10.0532 34.8162 12.3123H36.4162C36.4162 10.9375 37.5311 9.82344 38.9058 9.82344V8.22344ZM42.9953 12.3123C42.9953 10.0538 41.1634 8.22344 38.9058 8.22344V9.82344C40.2803 9.82344 41.3953 10.938 41.3953 12.3123H42.9953ZM38.9058 16.4022C41.1638 16.4022 42.9953 14.5703 42.9953 12.3123H41.3953C41.3953 13.6869 40.2799 14.8022 38.9058 14.8022V16.4022ZM34.8162 12.3123C34.8162 14.5703 36.6477 16.4022 38.9058 16.4022V14.8022C37.5316 14.8022 36.4162 13.6869 36.4162 12.3123H34.8162ZM24.273 12.0674C16.0566 12.0674 9.39531 18.7297 9.39531 26.9469H10.9953C10.9953 19.6132 16.9405 13.6674 24.273 13.6674V12.0674ZM39.1484 26.9469C39.1484 18.7299 32.4895 12.0674 24.273 12.0674V13.6674C31.6053 13.6674 37.5484 19.613 37.5484 26.9469H39.1484ZM24.273 41.8234C32.4893 41.8234 39.1484 35.164 39.1484 26.9469H37.5484C37.5484 34.2805 31.6055 40.2234 24.273 40.2234V41.8234ZM9.39531 26.9469C9.39531 35.1642 16.0569 41.8234 24.273 41.8234V40.2234C16.9403 40.2234 10.9953 34.2803 10.9953 26.9469H9.39531ZM24.273 18.6081C28.8774 18.6081 32.6106 22.3412 32.6106 26.9469H34.2106C34.2106 21.4576 29.7611 17.0081 24.273 17.0081V18.6081ZM15.9353 26.9469C15.9353 22.3411 19.6681 18.6081 24.273 18.6081V17.0081C18.7842 17.0081 14.3353 21.4577 14.3353 26.9469H15.9353ZM24.273 35.2856C19.6681 35.2856 15.9353 31.5521 15.9353 26.9469H14.3353C14.3353 32.4355 18.7842 36.8856 24.273 36.8856V35.2856ZM32.6106 26.9469C32.6106 31.552 28.8773 35.2856 24.273 35.2856V36.8856C29.7612 36.8856 34.2106 32.4355 34.2106 26.9469H32.6106Z" fill="black" mask="url(#path-1-inside-1_1725_1849)"/>
</svg>
