<svg width="196" height="133" viewBox="0 0 196 133" fill="none" xmlns="http://www.w3.org/2000/svg">
<path d="M112.636 13.9821C104.2 8.29879 94.2043 6.30083 84.2063 8.19531C75.6714 9.81255 68.1652 14.1225 62.5925 20.577C55.0207 16.7387 46.5545 15.4554 38.0197 17.0726C28.1436 18.944 19.5079 24.5978 13.7768 32.84C8.06914 41.2033 6.07687 51.1225 8.00544 61.0519C9.934 70.9814 15.6231 79.445 23.937 85.1514L74.3596 118.911C76.6867 120.479 79.4353 120.962 82.1177 120.454C84.8001 119.946 87.1489 118.371 88.7469 116.185L119.647 70.9076L122.894 66.1492C134.483 49.0132 129.944 25.6426 112.636 13.9821Z" fill="white"/>
<path d="M74.3483 118.932L74.3548 118.936C76.5857 120.539 79.338 121.097 82.1392 120.566C84.8127 120.06 87.1693 118.537 88.7686 116.194L122.916 66.1585L122.918 66.155C128.67 57.8811 130.71 47.8338 128.783 37.9127C126.86 28.0131 120.735 19.8311 112.391 14.21L112.388 14.2076C104.061 8.49437 93.4555 7.04405 83.4375 8.94233C74.993 10.5424 68.5566 13.7751 62.922 20.0387L62.6688 20.3202L62.328 20.1513C54.762 16.3995 46.26 16.0637 37.9165 17.6447C27.9039 19.542 19.5718 24.301 13.852 32.6822L13.8496 32.6857L13.8496 32.6857C8.09823 40.9596 6.05778 51.0069 7.98472 60.928C9.91146 70.848 15.5712 79.4381 24.0411 85.1445L74.3483 118.932ZM74.3483 118.932L74.3417 118.927L24.0417 85.1449L74.3483 118.932Z" stroke="black"/>
<path d="M106.954 22.468C94.3003 13.9431 77.2306 17.1775 68.6692 29.7225L65.4218 34.4809L60.7675 31.3453C48.1137 22.8203 31.044 26.0548 22.4826 38.5997C13.9212 51.1447 17.2138 68.0974 29.8676 76.6223L80.1682 110.405L111.068 65.1279L114.316 60.3695C122.779 47.9688 119.462 30.8949 106.954 22.468Z" fill="#FF20AC"/>
<path d="M74.1461 79.405C64.514 81.2302 56.5528 77.3402 50.2628 67.735C49.7088 66.8355 50.0084 65.7744 50.7678 65.1283C51.6726 64.5802 52.7421 64.8798 53.3945 65.635C58.7927 73.9026 65.3699 77.176 73.4171 75.6512C81.4642 74.1264 86.3481 68.6812 88.2419 58.9063C88.4195 57.8683 89.4463 57.2971 90.4923 57.4755C91.5383 57.654 92.1157 58.6745 91.9381 59.7125C89.8152 70.9118 83.7783 77.5798 74.1461 79.405Z" fill="black"/>
<path d="M61.0152 54.2842C60.6352 51.7239 58.2371 49.95 55.659 50.3221C53.0809 50.6942 51.299 53.0714 51.679 55.6317C52.0591 58.192 54.4572 59.9659 57.0353 59.5938C59.6134 59.2217 61.3953 56.8445 61.0152 54.2842Z" fill="black"/>
<path d="M177.271 70.0689C186.2 49.9678 177.019 26.4913 156.765 17.6326C136.51 8.77387 112.852 17.8876 103.923 37.9886C94.9942 58.0897 104.175 81.5662 124.43 90.4249C144.685 99.2836 168.342 90.1699 177.271 70.0689Z" fill="white" stroke="black" stroke-miterlimit="10"/>
<path d="M171.094 67.3648C178.518 50.6522 170.884 31.1332 154.044 23.7678C137.204 16.4024 117.534 23.9798 110.11 40.6923C102.686 57.4049 110.32 76.924 127.16 84.2893C144 91.6547 163.67 84.0774 171.094 67.3648Z" fill="#92DDEA"/>
<path d="M133.41 52.4643C133.269 56.4462 134.818 59.1405 137.825 60.4386C140.946 61.7342 143.91 61.1008 146.827 58.3085" fill="#7FCDE5"/>
<path d="M137.174 61.9296C134.631 60.8487 131.593 58.1873 131.808 52.3853C131.788 51.4764 132.574 50.7771 133.493 50.8706C134.409 50.8505 135.113 51.6307 135.019 52.5422C134.863 55.8421 136.056 57.9757 138.485 59.0591C140.915 60.1425 143.192 59.5241 145.66 57.1965C146.335 56.6133 147.365 56.5907 147.953 57.2599C148.54 57.929 148.563 58.9515 147.889 59.5347C143.624 63.4931 139.718 63.0105 137.174 61.9296Z" fill="black"/>
<path d="M131.772 45.6602C132.741 43.4777 131.744 40.9287 129.545 39.9669C127.346 39.0051 124.778 39.9947 123.808 42.1772C122.839 44.3597 123.835 46.9086 126.035 47.8704C128.234 48.8322 130.802 47.8427 131.772 45.6602Z" fill="black"/>
<path d="M161.438 58.7559C162.407 56.5734 161.41 54.0244 159.211 53.0626C157.012 52.1008 154.444 53.0903 153.474 55.2728C152.505 57.4553 153.501 60.0043 155.701 60.9661C157.9 61.9279 160.468 60.9384 161.438 58.7559Z" fill="black"/>
<path d="M171.096 67.9751C178.519 51.2626 170.886 31.7435 154.046 24.3781C137.206 17.0127 117.536 24.5901 110.112 41.3027C102.688 58.0153 110.322 77.5343 127.162 84.8997C144.002 92.2651 163.672 84.6877 171.096 67.9751Z" fill="#92DDEA"/>
<path d="M137.182 62.54C134.638 61.4591 131.601 58.7976 131.816 52.9956C131.796 52.0867 132.582 51.3874 133.501 51.4809C134.417 51.4608 135.121 52.2411 135.027 53.1525C134.871 56.4524 136.064 58.586 138.493 59.6694C140.923 60.7528 143.2 60.1345 145.668 57.8069C146.343 57.2237 147.373 57.2011 147.961 57.8702C148.548 58.5393 148.571 59.5619 147.896 60.1451C143.632 64.1035 139.726 63.6209 137.182 62.54Z" fill="black"/>
<path d="M162.454 59.7823L162.454 59.7973L162.454 59.8123C162.46 60.0899 162.214 60.3403 161.872 60.3061L161.841 60.3031L161.811 60.3038C161.495 60.3107 161.263 60.0521 161.294 59.7509L161.296 59.7368L161.297 59.7226C161.352 58.5673 161.171 57.571 160.724 56.7537C160.273 55.93 159.575 55.3275 158.671 54.9307C157.762 54.5321 156.857 54.4391 155.944 54.6752C155.047 54.9075 154.181 55.4479 153.318 56.2474C153.031 56.486 152.661 56.4476 152.483 56.2481C152.239 55.9746 152.277 55.6275 152.477 55.4568L152.484 55.4511L152.491 55.4452C153.856 54.1968 155.136 53.6725 156.25 53.5286C157.37 53.384 158.363 53.6182 159.159 53.9508C159.945 54.2798 160.799 54.8454 161.438 55.7606C162.075 56.6707 162.524 57.9601 162.454 59.7823Z" fill="black" stroke="black"/>
<path d="M132.65 47.0069L132.649 47.0219L132.649 47.037C132.656 47.3145 132.409 47.5649 132.067 47.5307L132.037 47.5277L132.006 47.5284C131.69 47.5353 131.458 47.2767 131.49 46.9755L131.491 46.9614L131.492 46.9472C131.548 45.7919 131.366 44.7956 130.919 43.9783C130.469 43.1546 129.77 42.5521 128.866 42.1553C127.958 41.7567 127.052 41.6637 126.14 41.8998C125.242 42.1321 124.376 42.6726 123.513 43.472C123.227 43.7106 122.856 43.6722 122.678 43.4727C122.434 43.1992 122.472 42.8521 122.673 42.6814L122.679 42.6757L122.686 42.6698C124.052 41.4214 125.331 40.8971 126.446 40.7532C127.565 40.6086 128.558 40.8429 129.354 41.1754C130.141 41.5044 130.994 42.07 131.634 42.9852C132.27 43.8953 132.719 45.1847 132.65 47.0069Z" fill="black" stroke="black"/>
<path d="M74.3545 52.5643C73.7547 50.5114 76.0249 48.0574 79.4252 47.083C82.8255 46.1086 86.0682 46.9829 86.668 49.0357C87.2678 51.0886 83.5631 48.8319 80.1628 49.8063C76.7625 50.7807 74.9544 54.6172 74.3545 52.5643Z" fill="black"/>
</svg>
