<svg width="667" height="532" viewBox="0 0 667 532" fill="none" xmlns="http://www.w3.org/2000/svg">
<path d="M487.115 257.882C488.673 125.989 384.471 17.7064 254.372 16.0265C124.274 14.3467 17.5451 119.905 15.9871 251.798C14.429 383.691 118.632 491.974 248.73 493.653C378.828 495.333 485.557 389.775 487.115 257.882Z" fill="white" stroke="black" stroke-width="3" stroke-miterlimit="10"/>
<path d="M447.404 257.367C448.7 147.708 362.063 57.6787 253.895 56.282C145.728 54.8854 56.9905 142.65 55.6951 252.309C54.3997 361.969 141.037 451.998 249.204 453.395C357.372 454.791 446.109 367.027 447.404 257.367Z" fill="#FFE927"/>
<path d="M375.209 232.131C375.378 217.811 364.065 206.055 349.94 205.873C335.815 205.69 324.227 217.151 324.058 231.471C323.889 245.79 335.202 257.547 349.327 257.729C363.452 257.912 375.04 246.451 375.209 232.131Z" fill="black"/>
<path d="M250.964 306.256C234.797 306.018 212.386 299.126 199.351 266.035C197.2 261.316 199.722 255.102 205.067 253.59C209.72 251.414 215.178 253.994 217.347 259.396C224.604 278.31 235.614 286.881 251.108 287.137C267.275 287.375 277.814 278.893 285.378 260.253C287.265 255.423 293.264 253.21 298.03 255.127C302.797 257.043 304.985 263.127 303.098 267.957C289.837 299.724 267.131 306.493 250.964 306.256Z" fill="black"/>
<path d="M191.388 235.936C191.518 224.895 176.836 215.752 158.596 215.515C140.355 215.279 125.464 224.038 125.334 235.079C125.204 246.12 140.472 229.847 158.712 230.084C176.953 230.321 191.258 246.977 191.388 235.936Z" fill="black"/>
<path d="M515.974 321.306C501.224 313.698 484.66 312.388 468.843 317.413C455.341 321.701 444.022 330.172 436.247 341.755C423.251 336.981 409.301 336.537 395.798 340.826C380.174 345.789 367.286 356.665 359.599 371.189C351.974 385.904 350.662 402.43 355.698 418.211C360.735 433.992 371.575 446.657 386.132 454.327L474.255 499.461C478.324 501.56 482.866 501.813 487.11 500.465C491.354 499.117 494.852 496.098 497.017 492.231L538.3 412.563L542.638 404.19C558.091 374.059 546.237 336.916 515.974 321.306Z" fill="white"/>
<path d="M487.42 501.426C482.791 502.897 477.995 502.513 473.864 500.221L385.934 455.026C370.93 447.286 359.966 434.236 354.869 418.263C349.771 402.29 351.153 385.318 358.971 370.541C366.728 355.571 379.616 344.695 395.626 339.61C408.935 335.382 422.825 335.634 436.013 340.347C444.043 328.894 455.168 320.485 468.671 316.196C484.681 311.111 501.692 312.49 516.504 320.291C531.254 327.899 542.41 340.888 547.507 356.861C552.605 372.835 551.223 389.806 543.405 404.583L497.783 492.624C495.548 496.937 491.857 500.017 487.42 501.426ZM396.24 341.534C380.809 346.436 368.246 356.997 360.752 371.459C353.257 385.921 351.884 402.254 356.798 417.65C361.711 433.046 372.297 445.58 386.793 453.058L474.785 498.445C478.599 500.413 482.756 500.789 486.806 499.502C490.857 498.215 494.031 495.512 496.003 491.706L541.625 403.665C549.119 389.203 550.492 372.87 545.578 357.474C540.665 342.078 530.018 329.351 515.583 322.067C501.087 314.59 484.717 313.219 469.285 318.12C455.975 322.348 445.043 330.696 437.206 342.087L436.75 342.656L436.049 342.455C423.115 337.873 409.357 337.368 396.24 341.534Z" fill="black"/>
<path d="M508.411 336.215C486.286 324.803 459.281 333.381 447.843 355.454L443.504 363.827L435.366 359.629C413.241 348.217 386.236 356.795 374.798 378.868C363.359 400.942 371.958 427.885 394.083 439.297L482.013 484.493L523.297 404.825L527.635 396.452C538.942 374.632 530.282 347.497 508.411 336.215Z" fill="#FF20AC"/>
<path d="M466.292 435.224C451.053 440.065 437.418 435.282 425.384 420.876C424.314 419.52 424.595 417.735 425.699 416.536C427.058 415.469 428.847 415.749 430.048 416.851C440.38 429.254 451.657 433.302 464.388 429.258C477.119 425.215 483.974 415.407 485.154 399.135C485.242 397.411 486.793 396.283 488.521 396.37C490.248 396.457 491.38 398.005 491.292 399.729C490.016 418.363 481.531 430.384 466.292 435.224Z" fill="black"/>
<path d="M440.195 396.903C439.086 392.811 434.863 390.39 430.762 391.497C426.661 392.603 424.235 396.816 425.344 400.908C426.453 405 430.676 407.421 434.777 406.315C438.878 405.208 441.304 400.995 440.195 396.903Z" fill="black"/>
<path d="M639.336 361.732C654.613 329.124 640.5 290.335 607.813 275.095C575.125 259.854 536.242 273.934 520.965 306.542C505.688 339.15 519.801 377.938 552.488 393.179C585.176 408.419 624.059 394.34 639.336 361.732Z" fill="white" stroke="black" stroke-width="2" stroke-miterlimit="10"/>
<path d="M629.36 357.08C642.062 329.969 630.327 297.719 603.15 285.048C575.973 272.377 543.645 284.082 530.942 311.194C518.24 338.305 529.975 370.555 557.152 383.226C584.329 395.897 616.657 384.191 629.36 357.08Z" fill="#92DDEA"/>
<path d="M574.29 346.957C570.183 345.095 565.33 340.626 565.89 331.129C565.89 329.639 567.197 328.522 568.69 328.708C570.183 328.708 571.303 330.012 571.117 331.501C570.743 336.902 572.61 340.44 576.53 342.302C580.45 344.164 584.183 343.233 588.29 339.509C589.41 338.578 591.09 338.578 592.023 339.695C592.957 340.812 592.957 342.488 591.837 343.419C584.743 349.75 578.397 348.819 574.29 346.957Z" fill="black"/>
<path d="M615.887 343.366L615.886 343.381L615.886 343.396C615.886 344.06 615.292 344.59 614.566 344.501L614.536 344.497L614.505 344.497C613.804 344.497 613.284 343.9 613.371 343.213L613.373 343.199L613.374 343.185C613.504 341.335 613.247 339.76 612.583 338.471C611.915 337.176 610.855 336.21 609.45 335.553C608.042 334.894 606.641 334.721 605.22 335.057C603.814 335.39 602.427 336.212 601.014 337.473C600.431 337.944 599.627 337.896 599.211 337.407C598.73 336.84 598.776 336.06 599.272 335.654L599.279 335.648L599.286 335.643C601.6 333.609 603.763 332.765 605.655 332.562C607.552 332.358 609.218 332.793 610.539 333.383C611.852 333.969 613.274 334.961 614.324 336.544C615.37 338.122 616.069 340.321 615.887 343.366Z" fill="black" stroke="black"/>
<path d="M567.776 321.368L567.775 321.383L567.775 321.398C567.775 322.062 567.181 322.592 566.455 322.503L566.424 322.499L566.394 322.499C565.693 322.499 565.172 321.902 565.26 321.214L565.261 321.2L565.262 321.186C565.392 319.337 565.136 317.761 564.471 316.473C563.803 315.177 562.743 314.211 561.339 313.554C559.93 312.896 558.53 312.723 557.109 313.059C555.703 313.392 554.316 314.214 552.902 315.474C552.319 315.945 551.516 315.898 551.1 315.408C550.619 314.841 550.665 314.062 551.161 313.655L551.168 313.65L551.174 313.644C553.489 311.61 555.652 310.766 557.544 310.563C559.441 310.359 561.107 310.795 562.428 311.385C563.74 311.971 565.163 312.962 566.212 314.545C567.259 316.123 567.958 318.323 567.776 321.368Z" fill="black" stroke="black"/>
<path d="M461.474 390.514C460.107 387.29 463.308 382.857 468.624 380.611C473.94 378.365 479.357 379.158 480.724 382.381C482.09 385.605 475.659 382.653 470.343 384.898C465.027 387.144 462.84 393.737 461.474 390.514Z" fill="black"/>
</svg>
