<svg width="667" height="532" viewBox="0 0 667 532" fill="none" xmlns="http://www.w3.org/2000/svg">
<path d="M487.115 257.882C488.673 125.989 384.471 17.7064 254.372 16.0265C124.274 14.3467 17.5451 119.905 15.9871 251.798C14.429 383.691 118.632 491.974 248.73 493.653C378.829 495.333 485.557 389.775 487.115 257.882Z" fill="white" stroke="black" stroke-width="3" stroke-miterlimit="10"/>
<path d="M447.404 257.368C448.7 147.708 362.063 57.6792 253.895 56.2825C145.728 54.8859 56.9905 142.65 55.6951 252.31C54.3997 361.97 141.037 451.998 249.204 453.395C357.372 454.792 446.109 367.027 447.404 257.368Z" fill="#FFE927"/>
<path d="M250.947 306.241C234.78 306.004 212.37 299.113 199.336 266.023C197.186 261.304 199.708 255.091 205.053 253.578C209.706 251.401 215.164 253.982 217.333 259.383C224.589 278.297 235.599 286.867 251.092 287.123C267.259 287.359 277.798 278.877 285.364 260.236C287.251 255.406 293.25 253.192 298.016 255.109C302.782 257.025 304.97 263.109 303.083 267.939C289.82 299.707 267.113 306.477 250.947 306.241Z" fill="black"/>
<path d="M183.858 229.376C184.027 215.056 172.713 203.3 158.588 203.117C144.464 202.935 132.876 214.395 132.707 228.715C132.538 243.035 143.851 254.791 157.976 254.974C172.101 255.156 183.689 243.696 183.858 229.376Z" fill="black"/>
<path d="M375.209 232.131C375.378 217.811 364.065 206.055 349.94 205.873C335.815 205.69 324.227 217.151 324.058 231.471C323.889 245.79 335.203 257.547 349.327 257.729C363.452 257.912 375.04 246.451 375.209 232.131Z" fill="black"/>
<path d="M515.976 321.306C501.226 313.698 484.662 312.388 468.845 317.413C455.343 321.701 444.024 330.172 436.249 341.755C423.253 336.981 409.303 336.537 395.8 340.826C380.176 345.789 367.288 356.665 359.601 371.189C351.976 385.904 350.664 402.43 355.7 418.211C360.737 433.992 371.577 446.657 386.134 454.327L474.257 499.461C478.326 501.56 482.868 501.813 487.112 500.465C491.356 499.117 494.854 496.098 497.019 492.231L538.302 412.563L542.64 404.19C558.093 374.059 546.239 336.916 515.976 321.306Z" fill="white"/>
<path d="M487.422 501.426C482.793 502.897 477.997 502.513 473.866 500.221L385.936 455.026C370.932 447.286 359.968 434.236 354.871 418.263C349.773 402.29 351.155 385.318 358.973 370.541C366.73 355.571 379.618 344.695 395.628 339.61C408.937 335.382 422.827 335.634 436.015 340.347C444.045 328.894 455.17 320.485 468.673 316.196C484.683 311.111 501.694 312.49 516.506 320.291C531.256 327.899 542.412 340.888 547.509 356.861C552.607 372.835 551.225 389.806 543.407 404.583L497.785 492.624C495.55 496.937 491.859 500.017 487.422 501.426ZM396.242 341.534C380.811 346.436 368.248 356.997 360.753 371.459C353.259 385.921 351.886 402.254 356.8 417.65C361.713 433.046 372.299 445.58 386.795 453.058L474.787 498.445C478.601 500.413 482.758 500.789 486.808 499.502C490.859 498.215 494.033 495.512 496.005 491.706L541.627 403.665C549.121 389.203 550.494 372.87 545.58 357.474C540.667 342.078 530.02 329.352 515.585 322.067C501.089 314.59 484.719 313.219 469.287 318.12C455.977 322.348 445.045 330.696 437.208 342.087L436.752 342.656L436.051 342.455C423.117 337.873 409.359 337.368 396.242 341.534Z" fill="black"/>
<path d="M508.413 336.215C486.288 324.802 459.283 333.38 447.845 355.454L443.506 363.827L435.368 359.629C413.243 348.216 386.238 356.794 374.8 378.868C363.361 400.941 371.96 427.884 394.085 439.297L482.015 484.492L523.299 404.824L527.637 396.451C538.944 374.632 530.284 347.496 508.413 336.215Z" fill="#FF20AC"/>
<path d="M466.294 435.224C451.055 440.065 437.42 435.282 425.386 420.876C424.316 419.52 424.596 417.735 425.701 416.536C427.06 415.469 428.849 415.749 430.05 416.851C440.382 429.254 451.659 433.302 464.39 429.258C477.121 425.215 483.976 415.407 485.156 399.135C485.244 397.412 486.795 396.283 488.523 396.37C490.25 396.457 491.382 398.005 491.294 399.729C490.018 418.363 481.533 430.384 466.294 435.224Z" fill="black"/>
<path d="M440.197 396.903C439.088 392.811 434.865 390.39 430.764 391.497C426.663 392.603 424.237 396.816 425.346 400.908C426.455 405 430.678 407.421 434.779 406.315C438.88 405.208 441.306 400.995 440.197 396.903Z" fill="black"/>
<path d="M477.764 385.59C476.655 381.498 472.431 379.078 468.33 380.184C464.229 381.29 461.803 385.504 462.912 389.596C464.021 393.688 468.245 396.108 472.346 395.002C476.447 393.896 478.873 389.682 477.764 385.59Z" fill="black"/>
<path d="M639.338 361.732C654.615 329.124 640.502 290.335 607.815 275.095C575.127 259.854 536.244 273.934 520.967 306.542C505.689 339.15 519.803 377.938 552.49 393.179C585.178 408.419 624.061 394.34 639.338 361.732Z" fill="white" stroke="black" stroke-width="2" stroke-miterlimit="10"/>
<path d="M629.362 357.079C642.064 329.968 630.329 297.718 603.152 285.046C575.975 272.375 543.646 284.081 530.944 311.192C518.242 338.303 529.977 370.553 557.154 383.225C584.331 395.896 616.659 384.19 629.362 357.079Z" fill="#92DDEA"/>
<path d="M568.506 331.315C568.133 337.833 570.56 342.302 575.413 344.537C580.453 346.772 585.306 345.84 590.16 341.371" fill="#7FCDE5"/>
<path d="M574.294 346.958C570.187 345.096 565.334 340.626 565.894 331.13C565.894 329.64 567.201 328.523 568.694 328.709C570.187 328.709 571.307 330.012 571.121 331.502C570.747 336.902 572.614 340.44 576.534 342.302C580.454 344.165 584.187 343.233 588.294 339.509C589.414 338.578 591.094 338.578 592.027 339.695C592.961 340.813 592.961 342.489 591.841 343.42C584.747 349.751 578.401 348.82 574.294 346.958Z" fill="black"/>
<path d="M566.07 320.11C567.729 316.57 566.197 312.358 562.648 310.704C559.099 309.049 554.877 310.578 553.218 314.118C551.56 317.659 553.092 321.87 556.641 323.525C560.19 325.18 564.411 323.651 566.07 320.11Z" fill="black"/>
<path d="M613.943 342.63C615.602 339.089 614.07 334.878 610.521 333.223C606.972 331.569 602.75 333.097 601.091 336.638C599.433 340.178 600.965 344.39 604.514 346.044C608.063 347.699 612.284 346.17 613.943 342.63Z" fill="black"/>
</svg>
