<svg width="667" height="532" viewBox="0 0 667 532" fill="none" xmlns="http://www.w3.org/2000/svg">
<path d="M487.115 257.882C488.673 125.989 384.471 17.7064 254.372 16.0265C124.274 14.3467 17.5451 119.905 15.9871 251.798C14.429 383.691 118.632 491.974 248.73 493.653C378.829 495.333 485.557 389.775 487.115 257.882Z" fill="white" stroke="black" stroke-width="1.5" stroke-miterlimit="10"/>
<path d="M447.404 257.367C448.7 147.708 362.063 57.6787 253.895 56.282C145.728 54.8854 56.9905 142.65 55.6951 252.309C54.3997 361.969 141.037 451.998 249.204 453.395C357.372 454.791 446.109 367.027 447.404 257.367Z" fill="#FFE927"/>
<path d="M250.947 306.241C234.78 306.004 212.37 299.113 199.336 266.023C197.186 261.304 199.708 255.091 205.053 253.578C209.706 251.401 215.164 253.982 217.333 259.383C224.589 278.297 235.599 286.867 251.092 287.123C267.259 287.359 277.798 278.877 285.364 260.236C287.251 255.406 293.25 253.192 298.016 255.109C302.782 257.025 304.97 263.109 303.083 267.939C289.82 299.707 267.113 306.477 250.947 306.241Z" fill="black"/>
<path d="M375.209 232.131C375.378 217.811 364.065 206.055 349.94 205.873C335.815 205.69 324.227 217.151 324.058 231.471C323.889 245.79 335.203 257.547 349.327 257.729C363.452 257.912 375.04 246.451 375.209 232.131Z" fill="black"/>
<path d="M515.976 321.306C501.226 313.698 484.662 312.388 468.845 317.413C455.343 321.701 444.024 330.172 436.249 341.755C423.253 336.981 409.303 336.537 395.8 340.826C380.176 345.789 367.288 356.665 359.601 371.189C351.976 385.904 350.664 402.43 355.7 418.211C360.737 433.992 371.577 446.657 386.134 454.327L474.257 499.461C478.326 501.56 482.868 501.813 487.112 500.465C491.356 499.117 494.854 496.098 497.019 492.231L538.302 412.563L542.64 404.19C558.093 374.059 546.239 336.916 515.976 321.306Z" fill="white"/>
<path d="M474.103 499.781L474.11 499.785C478.111 502.005 482.764 502.382 487.272 500.95C491.581 499.582 495.167 496.591 497.342 492.394L542.964 404.354L542.966 404.35C550.72 389.694 552.092 372.861 547.034 357.013C541.983 341.186 530.424 329.002 515.773 321.444L515.769 321.442C501.1 313.717 483.565 313.423 467.654 318.477C454.24 322.738 444.384 329.284 436.426 340.634L436.208 340.946L435.849 340.817C422.794 336.152 408.894 337.271 395.653 341.477C379.747 346.529 367.105 355.938 359.419 370.771L359.417 370.775L359.417 370.775C351.662 385.431 350.29 402.263 355.348 418.112C360.406 433.959 371.28 446.904 386.165 454.582C386.166 454.582 386.166 454.582 386.166 454.582M474.103 499.781L385.937 455.026L386.166 454.582M474.103 499.781L474.096 499.777L386.166 454.582M474.103 499.781L386.166 454.582" stroke="black"/>
<path d="M508.413 336.215C486.288 324.803 459.283 333.381 447.845 355.454L443.506 363.827L435.368 359.629C413.243 348.217 386.238 356.795 374.8 378.868C363.361 400.942 371.96 427.885 394.085 439.297L482.015 484.493L523.299 404.825L527.637 396.452C538.944 374.632 530.284 347.497 508.413 336.215Z" fill="#FF20AC"/>
<path d="M466.294 435.224C451.055 440.065 437.42 435.282 425.386 420.876C424.316 419.52 424.596 417.735 425.701 416.536C427.06 415.469 428.849 415.749 430.05 416.851C440.382 429.254 451.659 433.302 464.39 429.258C477.121 425.215 483.976 415.407 485.156 399.135C485.244 397.412 486.795 396.283 488.523 396.37C490.25 396.457 491.382 398.005 491.294 399.729C490.018 418.363 481.533 430.384 466.294 435.224Z" fill="black"/>
<path d="M440.197 396.903C439.088 392.811 434.865 390.39 430.764 391.497C426.663 392.603 424.237 396.816 425.346 400.908C426.455 405 430.678 407.421 434.779 406.315C438.88 405.208 441.306 400.995 440.197 396.903Z" fill="black"/>
<path d="M639.338 361.732C654.615 329.124 640.502 290.335 607.815 275.095C575.127 259.854 536.244 273.934 520.967 306.542C505.689 339.15 519.803 377.938 552.49 393.179C585.178 408.419 624.061 394.34 639.338 361.732Z" fill="white" stroke="black" stroke-miterlimit="10"/>
<path d="M629.362 357.079C642.064 329.968 630.329 297.718 603.152 285.046C575.975 272.375 543.646 284.081 530.944 311.192C518.242 338.303 529.977 370.553 557.154 383.225C584.331 395.896 616.659 384.19 629.362 357.079Z" fill="#92DDEA"/>
<path d="M568.506 331.315C568.133 337.833 570.56 342.302 575.413 344.537C580.453 346.772 585.306 345.84 590.16 341.371" fill="#7FCDE5"/>
<path d="M574.294 346.958C570.187 345.096 565.334 340.626 565.894 331.13C565.894 329.64 567.201 328.523 568.694 328.709C570.187 328.709 571.307 330.012 571.121 331.502C570.747 336.902 572.614 340.44 576.534 342.302C580.454 344.165 584.187 343.233 588.294 339.509C589.414 338.578 591.094 338.578 592.027 339.695C592.961 340.813 592.961 342.489 591.841 343.42C584.747 349.751 578.401 348.82 574.294 346.958Z" fill="black"/>
<path d="M566.07 320.11C567.729 316.57 566.197 312.358 562.648 310.704C559.099 309.049 554.877 310.578 553.218 314.118C551.56 317.659 553.092 321.87 556.641 323.525C560.19 325.18 564.411 323.651 566.07 320.11Z" fill="black"/>
<path d="M613.943 342.63C615.602 339.089 614.07 334.878 610.521 333.223C606.972 331.569 602.75 333.097 601.091 336.638C599.433 340.178 600.965 344.39 604.514 346.044C608.063 347.699 612.284 346.17 613.943 342.63Z" fill="black"/>
<path d="M191.39 235.936C191.52 224.895 176.838 215.752 158.598 215.515C140.357 215.279 125.466 224.038 125.336 235.079C125.206 246.12 140.474 229.847 158.714 230.084C176.955 230.321 191.26 246.977 191.39 235.936Z" fill="black"/>
<path d="M629.361 357.08C642.064 329.969 630.329 297.719 603.152 285.048C575.975 272.377 543.646 284.082 530.944 311.194C518.242 338.305 529.977 370.555 557.154 383.226C584.331 395.897 616.659 384.191 629.361 357.08Z" fill="#92DDEA"/>
<path d="M574.292 346.957C570.185 345.095 565.332 340.626 565.892 331.129C565.892 329.639 567.199 328.522 568.692 328.708C570.185 328.708 571.305 330.012 571.119 331.501C570.745 336.902 572.612 340.44 576.532 342.302C580.452 344.164 584.185 343.233 588.292 339.509C589.412 338.578 591.092 338.578 592.025 339.695C592.959 340.812 592.959 342.488 591.839 343.419C584.745 349.75 578.399 348.819 574.292 346.957Z" fill="black"/>
<path d="M615.889 343.366L615.888 343.381L615.888 343.396C615.888 344.06 615.294 344.59 614.568 344.501L614.538 344.497L614.507 344.497C613.806 344.497 613.285 343.9 613.373 343.213L613.375 343.199L613.376 343.185C613.506 341.335 613.249 339.76 612.585 338.471C611.917 337.176 610.857 336.21 609.452 335.553C608.044 334.894 606.643 334.721 605.222 335.057C603.816 335.39 602.429 336.212 601.016 337.473C600.433 337.944 599.629 337.896 599.213 337.407C598.732 336.84 598.778 336.06 599.274 335.654L599.281 335.648L599.288 335.643C601.602 333.609 603.765 332.765 605.657 332.562C607.554 332.358 609.22 332.793 610.541 333.383C611.854 333.969 613.276 334.961 614.326 336.544C615.372 338.122 616.071 340.321 615.889 343.366Z" fill="black" stroke="black"/>
<path d="M567.778 321.368L567.777 321.383L567.777 321.398C567.777 322.062 567.183 322.592 566.457 322.503L566.426 322.499L566.396 322.499C565.695 322.499 565.174 321.902 565.262 321.214L565.263 321.2L565.264 321.186C565.394 319.337 565.138 317.761 564.473 316.473C563.805 315.177 562.745 314.211 561.341 313.554C559.932 312.896 558.532 312.723 557.111 313.059C555.705 313.392 554.318 314.214 552.904 315.474C552.321 315.945 551.517 315.898 551.102 315.408C550.621 314.841 550.667 314.062 551.163 313.655L551.17 313.65L551.176 313.644C553.491 311.61 555.654 310.766 557.546 310.563C559.443 310.359 561.109 310.795 562.43 311.385C563.742 311.971 565.164 312.962 566.214 314.545C567.261 316.123 567.96 318.323 567.778 321.368Z" fill="black" stroke="black"/>
<path d="M461.476 390.514C460.109 387.29 463.31 382.857 468.626 380.611C473.942 378.365 479.359 379.158 480.726 382.381C482.092 385.605 475.661 382.653 470.345 384.898C465.029 387.144 462.842 393.737 461.476 390.514Z" fill="black"/>
</svg>
