<svg width="16" height="16" viewBox="0 0 16 16" fill="none" xmlns="http://www.w3.org/2000/svg">
<path d="M7.9997 14.9437C11.8342 14.9437 14.9428 11.8352 14.9428 8.00067C14.9428 4.16613 11.8342 1.05762 7.9997 1.05762C4.16515 1.05762 1.05664 4.16613 1.05664 8.00067C1.05664 11.8352 4.16515 14.9437 7.9997 14.9437Z" fill="white"/>
<path fill-rule="evenodd" clip-rule="evenodd" d="M8 1.11389C4.19691 1.11389 1.11389 4.19691 1.11389 8C1.11389 11.8031 4.19691 14.8861 8 14.8861C11.8031 14.8861 14.8861 11.8031 14.8861 8C14.8861 4.19691 11.8031 1.11389 8 1.11389ZM1 8C1 4.13401 4.13401 1 8 1C11.866 1 15 4.13401 15 8C15 11.866 11.866 15 8 15C4.13401 15 1 11.866 1 8Z" fill="black" stroke="black" stroke-width="0.5" stroke-miterlimit="10"/>
<path d="M8.07696 13.4156C11.0082 13.4156 13.3844 11.0394 13.3844 8.10821C13.3844 5.177 11.0082 2.80078 8.07696 2.80078C5.14575 2.80078 2.76953 5.177 2.76953 8.10821C2.76953 11.0394 5.14575 13.4156 8.07696 13.4156Z" fill="#FFE927"/>
<path d="M8.09862 9.46075C7.63706 9.45395 6.99723 9.25672 6.62507 8.30974C6.56367 8.17469 6.63566 7.99688 6.78826 7.9536C6.9211 7.89133 7.07693 7.96517 7.13887 8.11974C7.34604 8.66102 7.66039 8.90631 8.10275 8.91364C8.56431 8.92044 8.86519 8.67771 9.08116 8.14429C9.13501 8.00606 9.30628 7.94272 9.44236 7.99757C9.57844 8.05243 9.64092 8.22652 9.58706 8.36476C9.20845 9.27384 8.56018 9.46755 8.09862 9.46075Z" fill="black"/>
<path d="M6.12141 7.24379C6.12621 6.834 5.80319 6.49754 5.39992 6.4923C4.99665 6.48705 4.66584 6.815 4.66104 7.2248C4.65624 7.63459 4.97926 7.97105 5.38253 7.97629C5.7858 7.98154 6.11661 7.65359 6.12141 7.24379Z" fill="black"/>
<path d="M11.5745 7.27113C11.5793 6.86134 11.2563 6.52488 10.853 6.51964C10.4498 6.51439 10.119 6.84235 10.1142 7.25214C10.1094 7.66194 10.4324 7.99839 10.8357 8.00364C11.2389 8.00888 11.5697 7.68093 11.5745 7.27113Z" fill="black"/>
</svg>
