<svg width="150" height="150" viewBox="0 0 150 150" fill="none" xmlns="http://www.w3.org/2000/svg">
<circle cx="75" cy="75" r="74.5" fill="white" stroke="black"/>
<path d="M93.0263 113.478C91.2823 113.478 89.4821 113.028 87.9069 112.184L74.6865 105.209L61.4662 112.184C59.891 113.028 58.0908 113.478 56.3468 113.478C54.0403 113.478 51.79 112.747 49.8772 111.397C46.4456 108.922 44.8141 104.815 45.4892 100.652L48.0208 85.9125L37.332 75.4487C34.2941 72.5234 33.2252 68.1916 34.5754 64.1973C35.9255 60.2031 39.3009 57.334 43.464 56.7152L58.2595 54.5774L64.8978 41.132C66.7543 37.3628 70.5235 35 74.7428 35C78.9621 35 82.6188 37.3628 84.5315 41.132L91.1698 54.5774L105.965 56.7152C110.128 57.334 113.504 60.2031 114.854 64.1973C116.148 68.1916 115.079 72.5234 112.097 75.4487L101.352 85.9125L103.884 100.652C104.615 104.815 102.928 108.922 99.4958 111.397C97.5831 112.747 95.3328 113.478 93.0263 113.478ZM57.1906 77.5302C59.7785 80.0618 60.9599 83.7185 60.341 87.2627L58.147 99.9205L69.5672 93.9572C71.1424 93.1134 72.8863 92.7196 74.6865 92.7196C76.4868 92.7196 78.2307 93.1696 79.8059 93.9572L91.1698 99.9205L88.9758 87.2627C88.357 83.7185 89.5384 80.0618 92.1262 77.5302L101.352 68.5291L88.6383 66.6726C85.0378 66.1663 81.9437 63.916 80.3685 60.6531L74.6303 49.1205L68.9483 60.6531C67.3169 63.916 64.279 66.1663 60.6786 66.6726L47.9645 68.5291L57.1906 77.5302Z" fill="white" stroke="black" stroke-miterlimit="10"/>
<path d="M93.0279 112.072C91.4527 112.072 89.99 111.678 88.5836 110.947L74.6881 103.633L60.7927 110.947C59.3862 111.678 57.8673 112.072 56.3484 112.072C53.5355 112.072 50.8352 110.834 49.035 108.64C47.2347 106.502 46.4471 103.633 46.9535 100.877L49.5975 85.406L38.3462 74.4359C35.6458 71.8481 34.6895 68.0789 35.8146 64.591C36.9397 61.103 39.9213 58.6277 43.5218 58.0652L59.0487 55.8149L66.0245 41.7507C67.7123 38.4315 70.9752 36.4062 74.6319 36.4062C78.2886 36.4062 81.6077 38.4315 83.2392 41.7507L90.215 55.8149L105.742 58.0652C109.399 58.5715 112.324 61.103 113.449 64.591C114.574 68.0789 113.674 71.8481 111.03 74.4359L99.7787 85.406L102.423 100.877C102.929 103.69 102.141 106.502 100.341 108.64C98.541 110.834 95.8407 112.072 93.0279 112.072Z" fill="white" stroke="white" stroke-miterlimit="10"/>
<path d="M78.9617 43.8888L85.9375 57.953C86.6126 59.3595 87.9628 60.3721 89.538 60.5971L105.065 62.8474C109.003 63.41 110.578 68.248 107.709 71.0046L96.4576 81.9747C95.3324 83.0999 94.8261 84.6751 95.0511 86.194L97.6952 101.665C98.3703 105.603 94.2636 108.584 90.7194 106.728L76.8239 99.4144C75.4175 98.683 73.786 98.683 72.3796 99.4144L58.4842 106.728C54.94 108.584 50.8332 105.603 51.5083 101.665L54.1524 86.194C54.4337 84.6188 53.9274 83.0436 52.746 81.9747L41.4946 71.0046C38.738 68.248 40.3132 63.41 44.2512 62.8474L59.7781 60.5971C61.3533 60.3721 62.7034 59.4157 63.3785 57.953L70.3544 43.8888C72.0983 40.2884 77.2177 40.2884 78.9617 43.8888Z" fill="#FFE927"/>
<path d="M93.0247 108.696C92.0121 108.696 91.0557 108.471 90.1556 107.965L76.2601 100.652C75.2475 100.145 74.1224 100.145 73.1098 100.652L59.2143 107.965C57.1328 109.09 54.6012 108.865 52.6885 107.515C50.7758 106.109 49.8194 103.802 50.2132 101.439L52.8573 85.9686C53.026 84.8434 52.6885 83.7745 51.9009 82.9869L40.6495 72.0168C38.9056 70.3291 38.343 67.9101 39.0743 65.6598C39.8057 63.4095 41.7184 61.7781 44.0812 61.4405L59.6081 59.1903C60.7332 59.0215 61.6896 58.3464 62.1397 57.3338L69.0593 43.2696C70.1281 41.1318 72.2659 39.8379 74.6287 39.8379C76.9915 39.8379 79.1292 41.1881 80.1981 43.2696L87.174 57.3338C87.6803 58.3464 88.6367 59.0215 89.7055 59.1903L105.232 61.4405C107.595 61.7781 109.508 63.4095 110.239 65.6598C110.971 67.9101 110.352 70.3291 108.664 72.0168L97.4127 82.9869C96.6251 83.7745 96.2313 84.8997 96.4564 85.9686L99.1004 101.439C99.4942 103.802 98.5379 106.109 96.6251 107.515C95.5563 108.303 94.3186 108.696 93.0247 108.696ZM74.6287 97.445C75.6413 97.445 76.5977 97.67 77.4978 98.1763L91.3932 105.49C92.5746 106.109 93.8685 105.996 94.9374 105.208C96.0063 104.421 96.5126 103.183 96.2876 101.889L93.6435 86.4186C93.306 84.3934 93.9811 82.3681 95.4437 80.9054L106.695 69.9353C107.651 69.0352 107.933 67.7413 107.539 66.4474C107.145 65.1535 106.133 64.3096 104.782 64.1409L89.2555 61.8906C87.2302 61.6093 85.4863 60.3154 84.5862 58.5152L77.6103 44.451C77.0477 43.2696 75.8663 42.5382 74.5724 42.5382C73.2785 42.5382 72.0971 43.2696 71.5346 44.451L64.5587 58.5152C63.6586 60.3717 61.9146 61.6093 59.8894 61.8906L44.3625 64.1409C43.0686 64.3096 42.0559 65.2098 41.6059 66.4474C41.2121 67.6851 41.4934 68.979 42.4497 69.9353L53.7011 80.9054C55.1638 82.3119 55.8389 84.3934 55.5013 86.4186L52.8573 101.889C52.6322 103.183 53.1386 104.421 54.2074 105.208C55.2763 105.996 56.6265 106.052 57.7516 105.49L71.6471 98.1763C72.6597 97.7262 73.6723 97.445 74.6287 97.445Z" fill="black"/>
</svg>
