<svg width="150" height="150" viewBox="0 0 150 150" fill="none" xmlns="http://www.w3.org/2000/svg">
<circle cx="75" cy="75" r="74.5" fill="white" stroke="black"/>
<path d="M38.8853 114.277C35.1554 114.225 32.161 111.178 32.2136 107.501L32.7389 44.9862C32.7389 43.2 33.4744 41.519 34.7352 40.2582C35.9959 39.0499 37.677 38.367 39.4106 38.3145L110.961 38.9449C112.747 38.9449 114.428 39.6803 115.689 40.9411C116.949 42.2019 117.632 43.9355 117.632 45.7216L117.107 108.236C117.107 110.022 116.372 111.703 115.111 112.964C113.85 114.225 112.169 114.908 110.383 114.908L38.8853 114.277Z" fill="white"/>
<path d="M110.433 115.119L38.935 114.488C35.1001 114.436 31.9481 111.284 32.0006 107.449L32.526 44.9344C32.526 43.0432 33.2614 41.3096 34.6273 39.9963C35.9406 38.7355 37.6742 38 39.5129 38L111.063 38.6304C112.954 38.6304 114.688 39.3659 116.001 40.7317C117.314 42.0451 118.05 43.8312 117.997 45.7224L117.472 108.237C117.472 110.128 116.737 111.862 115.371 113.175C114.005 114.436 112.271 115.119 110.433 115.119ZM39.4604 38.5253C37.7793 38.5253 36.1508 39.2083 34.9425 40.364C33.7343 41.5723 32.9988 43.2008 32.9988 44.9344L32.4735 107.449C32.4735 111.021 35.3103 113.963 38.8825 113.963L110.38 114.593C112.114 114.593 113.69 113.91 114.898 112.755C116.159 111.546 116.842 109.918 116.842 108.184L117.367 45.6698C117.367 43.9362 116.737 42.3077 115.528 41.0469C114.32 39.7861 112.692 39.1032 110.958 39.1032L39.4604 38.5253Z" fill="black"/>
<path d="M110.96 43.3589L39.5145 42.7285C38.8841 42.7285 38.3588 42.9387 37.886 43.3589C37.4657 43.7792 37.2031 44.3571 37.2031 44.9874L36.6777 107.502C36.6777 108.763 37.6759 109.761 38.9367 109.813L110.382 110.444C110.96 110.444 111.537 110.234 111.958 109.813C112.378 109.393 112.641 108.815 112.641 108.185L113.166 45.6704C113.219 44.357 112.22 43.3589 110.96 43.3589Z" fill="black"/>
<path d="M110.379 109.078L38.9339 108.448C38.4085 108.448 37.9883 108.027 37.9883 107.502L38.5136 44.9876C38.5136 44.4623 38.9339 44.042 39.4592 44.042L110.904 44.6724C111.43 44.6724 111.85 45.0927 111.85 45.618L111.325 108.132C111.377 108.658 110.904 109.078 110.379 109.078Z" fill="white"/>
<path d="M110.43 110.391C110.378 110.391 110.378 110.391 110.43 110.391L38.9327 109.761C37.672 109.761 36.6738 108.71 36.6738 107.449L37.1992 44.9347C37.1992 44.3043 37.4618 43.779 37.8821 43.3062C38.3023 42.8859 38.8802 42.6758 39.5106 42.6758L110.956 43.3062C112.216 43.3062 113.215 44.3568 113.215 45.6176L112.689 108.132C112.689 108.762 112.427 109.288 112.006 109.761C111.586 110.181 111.008 110.391 110.43 110.391ZM39.3005 107.186L110.063 107.764L110.588 45.9854L39.8258 45.4075L39.3005 107.186Z" fill="black"/>
<path d="M105.574 49.6141L44.8457 49.0986L44.4132 100.056L105.141 100.571L105.574 49.6141Z" fill="#92DDEA"/>
<path d="M74.4417 75.9788L72.0252 61.9524C71.3422 57.9074 73.8113 53.8098 77.8563 52.8642C79.3273 52.549 80.9033 52.549 82.4267 53.0218C82.5843 53.0743 82.7419 53.1269 82.8995 53.1794C88.468 55.2807 89.6238 62.6354 85.1585 66.5754L74.4417 75.9788Z" fill="white"/>
<path d="M74.2857 76.5044L71.8166 62.0053C71.0812 57.6976 73.7078 53.6 77.8054 52.6544C79.3289 52.2867 80.9574 52.3392 82.4809 52.812C82.6385 52.8645 82.796 52.9171 82.9536 52.9696C85.5803 53.9677 87.4715 56.2267 87.9443 59.0109C88.4697 61.9528 87.4715 64.8421 85.2651 66.7858L74.2857 76.5044ZM79.8017 52.9696C79.1713 52.9696 78.5409 53.0221 77.9105 53.1797C74.0756 54.0728 71.6065 57.9077 72.2894 61.9528L74.6009 75.5063L84.9499 66.4706C87.0512 64.632 87.9443 61.9002 87.4715 59.1685C86.9987 56.5419 85.2651 54.4405 82.7961 53.4949C82.6385 53.4424 82.4808 53.3899 82.3232 53.3373C81.4827 53.0747 80.6422 52.9696 79.8017 52.9696Z" fill="black"/>
<path d="M74.4398 75.9777L61.0964 71.0396C57.209 69.6212 54.95 65.4186 56.1583 61.4786C56.5786 60.0602 57.4191 58.6943 58.5748 57.5911C58.6799 57.4861 58.8375 57.381 58.9425 57.2759C63.5129 53.4935 70.4998 56.2253 71.6556 62.0039L74.4398 75.9777Z" fill="white"/>
<path d="M74.8099 76.3986L60.9937 71.3029C56.8961 69.7795 54.6897 65.4718 55.898 61.4267C56.3708 59.9032 57.2113 58.5374 58.4196 57.4342C58.5246 57.3291 58.6823 57.2241 58.8399 57.0665C60.9937 55.2803 63.883 54.8075 66.6148 55.7531C69.399 56.7513 71.4478 59.0627 72.0257 61.952L74.8099 76.3986ZM63.778 55.8582C62.0969 55.8582 60.4684 56.4361 59.1025 57.5393C58.9975 57.6443 58.8399 57.7494 58.7348 57.8545C57.6316 58.8526 56.7911 60.1659 56.3708 61.5843C55.2151 65.3667 57.3164 69.4117 61.1513 70.8301L74.0745 75.6106L71.3953 62.1622C70.8699 59.4304 68.9788 57.2766 66.3521 56.331C65.5116 56.0158 64.671 55.8582 63.778 55.8582Z" fill="black"/>
<path d="M74.4421 75.9799L63.5152 85.0681C60.3632 87.6948 55.5827 87.5897 52.7459 84.5954C51.6953 83.4922 50.9598 82.1263 50.5921 80.5503C50.5396 80.3927 50.5396 80.2351 50.487 80.025C49.5414 74.1938 55.3201 69.4658 60.9411 71.4095L74.4421 75.9799Z" fill="white"/>
<path d="M58.3131 87.275C56.1593 87.275 54.0579 86.4345 52.5345 84.806C51.4313 83.6503 50.6958 82.2319 50.3281 80.6559C50.2755 80.4983 50.2755 80.2881 50.223 80.1305C49.7502 77.3463 50.8009 74.6146 52.9547 72.7759C55.2137 70.8322 58.2606 70.2543 61.0448 71.1999L74.9661 75.9279L63.6715 85.3313C62.0955 86.5921 60.2043 87.275 58.3131 87.275ZM58.4182 71.2524C56.5795 71.2524 54.7934 71.8828 53.375 73.1436C51.3262 74.8772 50.3806 77.4513 50.8008 80.0255C50.8534 80.1831 50.8534 80.3407 50.9059 80.4983C51.2211 81.9692 51.9566 83.3351 52.9547 84.3857C55.6339 87.275 60.2043 87.4852 63.3563 84.8585L73.9154 76.033L60.8872 71.6202C60.0992 71.41 59.2061 71.2524 58.4182 71.2524Z" fill="black"/>
<path d="M74.759 75.0879L77.1755 89.1142C77.8584 93.1593 75.3894 97.2569 71.3443 98.2025C69.8734 98.5177 68.2974 98.5177 66.7739 98.0449C66.6163 97.9923 66.4587 97.9398 66.3011 97.8873C60.7326 95.7859 59.5769 88.4313 64.0422 84.4913L74.759 75.0879Z" fill="white"/>
<path d="M69.401 98.6217C68.508 98.6217 67.6149 98.4641 66.7219 98.2014C66.5643 98.1489 66.4067 98.0964 66.1965 98.0438C63.5699 97.0457 61.6787 94.7868 61.2059 92.0025C60.6806 89.0607 61.6787 86.1713 63.8851 84.2276L74.917 74.5615L77.3861 89.0607C78.1215 93.3684 75.4949 97.466 71.3973 98.4116C70.7669 98.5692 70.084 98.6217 69.401 98.6217ZM74.6018 75.5596L64.2528 84.5954C62.1515 86.434 61.2584 89.1132 61.7312 91.8975C62.204 94.5241 63.9376 96.6254 66.4066 97.571C66.5642 97.6236 66.7219 97.6761 66.8795 97.7286C68.2978 98.2014 69.8213 98.254 71.2922 97.8862C75.1271 96.9932 77.5962 93.1583 76.9133 89.1132L74.6018 75.5596Z" fill="black"/>
<path d="M74.5977 76.0322L87.9411 80.9703C91.8285 82.3887 94.0874 86.5914 92.8791 90.5314C92.4589 91.9497 91.6184 93.3156 90.4626 94.4188C90.3576 94.5239 90.2 94.6289 90.0949 94.734C85.5245 98.5164 78.5376 95.7847 77.3819 90.006L74.5977 76.0322Z" fill="white"/>
<path d="M85.2099 96.7308C84.3168 96.7308 83.3712 96.5732 82.4782 96.258C79.6939 95.2599 77.6451 92.9484 77.1198 90.0591L74.2305 75.665L88.0467 80.7608C92.1443 82.2842 94.3506 86.5919 93.1424 90.637C92.6696 92.1604 91.8291 93.5263 90.6208 94.6295C90.5157 94.7346 90.3581 94.8396 90.2005 94.9972C88.7821 96.1004 87.0485 96.7308 85.2099 96.7308ZM74.9134 76.453L77.5926 89.9015C78.1179 92.6332 80.0091 94.7871 82.6358 95.7327C85.1574 96.6258 87.8365 96.153 89.8853 94.5244C89.9904 94.4194 90.148 94.3143 90.253 94.2092C91.3562 93.2111 92.1442 91.8978 92.617 90.4794C93.7728 86.697 91.6714 82.6519 87.8365 81.2336L74.9134 76.453Z" fill="black"/>
<path d="M74.4434 75.9799L85.3703 66.8917C88.5223 64.2651 93.3028 64.3701 96.1396 67.3645C97.1902 68.4677 97.9257 69.8336 98.2934 71.4096C98.3459 71.5672 98.3459 71.7248 98.3984 71.9349C99.344 77.7661 93.5655 82.494 87.9444 80.5503L74.4434 75.9799Z" fill="white"/>
<path d="M90.5204 81.2335C89.6273 81.2335 88.7343 81.0759 87.8412 80.8132L73.9199 76.0853L85.2145 66.6818C88.5767 63.8976 93.4623 64.1077 96.3516 67.2072C97.4548 68.3629 98.1902 69.7813 98.558 71.3573C98.6105 71.5149 98.6105 71.725 98.663 71.8826C99.1358 74.6669 98.0852 77.3986 95.9313 79.2372C94.3553 80.5506 92.4641 81.2335 90.5204 81.2335ZM74.9706 75.9277L87.9988 80.3404C90.6255 81.2335 93.4623 80.7082 95.5636 78.8695C97.6124 77.1359 98.5579 74.5618 98.1377 71.9877C98.0851 71.8301 98.0852 71.6725 98.0326 71.5149C97.7174 70.044 96.982 68.6781 95.9838 67.6274C93.3046 64.7381 88.7343 64.528 85.5823 67.1546L74.9706 75.9277Z" fill="black"/>
<path d="M84.9452 79.514C86.8724 73.826 83.8237 67.6526 78.1357 65.7254C72.4476 63.7981 66.2742 66.8468 64.347 72.5349C62.4198 78.2229 65.4685 84.3963 71.1565 86.3236C76.8446 88.2508 83.018 85.2021 84.9452 79.514Z" fill="#FADA4A"/>
<path d="M74.6441 87.1212C73.4884 87.1212 72.2801 86.911 71.0719 86.5433C65.2932 84.5996 62.1412 78.2431 64.1375 72.4644C66.0812 66.6858 72.4377 63.5338 78.2163 65.5301C81.0531 66.4757 83.3121 68.4719 84.6254 71.1511C85.9387 73.8303 86.1488 76.8247 85.2032 79.6615C83.6272 84.1793 79.267 87.1212 74.6441 87.1212ZM74.6441 65.425C70.2313 65.425 66.0812 68.2092 64.6103 72.622C62.7191 78.138 65.7135 84.1793 71.2294 86.0705C76.7454 87.9617 82.7867 84.9673 84.6779 79.4513C85.571 76.7721 85.4134 73.8828 84.1526 71.3612C82.8918 68.8396 80.7379 66.9484 78.0588 66.0029C76.9556 65.5826 75.7998 65.425 74.6441 65.425Z" fill="black"/>
<path d="M73.7578 78.6594C72.9172 78.3442 71.8141 77.6087 71.709 75.7175C71.709 75.4023 71.9191 75.1922 72.1818 75.1396C72.497 75.1396 72.7071 75.3498 72.7596 75.6124C72.8122 76.7156 73.2324 77.346 74.073 77.6087C74.9135 77.8714 75.649 77.6612 76.3319 76.8207C76.542 76.6106 76.8572 76.558 77.0673 76.7682C77.2775 76.9783 77.33 77.2935 77.1199 77.5036C75.9116 78.9746 74.6508 78.922 73.7578 78.6594Z" fill="black"/>
<path d="M71.5716 73.5699C71.823 72.828 71.4253 72.0227 70.6834 71.7714C69.9415 71.52 69.1362 71.9176 68.8849 72.6596C68.6335 73.4015 69.0311 74.2067 69.7731 74.4581C70.515 74.7095 71.3202 74.3118 71.5716 73.5699Z" fill="black"/>
<path d="M81.5579 76.9225C81.8093 76.1805 81.4116 75.3753 80.6697 75.1239C79.9278 74.8725 79.1225 75.2702 78.8712 76.0121C78.6198 76.754 79.0175 77.5593 79.7594 77.8106C80.5013 78.062 81.3065 77.6644 81.5579 76.9225Z" fill="black"/>
</svg>
