<svg width="843" height="225" viewBox="0 0 843 225" fill="none" xmlns="http://www.w3.org/2000/svg">
<path d="M820.737 127.283C827.448 116.463 831.176 103.403 831.176 88.8511C831.176 71.314 824.465 13.8521 737.969 13.8521H720.82C707.025 13.8521 696.213 17.5834 688.011 23.1803C675.708 16.8371 661.913 13.8521 648.491 13.8521C638.425 13.8521 627.986 15.3446 618.293 19.0759C609.718 9.0014 596.669 2.6582 581.01 2.6582H569.825C554.167 2.6582 541.118 9.0014 532.543 19.449C521.358 16.0909 507.936 13.8521 491.532 13.8521H474.382C466.553 13.8521 459.469 14.9715 453.504 17.2102C447.911 14.9715 441.573 13.8521 435.608 13.8521H390.869C377.447 13.8521 364.026 16.464 351.722 22.8072C343.52 16.8371 333.454 13.8521 323.761 13.8521H279.022C239.502 13.8521 197 38.1055 197 106.761V163.85C197.373 186.984 214.523 211.611 251.06 211.611C286.105 211.611 303.255 189.223 305.119 166.835H318.168C332.708 198.924 362.162 211.611 390.496 211.611H435.608C441.573 211.611 447.539 210.491 453.504 208.252C459.842 210.491 466.926 211.611 474.755 211.611C483.703 211.611 491.159 210.118 497.87 207.506C510.919 217.581 526.205 222.804 542.609 222.804C544.846 222.804 547.456 222.804 549.693 222.431L553.421 222.058L557.149 220.939C570.198 217.208 580.264 209.372 586.975 199.297C590.703 198.551 594.432 197.805 597.787 196.685C604.125 198.924 611.582 200.417 620.157 200.417C626.495 200.417 632.087 199.67 637.307 198.178C646.254 206.014 658.931 211.611 676.08 211.611C684.655 211.611 692.112 210.118 698.45 207.879C704.788 210.118 712.245 211.611 720.82 211.611C729.767 211.611 737.224 210.118 743.935 207.506C756.984 217.581 772.269 222.804 788.674 222.804C790.911 222.804 793.52 222.804 795.757 222.431L799.486 222.058L803.214 220.939C825.583 214.223 839.751 196.685 841.615 173.925C841.615 172.432 841.988 170.566 841.988 169.074C842.361 151.537 834.158 136.612 820.737 127.283Z" fill="white" stroke="black" stroke-width="1.5" stroke-miterlimit="10"/>
<path d="M267.483 128.991V162.637C267.483 170.11 261.868 173.867 250.659 173.867C239.554 173.867 233.938 170.214 233.834 162.909V106.282C233.897 69.0664 248.843 50.4482 278.714 50.4482H323.594C331.067 50.4482 334.824 56.0629 334.824 67.2714C334.824 78.4799 331.088 84.0946 323.594 84.0946H278.797V84.3659H278.714C273.516 84.3659 270.114 88.0186 268.548 95.3239H323.594C331.067 95.3239 334.824 100.939 334.824 112.147C334.824 123.356 331.088 128.97 323.594 128.97H267.483V128.991Z" fill="black"/>
<path d="M435.772 50.4486C443.245 50.4486 447.002 56.0633 447.002 67.2718C447.002 78.4802 443.265 84.0949 435.772 84.0949H390.892C385.569 83.9279 382.145 87.6641 380.642 95.3243H424.562C432.035 95.3243 435.792 100.939 435.792 112.147C435.792 123.356 432.056 128.971 424.562 128.971H380.642C382.166 136.443 385.59 140.2 390.892 140.2H435.772C443.245 140.2 447.002 145.815 447.002 157.023C447.002 168.232 443.265 173.846 435.772 173.846H390.892C360.979 174.013 346.012 155.416 346.012 118.013V106.783C346.012 69.2129 360.979 50.4277 390.892 50.4277H435.772V50.4486Z" fill="black"/>
<path d="M491.886 137.215V162.637C491.886 170.11 486.271 173.867 475.061 173.867C463.956 173.867 458.341 170.214 458.236 162.909V61.4063C458.362 54.1635 463.893 50.5109 474.894 50.4482H491.907C529.314 50.4482 548.017 63.0969 548.017 88.3943C548.017 106.741 538.227 118.451 518.647 123.543C533.655 143.351 544.155 154.184 550.125 156.063C556.659 158.108 559.686 162.867 559.164 170.339C558.642 177.812 554.634 182.675 547.161 184.887C534.073 186.056 522.801 181.214 513.324 170.339C504.786 159.945 497.668 148.903 491.886 137.215ZM491.886 78.9391V97.9538C506.853 97.9538 514.326 94.7812 514.326 88.436C514.326 82.1117 506.832 78.9391 491.886 78.9391Z" fill="black"/>
<path d="M559.203 50.4501C559.203 42.9777 562.94 39.2207 570.434 39.2207H581.664C589.137 39.2207 592.894 42.9569 592.894 50.4501V61.6794C592.894 69.1517 589.158 72.9088 581.664 72.9088H570.434C562.961 72.9088 559.203 69.1726 559.203 61.6794V50.4501ZM592.853 151.431C592.853 158.903 587.237 162.66 576.028 162.66C564.923 162.66 559.307 159.007 559.203 151.702V95.0544C559.328 87.749 564.923 84.0964 576.028 84.0964C587.258 84.0964 592.853 87.8325 592.853 95.3257V151.431Z" fill="black"/>
<path d="M694.013 162.637C694.013 170.11 688.398 173.867 677.188 173.867C665.978 173.867 660.363 170.131 660.363 162.637V140.2H637.902V151.429C637.902 158.901 632.287 162.658 621.078 162.658C609.973 162.658 604.357 159.006 604.253 151.7V106.553C604.253 69.1499 619.22 50.4482 649.133 50.4482C679.046 50.4482 694.013 69.1499 694.013 106.553V162.637ZM637.902 106.553H660.342C660.342 91.5877 656.606 84.1154 649.112 84.1154C641.66 84.1154 637.902 91.5877 637.902 106.553Z" fill="#2CA6BC"/>
<path d="M738.892 137.215V162.637C738.892 170.11 733.276 173.867 722.067 173.867C710.962 173.867 705.347 170.214 705.242 162.909V61.4063C705.367 54.1635 710.899 50.5109 721.9 50.4482H738.913C776.319 50.4482 795.023 63.0969 795.023 88.3943C795.023 106.741 785.233 118.451 765.653 123.543C780.661 143.351 791.161 154.184 797.131 156.063C803.665 158.108 806.692 162.867 806.17 170.339C805.648 177.812 801.64 182.675 794.167 184.887C781.079 186.056 769.807 181.214 760.33 170.339C751.813 159.945 744.674 148.903 738.892 137.215ZM738.892 78.9391V97.9538C753.859 97.9538 761.332 94.7812 761.332 88.436C761.332 82.1117 753.859 78.9391 738.892 78.9391Z" fill="#2CA6BC"/>
<path d="M113.12 224.71C175.087 224.71 225.321 174.481 225.321 112.519C225.321 50.5578 175.087 0.328125 113.12 0.328125C51.1524 0.328125 0.917969 50.5578 0.917969 112.519C0.917969 174.481 51.1524 224.71 113.12 224.71Z" fill="white"/>
<path fill-rule="evenodd" clip-rule="evenodd" d="M113.121 1.24805C51.6623 1.24805 1.83984 51.0657 1.83984 112.519C1.83984 173.972 51.6623 223.79 113.121 223.79C174.58 223.79 224.403 173.972 224.403 112.519C224.403 51.0657 174.58 1.24805 113.121 1.24805Z" stroke="black" stroke-width="1.5" stroke-miterlimit="10"/>
<path d="M114.391 200.027C161.76 200.027 200.16 161.63 200.16 114.265C200.16 66.9006 161.76 28.5039 114.391 28.5039C67.0214 28.5039 28.6211 66.9006 28.6211 114.265C28.6211 161.63 67.0214 200.027 114.391 200.027Z" fill="#FFE927"/>
<path d="M114.698 136.127C107.239 136.017 96.8989 132.83 90.8847 117.528C89.8925 115.346 91.0559 112.473 93.5219 111.773C95.6687 110.767 98.187 111.96 99.1879 114.458C102.536 123.205 107.616 127.168 114.764 127.287C122.223 127.396 127.086 123.474 130.576 114.855C131.446 112.621 134.214 111.598 136.413 112.484C138.612 113.37 139.622 116.184 138.751 118.417C132.633 133.107 122.157 136.237 114.698 136.127Z" fill="black"/>
<path d="M82.7405 100.288C82.8181 93.6661 77.598 88.2294 71.0811 88.1446C64.5641 88.0599 59.2182 93.3592 59.1406 99.9809C59.0629 106.603 64.283 112.039 70.8 112.124C77.3169 112.209 82.6629 106.91 82.7405 100.288Z" fill="black"/>
<path d="M170.86 100.735C170.937 94.1133 165.717 88.6766 159.2 88.5919C152.683 88.5071 147.337 93.8064 147.26 100.428C147.182 107.05 152.402 112.487 158.919 112.571C165.436 112.656 170.782 107.357 170.86 100.735Z" fill="black"/>
</svg>
