<svg width="842" height="225" viewBox="0 0 842 225" fill="none" xmlns="http://www.w3.org/2000/svg">
<path d="M819.819 126.282C826.53 115.462 830.258 102.402 830.258 87.8501C830.258 70.313 823.547 12.8511 737.051 12.8511H719.902C706.107 12.8511 695.295 16.5824 687.093 22.1793C674.79 15.8361 660.995 12.8511 647.573 12.8511C637.507 12.8511 627.068 14.3436 617.375 18.0749C608.8 8.00042 595.751 1.65723 580.092 1.65723H568.907C553.249 1.65723 540.2 8.00042 531.625 18.448C520.44 15.0899 507.018 12.8511 490.614 12.8511H473.464C465.635 12.8511 458.551 13.9705 452.586 16.2093C446.993 13.9705 440.655 12.8511 434.69 12.8511H389.951C376.529 12.8511 363.108 15.463 350.805 21.8062C342.602 15.8361 332.536 12.8511 322.843 12.8511H278.104C238.584 12.8511 196.082 37.1045 196.082 105.76V162.849C196.455 185.983 213.605 210.61 250.142 210.61C285.187 210.61 302.337 188.222 304.201 165.834H317.25C331.79 197.923 361.244 210.61 389.578 210.61H434.69C440.655 210.61 446.621 209.49 452.586 207.251C458.924 209.49 466.008 210.61 473.837 210.61C482.785 210.61 490.241 209.117 496.952 206.505C510.001 216.58 525.287 221.804 541.691 221.804C543.928 221.804 546.538 221.804 548.775 221.43L552.503 221.057L556.231 219.938C569.28 216.207 579.346 208.371 586.057 198.296C589.786 197.55 593.514 196.804 596.869 195.684C603.207 197.923 610.664 199.416 619.239 199.416C625.577 199.416 631.169 198.67 636.389 197.177C645.336 205.013 658.013 210.61 675.163 210.61C683.738 210.61 691.194 209.117 697.532 206.878C703.87 209.117 711.327 210.61 719.902 210.61C728.849 210.61 736.306 209.117 743.017 206.505C756.066 216.58 771.351 221.804 787.756 221.804C789.993 221.804 792.602 221.804 794.839 221.43L798.568 221.057L802.296 219.938C824.665 213.222 838.833 195.684 840.697 172.924C840.697 171.431 841.07 169.565 841.07 168.073C841.443 150.536 833.24 135.611 819.819 126.282Z" fill="white" stroke="black" stroke-width="1.5" stroke-miterlimit="10"/>
<path d="M266.566 127.99V161.636C266.566 169.109 260.95 172.866 249.741 172.866C238.636 172.866 233.02 169.213 232.916 161.908V105.281C232.979 68.0655 247.925 49.4473 277.796 49.4473H322.676C330.149 49.4473 333.906 55.0619 333.906 66.2704C333.906 77.4789 330.17 83.0936 322.676 83.0936H277.879V83.3649H277.796C272.598 83.3649 269.196 87.0176 267.63 94.3229H322.676C330.149 94.3229 333.906 99.9376 333.906 111.146C333.906 122.355 330.17 127.969 322.676 127.969H266.566V127.99Z" fill="black"/>
<path d="M434.854 49.4476C442.327 49.4476 446.084 55.0623 446.084 66.2708C446.084 77.4793 442.347 83.0939 434.854 83.0939H389.974C384.651 82.927 381.227 86.6631 379.724 94.3233H423.644C431.117 94.3233 434.874 99.938 434.874 111.146C434.874 122.355 431.138 127.97 423.644 127.97H379.724C381.248 135.442 384.672 139.199 389.974 139.199H434.854C442.327 139.199 446.084 144.814 446.084 156.022C446.084 167.231 442.347 172.845 434.854 172.845H389.974C360.061 173.012 345.094 154.415 345.094 117.012V105.782C345.094 68.2119 360.061 49.4268 389.974 49.4268H434.854V49.4476Z" fill="black"/>
<path d="M490.968 136.214V161.636C490.968 169.109 485.353 172.866 474.143 172.866C463.038 172.866 457.423 169.213 457.318 161.908V60.4053C457.444 53.1626 462.975 49.5099 473.976 49.4473H490.989C528.396 49.4473 547.099 62.0959 547.099 87.3933C547.099 105.74 537.309 117.45 517.729 122.542C532.737 142.35 543.237 153.183 549.207 155.062C555.741 157.107 558.768 161.866 558.246 169.338C557.724 176.811 553.716 181.674 546.243 183.886C533.155 185.055 521.883 180.213 512.406 169.338C503.868 158.944 496.75 147.902 490.968 136.214ZM490.968 77.9381V96.9529C505.935 96.9529 513.408 93.7803 513.408 87.435C513.408 81.1107 505.914 77.9381 490.968 77.9381Z" fill="black"/>
<path d="M558.285 49.4491C558.285 41.9768 562.022 38.2197 569.516 38.2197H580.746C588.219 38.2197 591.976 41.9559 591.976 49.4491V60.6784C591.976 68.1507 588.24 71.9078 580.746 71.9078H569.516C562.043 71.9078 558.285 68.1716 558.285 60.6784V49.4491ZM591.935 150.43C591.935 157.902 586.319 161.659 575.11 161.659C564.005 161.659 558.39 158.006 558.285 150.701V94.0534C558.41 86.7481 564.005 83.0954 575.11 83.0954C586.34 83.0954 591.935 86.8316 591.935 94.3247V150.43Z" fill="black"/>
<path d="M693.095 161.636C693.095 169.109 687.48 172.866 676.27 172.866C665.06 172.866 659.445 169.13 659.445 161.636V139.199H636.984V150.428C636.984 157.9 631.369 161.657 620.16 161.657C609.055 161.657 603.439 158.005 603.335 150.699V105.552C603.335 68.1489 618.302 49.4473 648.215 49.4473C678.128 49.4473 693.095 68.1489 693.095 105.552V161.636ZM636.984 105.552H659.424C659.424 90.5868 655.688 83.1145 648.194 83.1145C640.742 83.1145 636.984 90.5868 636.984 105.552Z" fill="#2CA6BC"/>
<path d="M737.974 136.214V161.636C737.974 169.109 732.359 172.866 721.149 172.866C710.044 172.866 704.429 169.213 704.324 161.908V60.4053C704.449 53.1626 709.981 49.5099 720.982 49.4473H737.995C775.401 49.4473 794.105 62.0959 794.105 87.3933C794.105 105.74 784.315 117.45 764.735 122.542C779.743 142.35 790.243 153.183 796.213 155.062C802.747 157.107 805.774 161.866 805.252 169.338C804.73 176.811 800.722 181.674 793.249 183.886C780.161 185.055 768.889 180.213 759.412 169.338C750.895 158.944 743.756 147.902 737.974 136.214ZM737.974 77.9381V96.9529C752.941 96.9529 760.414 93.7803 760.414 87.435C760.414 81.1107 752.941 77.9381 737.974 77.9381Z" fill="#2CA6BC"/>
<path d="M112.202 224.382C174.169 224.382 224.403 174.153 224.403 112.191C224.403 50.2297 174.169 0 112.202 0C50.2344 0 0 50.2297 0 112.191C0 174.153 50.2344 224.382 112.202 224.382Z" fill="white"/>
<path d="M112.203 0.919922C50.7443 0.919922 0.921875 50.7376 0.921875 112.191C0.921875 173.644 50.7443 223.462 112.203 223.462C173.662 223.462 223.485 173.644 223.485 112.191C223.485 50.7376 173.662 0.919922 112.203 0.919922Z" stroke="black" stroke-width="1.5" stroke-miterlimit="10"/>
<path d="M113.473 199.698C160.842 199.698 199.242 161.302 199.242 113.937C199.242 66.5725 160.842 28.1758 113.473 28.1758C66.1034 28.1758 27.7031 66.5725 27.7031 113.937C27.7031 161.302 66.1034 199.698 113.473 199.698Z" fill="#FFE927"/>
<path d="M113.78 135.8C106.321 135.69 95.981 132.503 89.9667 117.201C88.9745 115.019 90.1379 112.146 92.6039 111.446C94.7508 110.44 97.269 111.633 98.2699 114.131C101.618 122.877 106.698 126.841 113.846 126.959C121.305 127.069 126.168 123.147 129.658 114.528C130.528 112.294 133.296 111.271 135.495 112.157C137.694 113.043 138.704 115.856 137.833 118.09C131.715 132.78 121.239 135.91 113.78 135.8Z" fill="black"/>
<path d="M176.046 104.367L176.054 104.388L176.063 104.409C176.546 105.535 175.921 106.855 174.642 107.227L174.598 107.24L174.556 107.258C173.375 107.764 172.065 107.134 171.715 105.913L171.709 105.893L171.702 105.873C170.651 102.854 169.176 100.541 167.259 98.9604C165.333 97.373 163.011 96.5668 160.349 96.4811C157.681 96.3952 155.359 97.0697 153.35 98.5588C151.359 100.034 149.723 102.272 148.338 105.235C147.709 106.43 146.332 106.943 145.268 106.414C144.068 105.816 143.568 104.478 144.116 103.424L144.122 103.412L144.128 103.4C146.432 98.5627 149.315 95.7231 152.211 94.0939C155.115 92.4611 158.086 92.014 160.607 92.0508C163.113 92.0874 166.077 92.6991 168.852 94.5166C171.619 96.3291 174.249 99.3742 176.046 104.367Z" fill="black" stroke="black" stroke-width="1.5"/>
<path d="M84.4331 102.209L84.4407 102.23L84.4495 102.251C84.9327 103.377 84.3076 104.696 83.0285 105.069L82.9844 105.081L82.9423 105.099C81.7616 105.606 80.4514 104.976 80.1019 103.755L80.0961 103.734L80.0891 103.714C79.0375 100.695 77.5631 98.3826 75.6458 96.8022C73.72 95.2148 71.3982 94.4086 68.7361 94.3229C66.0672 94.237 63.7461 94.9115 61.7365 96.4006C59.7452 97.8761 58.1096 100.114 56.7249 103.077C56.0955 104.272 54.7184 104.785 53.6548 104.256C52.4544 103.658 51.9549 102.32 52.5029 101.266L52.509 101.254L52.5146 101.242C54.8188 96.4045 57.7014 93.5649 60.5981 91.9357C63.5014 90.3029 66.4727 89.8558 68.9933 89.8926C71.4997 89.9292 74.4638 90.5409 77.2385 92.3584C80.0056 94.1709 82.636 97.216 84.4331 102.209Z" fill="black" stroke="black" stroke-width="1.5"/>
</svg>
