<svg width="150" height="150" viewBox="0 0 150 150" fill="none" xmlns="http://www.w3.org/2000/svg">
<circle cx="75" cy="75" r="74.5" fill="white" stroke="black"/>
<path d="M74.9999 115.715C53.0883 115.715 35.2852 97.9114 35.2852 75.9999C35.2852 54.0883 53.0883 36.2852 74.9999 36.2852C96.9114 36.2852 114.715 54.0883 114.715 75.9999C114.715 97.9114 96.9114 115.715 74.9999 115.715Z" fill="white"/>
<path d="M75 116C52.9173 116 35 98.0827 35 76C35 53.9173 52.9173 36 75 36C97.0828 36 115 53.9173 115 76C115 98.0827 97.0257 116 75 116ZM75 36.5706C53.2597 36.5706 35.5706 54.2596 35.5706 76C35.5706 97.7404 53.2597 115.429 75 115.429C96.7404 115.429 114.429 97.7404 114.429 76C114.429 54.2596 96.7404 36.5706 75 36.5706Z" fill="black"/>
<path d="M74.9993 41.1357C55.7696 41.1357 40.1348 56.7706 40.1348 76.0002C40.1348 95.2299 55.7696 110.865 74.9993 110.865C94.2289 110.865 109.864 95.2299 109.864 76.0002C109.864 56.7706 94.2289 41.1357 74.9993 41.1357Z" fill="black"/>
<path d="M74.9985 109.436C93.4658 109.436 108.436 94.4658 108.436 75.9985C108.436 57.5312 93.4658 42.5605 74.9985 42.5605C56.5312 42.5605 41.5605 57.5312 41.5605 75.9985C41.5605 94.4658 56.5312 109.436 74.9985 109.436Z" fill="#92DDEA"/>
<path d="M74.9993 110.864C55.7696 110.864 40.1348 95.2289 40.1348 75.9992C40.1348 56.7696 55.7696 41.1348 74.9993 41.1348C94.2289 41.1348 109.864 56.7696 109.864 75.9992C109.864 95.2289 94.2289 110.864 74.9993 110.864ZM74.9993 43.9878C57.3673 43.9878 42.9878 58.3673 42.9878 75.9992C42.9878 93.6312 57.3673 108.011 74.9993 108.011C92.6312 108.011 107.011 93.6312 107.011 75.9992C107.011 58.3673 92.6312 43.9878 74.9993 43.9878Z" fill="black"/>
<path d="M67.6406 77.4258C69.1813 81.1348 71.5779 83.0178 75.0016 83.0178C78.3682 83.0178 80.8218 81.1348 82.3624 77.4258" fill="#7FCDE5"/>
<path d="M75.0019 84.6154C72.2059 84.6154 68.3828 83.4741 66.1574 77.9962C65.8151 77.1403 66.2145 76.2273 67.0704 75.885C67.9263 75.5426 68.8393 75.942 69.1817 76.798C70.437 79.9363 72.3201 81.3629 75.0019 81.3629C77.7409 81.3629 79.5668 79.8793 80.8222 76.798C81.1645 75.942 82.1346 75.5426 82.9334 75.885C83.7894 76.2273 84.1888 77.1974 83.8464 77.9962C81.6211 83.4741 77.7979 84.6154 75.0019 84.6154Z" fill="black"/>
<path d="M59.0788 76.1714C61.4739 76.1714 63.4155 74.2298 63.4155 71.8347C63.4155 69.4396 61.4739 67.498 59.0788 67.498C56.6838 67.498 54.7422 69.4396 54.7422 71.8347C54.7422 74.2298 56.6838 76.1714 59.0788 76.1714Z" fill="black"/>
<path d="M91.6628 76.1714C94.0579 76.1714 95.9995 74.2298 95.9995 71.8347C95.9995 69.4396 94.0579 67.498 91.6628 67.498C89.2677 67.498 87.3262 69.4396 87.3262 71.8347C87.3262 74.2298 89.2677 76.1714 91.6628 76.1714Z" fill="black"/>
</svg>
