<svg width="72" height="80" viewBox="0 0 72 80" fill="none" xmlns="http://www.w3.org/2000/svg">
<path d="M53.5608 35.5395L44.1289 35.4888L56.4716 12.7474L35.3414 11.6668L20.5158 39.9489L28.6106 39.6469L16.386 67.3143L53.5608 35.5395Z" fill="white"/>
<path fill-rule="evenodd" clip-rule="evenodd" d="M35.1122 11.2705L57.0993 12.3949L44.7719 35.1081L54.5922 35.1609L15.3487 68.7038L28.0082 40.0521L19.8655 40.356L35.1122 11.2705ZM35.5675 12.0617L21.163 39.5404L29.21 39.2402L17.4203 65.9232L52.5265 35.9166L43.4829 35.868L55.8408 13.0985L35.5675 12.0617Z" fill="#342D27"/>
<path d="M49.276 37.3213L40.3783 36.9992L52.9137 14.3748L36.6251 13.7851L23.6137 37.5666L32.437 37.886L21.6066 60.5722L49.276 37.3213Z" fill="#FFE927"/>
<path fill-rule="evenodd" clip-rule="evenodd" d="M36.5125 13.5898L53.2335 14.1951L40.6981 36.8195L49.7806 37.1484L21.0498 61.291L32.1368 38.0676L23.2952 37.7476L36.5125 13.5898ZM36.7372 13.9816L23.9316 37.3869L32.7367 37.7057L22.1628 59.8545L48.7709 37.4955L40.058 37.1801L52.5934 14.5557L36.7372 13.9816Z" fill="#FFE927" stroke="black" stroke-miterlimit="10"/>
</svg>
