<svg width="30" height="30" viewBox="0 0 30 30" fill="none" xmlns="http://www.w3.org/2000/svg">
<path d="M8.5 19.5489V20.0489H9H11.5V29.1484C5.18883 27.5744 0.5 21.8592 0.5 15.0376C0.5 7.0118 6.99732 0.5 15 0.5C23.0027 0.5 29.5 7.0118 29.5 15.0376C29.5 22.3936 24.0561 28.4634 17 29.4373V20.0489H21H21.5V19.5489V15.0376V14.5376H21H17V12.0301C17 11.478 17.4523 11.0263 18 11.0263H21H21.5V10.5263V6.01504V5.51504H21H17.25C14.0777 5.51504 11.5 8.10098 11.5 11.2782V14.5376H9H8.5V15.0376V19.5489Z" fill="#0E6372" stroke="black"/>
</svg>
