<svg width="31" height="30" viewBox="0 0 31 30" fill="none" xmlns="http://www.w3.org/2000/svg">
<mask id="path-1-inside-1_1682_1997" fill="white">
<path fill-rule="evenodd" clip-rule="evenodd" d="M15.2182 0C11.1444 0 10.6331 0.0178128 9.03312 0.0906253C7.43623 0.16375 6.34623 0.416563 5.39247 0.7875C4.4059 1.17063 3.56902 1.68313 2.73526 2.51719C1.90088 3.35094 1.38837 4.18781 1.004 5.17406C0.632118 6.12812 0.378985 7.21844 0.30711 8.81469C0.235547 10.4147 0.216797 10.9262 0.216797 15C0.216797 19.0737 0.234924 19.5834 0.307424 21.1834C0.380862 22.7803 0.633682 23.8703 1.00431 24.8241C1.38775 25.8106 1.90026 26.6475 2.73433 27.4813C3.56777 28.3156 4.40465 28.8294 5.39059 29.2125C6.34497 29.5834 7.4353 29.8363 9.03187 29.9094C10.6319 29.9822 11.1428 30 15.2163 30C19.2904 30 19.8001 29.9822 21.4002 29.9094C22.997 29.8363 24.0883 29.5834 25.0427 29.2125C26.0289 28.8294 26.8646 28.3156 27.698 27.4813C28.5324 26.6475 29.0449 25.8106 29.4293 24.8244C29.798 23.8703 30.0512 22.78 30.1262 21.1837C30.198 19.5837 30.2168 19.0737 30.2168 15C30.2168 10.9262 30.198 10.415 30.1262 8.815C30.0512 7.21812 29.798 6.12812 29.4293 5.17437C29.0449 4.18781 28.5324 3.35094 27.698 2.51719C26.8636 1.68281 26.0293 1.17031 25.0418 0.7875C24.0855 0.416563 22.9948 0.16375 21.398 0.0906253C19.798 0.0178128 19.2885 0 15.2135 0H15.2182ZM21.5865 7.38784C21.5865 6.2977 22.4706 5.41455 23.5603 5.41455C24.6499 5.41455 25.534 6.29804 25.534 7.38784C25.534 8.47764 24.6499 9.36182 23.5603 9.36182C22.4706 9.36182 21.5865 8.47764 21.5865 7.38784ZM6.33398 16.1686C6.33398 11.5034 10.1159 7.72095 14.7806 7.72095C19.4452 7.72095 23.2258 11.5034 23.2258 16.1686C23.2258 20.8338 19.4452 24.6146 14.7806 24.6146C10.1159 24.6146 6.33398 20.8338 6.33398 16.1686ZM20.2632 16.1686C20.2632 13.1401 17.8083 10.6853 14.7806 10.6853C11.7525 10.6853 9.29801 13.1401 9.29801 16.1686C9.29801 19.1967 11.7525 21.6519 14.7806 21.6519C17.8083 21.6519 20.2632 19.1967 20.2632 16.1686Z"/>
</mask>
<path fill-rule="evenodd" clip-rule="evenodd" d="M15.2182 0C11.1444 0 10.6331 0.0178128 9.03312 0.0906253C7.43623 0.16375 6.34623 0.416563 5.39247 0.7875C4.4059 1.17063 3.56902 1.68313 2.73526 2.51719C1.90088 3.35094 1.38837 4.18781 1.004 5.17406C0.632118 6.12812 0.378985 7.21844 0.30711 8.81469C0.235547 10.4147 0.216797 10.9262 0.216797 15C0.216797 19.0737 0.234924 19.5834 0.307424 21.1834C0.380862 22.7803 0.633682 23.8703 1.00431 24.8241C1.38775 25.8106 1.90026 26.6475 2.73433 27.4813C3.56777 28.3156 4.40465 28.8294 5.39059 29.2125C6.34497 29.5834 7.4353 29.8363 9.03187 29.9094C10.6319 29.9822 11.1428 30 15.2163 30C19.2904 30 19.8001 29.9822 21.4002 29.9094C22.997 29.8363 24.0883 29.5834 25.0427 29.2125C26.0289 28.8294 26.8646 28.3156 27.698 27.4813C28.5324 26.6475 29.0449 25.8106 29.4293 24.8244C29.798 23.8703 30.0512 22.78 30.1262 21.1837C30.198 19.5837 30.2168 19.0737 30.2168 15C30.2168 10.9262 30.198 10.415 30.1262 8.815C30.0512 7.21812 29.798 6.12812 29.4293 5.17437C29.0449 4.18781 28.5324 3.35094 27.698 2.51719C26.8636 1.68281 26.0293 1.17031 25.0418 0.7875C24.0855 0.416563 22.9948 0.16375 21.398 0.0906253C19.798 0.0178128 19.2885 0 15.2135 0H15.2182ZM21.5865 7.38784C21.5865 6.2977 22.4706 5.41455 23.5603 5.41455C24.6499 5.41455 25.534 6.29804 25.534 7.38784C25.534 8.47764 24.6499 9.36182 23.5603 9.36182C22.4706 9.36182 21.5865 8.47764 21.5865 7.38784ZM6.33398 16.1686C6.33398 11.5034 10.1159 7.72095 14.7806 7.72095C19.4452 7.72095 23.2258 11.5034 23.2258 16.1686C23.2258 20.8338 19.4452 24.6146 14.7806 24.6146C10.1159 24.6146 6.33398 20.8338 6.33398 16.1686ZM20.2632 16.1686C20.2632 13.1401 17.8083 10.6853 14.7806 10.6853C11.7525 10.6853 9.29801 13.1401 9.29801 16.1686C9.29801 19.1967 11.7525 21.6519 14.7806 21.6519C17.8083 21.6519 20.2632 19.1967 20.2632 16.1686Z" fill="#0E6372"/>
<path d="M9.03312 0.0906253L8.99675 -0.708548L8.99652 -0.708537L9.03312 0.0906253ZM5.39247 0.7875L5.68207 1.53324L5.68245 1.5331L5.39247 0.7875ZM2.73526 2.51719L3.30073 3.08309L3.30105 3.08277L2.73526 2.51719ZM1.004 5.17406L1.74937 5.4646L1.74939 5.46457L1.004 5.17406ZM0.30711 8.81469L-0.492081 8.7787L-0.492091 8.77894L0.30711 8.81469ZM0.307424 21.1834L-0.491756 21.2197L-0.491731 21.2202L0.307424 21.1834ZM1.00431 24.8241L0.258633 25.1138L0.258649 25.1139L1.00431 24.8241ZM2.73433 27.4813L3.30033 26.9159L3.2999 26.9155L2.73433 27.4813ZM5.39059 29.2125L5.68041 28.4668L5.68035 28.4668L5.39059 29.2125ZM9.03187 29.9094L8.99527 30.7085L8.9955 30.7086L9.03187 29.9094ZM21.4002 29.9094L21.4365 30.7086L21.4367 30.7085L21.4002 29.9094ZM25.0427 29.2125L24.753 28.4668L24.7529 28.4668L25.0427 29.2125ZM27.698 27.4813L27.1326 26.9154L27.132 26.9159L27.698 27.4813ZM29.4293 24.8244L30.1747 25.1149L30.1755 25.1128L29.4293 24.8244ZM30.1262 21.1837L30.9253 21.2213L30.9254 21.2197L30.1262 21.1837ZM30.1262 8.815L30.9254 8.7791L30.9253 8.77747L30.1262 8.815ZM29.4293 5.17437L30.1755 4.88588L30.1747 4.88395L29.4293 5.17437ZM27.698 2.51719L27.1323 3.08288L27.1326 3.08309L27.698 2.51719ZM25.0418 0.7875L24.7524 1.53335L24.7526 1.53341L25.0418 0.7875ZM21.398 0.0906253L21.4346 -0.708537L21.4343 -0.708548L21.398 0.0906253ZM9.06949 0.889798C10.6514 0.817809 11.1485 0.8 15.2182 0.8V-0.8C11.1403 -0.8 10.6149 -0.782183 8.99675 -0.708548L9.06949 0.889798ZM5.68245 1.5331C6.54524 1.19754 7.54826 0.959459 9.06972 0.889788L8.99652 -0.708537C7.32421 -0.631958 6.14722 -0.364412 5.10249 0.0419049L5.68245 1.5331ZM3.30105 3.08277C4.0506 2.33295 4.79135 1.87915 5.68207 1.53324L5.10287 0.0417584C4.02045 0.462104 3.08744 1.0333 2.16947 1.95161L3.30105 3.08277ZM1.74939 5.46457C2.09666 4.57351 2.55067 3.83259 3.30073 3.08309L2.16979 1.95129C1.2511 2.86929 0.680082 3.80212 0.258605 4.88356L1.74939 5.46457ZM1.1063 8.85067C1.17476 7.33033 1.41307 6.3274 1.74937 5.4646L0.258617 4.88353C-0.148833 5.92885 -0.416787 7.10654 -0.492081 8.7787L1.1063 8.85067ZM1.0168 15C1.0168 10.9308 1.03553 10.4329 1.10631 8.85043L-0.492091 8.77894C-0.564437 10.3964 -0.583203 10.9217 -0.583203 15H1.0168ZM1.1066 21.1472C1.03492 19.5651 1.0168 19.0695 1.0168 15H-0.583203C-0.583203 19.078 -0.565068 19.6017 -0.491756 21.2197L1.1066 21.1472ZM1.74999 24.5343C1.41465 23.6714 1.17655 22.6682 1.10658 21.1467L-0.491731 21.2202C-0.414828 22.8924 -0.147284 24.0693 0.258633 25.1138L1.74999 24.5343ZM3.2999 26.9155C2.55008 26.1659 2.09622 25.4251 1.74997 24.5343L0.258649 25.1139C0.679281 26.1961 1.25044 27.1291 2.16875 28.047L3.2999 26.9155ZM5.68035 28.4668C4.7907 28.1211 4.04986 27.6662 3.30033 26.9159L2.16833 28.0466C3.08568 28.965 4.01859 29.5376 5.10083 29.9582L5.68035 28.4668ZM9.06847 29.1102C7.54735 29.0405 6.54394 28.8025 5.68041 28.4668L5.10078 29.9582C6.14601 30.3644 7.32325 30.632 8.99527 30.7085L9.06847 29.1102ZM15.2163 29.2C11.147 29.2 10.6502 29.1822 9.06824 29.1102L8.9955 30.7086C10.6136 30.7822 11.1387 30.8 15.2163 30.8V29.2ZM21.3638 29.1102C19.7819 29.1822 19.2862 29.2 15.2163 29.2V30.8C19.2945 30.8 19.8184 30.7822 21.4365 30.7086L21.3638 29.1102ZM24.7529 28.4668C23.8894 28.8024 22.8851 29.0405 21.3636 29.1102L21.4367 30.7085C23.109 30.632 24.2872 30.3644 25.3325 29.9582L24.7529 28.4668ZM27.132 26.9159C26.3823 27.6665 25.6426 28.1212 24.753 28.4668L25.3324 29.9582C26.4153 29.5375 27.3469 28.9648 28.264 28.0466L27.132 26.9159ZM28.6839 24.5339C28.3366 25.4249 27.8826 26.1659 27.1326 26.9154L28.2635 28.0471C29.1822 27.1291 29.7532 26.1963 30.1747 25.1149L28.6839 24.5339ZM29.3271 21.1462C29.2556 22.6673 29.0172 23.6716 28.6831 24.536L30.1755 25.1128C30.5789 24.069 30.8468 22.8927 30.9253 21.2213L29.3271 21.1462ZM29.4168 15C29.4168 19.0692 29.3981 19.5654 29.327 21.1478L30.9254 21.2197C30.998 19.6021 31.0168 19.0783 31.0168 15H29.4168ZM29.327 8.8509C29.3981 10.4333 29.4168 10.9308 29.4168 15H31.0168C31.0168 10.9217 30.998 10.3967 30.9254 8.7791L29.327 8.8509ZM28.6831 5.46287C29.0172 6.32683 29.2556 7.33078 29.3271 8.85253L30.9253 8.77747C30.8468 7.10547 30.5789 5.92942 30.1755 4.88588L28.6831 5.46287ZM27.1326 3.08309C27.8826 3.83257 28.3366 4.57347 28.6839 5.4648L30.1747 4.88395C29.7532 3.80216 29.1822 2.8693 28.2635 1.95129L27.1326 3.08309ZM24.7526 1.53341C25.6433 1.87868 26.3816 2.33218 27.1323 3.08288L28.2637 1.9515C27.3457 1.03345 26.4153 0.461943 25.3309 0.0415861L24.7526 1.53341ZM21.3614 0.889788C22.8827 0.959455 23.8867 1.19752 24.7524 1.53335L25.3311 0.041649C24.2843 -0.364396 23.107 -0.631954 21.4346 -0.708537L21.3614 0.889788ZM15.2135 0.8C19.2844 0.8 19.7797 0.817809 21.3616 0.889798L21.4343 -0.708548C19.8162 -0.782183 19.2927 -0.8 15.2135 -0.8V0.8ZM15.2182 -0.8H15.2135V0.8H15.2182V-0.8ZM23.5603 4.61455C22.0291 4.61455 20.7865 5.85551 20.7865 7.38784H22.3865C22.3865 6.73989 22.9121 6.21455 23.5603 6.21455V4.61455ZM26.334 7.38784C26.334 5.85594 25.0915 4.61455 23.5603 4.61455V6.21455C24.2084 6.21455 24.734 6.74014 24.734 7.38784H26.334ZM23.5603 10.1618C25.0918 10.1618 26.334 8.91938 26.334 7.38784H24.734C24.734 8.03591 24.208 8.56182 23.5603 8.56182V10.1618ZM20.7865 7.38784C20.7865 8.91937 22.0287 10.1618 23.5603 10.1618V8.56182C22.9125 8.56182 22.3865 8.03591 22.3865 7.38784H20.7865ZM14.7806 6.92095C9.67402 6.92095 5.53398 11.0616 5.53398 16.1686H7.13398C7.13398 11.9451 10.5579 8.52095 14.7806 8.52095V6.92095ZM24.0258 16.1686C24.0258 11.0618 19.8873 6.92095 14.7806 6.92095V8.52095C19.0031 8.52095 22.4258 11.9449 22.4258 16.1686H24.0258ZM14.7806 25.4146C19.8871 25.4146 24.0258 21.2756 24.0258 16.1686H22.4258C22.4258 20.3921 19.0034 23.8146 14.7806 23.8146V25.4146ZM5.53398 16.1686C5.53398 21.2758 9.67423 25.4146 14.7806 25.4146V23.8146C10.5576 23.8146 7.13398 20.3919 7.13398 16.1686H5.53398ZM14.7806 11.4853C17.3665 11.4853 19.4632 13.5819 19.4632 16.1686H21.0632C21.0632 12.6984 18.2502 9.88534 14.7806 9.88534V11.4853ZM10.098 16.1686C10.098 13.5819 12.1944 11.4853 14.7806 11.4853V9.88534C11.3106 9.88534 8.49801 12.6984 8.49801 16.1686H10.098ZM14.7806 20.8519C12.1944 20.8519 10.098 18.755 10.098 16.1686H8.49801C8.49801 19.6384 11.3105 22.4519 14.7806 22.4519V20.8519ZM19.4632 16.1686C19.4632 18.755 17.3664 20.8519 14.7806 20.8519V22.4519C18.2503 22.4519 21.0632 19.6385 21.0632 16.1686H19.4632Z" fill="black" mask="url(#path-1-inside-1_1682_1997)"/>
</svg>
