<svg width="31" height="30" viewBox="0 0 31 30" fill="none" xmlns="http://www.w3.org/2000/svg">
<path d="M24.861 1.2537L24.8609 1.25366C23.9613 0.904672 22.9248 0.66108 21.3752 0.590108L24.861 1.2537ZM24.861 1.2537C25.788 1.61304 26.5624 2.08867 27.3445 2.87074L27.3446 2.87087M24.861 1.2537L27.3446 2.87087M27.3446 2.87087C28.1262 3.65192 28.6022 4.42877 28.9633 5.35576C29.3101 6.25296 29.5539 7.28874 29.6267 8.83753C29.6981 10.4265 29.7168 10.9292 29.7168 15C29.7168 19.0706 29.6981 19.5722 29.6267 21.161C29.5539 22.7098 29.31 23.7461 28.963 24.6439C28.6019 25.5702 28.126 26.3468 27.3446 27.1276L27.3443 27.1279M27.3446 2.87087L27.3443 27.1279M27.3443 27.1279C26.5631 27.9099 25.7875 28.3868 24.8616 28.7464L24.8616 28.7465M27.3443 27.1279L24.8616 28.7465M24.8616 28.7465C23.964 29.0953 22.9271 29.3389 21.3773 29.4099L24.8616 28.7465ZM5.57169 28.7464L5.57173 28.7465C6.4693 29.0953 7.50526 29.3389 9.0546 29.4099C9.05465 29.4099 9.0547 29.4099 9.05475 29.4099L9.03187 29.9094C10.6319 29.9822 11.1428 30 15.2163 30L5.57169 28.7464ZM5.57169 28.7464C4.64593 28.3867 3.86908 27.9098 3.08808 27.1279L3.08781 27.1276M5.57169 28.7464L3.08781 27.1276M3.08781 27.1276C2.3064 26.3465 1.83055 25.5697 1.47036 24.643M3.08781 27.1276L1.47036 24.643M1.46986 5.35563L1.46986 5.35565C1.12022 6.25264 0.876359 7.2883 0.80661 8.83703L1.46986 5.35563ZM1.46986 5.35563C1.83106 4.42887 2.307 3.65197 3.08868 2.87087L3.08888 2.87068M1.46986 5.35563L3.08888 2.87068M3.08888 2.87068C3.87 2.08926 4.64681 1.61345 5.57347 1.25359L5.57371 1.2535M3.08888 2.87068L5.57371 1.2535M5.57371 1.2535C6.47058 0.904683 7.50619 0.661083 9.05585 0.590108L5.57371 1.2535ZM1.47036 24.643C1.1218 23.746 0.878181 22.7103 0.806902 21.1606L1.47036 24.643ZM0.716797 15C0.716797 19.0708 0.734916 19.5719 0.806896 21.1605L0.716797 15ZM0.716797 15C0.716797 10.9292 0.735535 10.4261 0.806603 8.83718L0.716797 15ZM9.05599 0.590102C10.644 0.517837 11.1467 0.500014 15.2135 0.5L9.05599 0.590102ZM15.2182 0.5C19.2862 0.500014 19.7871 0.517837 21.3751 0.590102L15.2182 0.5Z" fill="#0E6372" stroke="black"/>
<path d="M23.5603 5.41455C22.4706 5.41455 21.5865 6.2977 21.5865 7.38784C21.5865 8.47764 22.4706 9.36182 23.5603 9.36182C24.6499 9.36182 25.534 8.47764 25.534 7.38784C25.534 6.29804 24.6499 5.41455 23.5603 5.41455ZM14.7806 7.72095C10.1159 7.72095 6.33398 11.5034 6.33398 16.1686C6.33398 20.8338 10.1159 24.6146 14.7806 24.6146C19.4452 24.6146 23.2258 20.8338 23.2258 16.1686C23.2258 11.5034 19.4452 7.72095 14.7806 7.72095ZM14.7806 10.6853C17.8083 10.6853 20.2632 13.1401 20.2632 16.1686C20.2632 19.1967 17.8083 21.6519 14.7806 21.6519C11.7525 21.6519 9.29801 19.1967 9.29801 16.1686C9.29801 13.1401 11.7525 10.6853 14.7806 10.6853Z" fill="#92DDEA"/>
<path d="M23.5603 5.41455C22.4706 5.41455 21.5865 6.2977 21.5865 7.38784C21.5865 8.47764 22.4706 9.36182 23.5603 9.36182C24.6499 9.36182 25.534 8.47764 25.534 7.38784C25.534 6.29804 24.6499 5.41455 23.5603 5.41455ZM14.7806 7.72095C10.1159 7.72095 6.33398 11.5034 6.33398 16.1686C6.33398 20.8338 10.1159 24.6146 14.7806 24.6146C19.4452 24.6146 23.2258 20.8338 23.2258 16.1686C23.2258 11.5034 19.4452 7.72095 14.7806 7.72095ZM14.7806 10.6853C17.8083 10.6853 20.2632 13.1401 20.2632 16.1686C20.2632 19.1967 17.8083 21.6519 14.7806 21.6519C11.7525 21.6519 9.29801 19.1967 9.29801 16.1686C9.29801 13.1401 11.7525 10.6853 14.7806 10.6853Z" stroke="black"/>
</svg>
