<svg width="35" height="30" viewBox="0 0 35 30" fill="none" xmlns="http://www.w3.org/2000/svg">
<path d="M30.5222 8.02317L30.2968 8.18088L30.294 8.45558C30.2908 8.76009 30.2797 9.06583 30.2644 9.37441C29.8041 18.6736 22.6983 28.9772 10.7889 28.4176C7.84249 28.2791 5.09758 27.3988 2.68992 25.9599C5.78568 25.9991 8.6815 24.9498 11.0436 23.1392L12.1755 22.2717L10.7539 22.1841C8.36767 22.037 6.35813 20.4016 5.49004 18.1268C5.64094 18.1439 5.79313 18.1561 5.94649 18.1633C6.60422 18.1942 7.25054 18.132 7.87676 17.9746L7.88513 16.9418C5.3486 16.2733 3.44069 13.8889 3.26591 10.9871C4.00563 11.341 4.81658 11.5736 5.67349 11.6473L7.43583 11.799L6.05346 10.6985C4.45734 9.42788 3.45761 7.33299 3.57251 5.01156C3.61813 4.09001 3.83674 3.216 4.19371 2.42771C7.36189 6.66766 12.067 9.55858 17.4811 10.1056L18.1765 10.1758L18.0623 9.48658C17.9806 8.99346 17.9516 8.47405 17.9772 7.95592C18.161 4.24404 21.0969 1.43492 24.4607 1.59297C26.2176 1.67553 27.7727 2.5426 28.8349 3.88349L29.0275 4.12667L29.3346 4.07861C30.4148 3.90951 31.4552 3.60459 32.4423 3.18191C31.868 4.10786 31.0893 4.86585 30.1844 5.38396L30.4892 6.37817C31.2829 6.31573 32.0598 6.18284 32.8138 5.98434C32.1229 6.75503 31.3536 7.44138 30.5222 8.02317Z" fill="#0E6372" stroke="black"/>
</svg>
