<svg width="150" height="150" viewBox="0 0 150 150" fill="none" xmlns="http://www.w3.org/2000/svg">
<circle cx="75" cy="75" r="74.5" fill="white" stroke="black"/>
<path d="M46.1048 116.792C40.6641 116.792 36.2598 112.388 36.2598 106.947V57.4112C36.2598 48.8098 43.0995 41.8146 51.6491 41.5556V38.0321C51.6491 33.7832 55.1207 30.3115 59.3696 30.3115H61.7013C65.9502 30.3115 69.4219 33.7832 69.4219 38.0321V41.5556H77.8161V38.0321C77.8161 33.7832 81.2877 30.3115 85.5366 30.3115H87.8683C92.1172 30.3115 95.5889 33.7832 95.5889 38.0321V41.5556H95.6407C104.398 41.5556 111.496 48.6543 111.496 57.4112V106.947C111.496 112.388 107.092 116.792 101.651 116.792H46.1048ZM101.91 107.051L101.703 106.947L101.237 105.444C101.081 105.496 101.03 105.548 100.978 105.548L101.651 106.895L100.252 106.222C100.252 106.274 100.2 106.325 100.2 106.325L101.651 106.895L101.703 106.947V106.895L101.91 107.051Z" fill="white"/>
<path d="M101.651 117.051H46.1041C40.508 117.051 36 112.543 36 106.947V57.4106C36 48.861 42.8915 41.7104 51.3893 41.2958V37.9796C51.3893 33.5753 54.9646 30 59.3689 30H61.7007C66.105 30 69.6803 33.5753 69.6803 37.9796V41.244H77.5563V37.9796C77.5563 33.5753 81.1316 30 85.5359 30H87.8677C92.272 30 95.8473 33.5753 95.8473 37.9796V41.244C104.656 41.3995 111.755 48.5501 111.755 57.3588V106.895C111.755 112.543 107.247 117.051 101.651 117.051ZM59.4208 30.57C55.2755 30.57 51.9593 33.938 51.9593 38.0315V41.814H51.7002C43.3578 42.0731 36.57 49.0682 36.57 57.4106V106.947C36.57 112.232 40.8707 116.532 46.1559 116.532H101.702C106.988 116.532 111.288 112.232 111.288 106.947V57.4106C111.288 48.8091 104.293 41.814 95.6918 41.814H95.4328L95.3291 41.5549V38.0315C95.3291 33.8862 91.9611 30.57 87.8677 30.57H85.5359C81.3907 30.57 78.0745 33.938 78.0745 38.0315V41.814H69.1621V38.0315C69.1621 33.8862 65.7941 30.57 61.7007 30.57H59.4208ZM102.221 107.516L101.599 107.257L99.8889 106.636L99.9926 106.377C99.9926 106.325 100.044 106.273 100.044 106.221L100.148 105.962L101.081 106.428L100.614 105.496L100.822 105.392C100.873 105.392 100.977 105.34 101.133 105.288L101.392 105.237L101.91 106.843L102.013 106.895L101.962 107.05L102.221 107.516Z" fill="black"/>
<path d="M95.657 45.9398H91.1974V37.9711C91.1974 36.1481 89.6936 34.6377 87.8787 34.6377H85.5452C83.7303 34.6377 82.2265 36.1481 82.2265 37.9711V45.9398H65.0106V37.9711C65.0106 36.1481 63.5068 34.6377 61.6919 34.6377H59.3584C57.5435 34.6377 56.0397 36.1481 56.0397 37.9711V45.9398H52.0987C45.7723 45.9398 40.6387 51.0961 40.6387 57.4503V107.242C40.6387 110.263 43.0759 112.711 46.0835 112.711H101.672C104.68 112.711 107.117 110.263 107.117 107.242V57.4503C107.117 51.1482 101.983 45.9398 95.657 45.9398ZM104.369 108.284C104.369 108.336 104.317 108.388 104.317 108.44C104.317 108.388 104.317 108.336 104.369 108.284ZM45.5131 110.055C45.2538 110.003 44.9945 109.899 44.7352 109.742C44.4759 109.586 44.2685 109.43 44.0611 109.274C43.8537 109.065 43.6981 108.857 43.5944 108.596C43.4389 108.336 43.387 108.076 43.2833 107.815C43.2314 107.607 43.2314 107.451 43.2314 107.242C43.2314 107.451 43.2314 107.659 43.2833 107.815C43.3351 108.076 43.4389 108.336 43.5944 108.596C43.75 108.857 43.9055 109.065 44.0611 109.274C44.2685 109.482 44.4759 109.638 44.7352 109.742C44.9945 109.846 45.2538 110.003 45.5131 110.055C45.7205 110.107 45.876 110.107 46.0835 110.107C45.9279 110.107 45.7205 110.107 45.5131 110.055ZM102.554 110.003C102.709 109.951 102.865 109.899 102.969 109.846C102.813 109.899 102.709 109.951 102.554 110.003Z" fill="black"/>
<path d="M101.65 109.797H46.1038C44.5493 109.797 43.2539 108.502 43.2539 106.947V57.4113C43.2539 52.4888 47.2437 48.5508 52.1144 48.5508H95.5879C100.51 48.5508 104.448 52.5406 104.448 57.4113V106.947C104.5 108.554 103.257 109.797 101.65 109.797Z" fill="white"/>
<path d="M95.6396 48.5508C100.562 48.5508 104.5 52.5406 104.5 57.4113V106.947C104.5 108.502 103.205 109.797 101.65 109.797H46.1037C44.5492 109.797 43.2538 108.502 43.2538 106.947V57.4113C43.2538 52.4888 47.2436 48.5508 52.1143 48.5508H95.6396ZM95.6396 45.96H52.1661C45.8446 45.96 40.7148 51.0897 40.7148 57.4113V106.947C40.7148 109.953 43.1502 112.388 46.1555 112.388H101.702C104.707 112.388 107.143 109.953 107.143 106.947V57.4113C107.091 51.1415 101.961 45.96 95.6396 45.96Z" fill="black"/>
<path d="M104.502 68.3444H43.2559V57.2558C43.2559 52.437 47.142 48.5508 51.9609 48.5508H95.8489C100.668 48.5508 104.554 52.437 104.554 57.2558V68.3444H104.502Z" fill="#92DDEA"/>
<path d="M61.7007 53.1104H59.3689C57.5554 53.1104 56.0527 51.6077 56.0527 49.7942V38.0838C56.0527 36.2702 57.5554 34.7676 59.3689 34.7676H61.7007C63.5142 34.7676 65.0169 36.2702 65.0169 38.0838V49.7942C65.0169 51.6077 63.566 53.1104 61.7007 53.1104Z" fill="black"/>
<path d="M87.8667 53.1104H85.535C83.7214 53.1104 82.2188 51.6077 82.2188 49.7942V38.0838C82.2188 36.2702 83.7214 34.7676 85.535 34.7676H87.8667C89.6802 34.7676 91.1829 36.2702 91.1829 38.0838V49.7942C91.1829 51.6077 89.6802 53.1104 87.8667 53.1104Z" fill="black"/>
<path d="M69.175 100.104C68.4923 100.104 67.9697 99.9232 67.607 99.5605C67.2443 99.1978 67.063 98.6965 67.063 98.0565C67.063 97.3952 67.2443 96.8938 67.607 96.5525C67.9697 96.2112 68.4923 96.0405 69.175 96.0405H72.407V81.6085H74.743L70.071 84.4565C69.5803 84.7552 69.1217 84.8725 68.695 84.8085C68.2897 84.7445 67.9377 84.5632 67.639 84.2645C67.3403 83.9658 67.1377 83.6138 67.031 83.2085C66.9457 82.7818 66.9883 82.3658 67.159 81.9605C67.3297 81.5338 67.6497 81.1712 68.119 80.8725L72.567 78.1845C73.015 77.9072 73.463 77.6832 73.911 77.5125C74.3803 77.3418 74.839 77.2565 75.287 77.2565C75.927 77.2565 76.4283 77.4272 76.791 77.7685C77.175 78.0885 77.367 78.5898 77.367 79.2725V96.0405H80.279C80.9403 96.0405 81.4523 96.2112 81.815 96.5525C82.1777 96.8938 82.359 97.3952 82.359 98.0565C82.359 98.7178 82.1777 99.2298 81.815 99.5925C81.4523 99.9338 80.9403 100.104 80.279 100.104H69.175Z" fill="black"/>
</svg>
