<svg width="150" height="150" viewBox="0 0 150 150" fill="none" xmlns="http://www.w3.org/2000/svg">
<path d="M44.5 78V100L71 109.5L99.5 98L101.5 95V77H44.5" stroke="black"/>
<circle cx="75" cy="75" r="74.5" fill="white" stroke="black"/>
<path d="M72.7326 124.99C50.4616 124.99 32.2871 106.873 32.2871 84.5443C32.2871 66.1967 44.6919 50.2147 62.2318 45.4835L65.1166 38.733L63.6742 37.2329L64.5397 36.4251L57.3275 28.8668C55.8274 27.309 55.4236 25.0011 56.2313 22.9817C57.0968 20.9624 59.0008 19.693 61.1932 19.6353L100.831 19.2314C102.389 19.2314 103.831 19.8661 104.87 20.9624L130.372 47.9645C131.872 49.5223 132.276 51.8302 131.41 53.8496C130.545 55.869 128.583 57.1383 126.391 57.1383H116.582V58.2922H114.39L109.947 68.62C112.082 73.6396 113.236 79.0631 113.236 84.5443C113.178 106.873 95.0613 124.99 72.7326 124.99Z" fill="white"/>
<path d="M72.734 125.278C50.2899 125.278 32 106.988 32 84.5437C32 66.196 44.3471 50.0986 62.0024 45.2521L64.7718 38.79L63.214 37.2322L64.0795 36.4245L57.0404 29.097C55.4826 27.4237 55.021 25.0005 55.8865 22.9234C56.7519 20.8463 58.829 19.4616 61.0792 19.4039C100.717 19 100.717 19 100.717 19C102.333 19 103.833 19.6347 104.929 20.7886L130.431 47.7907C131.989 49.464 132.45 51.8872 131.527 53.9643C130.604 56.0414 128.585 57.4261 126.277 57.4261H116.757V58.5801H114.507L110.179 68.6193C112.314 73.639 113.41 79.1202 113.41 84.5437C113.468 107.045 95.1781 125.278 72.734 125.278ZM64.0795 37.2322L65.4642 38.6746L62.464 45.7137L62.3486 45.7714C44.8664 50.5025 32.6347 66.4268 32.6347 84.5437C32.6347 106.699 50.6361 124.701 72.7917 124.701C94.9473 124.701 112.949 106.699 112.949 84.5437C112.949 79.1778 111.852 73.6966 109.718 68.7347L109.66 68.6193L109.718 68.5039L114.218 58.0031H116.295V56.8492H126.392C128.469 56.8492 130.316 55.6375 131.123 53.7335C131.931 51.8295 131.527 49.6371 130.142 48.1369L104.64 21.1348C103.66 20.0962 102.275 19.5193 100.832 19.5193C100.775 19.5193 61.1946 19.9231 61.1946 19.9231C59.1175 19.9231 57.2712 21.1925 56.5212 23.0965C55.7134 25.0005 56.1173 27.1929 57.5597 28.6354L65.0026 36.3668L64.0795 37.2322Z" fill="black"/>
<path d="M126.738 51.3676L101.236 24.3655C101.12 24.2501 101.005 24.1924 100.832 24.1924L61.1942 24.5963C60.7326 24.5963 60.5018 25.1732 60.7903 25.5194L71.4066 36.5972L70.5988 37.405L70.945 37.7512L65.81 49.8098C49.5394 53.0408 37.25 67.465 37.25 84.6587C37.25 104.276 53.1743 120.2 72.7913 120.2C92.4082 120.2 108.333 104.276 108.333 84.6587C108.333 78.6582 106.832 72.9463 104.178 67.9843L104.525 68.0997C104.698 68.1574 104.928 68.0997 104.986 67.9266L111.16 53.5024H111.679V52.3485H126.392C126.796 52.2908 127.026 51.7138 126.738 51.3676Z" fill="black"/>
<path d="M72.7336 118.642C91.5659 118.642 106.832 103.375 106.832 84.5432C106.832 65.7109 91.5659 50.4443 72.7336 50.4443C53.9013 50.4443 38.6348 65.7109 38.6348 84.5432C38.6348 103.375 53.9013 118.642 72.7336 118.642Z" fill="#92DDEA"/>
<path d="M72.7327 120.085C53.1157 120.085 37.1914 104.16 37.1914 84.5432C37.1914 64.9263 53.1157 49.002 72.7327 49.002C92.3496 49.002 108.274 64.9263 108.274 84.5432C108.274 104.16 92.3496 120.085 72.7327 120.085ZM72.7327 51.8868C54.7312 51.8868 40.0763 66.5418 40.0763 84.5432C40.0763 102.545 54.7312 117.2 72.7327 117.2C90.7341 117.2 105.389 102.545 105.389 84.5432C105.389 66.5418 90.7341 51.8868 72.7327 51.8868Z" fill="black"/>
<path d="M65.2324 85.9863C66.7902 89.7943 69.2712 91.6983 72.733 91.6983C76.1948 91.6983 78.6758 89.7943 80.2336 85.9863" fill="#92DDEA"/>
<path d="M72.7318 93.3713C69.8469 93.3713 65.9812 92.2173 63.7311 86.6207C63.3849 85.7553 63.7887 84.7744 64.6542 84.4859C65.5197 84.1398 66.4428 84.5436 66.789 85.4091C68.0583 88.5824 69.9623 90.0825 72.7318 90.0825C75.5012 90.0825 77.4052 88.5824 78.6745 85.4091C79.0207 84.5436 80.0016 84.1398 80.8093 84.4859C81.6748 84.8321 82.0786 85.813 81.7325 86.6207C79.4823 92.2173 75.6166 93.3713 72.7318 93.3713Z" fill="black"/>
<path d="M104.409 68.0421L65.4637 51.31C65.2906 51.2523 65.1752 51.0215 65.2906 50.8484L74.9837 28.2313C75.0414 28.0582 75.2722 27.9428 75.4453 28.0582L114.391 44.7903C114.564 44.848 114.679 45.0788 114.564 45.2519L104.871 67.869C104.813 68.0421 104.64 68.0998 104.409 68.0421Z" fill="black"/>
<path d="M111.622 53.4454L86.1778 53.3877L70.5996 37.3479L72.2151 35.7324L87.1586 51.0798L111.622 51.1375V53.4454Z" fill="white"/>
<path d="M61.1952 24.5963L100.833 24.1924C101.006 24.1924 101.121 24.2501 101.237 24.3655L126.739 51.3676C127.085 51.7138 126.797 52.2908 126.335 52.2908H86.6972C86.5241 52.2908 86.4087 52.2331 86.2933 52.1177L60.7913 25.5194C60.5028 25.1155 60.7336 24.5963 61.1952 24.5963Z" fill="black"/>
<path d="M62.1749 82.9854C61.3671 82.9854 60.7324 82.3508 60.7324 81.543C60.7324 79.2351 58.8285 77.3311 56.5206 77.3311C54.2127 77.3311 52.3087 79.2351 52.3087 81.543C52.3087 82.3508 51.674 82.9854 50.8663 82.9854C50.0585 82.9854 49.4238 82.3508 49.4238 81.543C49.4238 77.6196 52.5972 74.4463 56.5206 74.4463C60.444 74.4463 63.6173 77.6196 63.6173 81.543C63.6173 82.3508 62.9826 82.9854 62.1749 82.9854Z" fill="black"/>
<path d="M95.1201 82.9854C94.3124 82.9854 93.6777 82.3508 93.6777 81.543C93.6777 79.2351 91.7737 77.3311 89.4659 77.3311C87.158 77.3311 85.254 79.2351 85.254 81.543C85.254 82.3508 84.6193 82.9854 83.8116 82.9854C83.0038 82.9854 82.3691 82.3508 82.3691 81.543C82.3691 77.6196 85.5425 74.4463 89.4659 74.4463C93.3892 74.4463 96.5626 77.6196 96.5626 81.543C96.5626 82.3508 95.9279 82.9854 95.1201 82.9854Z" fill="black"/>
</svg>
