<svg width="150" height="150" viewBox="0 0 150 150" fill="none" xmlns="http://www.w3.org/2000/svg">
<circle cx="75" cy="75" r="74.5" fill="white" stroke="black"/>
<path d="M33.1777 114.099V84.0412H36.6555V63.3166C36.5845 63.1392 36.5135 62.9262 36.4426 62.7488C36.3361 62.3584 36.2297 61.9326 36.1232 61.5422C36.0522 61.1164 35.9812 60.6905 35.9458 60.3002C35.9103 59.8743 35.8748 59.4485 35.8748 59.0226V49.441L42.9368 34.075C43.0077 33.933 43.0787 33.7556 43.1852 33.6136C43.5046 32.9749 43.8949 32.4071 44.3563 31.8748C44.4627 31.7328 44.6047 31.6263 44.7111 31.4844C44.8886 31.307 45.0305 31.165 45.2434 30.9876C45.2789 30.9521 45.3499 30.9166 45.3854 30.8456C45.5628 30.7037 45.7403 30.5617 45.9532 30.4198C46.0242 30.3843 46.0951 30.3133 46.1661 30.2778C46.45 30.1004 46.6984 29.9584 46.9823 29.852L47.1243 29.781C47.3017 29.71 47.4437 29.6391 47.5856 29.6036C47.6566 29.5681 47.7276 29.5681 47.7985 29.5326C47.9405 29.4971 48.1179 29.4261 48.2599 29.4261C48.3309 29.4261 48.4018 29.3906 48.4728 29.3906C48.8632 29.3197 49.3245 29.2842 49.7503 29.2842H98.9714C99.2553 29.2842 99.5747 29.2842 99.894 29.3197L100.142 29.3552C100.284 29.3906 100.426 29.3906 100.533 29.4261H100.639L101.101 29.5326C101.349 29.6036 101.633 29.6745 101.917 29.781C101.988 29.8165 102.059 29.852 102.13 29.852C102.662 30.0294 103.159 30.2778 103.62 30.5617C103.691 30.5972 103.727 30.6327 103.798 30.6682C103.975 30.7746 104.117 30.8811 104.259 30.9876C104.33 31.0231 104.401 31.094 104.472 31.1295C104.614 31.236 104.756 31.3424 104.898 31.4844C104.969 31.5554 105.04 31.5909 105.075 31.6264C105.466 31.9812 105.856 32.3716 106.175 32.7974C106.353 33.0458 106.566 33.2943 106.743 33.5782C106.85 33.7201 106.921 33.8975 107.027 34.0395V34.075C107.098 34.1814 107.133 34.2879 107.204 34.3944C107.24 34.4653 107.275 34.5718 107.311 34.6428L107.346 34.7138C107.382 34.7847 107.417 34.8912 107.488 34.9977L113.45 49.512V84.0767H115.934V114.135H33.1777V114.099Z" fill="white"/>
<path d="M116.182 114.276H33V83.8635H36.4778V63.3518C36.4068 63.1744 36.3358 62.9614 36.3003 62.784C36.1584 62.3936 36.0519 61.9678 35.9809 61.5419C35.91 61.1161 35.839 60.6902 35.8035 60.2644C35.768 59.8385 35.7325 59.4127 35.7325 58.9514V49.3343L42.7945 33.9682C42.8655 33.8263 42.9365 33.6489 43.0429 33.4714C43.3978 32.8326 43.7882 32.2294 44.2495 31.697C44.356 31.5551 44.4979 31.4131 44.6044 31.3067C44.7818 31.1292 44.9593 30.9873 45.1367 30.8099C45.1722 30.7744 45.2432 30.7389 45.3141 30.6679C45.4916 30.526 45.7045 30.384 45.8819 30.2421C45.9529 30.2066 46.0239 30.1356 46.1303 30.1001C46.4142 29.9227 46.6981 29.7807 46.982 29.6388L47.124 29.5678C47.3014 29.4968 47.4434 29.4259 47.5853 29.3904C47.6563 29.3549 47.7273 29.3549 47.7982 29.3194C47.9757 29.2839 48.1176 29.2129 48.2596 29.1774C48.3306 29.1774 48.4015 29.142 48.4725 29.142C48.8984 29.071 49.3242 29 49.7855 29H99.0066C99.2905 29 99.6098 29 99.9647 29.0355L100.213 29.071C100.355 29.1065 100.497 29.1065 100.639 29.142H100.745L101.207 29.2484C101.491 29.3194 101.739 29.3904 102.058 29.4968C102.165 29.5323 102.2 29.5678 102.271 29.5678C102.804 29.7452 103.336 29.9936 103.797 30.2775C103.868 30.313 103.939 30.3485 104.01 30.384C104.188 30.4905 104.33 30.5969 104.472 30.7034C104.543 30.7389 104.614 30.8099 104.685 30.8808C104.826 30.9873 104.968 31.0938 105.11 31.2357C105.181 31.3067 105.252 31.3422 105.288 31.3777C105.714 31.7325 106.069 32.1584 106.423 32.5842C106.636 32.8326 106.814 33.1165 106.991 33.4004C107.098 33.5779 107.169 33.7198 107.275 33.8618C107.346 34.0037 107.417 34.1102 107.453 34.2166C107.488 34.2876 107.524 34.3941 107.595 34.5005L107.63 34.5715C107.665 34.6425 107.736 34.749 107.772 34.8909L113.769 49.4407V83.8635H116.253V114.276H116.182ZM33.3549 113.921H115.828V84.2184H113.343V49.5117L107.382 35.0329C107.346 34.9264 107.275 34.8199 107.24 34.749L107.204 34.678C107.169 34.5715 107.133 34.5005 107.098 34.4296C107.062 34.3231 106.991 34.2167 106.92 34.1102C106.814 33.9328 106.743 33.7908 106.636 33.6134C106.459 33.3295 106.281 33.0811 106.104 32.8326C105.785 32.4068 105.394 32.0164 105.004 31.697C104.968 31.6616 104.897 31.5906 104.826 31.5551C104.685 31.4486 104.543 31.3422 104.401 31.2357C104.33 31.1647 104.259 31.1292 104.188 31.0938C104.046 30.9873 103.904 30.9163 103.726 30.8099C103.655 30.7744 103.584 30.7389 103.549 30.7034C103.088 30.4195 102.591 30.2066 102.058 29.9936C101.987 29.9582 101.917 29.9582 101.846 29.9227C101.562 29.8162 101.278 29.7452 101.029 29.6743L100.603 29.5678H100.533C100.391 29.5323 100.249 29.5323 100.107 29.4968L99.8937 29.4613C99.5744 29.4258 99.2905 29.4258 98.9711 29.4258H49.7501C49.3242 29.4258 48.9338 29.4613 48.508 29.5323C48.437 29.5323 48.366 29.5678 48.2951 29.5678C48.1531 29.6033 48.0112 29.6388 47.8337 29.6743C47.7628 29.7098 47.6918 29.7098 47.6208 29.7452C47.4789 29.7807 47.3369 29.8517 47.1595 29.9227L47.0175 29.9936C46.7691 30.1001 46.4852 30.2421 46.2368 30.4195C46.1658 30.455 46.0948 30.526 46.0239 30.5614C45.8464 30.6679 45.669 30.8099 45.4916 30.9873C45.4206 31.0228 45.3851 31.0938 45.3496 31.1292C45.1722 31.3067 44.9947 31.4486 44.8173 31.6261C44.7108 31.7325 44.5689 31.8745 44.4624 32.0164C44.0366 32.5133 43.6462 33.1165 43.3268 33.7198C43.2559 33.8618 43.1494 34.0392 43.1139 34.1812L36.0874 49.4407V58.9869C36.0874 59.4127 36.1229 59.8385 36.1584 60.2644C36.1939 60.6902 36.2648 61.0806 36.3358 61.5065C36.4068 61.8968 36.5133 62.3227 36.6552 62.713C36.7262 62.8905 36.7972 63.1034 36.8326 63.2808V63.3518V84.2539H33.3549V113.921Z" fill="black"/>
<path d="M110.502 87.0575V50.0796L104.753 36.1331C104.718 36.0621 104.718 36.0266 104.682 35.9557L104.647 35.8492C104.611 35.8137 104.611 35.7427 104.576 35.7072C104.54 35.6363 104.505 35.6008 104.469 35.5298L104.434 35.4943C104.363 35.3879 104.327 35.2814 104.256 35.1749C104.15 34.9975 104.008 34.8201 103.866 34.6426C103.653 34.3587 103.405 34.0748 103.121 33.8619C103.085 33.8264 103.05 33.7909 102.979 33.7554C102.872 33.6845 102.801 33.6135 102.695 33.5425C102.659 33.507 102.588 33.4715 102.553 33.436C102.446 33.3651 102.34 33.2941 102.233 33.2231C102.198 33.1876 102.162 33.1876 102.127 33.1521C101.808 32.9747 101.453 32.7973 101.098 32.6908C101.062 32.6908 100.991 32.6553 100.956 32.6553C100.743 32.5843 100.566 32.5134 100.388 32.4779L100.282 32.4424C100.14 32.4069 99.9622 32.3714 99.7848 32.3714H99.6429C99.3945 32.3359 99.217 32.3359 99.0041 32.3359H49.7476C49.5347 32.3359 49.2863 32.3714 49.0733 32.4069C49.0378 32.4069 49.0024 32.4069 48.9669 32.4424C48.8959 32.4779 48.7894 32.4779 48.7185 32.5134C48.683 32.5134 48.6475 32.5489 48.612 32.5489C48.541 32.5843 48.4346 32.6198 48.3636 32.6553L48.2926 32.6908C48.1507 32.7618 47.9732 32.8328 47.7958 32.9747C47.7603 33.0102 47.7248 33.0102 47.6893 33.0457C47.5829 33.1167 47.4409 33.2231 47.3344 33.2941C47.299 33.3296 47.2635 33.3296 47.2635 33.3651C47.157 33.4715 47.0505 33.578 46.9441 33.6845C46.8731 33.7554 46.8021 33.8619 46.7312 33.9329C46.4473 34.2877 46.1634 34.6781 45.9504 35.104C45.8795 35.2104 45.844 35.3169 45.773 35.4233L38.9949 50.1506V59.0579C38.9949 59.3773 38.9949 59.7322 39.0304 60.0516C39.0659 60.371 39.1014 60.6904 39.1723 61.0097C39.2433 61.3291 39.3143 61.613 39.4208 61.9324C39.5272 62.2163 39.6337 62.5357 39.7401 62.8196V87.1285H36.1914V111.082H112.986V87.0575H110.502Z" fill="black"/>
<path d="M104.328 52.5283H45.7734V88.0157H104.328V52.5283Z" fill="white"/>
<path fill-rule="evenodd" clip-rule="evenodd" d="M102.553 54.3027H47.5478V86.2413H102.553V54.3027ZM104.328 52.5283V88.0157H45.7734V52.5283H104.328Z" fill="black"/>
<path d="M109.614 87.9449V58.9872V50.2573L103.936 36.4527C103.901 36.3107 103.83 36.2043 103.759 36.0978C103.511 35.601 103.227 35.1751 102.836 34.8203C102.375 34.3589 101.843 33.9686 101.275 33.6847C100.565 33.3653 99.7844 33.1523 98.9681 33.1523H98.0455H88.038H73.4172H61.8838H49.7471C49.6762 33.1523 49.5697 33.1523 49.4987 33.1523C49.1084 33.1878 48.718 33.3298 48.3276 33.5427C48.2567 33.5782 48.1857 33.6137 48.1147 33.6847C47.9018 33.8266 47.6889 34.004 47.5114 34.217C47.4404 34.2879 47.3695 34.3589 47.334 34.4299C47.0856 34.7138 46.8726 35.0687 46.6597 35.459C46.6242 35.5655 46.5533 35.6365 46.5178 35.7429L39.8107 50.2928V59.0227C39.8107 59.3066 39.8107 59.6259 39.8461 59.9098C39.8816 60.1937 39.9171 60.4776 39.9881 60.7615C40.0946 61.3293 40.272 61.8616 40.4849 62.394C40.5204 62.4649 40.5559 62.5004 40.5559 62.5714V87.9804H37.0781V110.231H112.098V87.9804H109.614V87.9449ZM45.7371 67.2557C46.0919 67.3622 46.4113 67.4687 46.7662 67.5396C47.334 67.6461 47.9373 67.7171 48.5406 67.7171C48.6825 67.7171 48.8245 67.7171 49.0019 67.7171C49.0374 67.7171 49.1084 67.7171 49.1438 67.7171C49.2503 67.7171 49.3568 67.7171 49.4277 67.6816C49.4987 67.6816 49.5342 67.6816 49.6052 67.6461C49.6762 67.6461 49.7826 67.6106 49.8536 67.6106C49.9246 67.6106 49.9955 67.5751 50.031 67.5751C50.102 67.5751 50.173 67.5396 50.2794 67.5396C50.3504 67.5396 50.4214 67.5041 50.4924 67.5041C50.5633 67.5041 50.6343 67.4687 50.7053 67.4687C50.7763 67.4687 50.8472 67.4332 50.9182 67.3977C50.9892 67.3622 51.0602 67.3622 51.1311 67.3267C51.2021 67.2912 51.2731 67.2912 51.3441 67.2557C51.415 67.2202 51.486 67.2202 51.5215 67.1848C51.5925 67.1493 51.6634 67.1138 51.7344 67.1138C51.8054 67.0783 51.8409 67.0783 51.9119 67.0428C51.9828 67.0073 52.0538 66.9718 52.1248 66.9363C52.1958 66.9009 52.2312 66.9009 52.3022 66.8654C52.3732 66.8299 52.4442 66.7944 52.5151 66.7589C52.5506 66.7234 52.6216 66.7234 52.6571 66.6879C52.7281 66.6524 52.799 66.617 52.87 66.5815C52.9055 66.546 52.9765 66.5105 53.012 66.5105C53.0829 66.475 53.1539 66.404 53.2249 66.3685C53.2604 66.3331 53.2959 66.2976 53.3668 66.2976C53.4378 66.2621 53.5088 66.1911 53.5798 66.1556C53.6153 66.1201 53.6507 66.0847 53.6862 66.0847C53.7572 66.0137 53.8282 65.9782 53.8992 65.9072C53.9346 65.8717 53.9701 65.8362 54.0056 65.8362C54.0766 65.7653 54.1476 65.7298 54.2185 65.6588C54.254 65.6233 54.2895 65.5878 54.325 65.5878C54.396 65.5168 54.467 65.4459 54.5379 65.3749C54.5734 65.3394 54.6089 65.3039 54.6089 65.3039C54.6799 65.233 54.7508 65.162 54.8218 65.091C54.8573 65.0555 54.8573 65.0555 54.8928 65.02C54.9638 64.9491 55.0347 64.8781 55.1057 64.8071C55.1412 64.7716 55.1412 64.7716 55.1767 64.7361C55.2477 64.6652 55.3186 64.5587 55.3896 64.4877C55.4251 64.4522 55.4251 64.4522 55.4606 64.4167C55.5316 64.3458 55.6025 64.2393 55.638 64.1683C55.638 64.1328 55.6735 64.1328 55.6735 64.0974C55.7445 63.9909 55.8155 63.9199 55.851 63.8135C55.851 63.778 55.8864 63.778 55.8864 63.7425C55.9574 63.636 55.9929 63.5296 56.0639 63.4586C56.0639 63.4231 56.0994 63.4231 56.0994 63.3876C56.1703 63.2811 56.2058 63.1747 56.2768 63.0682C56.2768 63.0682 56.2768 63.0327 56.3123 63.0327C56.3833 62.9263 56.4188 62.8198 56.4542 62.7134C56.4542 62.7134 56.4542 62.6779 56.4897 62.6779C56.5252 62.5714 56.5962 62.4649 56.6317 62.323V62.2875C56.6672 62.181 56.7381 62.0391 56.7736 61.9326V61.8971C56.8091 61.7907 56.8446 61.6487 56.8801 61.5423C56.8801 61.5423 56.8801 61.5423 56.8801 61.5068C56.9156 61.3648 56.9511 61.2584 56.9866 61.1164C56.9866 61.1164 56.9866 61.1164 56.9866 61.0809C57.022 60.939 57.0575 60.8325 57.0575 60.6906C57.093 60.5486 57.093 60.4067 57.1285 60.2647C57.164 60.1228 57.164 59.9808 57.164 59.8389C57.164 59.6969 57.1995 59.555 57.1995 59.413C57.1995 59.555 57.1995 59.6969 57.235 59.8389C57.235 59.9808 57.2705 60.1228 57.2705 60.2647C57.3059 60.4067 57.3059 60.5486 57.3414 60.6906C57.3769 60.8325 57.3769 60.939 57.4124 61.0809C57.4124 61.0809 57.4124 61.0809 57.4124 61.1164C57.4479 61.2584 57.4834 61.3648 57.5189 61.5068V61.5423C57.5544 61.6842 57.5898 61.7907 57.6253 61.8971V61.9326C57.6608 62.0391 57.6963 62.181 57.7673 62.2875V62.323C57.8028 62.4294 57.8737 62.5359 57.9092 62.6779C57.9092 62.6779 57.9092 62.7134 57.9447 62.7134C57.9802 62.8198 58.0512 62.9263 58.0867 63.0327C58.0867 63.0327 58.0867 63.0682 58.1222 63.0682C58.1931 63.1747 58.2286 63.2811 58.2996 63.3876C58.2996 63.4231 58.3351 63.4231 58.3351 63.4586C58.4061 63.565 58.4415 63.6715 58.5125 63.7425C58.5125 63.778 58.548 63.778 58.548 63.8135C58.619 63.9199 58.6545 63.9909 58.7254 64.0974C58.7254 64.1328 58.7609 64.1328 58.7609 64.1683C58.8319 64.2393 58.9029 64.3458 58.9384 64.4167C58.9738 64.4522 58.9739 64.4522 59.0093 64.4877C59.0803 64.5587 59.1513 64.6652 59.2223 64.7361C59.2577 64.7716 59.2577 64.7716 59.2932 64.8071C59.3642 64.8781 59.4352 64.9491 59.5062 65.02C59.5416 65.0555 59.5416 65.091 59.5771 65.091C59.6481 65.162 59.7191 65.233 59.7901 65.3039C59.8255 65.3394 59.861 65.3749 59.861 65.3749C59.932 65.4459 60.003 65.5169 60.074 65.5523C60.1094 65.5878 60.1449 65.6233 60.1804 65.6233C60.2514 65.6943 60.3224 65.7298 60.3933 65.8007C60.4288 65.8362 60.4643 65.8717 60.4998 65.8717C60.5708 65.9427 60.6418 65.9782 60.7127 66.0492C60.7482 66.0847 60.7837 66.1201 60.8192 66.1201C60.8902 66.1556 60.9611 66.2266 61.0321 66.2621C61.0676 66.2976 61.1386 66.3331 61.1741 66.3331C61.245 66.3685 61.316 66.4395 61.387 66.475C61.4225 66.5105 61.4935 66.546 61.5289 66.546C61.5999 66.5815 61.6709 66.617 61.7419 66.6524C61.7774 66.6879 61.8483 66.7234 61.8838 66.7234C61.9548 66.7589 62.0258 66.7944 62.0967 66.8299C62.1677 66.8654 62.2032 66.8654 62.2742 66.9009C62.3452 66.9363 62.4161 66.9718 62.4871 67.0073C62.5581 67.0428 62.5936 67.0428 62.6645 67.0783C62.7355 67.1138 62.8065 67.1493 62.8775 67.1493C62.9484 67.1848 63.0194 67.1848 63.0549 67.2202C63.1259 67.2557 63.1969 67.2557 63.2678 67.2912C63.3388 67.3267 63.4098 67.3267 63.4808 67.3622C63.5517 67.3977 63.6227 67.3977 63.6937 67.4332C63.7646 67.4687 63.8356 67.4687 63.9066 67.4687C63.9776 67.4687 64.0485 67.5041 64.1195 67.5041C64.1905 67.5041 64.2615 67.5396 64.3679 67.5396C64.4389 67.5396 64.5099 67.5751 64.5454 67.5751C64.6163 67.5751 64.7228 67.6106 64.7938 67.6106C64.8648 67.6106 64.9002 67.6106 64.9712 67.6461C65.0777 67.6461 65.1487 67.6461 65.2551 67.6816C65.2906 67.6816 65.3616 67.6816 65.3971 67.6816C65.539 67.6816 65.681 67.6816 65.8584 67.6816C66.0004 67.6816 66.1423 67.6816 66.2843 67.6816C66.3197 67.6816 66.3907 67.6816 66.4262 67.6816C66.5327 67.6816 66.6036 67.6816 66.7101 67.6461C66.7811 67.6461 66.8166 67.6461 66.8875 67.6106C66.9585 67.6106 67.065 67.5751 67.136 67.5751C67.2069 67.5751 67.2424 67.5396 67.3134 67.5396C67.3844 67.5396 67.4553 67.5041 67.5618 67.5041C67.6328 67.5041 67.7038 67.4687 67.7392 67.4687C67.8102 67.4687 67.8812 67.4332 67.9522 67.4332C68.0231 67.4332 68.0941 67.3977 68.1651 67.3977C68.2361 67.3622 68.307 67.3622 68.378 67.3267C68.449 67.2912 68.52 67.2912 68.5909 67.2557C68.6619 67.2202 68.7329 67.2202 68.8039 67.1848C68.8748 67.1493 68.9458 67.1493 69.0168 67.1138C69.0878 67.0783 69.1587 67.0783 69.1942 67.0428C69.2652 67.0073 69.3362 66.9718 69.4071 66.9718C69.4781 66.9364 69.5136 66.9363 69.5846 66.9009C69.6556 66.8654 69.7265 66.8299 69.7975 66.7944C69.8685 66.7589 69.904 66.7234 69.9749 66.7234C70.0459 66.6879 70.1169 66.6525 70.1879 66.617C70.2234 66.5815 70.2943 66.546 70.3298 66.546C70.4008 66.5105 70.4718 66.475 70.5427 66.404C70.5782 66.3686 70.6492 66.3331 70.6847 66.3331C70.7557 66.2976 70.8266 66.2266 70.8976 66.1911C70.9331 66.1556 70.9686 66.1201 71.0041 66.1201C71.0751 66.0846 71.146 66.0137 71.217 65.9782C71.2525 65.9427 71.288 65.9072 71.3235 65.9072C71.3944 65.8362 71.4654 65.8008 71.5364 65.7298C71.5719 65.6943 71.6074 65.6943 71.6074 65.6588C71.6783 65.5878 71.7493 65.5168 71.8203 65.4459C71.8558 65.4104 71.8558 65.4104 71.8913 65.3749C71.9622 65.3039 72.0332 65.233 72.1042 65.162L72.1397 65.1265C72.2107 65.0555 72.3171 64.949 72.3881 64.8781C73.6301 63.4941 74.4109 61.6842 74.5528 59.7324H74.5883H74.6238C74.7657 61.7197 75.582 63.4941 76.7885 64.8781C76.8595 64.949 76.9305 65.0555 77.0369 65.1265L77.0724 65.162C77.1434 65.233 77.2144 65.3039 77.2853 65.3749C77.3208 65.4104 77.3208 65.4104 77.3563 65.4459C77.4273 65.5168 77.4983 65.5878 77.5692 65.6588C77.6047 65.6943 77.6402 65.6943 77.6402 65.7298C77.7112 65.8008 77.7822 65.8362 77.8531 65.9072C77.8886 65.9427 77.9241 65.9782 77.9596 65.9782C78.0306 66.0492 78.1016 66.0846 78.1725 66.1201C78.208 66.1556 78.2435 66.1911 78.279 66.1911C78.35 66.2266 78.4209 66.2976 78.4919 66.3331C78.5274 66.3685 78.5984 66.404 78.6339 66.404C78.7048 66.4395 78.7758 66.475 78.8468 66.546C78.8823 66.5815 78.9533 66.617 78.9887 66.617C79.0597 66.6525 79.1307 66.6879 79.2017 66.7234C79.2726 66.7589 79.3081 66.7944 79.3791 66.7944C79.4501 66.8299 79.5211 66.8654 79.592 66.9009C79.663 66.9363 79.6985 66.9364 79.7695 66.9718C79.8404 67.0073 79.9114 67.0428 79.9824 67.0428C80.0534 67.0783 80.0888 67.0783 80.1598 67.1138C80.2308 67.1493 80.3018 67.1493 80.3728 67.1848C80.4437 67.2202 80.5147 67.2202 80.5857 67.2557C80.6567 67.2912 80.7276 67.2912 80.7986 67.3267C80.8696 67.3622 80.9406 67.3622 81.0115 67.3977C81.0825 67.4332 81.1535 67.4332 81.2244 67.4332C81.2954 67.4687 81.3664 67.4687 81.4374 67.4687C81.5083 67.4687 81.5793 67.5041 81.6148 67.5041C81.6858 67.5041 81.7568 67.5396 81.8632 67.5396C81.9342 67.5396 81.9697 67.5751 82.0407 67.5751C82.1116 67.5751 82.2181 67.6106 82.2891 67.6106C82.36 67.6106 82.3955 67.6106 82.4665 67.6461C82.573 67.6461 82.6439 67.6461 82.7504 67.6816C82.7859 67.6816 82.8569 67.6816 82.8924 67.6816C83.0343 67.6816 83.1763 67.6816 83.3182 67.6816C83.4602 67.6816 83.6021 67.6816 83.7441 67.6816C83.7795 67.6816 83.8505 67.6816 83.886 67.6816C83.9925 67.6816 84.0634 67.6816 84.1699 67.6461C84.2409 67.6461 84.2764 67.6461 84.3473 67.6106C84.4183 67.6106 84.5248 67.5751 84.5957 67.5751C84.6667 67.5751 84.7022 67.5396 84.7732 67.5396C84.8442 67.5396 84.9151 67.5041 85.0216 67.5041C85.0926 67.5041 85.1281 67.4687 85.199 67.4687C85.27 67.4687 85.341 67.4332 85.412 67.4332C85.4829 67.4332 85.5184 67.3977 85.5894 67.3977C85.6604 67.3622 85.7313 67.3622 85.8023 67.3267C85.8733 67.2912 85.9088 67.2912 85.9798 67.2557C86.0507 67.2202 86.1217 67.2202 86.1927 67.1848C86.2637 67.1493 86.2991 67.1493 86.3701 67.1138C86.4411 67.0783 86.5121 67.0783 86.583 67.0428C86.654 67.0073 86.6895 67.0073 86.7605 66.9718C86.8315 66.9364 86.9024 66.9009 86.9379 66.9009C87.0089 66.8654 87.0444 66.8299 87.1154 66.8299C87.1863 66.7944 87.2218 66.7589 87.2928 66.7234C87.3638 66.6879 87.3993 66.6525 87.4702 66.617C87.5412 66.5815 87.5767 66.546 87.6477 66.5105C87.7186 66.475 87.7541 66.4395 87.8251 66.404C87.8961 66.3686 87.9316 66.3331 88.0025 66.2976C88.0735 66.2621 88.109 66.2266 88.18 66.1911C88.2155 66.1556 88.2864 66.1201 88.3219 66.0847C88.3929 66.0492 88.4639 66.0137 88.4994 65.9427C88.5349 65.9072 88.5349 65.9072 88.5703 65.8717C88.7478 65.7298 88.8897 65.6233 89.0672 65.4814L89.1027 65.4459C89.1736 65.3749 89.2446 65.3039 89.3156 65.2684C89.3511 65.2329 89.3866 65.1975 89.422 65.1975C89.493 65.1265 89.5285 65.0555 89.5995 65.02C89.635 64.9845 89.6705 64.9491 89.7059 64.9136C89.7769 64.8426 89.8124 64.7716 89.8834 64.7361C89.9189 64.7006 89.9544 64.6652 89.9898 64.6297C90.0608 64.5587 90.0963 64.4877 90.1673 64.4167C90.2028 64.3813 90.2382 64.3458 90.2382 64.3103C90.2737 64.2393 90.3447 64.1683 90.3802 64.0974C90.4157 64.0619 90.4512 64.0264 90.4512 63.9909C90.4867 63.9199 90.5576 63.8489 90.5931 63.778C90.6286 63.7425 90.6286 63.707 90.6641 63.6715C90.6996 63.6005 90.7706 63.5296 90.806 63.4586C90.8415 63.4231 90.8415 63.3876 90.877 63.3521C90.9125 63.2811 90.9835 63.1747 91.019 63.1037C91.0545 63.0682 91.0545 63.0327 91.0899 62.9972C91.1254 62.9263 91.1609 62.8198 91.2319 62.7488C91.2319 62.7133 91.2674 62.6779 91.2674 62.6424C91.3029 62.5359 91.3384 62.4649 91.3738 62.3585C91.3738 62.323 91.4093 62.2875 91.4093 62.2875C91.4448 62.181 91.4803 62.0746 91.5158 62.0036C91.5158 61.9681 91.5158 61.9681 91.5513 61.9326C91.7642 61.3293 91.9062 60.6906 91.9771 60.0163H92.0126H92.0836C92.1546 60.6906 92.2965 61.3293 92.5094 61.9326V61.9681C92.5449 62.0746 92.5804 62.181 92.6159 62.2875C92.6159 62.323 92.6514 62.3585 92.6514 62.3585C92.6869 62.4649 92.7224 62.5359 92.7579 62.6424C92.7579 62.6779 92.7933 62.7133 92.7933 62.7488C92.8288 62.8198 92.8643 62.9263 92.9353 62.9972C92.9708 63.0327 92.9708 63.0682 93.0063 63.1037C93.0418 63.1747 93.0772 63.2811 93.1482 63.3521C93.1837 63.3876 93.1837 63.4231 93.2192 63.4586C93.2547 63.5296 93.3257 63.6005 93.3611 63.707C93.3966 63.7425 93.3966 63.778 93.4321 63.8135C93.4676 63.8844 93.5386 63.9554 93.5741 64.0264C93.6095 64.0619 93.6095 64.0974 93.645 64.1328C93.6805 64.2038 93.7515 64.2748 93.787 64.3458C93.8225 64.3812 93.858 64.4167 93.858 64.4522C93.9289 64.5232 93.9644 64.5942 94.0354 64.6652C94.0709 64.7006 94.1064 64.7361 94.1419 64.7716C94.2128 64.8426 94.2483 64.9136 94.3193 64.9845C94.3548 65.02 94.3903 65.0555 94.4258 65.091C94.4967 65.162 94.5322 65.2329 94.6032 65.2684C94.6387 65.3039 94.6742 65.3394 94.6742 65.3394C94.7451 65.4104 94.8161 65.4814 94.8871 65.5169L94.9226 65.5523C95.1 65.6943 95.242 65.8362 95.4194 65.9782C95.4549 65.9782 95.4549 66.0137 95.4904 66.0137C95.5614 66.0492 95.6323 66.1201 95.6678 66.1556C95.7033 66.1911 95.7743 66.2266 95.8098 66.2621C95.8807 66.2976 95.9162 66.3331 95.9872 66.3685C96.0582 66.404 96.0937 66.4395 96.1646 66.475C96.2356 66.5105 96.2711 66.546 96.3421 66.5815C96.4131 66.617 96.4485 66.6524 96.5195 66.6879C96.5905 66.7234 96.626 66.7589 96.697 66.7944C96.7679 66.8299 96.8034 66.8654 96.8744 66.9009C96.9454 66.9363 96.9809 66.9718 97.0518 66.9718C97.1228 67.0073 97.1938 67.0428 97.2293 67.0428C97.3002 67.0783 97.3357 67.0783 97.4067 67.1138C97.4777 67.1493 97.5487 67.1848 97.6196 67.1848C97.6906 67.2202 97.7261 67.2202 97.7971 67.2557C97.868 67.2912 97.939 67.2912 98.01 67.3267C98.081 67.3622 98.1164 67.3622 98.1874 67.3977C98.2584 67.4332 98.3294 67.4332 98.4004 67.4687C98.4713 67.4687 98.5068 67.5041 98.5778 67.5041C98.6488 67.5396 98.7197 67.5396 98.7907 67.5396C98.8617 67.5396 98.8972 67.5751 98.9681 67.5751C99.0391 67.5751 99.1101 67.6106 99.2166 67.6106C99.2875 67.6106 99.323 67.6461 99.394 67.6461C99.465 67.6461 99.5714 67.6816 99.6424 67.6816C99.7134 67.6816 99.7489 67.6816 99.8198 67.7171C99.9263 67.7171 99.9973 67.7171 100.104 67.7526C100.139 67.7526 100.21 67.7526 100.246 67.7526C100.388 67.7526 100.53 67.7526 100.672 67.7526C101.949 67.7526 103.156 67.4687 104.256 67.0073V88.0159H45.7371V67.2557Z" fill="#6EC2B3"/>
<path d="M45.7023 50.2568H40.5566V109.166H45.7023V50.2568Z" fill="#92DDEA"/>
<path d="M109.614 50.2568H104.469V109.166H109.614V50.2568Z" fill="#92DDEA"/>
<path d="M112.098 87.9443H37.0781V110.195H112.098V87.9443Z" fill="#92DDEA"/>
<path d="M48.5404 67.7176C53.3618 67.7176 57.2703 63.8091 57.2703 58.9877C57.2703 54.1663 53.3618 50.2578 48.5404 50.2578C43.7191 50.2578 39.8105 54.1663 39.8105 58.9877C39.8105 63.8091 43.7191 67.7176 48.5404 67.7176Z" fill="white"/>
<path d="M83.4252 67.7176C88.2466 67.7176 92.1551 63.8091 92.1551 58.9877C92.1551 54.1663 88.2466 50.2578 83.4252 50.2578C78.6038 50.2578 74.6953 54.1663 74.6953 58.9877C74.6953 63.8091 78.6038 67.7176 83.4252 67.7176Z" fill="white"/>
<path d="M39.8105 58.9872V50.2573L46.5177 35.7074C47.2629 34.1105 48.4695 33.1523 49.7825 33.1523H98.0809C99.3939 33.1523 100.6 34.1105 101.346 35.7074L108.159 50.2928V60.2647L91.1253 59.9453L39.8105 58.9872Z" fill="white"/>
<path d="M65.9643 67.7176C70.7857 67.7176 74.6942 63.8091 74.6942 58.9877C74.6942 54.1663 70.7857 50.2578 65.9643 50.2578C61.1429 50.2578 57.2344 54.1663 57.2344 58.9877C57.2344 63.8091 61.1429 67.7176 65.9643 67.7176Z" fill="#92DDEA"/>
<path d="M57.2715 58.9872V50.2573L61.8848 33.1523H73.4182L74.6958 50.2573V58.9872H57.2715Z" fill="#92DDEA"/>
<path d="M88.0391 33.1523H98.9692C101.134 33.1523 103.086 34.4654 103.937 36.4882L109.615 50.2928V59.0227H92.1556L88.0391 33.1523Z" fill="#92DDEA"/>
<path d="M100.884 67.7176C105.706 67.7176 109.614 63.8091 109.614 58.9877C109.614 54.1663 105.706 50.2578 100.884 50.2578C96.0628 50.2578 92.1543 54.1663 92.1543 58.9877C92.1543 63.8091 96.0628 67.7176 100.884 67.7176Z" fill="#92DDEA"/>
<path fill-rule="evenodd" clip-rule="evenodd" d="M40.4507 58.9148C40.4507 63.3443 44.0415 66.935 48.4709 66.935C52.9003 66.935 56.491 63.3443 56.491 58.9148C56.491 58.5229 56.8088 58.2051 57.2008 58.2051C57.5928 58.2051 57.9105 58.5229 57.9105 58.9148C57.9105 64.1282 53.6843 68.3545 48.4709 68.3545C43.2575 68.3545 39.0312 64.1282 39.0312 58.9148C39.0312 58.5229 39.349 58.2051 39.741 58.2051C40.133 58.2051 40.4507 58.5229 40.4507 58.9148Z" fill="black"/>
<path fill-rule="evenodd" clip-rule="evenodd" d="M40.4507 58.9148C40.4507 63.3443 44.0415 66.935 48.4709 66.935C52.9003 66.935 56.491 63.3443 56.491 58.9148C56.491 58.5229 56.8088 58.2051 57.2008 58.2051C57.5928 58.2051 57.9105 58.5229 57.9105 58.9148C57.9105 64.1282 53.6843 68.3545 48.4709 68.3545C43.2575 68.3545 39.0312 64.1282 39.0312 58.9148C39.0312 58.5229 39.349 58.2051 39.741 58.2051C40.133 58.2051 40.4507 58.5229 40.4507 58.9148Z" fill="black"/>
<path fill-rule="evenodd" clip-rule="evenodd" d="M58.1949 58.9148C58.1949 63.3443 61.7856 66.935 66.215 66.935C70.6444 66.935 74.2352 63.3443 74.2352 58.9148C74.2352 58.5229 74.5529 58.2051 74.9449 58.2051C75.3369 58.2051 75.6547 58.5229 75.6547 58.9148C75.6547 64.1282 71.4284 68.3545 66.215 68.3545C61.0017 68.3545 56.7754 64.1282 56.7754 58.9148C56.7754 58.5229 57.0932 58.2051 57.4851 58.2051C57.8771 58.2051 58.1949 58.5229 58.1949 58.9148Z" fill="black"/>
<path fill-rule="evenodd" clip-rule="evenodd" d="M75.5836 58.9148C75.5836 63.3443 79.1743 66.935 83.6037 66.935C88.0331 66.935 91.6239 63.3443 91.6239 58.9148C91.6239 58.5229 91.9416 58.2051 92.3336 58.2051C92.7256 58.2051 93.0433 58.5229 93.0434 58.9148C93.0434 64.1282 88.8171 68.3545 83.6037 68.3545C78.3903 68.3545 74.1641 64.1282 74.1641 58.9148C74.1641 58.5229 74.4818 58.2051 74.8738 58.2051C75.2658 58.2051 75.5836 58.5229 75.5836 58.9148Z" fill="black"/>
<path fill-rule="evenodd" clip-rule="evenodd" d="M92.9722 58.9148C92.9722 63.3443 96.563 66.935 100.992 66.935C105.422 66.935 109.013 63.3443 109.013 58.9148C109.013 58.5229 109.33 58.2051 109.722 58.2051C110.114 58.2051 110.432 58.5229 110.432 58.9148C110.432 64.1282 106.206 68.3545 100.992 68.3545C95.779 68.3545 91.5527 64.1282 91.5527 58.9148C91.5527 58.5229 91.8705 58.2051 92.2625 58.2051C92.6545 58.2051 92.9722 58.5229 92.9722 58.9148Z" fill="black"/>
<path d="M109.757 49.7256H39.7402V50.7902H109.757V49.7256Z" fill="black"/>
<path d="M112.986 111.083H36.1914V87.0582H39.6692V62.7493C39.5272 62.4299 39.4208 62.146 39.3498 61.8621C39.2433 61.5427 39.1723 61.2588 39.1014 60.9394C39.0304 60.6201 38.9949 60.3007 38.9594 59.9813C38.9239 59.6619 38.9239 59.3425 38.9239 58.9876V50.0803L45.702 35.353C45.7375 35.2466 45.8085 35.1401 45.8795 35.0336C46.0924 34.6078 46.3763 34.2174 46.6602 33.8626C46.7312 33.7916 46.8021 33.6851 46.8731 33.6141C46.9796 33.5077 47.086 33.4012 47.1925 33.2948C47.228 33.2593 47.2635 33.2593 47.2635 33.2238C47.3699 33.1173 47.4764 33.0463 47.6183 32.9754C47.6538 32.9399 47.6893 32.9399 47.7248 32.9044C47.9022 32.7979 48.0797 32.6915 48.2216 32.6205L48.2926 32.585C48.3991 32.5495 48.47 32.514 48.541 32.4786C48.5765 32.4786 48.612 32.4431 48.6475 32.4431C48.7185 32.4076 48.8249 32.4076 48.8959 32.3721C48.9314 32.3721 48.9669 32.3366 49.0024 32.3366C49.2153 32.3011 49.4637 32.2656 49.6766 32.2656H98.8976C99.0751 32.2656 99.288 32.2656 99.5364 32.3011H99.6783C99.8913 32.3366 100.033 32.3366 100.175 32.3721L100.282 32.4076C100.459 32.4431 100.637 32.514 100.849 32.585C100.885 32.585 100.956 32.6205 100.991 32.6205C101.346 32.7624 101.701 32.9044 102.021 33.0818C102.056 33.1173 102.091 33.1173 102.127 33.1528C102.269 33.2238 102.375 33.2948 102.446 33.3657C102.482 33.4012 102.553 33.4367 102.588 33.4722C102.695 33.5432 102.766 33.6141 102.872 33.6851C102.943 33.7206 102.979 33.7561 103.014 33.7916C103.298 34.04 103.546 34.2884 103.759 34.5723C103.901 34.7497 104.008 34.9272 104.15 35.1046C104.221 35.2111 104.292 35.3175 104.327 35.424L104.363 35.4595C104.398 35.5305 104.434 35.566 104.469 35.6369C104.505 35.6724 104.505 35.7434 104.54 35.7789L104.576 35.8853C104.611 35.9563 104.647 35.9918 104.647 36.0628L110.396 50.0093V86.9872H112.88V111.083H112.986ZM37.9658 109.309H111.212V88.8325H108.728V50.4352L103.121 36.808C103.121 36.7725 103.085 36.737 103.085 36.7015L103.014 36.5596C103.014 36.5241 102.979 36.5241 102.979 36.4886C102.943 36.4531 102.943 36.4177 102.908 36.3822L102.872 36.3112C102.837 36.2402 102.766 36.1692 102.73 36.0983C102.659 35.9563 102.553 35.8499 102.446 35.7079C102.269 35.495 102.091 35.3175 101.914 35.1401L101.843 35.0691C101.772 34.9982 101.701 34.9627 101.63 34.8917C101.595 34.8562 101.559 34.8562 101.524 34.8207C101.453 34.7852 101.382 34.7143 101.311 34.6788L101.204 34.6078C100.956 34.4658 100.743 34.3594 100.459 34.2529L100.353 34.2174C100.211 34.1819 100.104 34.1465 100.033 34.111L99.9268 34.0755C99.8203 34.04 99.6783 34.04 99.5009 34.0045H99.3945C99.217 34.0045 99.0751 33.969 98.9331 33.969H49.7476C49.6411 33.969 49.5347 33.969 49.3927 34.0045H49.3217C49.2863 34.0045 49.2153 34.04 49.1798 34.04L49.1088 34.0755C49.0733 34.0755 49.0378 34.111 48.9669 34.111H48.9314C48.8249 34.1465 48.7185 34.2174 48.6475 34.2529L48.5765 34.2884C48.5055 34.3239 48.4346 34.3949 48.3636 34.4658L48.3281 34.5013C48.2571 34.5723 48.1861 34.6433 48.1152 34.7143C48.0797 34.7852 48.0087 34.8207 47.9732 34.8917C47.7603 35.1401 47.5829 35.424 47.4054 35.7434C47.3699 35.8144 47.3344 35.9208 47.2635 35.9918L40.6628 50.3642V58.8812C40.6628 59.1651 40.6628 59.4135 40.6983 59.6974C40.7338 59.9458 40.7693 60.2297 40.8048 60.4781C40.8403 60.7265 40.9112 60.9749 40.9822 61.2233C41.0532 61.5072 41.1951 61.7911 41.3016 62.1105L41.3726 62.288V88.7616H37.9658V109.309Z" fill="black"/>
</svg>
