<svg width="1922" height="1108" viewBox="0 0 1922 1108" fill="none" xmlns="http://www.w3.org/2000/svg">
<rect width="1920" height="1108" fill="#F6C1DF"/>
<line x1="175.922" y1="2.2569e-07" x2="175.922" y2="1107" stroke="#FFEBF5" stroke-opacity="0.3" stroke-width="10"/>
<line x1="6.99805" y1="1" x2="6.998" y2="1108" stroke="#FFCEE5" stroke-width="10"/>
<line x1="1917" y1="1" x2="1917" y2="1108" stroke="#FFCEE5" stroke-width="10"/>
<line x1="336.922" y1="2.2569e-07" x2="336.922" y2="1107" stroke="#FFEBF5" stroke-opacity="0.3" stroke-width="10"/>
<line x1="489.922" y1="2.2569e-07" x2="489.922" y2="1107" stroke="#FFEBF5" stroke-opacity="0.3" stroke-width="10"/>
<line x1="647.922" y1="2.2569e-07" x2="647.922" y2="1107" stroke="#FFEBF5" stroke-opacity="0.3" stroke-width="10"/>
<line x1="813.922" y1="2.2569e-07" x2="813.922" y2="1107" stroke="#FFEBF5" stroke-opacity="0.3" stroke-width="10"/>
<line x1="970.922" y1="2.2569e-07" x2="970.922" y2="1107" stroke="#FFEBF5" stroke-opacity="0.3" stroke-width="10"/>
<line x1="1128.92" y1="2.2569e-07" x2="1128.92" y2="1107" stroke="#FFEBF5" stroke-opacity="0.3" stroke-width="10"/>
<line x1="1278.92" y1="2.2569e-07" x2="1278.92" y2="1107" stroke="#FFEBF5" stroke-opacity="0.3" stroke-width="10"/>
<line x1="1441.92" y1="2.2569e-07" x2="1441.92" y2="1107" stroke="#FFEBF5" stroke-opacity="0.3" stroke-width="10"/>
<line x1="1605.92" y1="2.2569e-07" x2="1605.92" y2="1107" stroke="#FFEBF5" stroke-opacity="0.3" stroke-width="10"/>
<line x1="1768.92" y1="2.2569e-07" x2="1768.92" y2="1107" stroke="#FFEBF5" stroke-opacity="0.3" stroke-width="10"/>
<line y1="-5" x2="1908.28" y2="-5" transform="matrix(1 1.84265e-05 1.77975e-05 1 4.14648 114.99)" stroke="#FFEBF5" stroke-opacity="0.3" stroke-width="10"/>
<line y1="-5" x2="1908.28" y2="-5" transform="matrix(1 1.84265e-05 1.77975e-05 1 4.14844 286.99)" stroke="#FFEBF5" stroke-opacity="0.3" stroke-width="10"/>
<line y1="-5" x2="1908.28" y2="-5" transform="matrix(1 1.84265e-05 1.77975e-05 1 4.1543 453.99)" stroke="#FFEBF5" stroke-opacity="0.3" stroke-width="10"/>
<line y1="-5" x2="1908.28" y2="-5" transform="matrix(1 1.84265e-05 1.77975e-05 1 4.1543 618.99)" stroke="#FFEBF5" stroke-opacity="0.3" stroke-width="10"/>
<line y1="-5" x2="1908.28" y2="-5" transform="matrix(1 2.04957e-05 1.97826e-05 1 4.1543 770.99)" stroke="#FFEBF5" stroke-opacity="0.3" stroke-width="10"/>
<line y1="-5" x2="1908.28" y2="-5" transform="matrix(1 2.04957e-05 1.97826e-05 1 4.15234 931.992)" stroke="#FFEBF5" stroke-opacity="0.3" stroke-width="10"/>
<line y1="-5" x2="1908.28" y2="-5" transform="matrix(1 2.04957e-05 1.97828e-05 1 3.98633 1072)" stroke="#FFEBF5" stroke-opacity="0.3" stroke-width="10"/>
</svg>
