<svg width="278" height="144" viewBox="0 0 278 144" fill="none" xmlns="http://www.w3.org/2000/svg">
<path d="M-49.4022 121.172C-94.5963 121.172 -92.0855 85 -127.237 85C-133.095 91.6523 -141.297 104.957 -127.237 104.957C-109.661 104.957 -103.384 143 -49.4022 143C4.57974 143 1.44125 104.957 20.2722 104.957C39.103 104.957 34.7092 143 80.531 143C126.353 143 132.63 104.957 167.781 104.957C202.932 104.957 207.953 143 243.104 143C272.606 143 277 140.505 277 133.957C277 127.409 269.781 124.602 252.206 124.602C206.384 124.602 214.23 85 167.781 85C121.331 85 116.937 121.172 80.531 121.172C44.1246 121.172 54.1678 85 20.2722 85C-13.6235 85 -4.20801 121.172 -49.4022 121.172Z" fill="#92DDEA" stroke="black"/>
<path d="M217.524 49.3871C214.093 40.9358 207.651 34.4709 199.252 30.9218C192.082 27.892 184.327 27.3912 176.935 29.4585C173.222 22.8191 167.559 17.6498 160.39 14.6201C152.093 11.1142 142.821 11.0592 134.414 14.3873C125.962 17.8179 119.498 24.2609 115.948 32.6602C112.399 41.0595 112.387 50.2293 115.714 58.6374L136.323 108.995C137.269 111.326 139.073 113.055 141.327 114.007C143.58 114.959 146.121 114.946 148.409 114.102L194.162 95.5299L198.97 93.578C216.207 86.4962 224.561 66.727 217.524 49.3871Z" fill="white"/>
<path d="M141.11 114.52C138.652 113.481 136.788 111.607 135.885 109.173L115.379 58.8587C111.89 50.2616 111.989 40.887 115.581 32.3852C119.174 23.8835 125.828 17.279 134.381 13.8916C142.978 10.4019 152.25 10.4569 160.751 14.0494C167.819 17.0359 173.524 22.1027 177.34 28.7853C184.791 26.8638 192.444 27.3213 199.614 30.3511C208.115 33.9435 214.719 40.5974 218.106 49.1512C221.536 57.6025 221.54 67.0205 217.947 75.5222C214.355 84.024 207.701 90.6285 199.147 94.0158L148.586 114.54C146.109 115.546 143.466 115.515 141.11 114.52ZM160.319 15.0737C152.125 11.611 143.101 11.5402 134.795 14.9116C126.49 18.2831 120.068 24.6236 116.606 32.8181C113.143 41.0125 113.072 50.0366 116.443 58.3422L136.905 108.759C137.792 110.945 139.392 112.587 141.543 113.496C143.694 114.404 145.986 114.407 148.172 113.52L198.733 92.9958C207.039 89.6244 213.46 83.2838 216.923 75.0894C220.386 66.8949 220.5 57.7684 217.086 49.5652C213.715 41.2595 207.375 34.838 199.181 31.3754C192.114 28.3889 184.563 27.9747 177.214 29.9395L176.82 30.0145L176.599 29.6798C172.843 23.1429 167.283 18.0169 160.319 15.0737Z" fill="black"/>
<path d="M209.029 52.9216C203.884 40.2446 189.544 34.185 176.867 39.3309L172.059 41.2828L170.167 36.6199C165.021 23.9429 150.682 17.8833 138.005 23.0292C125.328 28.175 119.268 42.5153 124.414 55.1924L144.919 105.507L190.672 86.9343L195.481 84.9824C208.012 79.8957 214.115 65.453 209.029 52.9216Z" fill="#FF20AC"/>
<path d="M156 79.2839C147.908 75.8645 143.931 68.9929 144.069 58.669C144.108 57.7197 144.864 57.0734 145.754 56.9666C146.703 57.0056 147.349 57.7616 147.456 58.6517C147.326 67.5301 150.581 73.2519 157.341 76.1085C164.101 78.9652 170.474 77.312 176.793 70.9281C177.446 70.2385 178.498 70.3208 179.188 70.9743C179.877 71.6279 179.795 72.6796 179.141 73.3692C171.936 80.7066 164.091 82.7032 156 79.2839Z" fill="black"/>
<path d="M159.161 53.5517C160.164 51.4442 159.268 48.9232 157.161 47.9208C155.053 46.9183 152.532 47.8141 151.53 49.9215C150.528 52.0289 151.423 54.5499 153.53 55.5524C155.638 56.5548 158.159 55.6591 159.161 53.5517Z" fill="black"/>
<path d="M178.886 62.2392C179.888 60.1317 178.993 57.6107 176.885 56.6083C174.778 55.6058 172.257 56.5016 171.255 58.609C170.252 60.7164 171.148 63.2374 173.255 64.2399C175.362 65.2423 177.883 64.3466 178.886 62.2392Z" fill="black"/>
</svg>
