<svg width="184" height="426" viewBox="0 0 184 426" fill="none" xmlns="http://www.w3.org/2000/svg">
<rect x="23.5671" y="272.435" width="12.4504" height="42.0412" rx="6.22519" transform="rotate(31.3664 23.5671 272.435)" fill="#FF20AC" stroke="black"/>
<rect x="67.5046" y="253.604" width="12.4504" height="42.0412" rx="6.22519" transform="rotate(31.3664 67.5046 253.604)" fill="#92DDEA" stroke="black"/>
<rect x="112.341" y="244.637" width="12.4504" height="42.0412" rx="6.22519" transform="rotate(31.3664 112.341 244.637)" fill="#92DDEA" stroke="black"/>
<rect x="92.6139" y="338.79" width="12.4504" height="42.0412" rx="6.22519" transform="rotate(31.3664 92.6139 338.79)" fill="#92DDEA" stroke="black"/>
<rect x="137.448" y="329.823" width="12.4504" height="42.0412" rx="6.22519" transform="rotate(31.3664 137.448 329.823)" fill="#FFE927" stroke="black"/>
<rect x="122.204" y="284.091" width="12.4504" height="42.0412" rx="6.22519" transform="rotate(31.3664 122.204 284.091)" fill="#F5C8E2" stroke="black"/>
<rect x="72.8874" y="297.543" width="12.4504" height="42.0412" rx="6.22519" transform="rotate(31.3664 72.8874 297.543)" fill="#FF20AC" stroke="black"/>
<rect x="147.311" y="369.277" width="12.4504" height="42.0412" rx="6.22519" transform="rotate(31.3664 147.311 369.277)" fill="#92DDEA" stroke="black"/>
<rect x="156.278" y="225.806" width="12.4504" height="42.0412" rx="6.22519" transform="rotate(31.3664 156.278 225.806)" fill="#92DDEA" stroke="black"/>
<rect x="97.9928" y="382.728" width="12.4504" height="42.0412" rx="6.22519" transform="rotate(31.3664 97.9928 382.728)" fill="#FF20AC" stroke="black"/>
<rect x="33.4303" y="311.889" width="12.4504" height="42.0412" rx="6.22519" transform="rotate(31.3664 33.4303 311.889)" fill="#FFE927" stroke="black"/>
<rect x="172.567" y="317.687" width="12.4504" height="42.0412" rx="6.22519" transform="rotate(31.3664 172.567 317.687)" fill="#FF20AC" stroke="black"/>
<rect x="167.04" y="274.228" width="12.4504" height="42.0412" rx="6.22519" transform="rotate(31.3664 167.04 274.228)" fill="#92DDEA" stroke="black"/>
<rect x="136.551" y="180.972" width="12.4504" height="42.0412" rx="6.22519" transform="rotate(31.3664 136.551 180.972)" fill="#FF20AC" stroke="black"/>
<rect x="43.2956" y="173.799" width="12.4504" height="42.0412" rx="6.22519" transform="rotate(31.3664 43.2956 173.799)" fill="#FF20AC" stroke="black"/>
<rect x="92.6139" y="198.906" width="12.4504" height="42.0412" rx="6.22519" transform="rotate(31.3664 92.6139 198.906)" fill="#FFE927" stroke="black"/>
<rect x="53.1589" y="213.254" width="12.4504" height="42.0412" rx="6.22519" transform="rotate(31.3664 53.1589 213.254)" fill="#92DDEA" stroke="black"/>
<rect x="126.688" y="141.517" width="12.4504" height="42.0412" rx="6.22519" transform="rotate(31.3664 126.688 141.517)" fill="#F5C8E2" stroke="black"/>
<rect x="170.626" y="122.687" width="12.4504" height="42.0412" rx="6.22519" transform="rotate(31.3664 170.626 122.687)" fill="#FFE927" stroke="black"/>
<path d="M125.498 85.5004L101.998 79.0004L147.999 30.0002L95.999 13.0002L40.0989 74.2931L60.4984 79.0004L11.4992 140.501L125.498 85.5004Z" fill="white" stroke="#342D27" stroke-width="2" stroke-miterlimit="10"/>
<path d="M113.621 87.1009L91.6359 80.2776L138.039 31.7024L97.7913 19.2111L49.4267 70.3821L71.2285 77.1485L29.038 127.031L113.621 87.1009Z" fill="#FFE927" stroke="#342D27" stroke-miterlimit="10"/>
</svg>
