<svg width="384" height="456" viewBox="0 0 384 456" fill="none" xmlns="http://www.w3.org/2000/svg">
<rect x="23.571" y="169.324" width="12.4504" height="42.0412" rx="6.22519" transform="rotate(31.3664 23.571 169.324)" fill="#FF20AC" stroke="black"/>
<rect x="67.5085" y="150.493" width="12.4504" height="42.0412" rx="6.22519" transform="rotate(31.3664 67.5085 150.493)" fill="#F5C8E2" stroke="black"/>
<rect x="112.342" y="141.526" width="12.4504" height="42.0412" rx="6.22519" transform="rotate(31.3664 112.342 141.526)" fill="#92DDEA" stroke="black"/>
<rect x="92.6159" y="235.678" width="12.4504" height="42.0412" rx="6.22519" transform="rotate(31.3664 92.6159 235.678)" fill="#92DDEA" stroke="black"/>
<rect x="137.45" y="226.712" width="12.4504" height="42.0412" rx="6.22519" transform="rotate(31.3664 137.45 226.712)" fill="#FFE927" stroke="black"/>
<rect x="195.571" y="65.2487" width="12.4504" height="42.0412" rx="6.22519" transform="rotate(31.3664 195.571 65.2487)" fill="#92DDEA" stroke="black"/>
<rect x="240.405" y="56.2819" width="12.4504" height="42.0412" rx="6.22519" transform="rotate(31.3664 240.405 56.2819)" fill="#FFE927" stroke="black"/>
<rect x="122.206" y="180.98" width="12.4504" height="42.0412" rx="6.22519" transform="rotate(31.3664 122.206 180.98)" fill="#F5C8E2" stroke="black"/>
<rect x="267.471" y="137.043" width="12.4504" height="42.0412" rx="6.22519" transform="rotate(31.3664 267.471 137.043)" fill="#92DDEA" stroke="black"/>
<rect x="147.313" y="266.166" width="12.4504" height="42.0412" rx="6.22519" transform="rotate(31.3664 147.313 266.166)" fill="#92DDEA" stroke="black"/>
<rect x="156.28" y="122.695" width="12.4504" height="42.0412" rx="6.22519" transform="rotate(31.3664 156.28 122.695)" fill="#92DDEA" stroke="black"/>
<rect x="225.161" y="10.5505" width="12.4504" height="42.0412" rx="6.22519" transform="rotate(31.3664 225.161 10.5505)" fill="#F5C8E2" stroke="black"/>
<rect x="97.9968" y="279.617" width="12.4504" height="42.0412" rx="6.22519" transform="rotate(31.3664 97.9968 279.617)" fill="#FF20AC" stroke="black"/>
<rect x="33.4343" y="208.778" width="12.4504" height="42.0412" rx="6.22519" transform="rotate(31.3664 33.4343 208.778)" fill="#FFE927" stroke="black"/>
<rect x="250.268" y="95.736" width="12.4504" height="42.0412" rx="6.22519" transform="rotate(31.3664 250.268 95.736)" fill="#92DDEA" stroke="black"/>
<rect x="72.8893" y="194.431" width="12.4504" height="42.0412" rx="6.22519" transform="rotate(31.3664 72.8893 194.431)" fill="#FF20AC" stroke="black"/>
<rect x="200.952" y="109.187" width="12.4504" height="42.0412" rx="6.22519" transform="rotate(31.3664 200.952 109.187)" fill="#FF20AC" stroke="black"/>
<rect x="136.553" y="77.861" width="12.4504" height="42.0412" rx="6.22519" transform="rotate(31.3664 136.553 77.861)" fill="#FF20AC" stroke="black"/>
<rect x="311.409" y="118.213" width="12.4504" height="42.0412" rx="6.22519" transform="rotate(31.3664 311.409 118.213)" fill="#92DDEA" stroke="black"/>
<rect x="277.335" y="176.497" width="12.4504" height="42.0412" rx="6.22519" transform="rotate(31.3664 277.335 176.497)" fill="#FFE927" stroke="black"/>
<rect x="43.2975" y="70.6872" width="12.4504" height="42.0412" rx="6.22519" transform="rotate(31.3664 43.2975 70.6872)" fill="#FF20AC" stroke="black"/>
<rect x="92.6159" y="95.7946" width="12.4504" height="42.0412" rx="6.22519" transform="rotate(31.3664 92.6159 95.7946)" fill="#FFE927" stroke="black"/>
<rect x="53.1608" y="110.142" width="12.4504" height="42.0412" rx="6.22519" transform="rotate(31.3664 53.1608 110.142)" fill="#92DDEA" stroke="black"/>
<rect x="167.042" y="171.117" width="12.4504" height="42.0412" rx="6.22519" transform="rotate(31.3664 167.042 171.117)" fill="#92DDEA" stroke="black"/>
<rect x="269.997" y="0.687183" width="12.4504" height="42.0412" rx="6.22519" transform="rotate(31.3664 269.997 0.687183)" fill="#92DDEA" stroke="black"/>
<rect x="211.876" y="162.15" width="12.4504" height="42.0412" rx="6.22519" transform="rotate(31.3664 211.876 162.15)" fill="#FF20AC" stroke="black"/>
<rect x="172.421" y="215.054" width="12.4504" height="42.0412" rx="6.22519" transform="rotate(31.3664 172.421 215.054)" fill="#92DDEA" stroke="black"/>
<rect x="221.739" y="201.604" width="12.4504" height="42.0412" rx="6.22519" transform="rotate(31.3664 221.739 201.604)" fill="#F5C8E2" stroke="black"/>
<rect x="275.376" y="44.6247" width="12.4504" height="42.0412" rx="6.22519" transform="rotate(31.3664 275.376 44.6247)" fill="#FF20AC" stroke="black"/>
<path d="M56.5978 433.172C11.4037 433.172 13.9145 397 -21.2365 397C-27.095 403.652 -35.2969 416.957 -21.2365 416.957C-3.66102 416.957 2.61594 455 56.5978 455C110.58 455 107.441 416.957 126.272 416.957C145.103 416.957 140.709 455 186.531 455C232.353 455 238.63 416.957 273.781 416.957C308.932 416.957 313.953 455 349.104 455C378.606 455 383 452.505 383 445.957C383 439.409 375.781 436.602 358.206 436.602C312.384 436.602 320.23 397 273.781 397C227.331 397 222.937 433.172 186.531 433.172C150.125 433.172 160.168 397 126.272 397C92.3765 397 101.792 433.172 56.5978 433.172Z" fill="#FFE927" stroke="black"/>
</svg>
