<svg width="391" height="530" viewBox="0 0 391 530" fill="none" xmlns="http://www.w3.org/2000/svg">
<path d="M-184.224 136.399C-185.43 131.899 -182.76 127.275 -178.26 126.069L102.204 50.9188C106.703 49.7132 111.328 52.3833 112.534 56.8826L122.939 95.7162C124.145 100.215 121.475 104.84 116.975 106.046L-163.489 181.196C-167.989 182.402 -172.613 179.732 -173.819 175.232L-184.224 136.399Z" fill="white" stroke="black"/>
<path d="M-244.237 240.348C-251.186 214.414 -235.197 187.572 -208.489 180.416L159.875 81.7127C186.584 74.5562 213.851 89.8075 220.8 115.741L261.844 268.918C268.793 294.852 252.804 321.694 226.096 328.85L-142.268 427.553C-168.977 434.709 -196.244 419.458 -203.193 393.524L-244.237 240.348Z" fill="white" stroke="black"/>
<path d="M-224.485 227.77C-227.558 216.301 -220.752 204.512 -209.282 201.438L171.071 99.5229C182.541 96.4497 194.33 103.256 197.403 114.726L242.089 281.495C245.162 292.964 238.356 304.754 226.886 307.827L-153.468 409.742C-164.937 412.815 -176.726 406.009 -179.799 394.539L-224.485 227.77Z" fill="#92DDEA" stroke="#342D27"/>
<circle cx="116.651" cy="208.392" r="59.8052" transform="rotate(-15 116.651 208.392)" fill="#FF20AC" stroke="#342D27"/>
<circle cx="116.65" cy="208.392" r="41.937" transform="rotate(-15 116.65 208.392)" fill="#F7B6E3" stroke="#342D27"/>
<path d="M-32.5 247.201C-19.0599 257.088 13.348 267.289 35.4587 228.992" stroke="#342D27" stroke-width="5" stroke-linecap="round"/>
<rect x="151.019" y="282.944" width="30.2694" height="19.1017" transform="rotate(-15 151.019 282.944)" fill="#FF20AC" stroke="#342D27"/>
<rect x="-84.1396" y="345.955" width="231.287" height="19.1017" transform="rotate(-15 -84.1396 345.955)" fill="#FFE927" stroke="#342D27"/>
<path d="M91.0078 185.203L103.619 242.113" stroke="#342D27" stroke-miterlimit="10"/>
<path d="M101.33 182.936L113.941 239.845" stroke="#342D27" stroke-miterlimit="10"/>
<path d="M111.695 180.659L124.306 237.569" stroke="#342D27" stroke-miterlimit="10"/>
<path d="M122 178.396L134.611 235.305" stroke="#342D27" stroke-miterlimit="10"/>
<path d="M132.363 176.119L144.974 233.029" stroke="#342D27" stroke-miterlimit="10"/>
<path d="M142.014 182.24L84.8535 194.796" stroke="#342D27" stroke-miterlimit="10"/>
<path d="M144.299 192.538L87.1387 205.094" stroke="#342D27" stroke-miterlimit="10"/>
<path d="M146.574 202.817L89.4141 215.372" stroke="#342D27" stroke-miterlimit="10"/>
<path d="M148.86 213.115L91.6992 225.671" stroke="#342D27" stroke-miterlimit="10"/>
<path d="M151.133 223.395L93.9727 235.95" stroke="#342D27" stroke-miterlimit="10"/>
<rect x="-172.729" y="136.148" width="284.891" height="23.5688" transform="rotate(-15 -172.729 136.148)" fill="#FF20AC" stroke="#342D27"/>
<rect x="-175.613" y="161.839" width="303.759" height="15.6347" transform="rotate(-15 -175.613 161.839)" fill="white"/>
<rect x="60.003" y="89.9746" width="28.0358" height="48.1376" transform="rotate(-15 60.003 89.9746)" fill="#FFE927" stroke="#342D27"/>
<path d="M122.634 274.9C121.961 272.388 123.452 269.806 125.964 269.133L289.498 225.314C292.01 224.641 294.593 226.132 295.266 228.644L301.333 251.287C302.006 253.799 300.515 256.382 298.003 257.055L134.469 300.874C131.957 301.547 129.374 300.056 128.701 297.544L122.634 274.9Z" fill="white" stroke="black"/>
<path d="M87.6406 335.511C83.6201 320.506 92.8699 304.966 108.337 300.821L323.124 243.269C338.591 239.125 354.372 247.959 358.393 262.964L382.325 352.278C386.345 367.283 377.095 382.824 361.628 386.968L146.841 444.52C131.374 448.665 115.593 439.831 111.572 424.826L87.6406 335.511Z" fill="white" stroke="black"/>
<path d="M101.531 337.038C98.4573 325.568 105.264 313.779 116.733 310.706L320.792 256.029C332.261 252.955 344.05 259.762 347.124 271.231L368.431 350.752C371.504 362.222 364.698 374.011 353.228 377.084L149.17 431.762C137.701 434.835 125.911 428.028 122.838 416.559L101.531 337.038Z" fill="#92DDEA" stroke="#342D27"/>
<circle cx="164.523" cy="352.662" r="34.6629" transform="rotate(-15 164.523 352.662)" fill="#FF20AC" stroke="#342D27"/>
<circle cx="297.866" cy="316.933" r="34.6629" transform="rotate(-15 297.866 316.933)" fill="#FF20AC" stroke="#342D27"/>
<circle cx="297.866" cy="316.932" r="24.2443" transform="rotate(-15 297.866 316.932)" fill="#F7B6E3" stroke="#342D27"/>
<circle cx="164.522" cy="352.662" r="24.2443" transform="rotate(-15 164.522 352.662)" fill="#F7B6E3" stroke="#342D27"/>
<path d="M210.898 339.562C218.735 345.327 237.632 351.274 250.524 328.944" stroke="#342D27" stroke-width="5" stroke-linecap="round"/>
<rect x="157.142" y="403.695" width="17.2326" height="10.721" transform="rotate(-15 157.142 403.695)" fill="#FF20AC" stroke="#342D27"/>
<rect x="318.161" y="360.551" width="17.2326" height="10.721" transform="rotate(-15 318.161 360.551)" fill="#FF20AC" stroke="#342D27"/>
<rect x="181.044" y="397.291" width="134.442" height="10.721" transform="rotate(-15 181.044 397.291)" fill="#FFE927" stroke="#342D27"/>
<path d="M282.914 303.412L290.267 336.595" stroke="#342D27" stroke-miterlimit="10"/>
<path d="M288.934 302.09L296.287 335.273" stroke="#342D27" stroke-miterlimit="10"/>
<path d="M294.979 300.763L302.332 333.946" stroke="#342D27" stroke-miterlimit="10"/>
<path d="M300.986 299.442L308.339 332.626" stroke="#342D27" stroke-miterlimit="10"/>
<path d="M307.029 298.115L314.382 331.298" stroke="#342D27" stroke-miterlimit="10"/>
<path d="M312.655 301.684L279.326 309.005" stroke="#342D27" stroke-miterlimit="10"/>
<path d="M313.987 307.689L280.658 315.01" stroke="#342D27" stroke-miterlimit="10"/>
<path d="M315.316 313.682L281.986 321.003" stroke="#342D27" stroke-miterlimit="10"/>
<path d="M316.648 319.687L283.318 327.008" stroke="#342D27" stroke-miterlimit="10"/>
<path d="M317.974 325.681L284.645 333.002" stroke="#342D27" stroke-miterlimit="10"/>
<path d="M149.57 339.141L156.923 372.324" stroke="#342D27" stroke-miterlimit="10"/>
<path d="M155.592 337.819L162.945 371.003" stroke="#342D27" stroke-miterlimit="10"/>
<path d="M161.635 336.492L168.988 369.675" stroke="#342D27" stroke-miterlimit="10"/>
<path d="M167.643 335.172L174.996 368.355" stroke="#342D27" stroke-miterlimit="10"/>
<path d="M173.686 333.844L181.039 367.027" stroke="#342D27" stroke-miterlimit="10"/>
<path d="M179.312 337.412L145.982 344.733" stroke="#342D27" stroke-miterlimit="10"/>
<path d="M180.646 343.417L147.316 350.738" stroke="#342D27" stroke-miterlimit="10"/>
<path d="M181.974 349.412L148.645 356.732" stroke="#342D27" stroke-miterlimit="10"/>
<path d="M183.304 355.415L149.975 362.736" stroke="#342D27" stroke-miterlimit="10"/>
<path d="M184.632 361.41L151.303 368.73" stroke="#342D27" stroke-miterlimit="10"/>
<rect x="129.39" y="274.956" width="165.698" height="13.3256" transform="rotate(-15 129.39 274.956)" fill="#FF20AC" stroke="#342D27"/>
<rect x="127.453" y="289.788" width="177.117" height="9.11631" transform="rotate(-15 127.453 289.788)" fill="white"/>
<rect x="144.329" y="280.392" width="15.9303" height="27.6513" transform="rotate(-15 144.329 280.392)" fill="#FFE927" stroke="#342D27"/>
<rect x="265.093" y="248.033" width="15.9303" height="27.6513" transform="rotate(-15 265.093 248.033)" fill="#FFE927" stroke="#342D27"/>
</svg>
