<svg width="354" height="520" viewBox="0 0 354 520" fill="none" xmlns="http://www.w3.org/2000/svg">
<rect x="0.166236" y="0.685393" width="12.5113" height="42.1203" rx="6.25565" transform="matrix(0.855205 0.518289 -0.522733 0.852497 322.544 58.3147)" fill="#FF20AC" stroke="black"/>
<rect x="0.166236" y="0.685393" width="12.5113" height="42.1203" rx="6.25565" transform="matrix(0.855205 0.518289 -0.522733 0.852497 278.337 76.2522)" fill="#FFE927" stroke="black"/>
<rect x="0.166236" y="0.685393" width="12.5113" height="42.1203" rx="6.25565" transform="matrix(0.855205 0.518289 -0.522733 0.852497 312.619 18.8499)" fill="#F5C8E2" stroke="black"/>
<rect x="0.166236" y="0.685393" width="12.5113" height="42.1203" rx="6.25565" transform="matrix(0.855205 0.518289 -0.522733 0.852497 356.828 0.0149393)" fill="#FFE927" stroke="black"/>
<rect x="0.166236" y="0.685393" width="12.5113" height="42.1203" rx="6.25565" transform="matrix(0.855205 0.518289 -0.522733 0.852497 272.923 32.304)" fill="#92DDEA" stroke="black"/>
<rect x="0.166555" y="0.686699" width="12.4443" height="41.989" rx="6.22216" transform="matrix(0.854222 0.519908 -0.521111 0.853489 220.784 432.468)" fill="#92DDEA" stroke="black"/>
<rect x="0.166555" y="0.686699" width="12.4443" height="41.989" rx="6.22216" transform="matrix(0.854222 0.519908 -0.521111 0.853489 265.617 423.516)" stroke="black"/>
<rect x="0.166555" y="0.686699" width="12.4443" height="41.989" rx="6.22216" transform="matrix(0.854222 0.519908 -0.521111 0.853489 250.374 377.861)" fill="#F5C8E2" stroke="black"/>
<rect x="0.166555" y="0.686699" width="12.4443" height="41.989" rx="6.22216" transform="matrix(0.854222 0.519908 -0.521111 0.853489 275.48 462.905)" fill="#92DDEA" stroke="black"/>
<rect x="0.166555" y="0.686699" width="12.4443" height="41.989" rx="6.22216" transform="matrix(0.854222 0.519908 -0.521111 0.853489 226.167 476.333)" fill="#FF20AC" stroke="black"/>
<rect x="0.166555" y="0.686699" width="12.4443" height="41.989" rx="6.22216" transform="matrix(0.854222 0.519908 -0.521111 0.853489 295.204 368.014)" fill="#92DDEA" stroke="black"/>
<rect x="0.166555" y="0.686699" width="12.4443" height="41.989" rx="6.22216" transform="matrix(0.854222 0.519908 -0.521111 0.853489 349.9 398.451)" fill="#F5C8E2" stroke="black"/>
<rect x="0.166555" y="0.686699" width="12.4443" height="41.989" rx="6.22216" transform="matrix(0.854222 0.519908 -0.521111 0.853489 300.585 411.878)" fill="#FF20AC" stroke="black"/>
<path d="M438.316 265.172C498.867 265.172 495.503 229 542.598 229C550.448 235.652 561.437 248.957 542.598 248.957C519.051 248.957 510.641 287 438.316 287C365.99 287 370.195 248.957 344.965 248.957C319.736 248.957 325.623 287 264.23 287C202.838 287 194.428 248.957 147.332 248.957C100.237 248.957 93.5091 287 46.4135 287C6.88696 287 1 284.505 1 277.957C1 271.409 10.6714 268.602 34.2192 268.602C95.6115 268.602 85.0991 229 147.332 229C209.566 229 215.453 265.172 264.23 265.172C313.008 265.172 299.552 229 344.965 229C390.379 229 377.764 265.172 438.316 265.172Z" fill="#FF20AC" stroke="black"/>
</svg>
