<svg width="225" height="268" viewBox="0 0 225 268" fill="none" xmlns="http://www.w3.org/2000/svg">
<path d="M121.659 153.901C122.771 154.139 123.9 154.313 125.032 154.498C125.798 154.612 126.577 154.751 127.344 154.847C128.514 154.979 129.674 155.079 130.835 155.142C131.552 155.193 132.266 155.233 132.988 155.259C134.212 155.292 135.426 155.292 136.648 155.26C137.266 155.239 137.9 155.208 138.519 155.168C139.818 155.096 141.104 154.998 142.395 154.839C142.867 154.783 143.332 154.706 143.8 154.64C145.216 154.438 146.636 154.212 148.051 153.927C148.189 153.892 148.313 153.85 148.448 153.822C155.064 152.379 161.418 149.877 167.263 146.401C167.564 146.235 167.866 146.069 168.176 145.871C169.315 145.18 170.435 144.405 171.534 143.636C172.019 143.286 172.492 142.957 172.966 142.61C173.937 141.873 174.883 141.113 175.816 140.328C176.396 139.837 176.964 139.349 177.527 138.821C178.339 138.089 179.141 137.324 179.918 136.537C180.569 135.883 181.191 135.195 181.824 134.503C182.474 133.766 183.137 133.054 183.772 132.29C184.518 131.376 185.199 130.427 185.914 129.468C186.368 128.853 186.858 128.24 187.294 127.588C188.404 125.937 189.476 124.219 190.449 122.429C191.41 120.661 192.265 118.852 193.048 117.005C193.365 116.27 193.613 115.525 193.898 114.782C194.318 113.672 194.74 112.573 195.099 111.457C195.385 110.558 195.617 109.658 195.856 108.761C196.135 107.758 196.384 106.757 196.609 105.752C196.806 104.814 196.981 103.883 197.142 102.944C197.313 101.937 197.462 100.918 197.59 99.8878C197.695 98.9828 197.789 98.0991 197.859 97.1929C197.943 96.0744 197.987 94.9618 198.016 93.8413C198.028 93.0412 198.054 92.2488 198.041 91.4622C198.025 90.1707 197.941 88.8876 197.846 87.6076C197.802 86.9786 197.775 86.3502 197.705 85.7347C197.545 84.2361 197.316 82.7458 197.043 81.2683C196.974 80.8368 196.909 80.4161 196.84 79.9845C196.766 79.697 196.751 79.4044 196.681 79.1098C196.618 78.8371 196.51 78.5952 196.425 78.3289C192.494 61.2326 181.586 45.7866 164.953 36.7418C134.273 20.0574 95.7921 31.3574 79.17 61.9323C78.197 63.7221 77.3381 65.5557 76.5553 67.3847C76.2461 68.1057 75.9976 68.8504 75.7284 69.5656C75.305 70.6827 74.886 71.7747 74.5239 72.8977C74.2218 73.8424 73.9848 74.7859 73.7336 75.7217C73.4868 76.6324 73.2548 77.5328 73.0589 78.4345C72.821 79.515 72.6263 80.6006 72.4496 81.6869C72.3235 82.4433 72.2122 83.1894 72.1151 83.9431C71.9562 85.1491 71.8443 86.3531 71.7575 87.5616C71.716 88.1623 71.6964 88.7566 71.6769 89.3509C71.622 90.6868 71.5885 92.0342 71.6135 93.3585C71.6268 93.7232 71.6542 94.0956 71.6823 94.45C71.9515 101.196 73.2925 107.864 75.6506 114.151C75.7065 114.319 75.7591 114.476 75.8221 114.648C76.3245 115.957 76.9036 117.243 77.4968 118.537C77.7094 118.992 77.904 119.446 78.1205 119.894C78.6824 121.043 79.2958 122.165 79.931 123.28C80.2522 123.84 80.5734 124.399 80.9023 124.945C81.5218 125.987 82.1793 126.977 82.869 127.976C83.2824 128.586 83.7255 129.175 84.1647 129.771C84.8458 130.701 85.5456 131.613 86.2787 132.497C86.6298 132.917 86.9951 133.345 87.3467 133.747C87.4094 133.818 87.4393 133.898 87.4911 133.972C87.8188 134.334 88.1657 134.66 88.4934 135.021C89.0376 135.611 89.585 136.211 90.1517 136.776C90.3197 136.94 90.4697 137.104 90.6448 137.273C91.2922 137.909 91.9807 138.504 92.6654 139.105C93.2688 139.653 93.8464 140.215 94.4832 140.735C94.5291 140.769 94.5536 140.792 94.5814 140.825L54.7452 214.1C51.5608 219.958 53.7498 227.317 59.6133 230.505C65.491 233.702 72.8425 231.531 76.0269 225.674L115.871 152.384C115.907 152.386 115.939 152.394 115.975 152.413C117.072 152.763 118.18 153.026 119.284 153.296C120.079 153.509 120.859 153.732 121.659 153.901Z" fill="white" stroke="black" stroke-width="2" stroke-miterlimit="10"/>
<path d="M105.337 138.351L105.325 138.372L62.916 216.38C61.9084 218.233 62.5941 220.558 64.4611 221.574C66.3351 222.593 68.6592 221.904 69.6668 220.051L112.076 142.043L112.087 142.022C137.694 153.711 168.281 143.819 181.876 118.812C196.087 92.6722 186.346 59.905 160.109 45.6372C133.873 31.3693 101.083 40.9982 86.8685 67.1446C73.2692 92.1591 81.6177 123.225 105.337 138.351Z" fill="#FF20AC" stroke="black" stroke-miterlimit="10" stroke-linejoin="round"/>
<path d="M69.6749 220.055C68.6673 221.909 66.3432 222.597 64.4691 221.578C62.6022 220.563 61.9165 218.237 62.9241 216.384L117.033 116.856C118.04 115.003 120.364 114.314 122.231 115.33C124.105 116.349 124.791 118.674 123.783 120.528L69.6749 220.055Z" fill="#92DDEA"/>
<path d="M181.873 118.819C167.662 144.959 134.868 154.595 108.632 140.327C82.395 126.059 72.6538 93.2917 86.8646 67.1524C101.075 41.013 133.876 31.381 160.113 45.6489C186.349 59.9167 196.087 92.6729 181.873 118.819Z" fill="#FF20AC"/>
<path d="M150.879 133.754C189.578 118.626 185.046 68.3542 155.022 54.6974C132.321 44.3715 111.042 48.4042 98.0763 73.025C89.0695 90.1275 95.0374 113.873 112.163 123.663C131.102 134.489 151.542 123.829 159.717 109.467C170.716 90.1433 156.844 64.3552 133.506 67.0255C110.197 69.6925 110.01 104.107 130.851 107.836" stroke="#FFE927" stroke-width="6" stroke-linecap="round"/>
</svg>
