<svg width="712" height="590" viewBox="0 0 712 590" fill="none" xmlns="http://www.w3.org/2000/svg">
<path d="M693.48 286.567C695.197 140.003 579.73 19.6679 435.576 17.7921C291.423 15.9162 173.172 133.21 171.455 279.774C169.738 426.339 285.205 546.673 429.358 548.549C573.512 550.425 691.763 433.132 693.48 286.567Z" fill="white" stroke="black" stroke-width="1.5" stroke-miterlimit="10"/>
<path d="M649.485 285.982C650.916 164.124 554.916 64.0768 435.062 62.5206C315.209 60.9643 216.889 158.488 215.458 280.346C214.027 402.204 310.027 502.251 429.881 503.807C549.734 505.363 648.054 407.84 649.485 285.982Z" fill="#FFE927"/>
<path d="M357.459 254.87C357.645 238.957 345.109 225.892 329.458 225.689C313.807 225.485 300.968 238.22 300.782 254.132C300.595 270.045 313.132 283.11 328.783 283.314C344.434 283.517 357.272 270.783 357.459 254.87Z" fill="black"/>
<path d="M569.481 257.945C569.668 242.032 557.131 228.967 541.48 228.764C525.829 228.56 512.991 241.295 512.804 257.207C512.618 273.12 525.154 286.185 540.805 286.389C556.456 286.592 569.295 273.858 569.481 257.945Z" fill="black"/>
<path d="M457.664 321.593C457.664 334.554 447.163 345.056 434.216 345.056C421.269 345.056 410.769 334.554 410.769 321.593C410.769 308.631 421.269 298.129 434.216 298.129C447.163 298.129 457.664 308.631 457.664 321.593Z" fill="black" stroke="black" stroke-width="11"/>
<path d="M245.164 302.545C225.097 292.164 202.563 290.378 181.045 297.233C162.675 303.084 147.277 314.641 136.699 330.446C119.019 323.932 100.04 323.326 81.6707 329.178C60.4146 335.95 42.882 350.789 32.4243 370.604C22.0502 390.682 20.2654 413.23 27.117 434.761C33.9686 456.292 48.7164 473.573 68.5206 484.037L188.407 545.618C193.943 548.482 200.122 548.827 205.896 546.988C211.669 545.149 216.428 541.03 219.373 535.754L275.536 427.055L281.439 415.632C302.461 374.521 286.335 323.844 245.164 302.545Z" fill="white"/>
<path d="M188.17 546.228L188.163 546.224L188.156 546.22L68.5082 484.544C48.21 474.043 33.3787 456.343 26.4791 434.676C19.5799 413.01 21.4451 391.249 32.0164 371.211L32.0184 371.207C42.5088 350.904 59.9362 336.158 81.5912 329.265C99.5826 323.537 118.824 324.57 136.68 330.971L137.039 331.1L137.258 330.786C148.137 315.226 162.214 302.782 180.452 296.976C202.124 290.077 225.648 291.074 245.668 301.648L245.672 301.65C265.627 311.973 280.719 329.592 287.618 351.256C294.517 372.924 292.651 395.938 282.08 415.974L282.078 415.978L220.025 536.076C217.045 541.843 212.128 545.954 206.22 547.835C200.044 549.801 193.662 549.283 188.17 546.228Z" stroke="black"/>
<path d="M234.878 322.887C204.778 307.316 168.039 319.019 152.478 349.136L146.575 360.56L135.504 354.833C105.404 339.262 68.6651 350.965 53.1039 381.082C37.5427 411.199 49.2405 447.96 79.3405 463.531L198.965 525.195L255.128 416.497L261.031 405.073C276.413 375.303 264.632 338.279 234.878 322.887Z" fill="#FF20AC"/>
<path d="M142.07 404.44C140.561 398.857 134.816 395.555 129.236 397.064C123.657 398.574 120.357 404.323 121.865 409.905C123.374 415.488 129.12 418.79 134.699 417.281C140.278 415.772 143.578 410.023 142.07 404.44Z" fill="black"/>
<path d="M193.176 389.005C191.668 383.422 185.922 380.12 180.343 381.629C174.763 383.138 171.463 388.887 172.972 394.47C174.48 400.052 180.226 403.355 185.805 401.845C191.385 400.336 194.685 394.587 193.176 389.005Z" fill="black"/>
<line x1="3" y1="-3" x2="27.9625" y2="-3" transform="matrix(0.93493 -0.354819 0.354489 0.935065 148.731 427.458)" stroke="black" stroke-width="6" stroke-linecap="round"/>
</svg>
