<svg width="712" height="591" viewBox="0 0 712 591" fill="none" xmlns="http://www.w3.org/2000/svg">
<path d="M693.275 286.272C694.991 139.859 579.558 19.6487 435.447 17.7749C291.336 15.901 173.12 133.073 171.403 279.486C169.686 425.899 285.12 546.109 429.231 547.983C573.342 549.857 691.558 432.685 693.275 286.272Z" fill="white" stroke="black" stroke-width="1.5" stroke-miterlimit="10"/>
<path d="M649.291 285.686C650.722 163.955 554.75 64.011 434.932 62.4564C315.114 60.9017 216.822 158.325 215.392 280.057C213.961 401.788 309.933 501.732 429.751 503.287C549.569 504.841 647.861 407.418 649.291 285.686Z" fill="#FFE927"/>
<path d="M357.353 254.607C357.54 238.711 345.007 225.659 329.361 225.456C313.714 225.252 300.879 237.974 300.693 253.87C300.507 269.766 313.039 282.818 328.686 283.021C344.332 283.225 357.167 270.503 357.353 254.607Z" fill="black"/>
<path d="M569.312 257.679C569.499 241.782 556.966 228.731 541.32 228.527C525.673 228.324 512.838 241.046 512.652 256.942C512.466 272.838 524.998 285.89 540.645 286.093C556.291 286.296 569.126 273.575 569.312 257.679Z" fill="black"/>
<path d="M406.429 323.665L461.352 323.665" stroke="black" stroke-width="18" stroke-linecap="round"/>
<path d="M244.882 302.862C224.822 292.492 202.294 290.707 180.782 297.555C162.418 303.401 147.024 314.945 136.45 330.734C118.775 324.227 99.8012 323.622 81.4372 329.468C60.1873 336.232 42.6599 351.056 32.2053 370.851C21.8342 390.908 20.05 413.432 26.8996 434.941C33.7492 456.45 48.4925 473.713 68.291 484.167L188.143 545.684C193.677 548.545 199.854 548.889 205.626 547.052C211.397 545.215 216.155 541.1 219.099 535.83L275.246 427.244L281.147 415.832C302.163 374.763 286.041 324.139 244.882 302.862Z" fill="white"/>
<path d="M187.905 546.293L187.898 546.289L187.891 546.285L68.278 484.673C47.9859 474.183 33.1591 456.501 26.2616 434.856C19.3644 413.213 21.2291 391.475 31.7973 371.458L31.7973 371.458L31.7992 371.454C42.2865 351.172 59.7087 336.442 81.3575 329.555C99.3436 323.834 118.58 324.866 136.43 331.259L136.789 331.388L137.008 331.075C147.884 315.531 161.956 303.1 180.189 297.3C201.855 290.408 225.372 291.404 245.386 301.967L245.39 301.969C265.339 312.281 280.426 329.882 287.323 351.523C294.221 373.168 292.355 396.158 281.787 416.174L281.785 416.178L219.75 536.151C216.771 541.913 211.856 546.02 205.949 547.899C199.775 549.863 193.395 549.345 187.905 546.293Z" stroke="black"/>
<path d="M234.6 323.184C204.509 307.629 167.781 319.32 152.224 349.406L146.323 360.818L135.255 355.096C105.164 339.541 68.436 351.233 52.8794 381.319C37.3228 411.404 49.0172 448.127 79.1084 463.682L198.698 525.283L254.845 416.697L260.745 405.285C276.123 375.545 264.345 338.56 234.6 323.184Z" fill="#FF20AC"/>
<path d="M142.028 404.022C140.52 398.445 134.775 395.147 129.198 396.654C123.62 398.162 120.321 403.905 121.829 409.482C123.337 415.059 129.081 418.357 134.659 416.85C140.237 415.342 143.536 409.599 142.028 404.022Z" fill="black"/>
<path d="M193.119 388.603C191.611 383.026 185.867 379.727 180.29 381.235C174.712 382.742 171.413 388.485 172.921 394.062C174.429 399.639 180.173 402.938 185.751 401.43C191.328 399.923 194.627 394.18 193.119 388.603Z" fill="black"/>
<path d="M161.149 414.432C165.424 413.015 172.012 413.005 178.036 420.353C179.045 421.446 178.844 423.152 177.622 424.027C176.527 425.04 174.822 424.842 173.95 423.623C170.565 419.407 166.798 418.076 162.661 419.366C158.524 420.657 156.416 423.871 155.927 429.387C155.736 430.83 154.504 431.969 153.062 431.781C151.621 431.594 150.485 430.364 150.676 428.922C151.589 419.468 156.875 415.849 161.149 414.432Z" fill="black"/>
<path d="M190.184 426.413C191.771 432.339 197.499 435.91 202.977 434.391C208.456 432.872 211.61 426.837 210.023 420.912C208.035 411.586 193.909 403.549 193.909 403.549C193.909 403.549 187.916 417.946 190.184 426.413Z" fill="#92DDEA"/>
</svg>
