<svg width="363" height="363" viewBox="0 0 363 363" fill="none" xmlns="http://www.w3.org/2000/svg">
<path d="M156.36 74.126C174.346 48.8963 212.899 52.5981 225.756 80.7893L286.126 213.165C298.982 241.357 276.5 272.894 245.657 269.932L100.831 256.027C69.9886 253.065 53.9178 217.826 71.9038 192.596L156.36 74.126Z" fill="white" stroke="black" stroke-width="1.5"/>
<path d="M163.92 97.3216C176.879 79.1436 204.657 81.8108 213.92 102.122L262.258 208.115C271.521 228.427 255.323 251.15 233.101 249.016L117.139 237.882C94.9168 235.748 83.3379 210.358 96.2967 192.18L163.92 97.3216Z" fill="#FFE927"/>
<circle cx="178.537" cy="207.855" r="11.7023" transform="rotate(5.48458 178.537 207.855)" fill="black"/>
<path d="M189.233 174.026C186.713 182.41 174.49 181.236 173.612 172.526L168.582 122.672C168.076 117.652 172.285 113.423 177.307 113.905L196.76 115.773C201.781 116.255 205.109 121.208 203.656 126.039L189.233 174.026Z" fill="black"/>
</svg>
