<svg width="116" height="185" viewBox="0 0 116 185" fill="none" xmlns="http://www.w3.org/2000/svg">
<rect x="18.405" y="56.2819" width="12.4504" height="42.0412" rx="6.22519" transform="rotate(31.3664 18.405 56.2819)" fill="#FFE927" stroke="black"/>
<rect x="31.571" y="141.687" width="12.4504" height="42.0412" rx="6.22519" transform="rotate(31.3664 31.571 141.687)" fill="#92DDEA" stroke="black"/>
<rect x="15.571" y="4.68718" width="12.4504" height="42.0412" rx="6.22519" transform="rotate(31.3664 15.571 4.68718)" fill="#F5C8E2" stroke="black"/>
<rect x="28.2682" y="95.7365" width="12.4504" height="42.0412" rx="6.22519" transform="rotate(31.3664 28.2682 95.7365)" fill="#92DDEA" stroke="black"/>
<rect x="104.571" y="85.6872" width="12.4504" height="42.0412" rx="6.22519" transform="rotate(31.3664 104.571 85.6872)" fill="#92DDEA" stroke="black"/>
<rect x="71.571" y="134.687" width="12.4504" height="42.0412" rx="6.22519" transform="rotate(31.3664 71.571 134.687)" fill="#FFE927" stroke="black"/>
<rect x="47.9968" y="0.687183" width="12.4504" height="42.0412" rx="6.22519" transform="rotate(31.3664 47.9968 0.687183)" fill="#92DDEA" stroke="black"/>
<rect x="66.571" y="87.6872" width="12.4504" height="42.0412" rx="6.22519" transform="rotate(31.3664 66.571 87.6872)" fill="#F5C8E2" stroke="black"/>
<rect x="53.3757" y="44.6247" width="12.4504" height="42.0412" rx="6.22519" transform="rotate(31.3664 53.3757 44.6247)" fill="#FF20AC" stroke="black"/>
</svg>
