<svg width="157" height="152" viewBox="0 0 157 152" fill="none" xmlns="http://www.w3.org/2000/svg">
<rect x="0.166555" y="0.686699" width="12.4443" height="41.989" rx="6.22216" transform="matrix(0.854222 0.519908 -0.521111 0.853489 22.7845 64.4681)" fill="#92DDEA" stroke="black"/>
<rect x="0.166555" y="0.686699" width="12.4443" height="41.989" rx="6.22216" transform="matrix(0.854222 0.519908 -0.521111 0.853489 67.6165 55.5165)" stroke="black"/>
<rect x="0.166555" y="0.686699" width="12.4443" height="41.989" rx="6.22216" transform="matrix(0.854222 0.519908 -0.521111 0.853489 52.3743 9.8607)" fill="#F5C8E2" stroke="black"/>
<rect x="0.166555" y="0.686699" width="12.4443" height="41.989" rx="6.22216" transform="matrix(0.854222 0.519908 -0.521111 0.853489 77.4798 94.9046)" fill="#92DDEA" stroke="black"/>
<rect x="0.166555" y="0.686699" width="12.4443" height="41.989" rx="6.22216" transform="matrix(0.854222 0.519908 -0.521111 0.853489 28.1673 108.333)" fill="#FF20AC" stroke="black"/>
<rect x="0.166555" y="0.686699" width="12.4443" height="41.989" rx="6.22216" transform="matrix(0.854222 0.519908 -0.521111 0.853489 97.2044 0.0140155)" fill="#92DDEA" stroke="black"/>
<rect x="0.166555" y="0.686699" width="12.4443" height="41.989" rx="6.22216" transform="matrix(0.854222 0.519908 -0.521111 0.853489 151.9 30.4505)" fill="#F5C8E2" stroke="black"/>
<rect x="0.166555" y="0.686699" width="12.4443" height="41.989" rx="6.22216" transform="matrix(0.854222 0.519908 -0.521111 0.853489 102.585 43.8783)" fill="#FF20AC" stroke="black"/>
</svg>
