<svg width="1920" height="1080" viewBox="0 0 1920 1080" fill="none" xmlns="http://www.w3.org/2000/svg">
<rect x="0.998047" width="1917" height="1080" fill="#92DDEA"/>
<line x1="6.99707" y1="2.18899e-07" x2="6.99704" y2="622" stroke="#99DEF1" stroke-width="10"/>
<line x1="1912.02" y1="-2.18899e-07" x2="1912.02" y2="973" stroke="#99DEF1" stroke-width="10"/>
<line y1="-5" x2="1076.42" y2="-5" transform="matrix(-0.00595383 0.999982 -0.999999 -0.00173307 83.9932 0.265625)" stroke="#FFEBF5" stroke-opacity="0.3" stroke-width="10"/>
<line y1="-5" x2="1076.42" y2="-5" transform="matrix(-0.00595383 0.999982 -0.999999 -0.00173307 164.843 0.265625)" stroke="#FFEBF5" stroke-opacity="0.3" stroke-width="10"/>
<line y1="-5" x2="1076.42" y2="-5" transform="matrix(-0.00595383 0.999982 -0.999999 -0.00173307 242.243 0.265625)" stroke="#FFEBF5" stroke-opacity="0.3" stroke-width="10"/>
<line y1="-5" x2="1076.42" y2="-5" transform="matrix(-0.00595383 0.999982 -0.999999 -0.00173307 321.614 0.265625)" stroke="#FFEBF5" stroke-opacity="0.3" stroke-width="10"/>
<line y1="-5" x2="1076.42" y2="-5" transform="matrix(-0.00595383 0.999982 -0.999999 -0.00173307 405.42 0.532227)" stroke="#FFEBF5" stroke-opacity="0.3" stroke-width="10"/>
<line y1="-5" x2="1076.42" y2="-5" transform="matrix(-0.00595383 0.999982 -0.999999 -0.00173307 484.3 0.265625)" stroke="#FFEBF5" stroke-opacity="0.3" stroke-width="10"/>
<line y1="-5" x2="1076.42" y2="-5" transform="matrix(-0.00595383 0.999982 -0.999999 -0.00173307 564.164 0.265625)" stroke="#FFEBF5" stroke-opacity="0.3" stroke-width="10"/>
<line y1="-5" x2="1076.42" y2="-5" transform="matrix(-0.00595383 0.999982 -0.999999 -0.00173307 639.591 0)" stroke="#FFEBF5" stroke-opacity="0.3" stroke-width="10"/>
<line y1="-5" x2="1076.42" y2="-5" transform="matrix(-0.00595383 0.999982 -0.999999 -0.00173307 721.921 0.532227)" stroke="#FFEBF5" stroke-opacity="0.3" stroke-width="10"/>
<line y1="-5" x2="1076.42" y2="-5" transform="matrix(-0.00595383 0.999982 -0.999999 -0.00173307 804.25 1.06396)" stroke="#FFEBF5" stroke-opacity="0.3" stroke-width="10"/>
<line y1="-5" x2="1076.42" y2="-5" transform="matrix(-0.00595383 0.999982 -0.999999 -0.00173307 886.578 1.5957)" stroke="#FFEBF5" stroke-opacity="0.3" stroke-width="10"/>
<line y1="-5" x2="1076.42" y2="-5" transform="matrix(-0.00595383 0.999982 -0.999999 -0.00173307 966.211 0.265625)" stroke="#FFEBF5" stroke-opacity="0.3" stroke-width="10"/>
<line y1="-5" x2="1076.42" y2="-5" transform="matrix(-0.00595383 0.999982 -0.999999 -0.00173307 1047.06 0.265625)" stroke="#FFEBF5" stroke-opacity="0.3" stroke-width="10"/>
<line y1="-5" x2="1076.42" y2="-5" transform="matrix(-0.00595383 0.999982 -0.999999 -0.00173307 1124.46 0.265625)" stroke="#FFEBF5" stroke-opacity="0.3" stroke-width="10"/>
<line y1="-5" x2="1076.42" y2="-5" transform="matrix(-0.00595383 0.999982 -0.999999 -0.00173307 1203.83 0.265625)" stroke="#FFEBF5" stroke-opacity="0.3" stroke-width="10"/>
<line y1="-5" x2="1076.42" y2="-5" transform="matrix(-0.00595383 0.999982 -0.999999 -0.00173307 1287.63 0.532227)" stroke="#FFEBF5" stroke-opacity="0.3" stroke-width="10"/>
<line y1="-5" x2="1076.42" y2="-5" transform="matrix(-0.00595383 0.999982 -0.999999 -0.00173307 1366.51 0.265625)" stroke="#FFEBF5" stroke-opacity="0.3" stroke-width="10"/>
<line y1="-5" x2="1076.42" y2="-5" transform="matrix(-0.00595383 0.999982 -0.999999 -0.00173307 1446.38 0.265625)" stroke="#FFEBF5" stroke-opacity="0.3" stroke-width="10"/>
<line y1="-5" x2="1076.42" y2="-5" transform="matrix(-0.00595383 0.999982 -0.999999 -0.00173307 1521.8 0)" stroke="#FFEBF5" stroke-opacity="0.3" stroke-width="10"/>
<line y1="-5" x2="1076.42" y2="-5" transform="matrix(-0.00595383 0.999982 -0.999999 -0.00173307 1604.13 0.532227)" stroke="#FFEBF5" stroke-opacity="0.3" stroke-width="10"/>
<line y1="-5" x2="1076.42" y2="-5" transform="matrix(-0.00595383 0.999982 -0.999999 -0.00173307 1686.46 1.06396)" stroke="#FFEBF5" stroke-opacity="0.3" stroke-width="10"/>
<line y1="-5" x2="1076.42" y2="-5" transform="matrix(-0.00595383 0.999982 -0.999999 -0.00173307 1768.79 1.5957)" stroke="#FFEBF5" stroke-opacity="0.3" stroke-width="10"/>
<line y1="-5" x2="1076.42" y2="-5" transform="matrix(-0.00595383 0.999982 -0.999999 -0.00173307 1846.24 1.06396)" stroke="#FFEBF5" stroke-opacity="0.3" stroke-width="10"/>
<line y1="-5" x2="1909.37" y2="-5" transform="matrix(1 0.000400869 -0.000115123 1 5.80957 867.32)" stroke="#FFEBF5" stroke-opacity="0.3" stroke-width="10"/>
<line y1="-5" x2="1909.37" y2="-5" transform="matrix(1 0.000400869 -0.000115123 1 5.57129 785.935)" stroke="#FFEBF5" stroke-opacity="0.3" stroke-width="10"/>
<line y1="-5" x2="1909.37" y2="-5" transform="matrix(1 0.000400869 -0.000115123 1 5.34082 708.024)" stroke="#FFEBF5" stroke-opacity="0.3" stroke-width="10"/>
<line y1="-5" x2="1911.37" y2="-5" transform="matrix(1 0.000395172 -0.000119999 1 2.83301 1022.92)" stroke="#FFEBF5" stroke-opacity="0.3" stroke-width="10"/>
<line y1="-5" x2="1911.37" y2="-5" transform="matrix(1 0.000395172 -0.000119999 1 2.60156 945.014)" stroke="#FFEBF5" stroke-opacity="0.3" stroke-width="10"/>
<line y1="-5" x2="1909.37" y2="-5" transform="matrix(1 0.000400869 -0.000115123 1 5.10742 628.128)" stroke="#FFEBF5" stroke-opacity="0.3" stroke-width="10"/>
<line y1="-5" x2="1909.37" y2="-5" transform="matrix(1 0.000400869 -0.000115123 1 5.33008 543.764)" stroke="#FFEBF5" stroke-opacity="0.3" stroke-width="10"/>
<line y1="-5" x2="1909.37" y2="-5" transform="matrix(1 0.000400869 -0.000115123 1 4.625 464.364)" stroke="#FFEBF5" stroke-opacity="0.3" stroke-width="10"/>
<line y1="-5" x2="1909.37" y2="-5" transform="matrix(1 0.000400869 -0.000115123 1 4.3877 383.973)" stroke="#FFEBF5" stroke-opacity="0.3" stroke-width="10"/>
<line y1="-5" x2="1909.38" y2="-5" transform="matrix(1 0.000255638 -0.000252288 1 3.69531 308.047)" stroke="#FFEBF5" stroke-opacity="0.3" stroke-width="10"/>
<line y1="-5" x2="1909.37" y2="-5" transform="matrix(1 0.000400869 -0.000115123 1 4.39355 225.17)" stroke="#FFEBF5" stroke-opacity="0.3" stroke-width="10"/>
<line y1="-5" x2="1909.37" y2="-5" transform="matrix(1 0.000400869 -0.000115123 1 5.09473 142.293)" stroke="#FFEBF5" stroke-opacity="0.3" stroke-width="10"/>
<line y1="-5" x2="1909.37" y2="-5" transform="matrix(1 0.000400869 -0.000115123 1 5.79297 59.418)" stroke="#FFEBF5" stroke-opacity="0.3" stroke-width="10"/>
<path d="M181.604 856.233L178.737 854.823L172.054 851.537C171.938 851.471 171.818 851.419 171.702 851.37L154.041 842.69C153.93 842.628 153.809 842.572 153.686 842.513L143.888 837.698C142.266 836.895 140.412 836.742 138.671 837.279L113.614 845.008L88.5601 852.736L63.5139 860.461C63.0584 860.601 62.6283 860.799 62.2131 861.032C61.7454 861.278 61.3117 861.569 60.9192 861.917C60.5751 862.226 60.2555 862.575 59.9765 862.953C59.6763 863.353 59.4718 863.711 59.3291 863.982C59.1813 864.262 58.9932 864.648 58.8318 865.135C58.6475 865.666 58.5306 866.22 58.4889 866.783C58.4535 867.235 58.4644 867.681 58.5228 868.125C58.5591 868.575 58.6492 869.017 58.7807 869.45L66.4172 894.587L74.0537 919.724L81.6879 944.854C82.2557 946.723 83.572 948.293 85.2988 949.177L86.1799 949.618L90.3992 951.724L95.3771 954.213L113.566 963.308C113.6 963.326 113.627 963.338 113.664 963.351L120.022 966.534C122.271 967.658 123.397 968.217 123.558 968.297C125.22 969.141 127.106 969.304 128.872 968.759C129.005 968.718 129.127 968.672 129.26 968.619L153.928 961.011L178.981 953.283L204.028 945.558C207.792 944.397 209.918 940.365 208.768 936.579L201.098 911.331L193.431 886.093L186.033 861.741C185.981 861.425 185.909 861.123 185.817 860.819C185.174 858.715 183.605 857.029 181.604 856.233Z" fill="white" stroke="#342D27" stroke-width="2" stroke-miterlimit="10"/>
<path d="M100.131 864.77C91.779 867.346 83.4291 869.917 75.0778 872.497C68.4038 869.213 65.3302 867.704 64.9893 867.534C73.338 864.959 81.6867 862.383 90.0392 859.807C90.3764 859.978 93.45 861.487 100.131 864.77Z" fill="#81CDE2" stroke="#342D27" stroke-width="2" stroke-miterlimit="10" stroke-linecap="round" stroke-linejoin="round"/>
<path d="M125.185 857.042C116.832 859.618 108.483 862.19 100.135 864.769C93.4499 861.487 90.3763 859.978 90.0391 859.807C98.3915 857.231 106.74 854.656 115.093 852.08C115.434 852.25 118.5 853.761 125.185 857.042Z" fill="#81CDE2" stroke="#342D27" stroke-width="2" stroke-miterlimit="10" stroke-linecap="round" stroke-linejoin="round"/>
<path d="M150.235 849.316C141.883 851.892 133.534 854.467 125.181 857.043C118.501 853.765 115.43 852.251 115.093 852.08C123.445 849.503 131.79 846.929 140.143 844.353C140.484 844.523 143.554 846.033 150.235 849.316Z" fill="#81CDE2" stroke="#342D27" stroke-width="2" stroke-miterlimit="10" stroke-linecap="round" stroke-linejoin="round"/>
<path d="M118.144 873.616C109.792 876.192 101.443 878.767 93.0905 881.343C87.0924 878.393 81.0843 875.449 75.0776 872.497C83.4253 869.918 91.7788 867.346 100.131 864.77C106.142 867.721 112.139 870.668 118.144 873.616Z" fill="#81CDE2" stroke="#342D27" stroke-width="2" stroke-miterlimit="10" stroke-linecap="round" stroke-linejoin="round"/>
<path d="M143.198 865.888C134.849 868.464 126.497 871.04 118.148 873.615C112.143 870.667 106.142 867.721 100.135 864.769C108.483 862.19 116.836 859.617 125.185 857.042C131.192 859.994 137.193 862.94 143.198 865.888Z" fill="#81CDE2" stroke="#342D27" stroke-width="2" stroke-miterlimit="10" stroke-linecap="round" stroke-linejoin="round"/>
<path d="M168.248 858.162C159.896 860.738 151.547 863.313 143.195 865.89C137.189 862.941 131.188 859.996 125.182 857.043C133.53 854.468 141.883 851.892 150.235 849.316C156.242 852.268 162.243 855.214 168.248 858.162Z" fill="#81CDE2" stroke="#342D27" stroke-width="2" stroke-miterlimit="10" stroke-linecap="round" stroke-linejoin="round"/>
<path d="M128.235 878.575C119.883 881.151 111.534 883.726 103.185 886.301C102.85 886.138 99.768 884.627 93.0928 881.339C101.445 878.763 109.794 876.188 118.146 873.611C124.825 876.898 127.901 878.415 128.235 878.575Z" fill="#81CDE2" stroke="#342D27" stroke-width="2" stroke-miterlimit="10" stroke-linecap="round" stroke-linejoin="round"/>
<path d="M153.286 870.849C144.941 873.423 136.585 876 128.236 878.575C127.901 878.411 124.826 876.898 118.147 873.611C126.496 871.036 134.849 868.46 143.197 865.885C149.873 869.173 152.952 870.688 153.286 870.849Z" fill="#81CDE2" stroke="#342D27" stroke-width="2" stroke-miterlimit="10" stroke-linecap="round" stroke-linejoin="round"/>
<path d="M178.339 863.121C169.991 865.696 161.642 868.271 153.286 870.848C152.951 870.685 149.872 869.173 143.197 865.885C151.55 863.309 159.898 860.733 168.251 858.157C174.926 861.445 178.006 862.961 178.339 863.121Z" fill="#81CDE2" stroke="#342D27" stroke-width="2" stroke-miterlimit="10" stroke-linecap="round" stroke-linejoin="round"/>
<path d="M128.211 878.595L103.161 886.322L110.83 911.566L135.88 903.84L128.211 878.595Z" fill="#EE76A5" stroke="#342D27" stroke-width="2" stroke-miterlimit="10" stroke-linecap="round" stroke-linejoin="round"/>
<path d="M153.264 870.868L128.21 878.595L135.879 903.84L160.933 896.112L153.264 870.868Z" fill="#EE76A5" stroke="#342D27" stroke-width="2" stroke-miterlimit="10" stroke-linecap="round" stroke-linejoin="round"/>
<path d="M178.318 863.14L153.265 870.868L160.934 896.112L185.987 888.385L178.318 863.14Z" fill="#EE76A5" stroke="#342D27" stroke-width="2" stroke-miterlimit="10" stroke-linecap="round" stroke-linejoin="round"/>
<path d="M135.881 903.84L110.831 911.566L118.498 936.804L143.548 929.077L135.881 903.84Z" fill="#EE76A5" stroke="#342D27" stroke-width="2" stroke-miterlimit="10" stroke-linecap="round" stroke-linejoin="round"/>
<path d="M160.933 896.112L135.88 903.84L143.547 929.077L168.6 921.35L160.933 896.112Z" fill="#EE76A5" stroke="#342D27" stroke-width="2" stroke-miterlimit="10" stroke-linecap="round" stroke-linejoin="round"/>
<path d="M185.986 888.385L160.933 896.113L168.599 921.35L193.653 913.622L185.986 888.385Z" fill="#EE76A5" stroke="#342D27" stroke-width="2" stroke-miterlimit="10" stroke-linecap="round" stroke-linejoin="round"/>
<path d="M143.549 929.081L118.499 936.807L126.169 962.055L151.219 954.329L143.549 929.081Z" fill="#EE76A5" stroke="#342D27" stroke-width="2" stroke-miterlimit="10" stroke-linecap="round" stroke-linejoin="round"/>
<path d="M168.601 921.353L143.548 929.081L151.218 954.329L176.272 946.602L168.601 921.353Z" fill="#EE76A5" stroke="#342D27" stroke-width="2" stroke-miterlimit="10" stroke-linecap="round" stroke-linejoin="round"/>
<path d="M193.655 913.626L168.602 921.354L176.272 946.602L201.325 938.874L193.655 913.626Z" fill="#EE76A5" stroke="#342D27" stroke-width="2" stroke-miterlimit="10" stroke-linecap="round" stroke-linejoin="round"/>
<path d="M82.6609 897.688C75.9315 894.327 72.8382 892.78 72.6257 892.675C70.0802 884.296 67.5359 875.921 64.9893 867.538C65.2029 867.646 68.2962 869.194 75.0266 872.558C77.5699 880.93 80.1165 889.313 82.6609 897.688Z" fill="#FADA4A" stroke="#342D27" stroke-width="2" stroke-miterlimit="10" stroke-linecap="round" stroke-linejoin="round"/>
<path d="M100.851 906.775C94.7895 903.747 88.7264 900.715 82.6609 897.688C80.1165 889.313 77.5699 880.93 75.0244 872.551C81.09 875.578 87.153 878.61 93.2138 881.634C95.7615 890.02 98.307 898.4 100.851 906.775Z" fill="#FADA4A" stroke="#342D27" stroke-width="2" stroke-miterlimit="10" stroke-linecap="round" stroke-linejoin="round"/>
<path d="M110.893 911.794C110.675 911.687 107.582 910.139 100.855 906.774C98.3097 898.395 95.7654 890.02 93.2188 881.637C99.9444 884.998 103.043 886.548 103.256 886.657C105.802 895.036 108.347 903.415 110.893 911.794Z" fill="#FADA4A" stroke="#342D27" stroke-width="2" stroke-miterlimit="10" stroke-linecap="round" stroke-linejoin="round"/>
<path d="M90.2987 922.829C83.5671 919.461 80.475 917.918 80.2624 917.813C77.7158 909.43 75.1703 901.051 72.626 892.676C72.8385 892.78 75.9318 894.328 82.6622 897.692C85.2077 906.071 87.7532 914.45 90.2987 922.829Z" fill="#FADA4A" stroke="#342D27" stroke-width="2" stroke-miterlimit="10" stroke-linecap="round" stroke-linejoin="round"/>
<path d="M108.49 931.916C102.427 928.884 96.3651 925.856 90.2996 922.829C87.7541 914.45 85.2086 906.071 82.6631 897.692C88.7286 900.719 94.7917 903.751 100.854 906.779C103.398 915.154 105.945 923.537 108.49 931.916Z" fill="#FADA4A" stroke="#342D27" stroke-width="2" stroke-miterlimit="10" stroke-linecap="round" stroke-linejoin="round"/>
<path d="M118.528 936.927C118.313 936.828 115.219 935.277 108.493 931.915C105.948 923.536 103.401 915.153 100.855 906.774C107.583 910.143 110.679 911.686 110.893 911.794C113.438 920.173 115.983 928.548 118.528 936.927Z" fill="#FADA4A" stroke="#342D27" stroke-width="2" stroke-miterlimit="10" stroke-linecap="round" stroke-linejoin="round"/>
<path d="M97.9342 947.959C91.2048 944.599 88.1127 943.055 87.8979 942.943C85.3524 934.564 82.808 926.188 80.2637 917.813C80.4773 917.921 83.5684 919.461 90.2999 922.829C92.8443 931.205 95.3898 939.584 97.9342 947.959Z" fill="#FADA4A" stroke="#342D27" stroke-width="2" stroke-miterlimit="10" stroke-linecap="round" stroke-linejoin="round"/>
<path d="M116.125 957.05C110.063 954.022 104.001 950.993 97.933 947.959C95.3887 939.584 92.8432 931.205 90.2988 922.829C96.3644 925.856 102.426 928.884 108.489 931.916C111.033 940.288 113.579 948.671 116.125 957.05Z" fill="#FADA4A" stroke="#342D27" stroke-width="2" stroke-miterlimit="10" stroke-linecap="round" stroke-linejoin="round"/>
<path d="M126.165 962.065C125.948 961.958 122.854 960.41 116.128 957.045C113.582 948.666 111.037 940.287 108.492 931.911C115.218 935.273 118.316 936.823 118.527 936.924C121.075 945.31 123.619 953.686 126.165 962.065Z" fill="#FADA4A" stroke="#342D27" stroke-width="2" stroke-miterlimit="10" stroke-linecap="round" stroke-linejoin="round"/>
<path d="M650.882 830.7C643.187 826.691 634.547 826.001 626.295 828.649C619.251 830.908 613.347 835.371 609.291 841.475C602.511 838.959 595.234 838.725 588.19 840.985C580.039 843.6 573.316 849.331 569.306 856.983C565.328 864.736 564.644 873.443 567.271 881.758C569.898 890.073 575.553 896.746 583.147 900.787L629.119 924.568C631.241 925.674 633.611 925.807 635.825 925.097C638.038 924.387 639.863 922.796 640.993 920.759L662.529 878.783L664.792 874.371C672.853 858.495 666.669 838.925 650.882 830.7Z" fill="white"/>
<path d="M635.986 925.604C633.571 926.379 631.069 926.176 628.914 924.969L583.043 901.156C575.216 897.078 569.497 890.202 566.837 881.786C564.178 873.37 564.899 864.427 568.978 856.642C573.024 848.754 579.747 843.024 588.099 840.344C595.042 838.117 602.288 838.249 609.168 840.732C613.357 834.698 619.161 830.268 626.205 828.008C634.557 825.328 643.431 826.055 651.157 830.165C658.852 834.174 664.672 841.018 667.331 849.434C669.991 857.85 669.27 866.792 665.191 874.578L641.391 920.966C640.226 923.238 638.3 924.861 635.986 925.604ZM588.42 841.358C580.37 843.941 573.816 849.505 569.906 857.125C565.997 864.745 565.281 873.351 567.844 881.463C570.407 889.575 575.929 896.179 583.491 900.119L629.394 924.033C631.384 925.07 633.552 925.268 635.665 924.59C637.778 923.912 639.434 922.487 640.463 920.482L664.262 874.094C668.172 866.475 668.888 857.869 666.325 849.757C663.762 841.645 658.207 834.939 650.677 831.101C643.115 827.161 634.575 826.439 626.525 829.022C619.582 831.249 613.879 835.648 609.79 841.65L609.553 841.949L609.187 841.843C602.439 839.429 595.262 839.163 588.42 841.358Z" fill="black"/>
<path d="M646.936 838.555C635.394 832.542 621.307 837.062 615.34 848.692L613.076 853.104L608.831 850.892C597.289 844.879 583.201 849.398 577.234 861.029C571.267 872.659 575.753 886.855 587.295 892.868L633.166 916.681L654.702 874.705L656.965 870.294C662.863 858.797 658.346 844.5 646.936 838.555Z" fill="#ED77A3"/>
<path d="M624.964 890.722C617.014 893.273 609.901 890.753 603.623 883.162C603.065 882.448 603.211 881.508 603.788 880.876C604.496 880.314 605.43 880.461 606.056 881.042C611.446 887.577 617.329 889.71 623.97 887.579C630.612 885.448 634.188 880.281 634.803 871.707C634.849 870.799 635.659 870.205 636.56 870.25C637.461 870.296 638.051 871.112 638.005 872.02C637.34 881.838 632.913 888.172 624.964 890.722Z" fill="black"/>
<path d="M611.35 870.049C610.771 867.893 608.568 866.618 606.428 867.201C604.289 867.783 603.024 870.004 603.602 872.159C604.18 874.315 606.384 875.591 608.523 875.008C610.663 874.425 611.928 872.205 611.35 870.049Z" fill="black"/>
<path d="M630.947 864.088C630.369 861.933 628.166 860.657 626.026 861.24C623.887 861.823 622.621 864.043 623.2 866.199C623.778 868.355 625.981 869.63 628.121 869.047C630.26 868.464 631.526 866.244 630.947 864.088Z" fill="black"/>
<rect x="0.998047" y="422" width="1917" height="658" fill="#F6C1DF"/>
<line x1="1914.01" y1="422" x2="1914.01" y2="1078" stroke="#FAC6E3" stroke-width="10"/>
<line x1="6.99707" y1="423" x2="6.9971" y2="1080" stroke="#FAC6E3" stroke-width="10"/>
</svg>
