<svg width="355" height="60" viewBox="0 0 355 60" fill="none" xmlns="http://www.w3.org/2000/svg">
<path d="M438.316 37.172C498.867 37.172 495.503 1 542.598 1C550.448 7.65233 561.437 20.957 542.598 20.957C519.051 20.957 510.641 59 438.316 59C365.99 59 370.195 20.957 344.965 20.957C319.736 20.957 325.623 59 264.23 59C202.838 59 194.428 20.957 147.332 20.957C100.237 20.957 93.5091 59 46.4135 59C6.88696 59 1 56.5054 1 49.957C1 43.4086 10.6714 40.6021 34.2192 40.6021C95.6115 40.6021 85.0991 1 147.332 1C209.566 1 215.453 37.172 264.23 37.172C313.008 37.172 299.552 1 344.965 1C390.379 1 377.764 37.172 438.316 37.172Z" fill="#FF20AC" stroke="black"/>
</svg>
