<svg width="601" height="1376" viewBox="0 0 601 1376" fill="none" xmlns="http://www.w3.org/2000/svg">
<rect width="599.157" height="412" fill="#92DDEA"/>
<line x1="44.9062" y1="-1.61505e-07" x2="44.9063" y2="401" stroke="#FFEBF5" stroke-opacity="0.3" stroke-width="6"/>
<line x1="3.95703" y1="-1.62853e-07" x2="3.95705" y2="401" stroke="#9BE3EF" stroke-width="6"/>
<line x1="595.967" y1="-1.30246e-07" x2="595.967" y2="401" stroke="#9BE3EF" stroke-width="6"/>
<line x1="96.8398" y1="-1.61505e-07" x2="96.8399" y2="401" stroke="#FFEBF5" stroke-opacity="0.3" stroke-width="6"/>
<line x1="145.779" y1="-1.61505e-07" x2="145.779" y2="401" stroke="#FFEBF5" stroke-opacity="0.3" stroke-width="6"/>
<line x1="195.719" y1="-1.61505e-07" x2="195.719" y2="401" stroke="#FFEBF5" stroke-opacity="0.3" stroke-width="6"/>
<line x1="249.65" y1="-1.61505e-07" x2="249.65" y2="401" stroke="#FFEBF5" stroke-opacity="0.3" stroke-width="6"/>
<line x1="299.586" y1="-1.61505e-07" x2="299.586" y2="401" stroke="#FFEBF5" stroke-opacity="0.3" stroke-width="6"/>
<line x1="349.523" y1="-1.61505e-07" x2="349.523" y2="401" stroke="#FFEBF5" stroke-opacity="0.3" stroke-width="6"/>
<line x1="397.465" y1="-1.61505e-07" x2="397.465" y2="401" stroke="#FFEBF5" stroke-opacity="0.3" stroke-width="6"/>
<line x1="450.398" y1="-1.61505e-07" x2="450.398" y2="401" stroke="#FFEBF5" stroke-opacity="0.3" stroke-width="6"/>
<line x1="502.334" y1="-1.61505e-07" x2="502.334" y2="401" stroke="#FFEBF5" stroke-opacity="0.3" stroke-width="6"/>
<line x1="554.27" y1="-1.61505e-07" x2="554.27" y2="401" stroke="#FFEBF5" stroke-opacity="0.3" stroke-width="6"/>
<line y1="-3" x2="598.051" y2="-3" transform="matrix(0.999999 -1.32622e-05 -1.17053e-05 1 0.964844 312)" stroke="#FFEBF5" stroke-opacity="0.3" stroke-width="6"/>
<line x1="1.9707" y1="255" x2="598.008" y2="255" stroke="#FFEBF5" stroke-opacity="0.3" stroke-width="6"/>
<line x1="1.9707" y1="204" x2="598.008" y2="204" stroke="#FFEBF5" stroke-opacity="0.3" stroke-width="6"/>
<line y1="-3" x2="591.822" y2="-3" transform="matrix(0.999999 -1.33488e-05 -1.1617e-05 1 1.82422 455)" stroke="#FFEBF5" stroke-opacity="0.3" stroke-width="6"/>
<line x1="1.9707" y1="398" x2="597.001" y2="398" stroke="#FFEBF5" stroke-opacity="0.3" stroke-width="6"/>
<line x1="0.966797" y1="355" x2="597.004" y2="355" stroke="#FFEBF5" stroke-opacity="0.3" stroke-width="6"/>
<line x1="1.9707" y1="148" x2="599.014" y2="148" stroke="#FFEBF5" stroke-opacity="0.3" stroke-width="6"/>
<line x1="1.9707" y1="93" x2="599.014" y2="93" stroke="#FFEBF5" stroke-opacity="0.3" stroke-width="6"/>
<line y1="-3" x2="596.53" y2="-3" transform="matrix(0.999999 -1.32622e-05 -1.17053e-05 1 1.97852 40)" stroke="#FFEBF5" stroke-opacity="0.3" stroke-width="6"/>
<rect x="0.966797" y="402" width="598.05" height="974" fill="#F6C1DF"/>
</svg>
