<svg width="23" height="29" viewBox="0 0 23 29" fill="none" stroke="black" stroke-width="0.2" xmlns="http://www.w3.org/2000/svg">
<path fill-rule="evenodd" clip-rule="evenodd" d="M1.06811 9.76667L1.06735 9.77379C0.850371 11.8017 1.40165 13.9816 2.36951 16.1237C3.33645 18.2639 4.7113 20.349 6.11883 22.181C7.52573 24.0121 8.96109 25.5848 10.0451 26.7C10.5869 27.2574 11.0406 27.7001 11.3585 28.0032C11.499 28.1371 11.6129 28.2438 11.6962 28.321C11.7701 28.2458 11.869 28.1444 11.9899 28.0187C12.2768 27.7205 12.6875 27.2853 13.1815 26.739C14.1699 25.6462 15.4908 24.1095 16.8219 22.334C18.1535 20.5579 19.4922 18.5467 20.5184 16.5047C21.546 14.4602 22.2524 12.4001 22.336 10.5224C22.5691 5.28715 18.0231 0.831913 12.1261 0.620381C6.2292 0.40885 1.30155 4.52426 1.06843 9.75952L1.06811 9.76667ZM0.83858 9.75128C-0.0534822 18.0887 11.7023 28.64 11.7023 28.64C11.7023 28.64 22.2232 18.2258 22.5658 10.5307C22.8056 5.1456 18.1362 0.605673 12.1364 0.390451C6.13657 0.17523 1.07837 4.36621 0.83858 9.75128Z" fill="black"/>
<path d="M21.5189 10.7609C21.7367 5.86849 17.4945 1.74392 12.0436 1.54839C6.59272 1.35285 1.99729 5.16041 1.77944 10.0528C0.968989 17.6274 11.6493 27.2134 11.6493 27.2134C11.6493 27.2134 21.2076 17.752 21.5189 10.7609Z" fill="#FFE927"/>
<path fill-rule="evenodd" clip-rule="evenodd" d="M2.2385 10.0836L2.23698 10.0978C2.04644 11.8787 2.5296 13.8123 3.39932 15.7372C4.26718 17.6581 5.50423 19.5357 6.77623 21.1913C8.04697 22.8451 9.3442 24.2666 10.3245 25.275C10.8143 25.7789 11.2242 26.1789 11.511 26.4524C11.5562 26.4955 11.5983 26.5354 11.6372 26.5721C11.6664 26.542 11.6974 26.5099 11.7303 26.4757C11.9893 26.2064 12.3606 25.813 12.8075 25.3188C13.7018 24.33 14.8966 22.94 16.1 21.3348C17.3044 19.7284 18.5113 17.9144 19.4346 16.0772C20.3605 14.2348 20.9855 12.3999 21.0592 10.7444C21.2637 6.1516 17.2683 2.1964 12.0231 2.00825C6.77798 1.82009 2.44365 5.4765 2.23914 10.0693L2.2385 10.0836ZM12.0436 1.54839C17.4945 1.74392 21.7367 5.86849 21.5189 10.7609C21.2076 17.752 11.6493 27.2134 11.6493 27.2134C11.6493 27.2134 0.968989 17.6274 1.77944 10.0528C1.99729 5.16041 6.59272 1.35285 12.0436 1.54839Z" fill="#FFE927"/>
<path d="M11.5483 12.7008C10.7337 12.6704 9.61355 12.3352 9.00256 10.8424C8.90073 10.6291 9.0365 10.3549 9.30805 10.294C9.54566 10.2026 9.81721 10.3245 9.91904 10.5682C10.2585 11.4213 10.8016 11.8173 11.5823 11.8478C12.3969 11.8782 12.94 11.5127 13.3474 10.6901C13.4492 10.4768 13.7547 10.3854 13.9923 10.4768C14.2299 10.5682 14.3317 10.8424 14.2299 11.0557C13.5171 12.4571 12.363 12.7313 11.5483 12.7008Z" fill="black"/>
<path d="M8.27175 9.18764C8.30019 8.54877 7.74623 8.01017 7.03443 7.98464C6.32263 7.9591 5.72254 8.45631 5.69409 9.09518C5.66564 9.73405 6.21961 10.2727 6.93141 10.2982C7.64321 10.3237 8.2433 9.82651 8.27175 9.18764Z" fill="black"/>
<path d="M17.9143 9.54604C17.9428 8.90717 17.3888 8.36857 16.677 8.34303C15.9652 8.3175 15.3651 8.81471 15.3367 9.45358C15.3082 10.0924 15.8622 10.6311 16.574 10.6566C17.2858 10.6821 17.8859 10.1849 17.9143 9.54604Z" fill="black"/>
</svg>
