<svg width="25" height="30" viewBox="0 0 25 30" fill="none" xmlns="http://www.w3.org/2000/svg">
<path d="M1.98818 10.7245L1.98919 10.7151L1.9896 10.7057C2.22043 5.52194 7.15576 1.43116 13.0867 1.64391C19.0176 1.85666 23.5734 6.2879 23.3426 11.4716C23.2597 13.3335 22.552 15.3814 21.517 17.4201C20.4837 19.4554 19.1347 21.461 17.7917 23.2336C16.4494 25.0053 15.117 26.5388 14.12 27.6295C13.6216 28.1747 13.2074 28.6089 12.9181 28.9064C12.8195 29.0079 12.7353 29.0934 12.6674 29.1621C12.5892 29.0901 12.4905 28.9983 12.3734 28.888C12.0526 28.5855 11.5947 28.1435 11.0476 27.5868C9.95312 26.4732 8.504 24.9029 7.08371 23.075C5.66258 21.246 4.27588 19.1662 3.30091 17.0337C2.3247 14.8984 1.77187 12.7332 1.98818 10.7245Z" fill="white" stroke="black" stroke-width="0.6"/>
<path fill-rule="evenodd" clip-rule="evenodd" d="M2.06811 10.7667L2.06735 10.7738C1.85037 12.8017 2.40165 14.9816 3.36951 17.1237C4.33645 19.2639 5.7113 21.349 7.11883 23.181C8.52573 25.0121 9.96109 26.5848 11.0451 27.7C11.5869 28.2574 12.0406 28.7001 12.3585 29.0032C12.499 29.1371 12.6129 29.2438 12.6962 29.321C12.7701 29.2458 12.869 29.1444 12.9899 29.0187C13.2768 28.7205 13.6875 28.2853 14.1815 27.739C15.1699 26.6462 16.4908 25.1095 17.8219 23.334C19.1535 21.5579 20.4922 19.5467 21.5184 17.5047C22.546 15.4602 23.2524 13.4001 23.336 11.5224C23.5691 6.28715 19.0231 1.83191 13.1261 1.62038C7.2292 1.40885 2.30155 5.52426 2.06843 10.7595L2.06811 10.7667ZM1.83858 10.7513C0.946518 19.0887 12.7023 29.64 12.7023 29.64C12.7023 29.64 23.2232 19.2258 23.5658 11.5307C23.8056 6.1456 19.1362 1.60567 13.1364 1.39045C7.13657 1.17523 2.07837 5.36621 1.83858 10.7513Z" fill="black"/>
<path d="M22.5189 11.7614C22.7367 6.86897 18.4945 2.74441 13.0436 2.54887C7.59272 2.35334 2.99729 6.16089 2.77944 11.0533C1.96899 18.6279 12.6493 28.2139 12.6493 28.2139C12.6493 28.2139 22.2076 18.7525 22.5189 11.7614Z" fill="#FFE927"/>
<path fill-rule="evenodd" clip-rule="evenodd" d="M3.2385 11.0841L3.23698 11.0983C3.04644 12.8792 3.5296 14.8128 4.39932 16.7377C5.26718 18.6585 6.50423 20.5362 7.77623 22.1917C9.04697 23.8456 10.3442 25.2671 11.3245 26.2755C11.8143 26.7794 12.2242 27.1794 12.511 27.4528C12.5562 27.4959 12.5983 27.5359 12.6372 27.5726C12.6664 27.5425 12.6974 27.5103 12.7303 27.4762C12.9893 27.2069 13.3606 26.8135 13.8075 26.3193C14.7018 25.3305 15.8966 23.9405 17.1 22.3353C18.3044 20.7289 19.5113 18.9149 20.4346 17.0777C21.3605 15.2353 21.9855 13.4004 22.0592 11.7449C22.2637 7.15209 18.2683 3.19689 13.0231 3.00873C7.77798 2.82058 3.44365 6.47699 3.23914 11.0698L3.2385 11.0841ZM13.0436 2.54887C18.4945 2.7444 22.7367 6.86898 22.5189 11.7614C22.2076 18.7525 12.6493 28.2139 12.6493 28.2139C12.6493 28.2139 1.96899 18.6279 2.77944 11.0533C2.99729 6.1609 7.59272 2.35334 13.0436 2.54887Z" fill="#FFE927"/>
<path d="M12.5483 13.7008C11.7337 13.6704 10.6135 13.3352 10.0026 11.8424C9.90073 11.6291 10.0365 11.3549 10.3081 11.294C10.5457 11.2026 10.8172 11.3245 10.919 11.5682C11.2585 12.4213 11.8016 12.8173 12.5823 12.8478C13.3969 12.8782 13.94 12.5127 14.3474 11.6901C14.4492 11.4768 14.7547 11.3854 14.9923 11.4768C15.2299 11.5682 15.3317 11.8424 15.2299 12.0557C14.5171 13.4571 13.363 13.7313 12.5483 13.7008Z" fill="black"/>
<path d="M9.27175 10.1876C9.30019 9.54877 8.74623 9.01017 8.03443 8.98464C7.32263 8.9591 6.72254 9.45631 6.69409 10.0952C6.66564 10.734 7.21961 11.2727 7.93141 11.2982C8.64321 11.3237 9.2433 10.8265 9.27175 10.1876Z" fill="black"/>
<path d="M18.9143 10.546C18.9428 9.90717 18.3888 9.36857 17.677 9.34303C16.9652 9.3175 16.3651 9.81471 16.3367 10.4536C16.3082 11.0924 16.8622 11.6311 17.574 11.6566C18.2858 11.6821 18.8859 11.1849 18.9143 10.546Z" fill="black"/>
</svg>
