<svg width="46" height="46" viewBox="0 0 46 46" fill="none" xmlns="http://www.w3.org/2000/svg">
<path d="M13.3 29.9749V30.4749H13.8H17.9V45.0329C7.94002 42.7096 0.5 33.7615 0.5 23.0576C0.5 10.6048 10.5813 0.5 23 0.5C35.4187 0.5 45.5 10.6048 45.5 23.0576C45.5 34.5765 36.8968 44.0634 25.8 45.4411V30.4749H32.2H32.7V29.9749V23.0576V22.5576H32.2H25.8V18.4461C25.8 17.4529 26.6123 16.6404 27.6 16.6404H32.2H32.7V16.1404V9.22306V8.72306H32.2H26.45C21.7337 8.72306 17.9 12.5681 17.9 17.2932V22.5576H13.8H13.3V23.0576V29.9749Z" fill="#0E6372" stroke="black"/>
</svg>
