<svg width="48" height="48" viewBox="0 0 48 48" fill="none" xmlns="http://www.w3.org/2000/svg">
<circle cx="24" cy="24" r="23.6" fill="white" stroke="black" stroke-width="0.8"/>
<path d="M31.496 38.8569C30.7849 38.8569 30.0509 38.6734 29.4086 38.3293L24.0179 35.4849L18.6272 38.3293C17.9849 38.6734 17.2509 38.8569 16.5398 38.8569C15.5993 38.8569 14.6817 38.5587 13.9018 38.0082C12.5025 36.9989 11.8373 35.3243 12.1125 33.6268L13.1448 27.6168L8.78636 23.3501C7.54765 22.1573 7.11181 20.391 7.66234 18.7623C8.21288 17.1336 9.58923 15.9637 11.2867 15.7114L17.3197 14.8397L20.0265 9.35729C20.7835 7.82037 22.3204 6.85693 24.0408 6.85693C25.7613 6.85693 27.2523 7.82037 28.0322 9.35729L30.739 14.8397L36.772 15.7114C38.4695 15.9637 39.8459 17.1336 40.3964 18.7623C40.924 20.391 40.4881 22.1573 39.2724 23.3501L34.891 27.6168L35.9233 33.6268C36.2215 35.3243 35.5333 36.9989 34.134 38.0082C33.3541 38.5587 32.4365 38.8569 31.496 38.8569ZM16.8838 24.1989C17.939 25.2311 18.4208 26.7222 18.1684 28.1673L17.2738 33.3286L21.9304 30.8971C22.5727 30.553 23.2838 30.3924 24.0179 30.3924C24.7519 30.3924 25.4631 30.5759 26.1054 30.8971L30.739 33.3286L29.8444 28.1673C29.5921 26.7222 30.0738 25.2311 31.129 24.1989L34.891 20.5286L29.7068 19.7716C28.2387 19.5652 26.977 18.6476 26.3347 17.3171L23.995 12.6146L21.6781 17.3171C21.0129 18.6476 19.7742 19.5652 18.3061 19.7716L13.1218 20.5286L16.8838 24.1989Z" fill="white" stroke="black" stroke-miterlimit="10"/>
<path d="M31.4963 38.2837C30.8541 38.2837 30.2576 38.1231 29.6842 37.8249L24.0182 34.8428L18.3523 37.8249C17.7788 38.1231 17.1594 38.2837 16.5401 38.2837C15.3931 38.2837 14.292 37.779 13.558 36.8844C12.8239 36.0127 12.5028 34.8428 12.7093 33.7188L13.7874 27.4106L9.19958 22.9375C8.0985 21.8823 7.70854 20.3454 8.16732 18.9231C8.6261 17.5009 9.84187 16.4916 11.31 16.2622L17.6412 15.3446L20.4856 9.60988C21.1738 8.25647 22.5042 7.43066 23.9953 7.43066C25.4863 7.43066 26.8397 8.25647 27.5049 9.60988L30.3494 15.3446L36.6806 16.2622C38.1716 16.4687 39.3644 17.5009 39.8232 18.9231C40.282 20.3454 39.915 21.8823 38.8368 22.9375L34.249 27.4106L35.3272 33.7188C35.5336 34.8658 35.2125 36.0127 34.4784 36.8844C33.7444 37.779 32.6433 38.2837 31.4963 38.2837Z" fill="white" stroke="white" stroke-miterlimit="10"/>
<path d="M25.763 10.4814L28.6074 16.2162C28.8827 16.7897 29.4332 17.2026 30.0755 17.2943L36.4067 18.2119C38.0124 18.4413 38.6547 20.4141 37.4848 21.5381L32.897 26.0112C32.4382 26.47 32.2318 27.1123 32.3235 27.7316L33.4017 34.0399C33.6769 35.6456 32.0024 36.8614 30.5572 36.1044L24.8913 33.1223C24.3178 32.8241 23.6526 32.8241 23.0791 33.1223L17.4131 36.1044C15.968 36.8614 14.2934 35.6456 14.5687 34.0399L15.6468 27.7316C15.7615 27.0893 15.5551 26.447 15.0734 26.0112L10.4855 21.5381C9.36153 20.4141 10.0038 18.4413 11.6096 18.2119L17.9407 17.2943C18.583 17.2026 19.1336 16.8126 19.4088 16.2162L22.2533 10.4814C22.9644 9.01335 25.0518 9.01335 25.763 10.4814Z" fill="#FFE927"/>
<path d="M31.4952 36.907C31.0823 36.907 30.6923 36.8153 30.3253 36.6088L24.6593 33.6267C24.2464 33.4203 23.7876 33.4203 23.3747 33.6267L17.7088 36.6088C16.8601 37.0676 15.8278 36.9758 15.0479 36.4253C14.2679 35.8518 13.878 34.9113 14.0385 33.9479L15.1167 27.6396C15.1855 27.1808 15.0479 26.745 14.7267 26.4239L10.1389 21.9507C9.42779 21.2626 9.1984 20.2762 9.49661 19.3586C9.79482 18.4411 10.5747 17.7758 11.5382 17.6382L17.8694 16.7206C18.3281 16.6518 18.7181 16.3765 18.9016 15.9636L21.7231 10.2289C22.159 9.35719 23.0307 8.82959 23.9941 8.82959C24.9575 8.82959 25.8292 9.38013 26.2651 10.2289L29.1095 15.9636C29.316 16.3765 29.7059 16.6518 30.1418 16.7206L36.473 17.6382C37.4364 17.7758 38.2163 18.4411 38.5145 19.3586C38.8127 20.2762 38.5604 21.2626 37.8722 21.9507L33.2844 26.4239C32.9633 26.745 32.8027 27.2038 32.8945 27.6396L33.9726 33.9479C34.1332 34.9113 33.7432 35.8518 32.9633 36.4253C32.5274 36.7464 32.0228 36.907 31.4952 36.907ZM23.9941 32.3192C24.407 32.3192 24.797 32.411 25.164 32.6174L30.8299 35.5995C31.3117 35.8518 31.8393 35.8059 32.2751 35.4848C32.7109 35.1636 32.9174 34.659 32.8256 34.1314L31.7475 27.8231C31.6099 26.9973 31.8851 26.1715 32.4816 25.5751L37.0694 21.102C37.4593 20.735 37.574 20.2074 37.4135 19.6798C37.2529 19.1522 36.84 18.8081 36.2894 18.7393L29.9583 17.8217C29.1325 17.707 28.4213 17.1794 28.0543 16.4454L25.2099 10.7106C24.9805 10.2289 24.4988 9.93067 23.9712 9.93067C23.4436 9.93067 22.9618 10.2289 22.7325 10.7106L19.888 16.4454C19.521 17.2023 18.8099 17.707 17.9841 17.8217L11.6529 18.7393C11.1253 18.8081 10.7124 19.1751 10.5289 19.6798C10.3683 20.1844 10.483 20.712 10.873 21.102L15.4608 25.5751C16.0572 26.1486 16.3325 26.9973 16.1948 27.8231L15.1167 34.1314C15.0249 34.659 15.2314 35.1636 15.6672 35.4848C16.1031 35.8059 16.6536 35.8289 17.1124 35.5995L22.7783 32.6174C23.1912 32.4339 23.6041 32.3192 23.9941 32.3192Z" fill="black"/>
</svg>
