<svg width="52" height="69" viewBox="0 0 52 69" fill="none" xmlns="http://www.w3.org/2000/svg">
<path d="M10.5573 68.7596C10.1085 68.7596 9.68619 68.6813 9.26385 68.5507C8.2872 68.211 7.49533 67.5057 7.04659 66.5652C6.59786 65.6248 6.54507 64.5799 6.88822 63.6133L7.23137 62.6728C6.49228 62.0459 6.04355 61.1315 6.04355 60.1127C6.04355 59.8253 6.06995 59.5641 6.14913 59.3029C2.58568 57.6309 0.130859 54.052 0.130859 49.8983V12.6459C0.130859 6.92483 4.82934 2.27481 10.61 2.27481H13.8831V1.02087H37.1116V2.24869H41.3877C47.1684 2.24869 51.8669 6.89871 51.8669 12.6198V49.8722C51.8669 53.9736 49.4649 57.5264 45.9806 59.1984C46.0598 59.4857 46.0862 59.7731 46.0862 60.0604C46.0862 61.1315 45.5847 62.0981 44.7928 62.6989L45.1095 63.561C45.8222 65.5725 44.7664 67.7931 42.7339 68.4984C42.3116 68.6551 41.8892 68.7074 41.4405 68.7074C39.7776 68.7074 38.2994 67.6624 37.7715 66.1211L36.7948 63.4304H15.2293L14.2527 66.1211C13.672 67.7147 12.1938 68.7596 10.5573 68.7596Z" fill="white"/>
<path d="M10.5584 68.8901C10.1096 68.8901 9.63452 68.8118 9.21218 68.655C8.20914 68.2893 7.39086 67.584 6.91573 66.6174C6.44061 65.6508 6.38781 64.5797 6.75736 63.5609L7.07411 62.6988C6.33503 62.0457 5.91269 61.1053 5.91269 60.1126C5.91269 59.8513 5.93909 59.6162 5.99188 59.3811C2.34924 57.6308 0 53.9213 0 49.9243V12.6458C0 6.84634 4.77766 2.14407 10.6112 2.14407H13.7523V0.890137H37.2447V2.11795H41.3888C47.2487 2.11795 52 6.84634 52 12.6197V49.8721C52 53.8168 49.7036 57.5002 46.1137 59.2766C46.1665 59.5379 46.2193 59.7991 46.2193 60.0865C46.2193 61.1314 45.7442 62.098 44.9523 62.7772L45.2162 63.5609C45.9553 65.6247 44.8467 67.9236 42.7614 68.655C42.3391 68.8118 41.864 68.8901 41.4152 68.8901C39.6995 68.8901 38.1685 67.8191 37.6142 66.2255L36.6904 63.6132H15.3096L14.3858 66.2255C13.7787 67.8191 12.2477 68.8901 10.5584 68.8901ZM10.5848 2.37919C4.88325 2.37919 0.237566 6.97696 0.237566 12.6197V49.8721C0.237566 53.8168 2.56041 57.448 6.17665 59.146L6.28223 59.1982L6.25584 59.3027C6.20304 59.564 6.15025 59.8252 6.15025 60.0865C6.15025 61.0269 6.57259 61.9151 7.28528 62.5421L7.36447 62.5943L6.99493 63.6132C6.65178 64.5536 6.70457 65.5724 7.1533 66.4606C7.57563 67.3488 8.34112 68.0281 9.29137 68.3677C9.68731 68.4983 10.1096 68.5767 10.5584 68.5767C12.1421 68.5767 13.5939 67.584 14.1218 66.0949L15.1249 63.2997H36.8751L37.8782 66.0949C38.4061 67.584 39.8315 68.5767 41.4416 68.5767C41.864 68.5767 42.2863 68.4983 42.7086 68.3677C44.6619 67.6884 45.6914 65.5463 45.0051 63.6132L44.6619 62.6727L44.7411 62.6205C45.533 61.9935 45.9817 61.0792 45.9817 60.0865C45.9817 59.7991 45.9553 59.5117 45.8761 59.2505L45.8497 59.146L45.9553 59.0938C49.4924 57.3696 51.7888 53.7645 51.7888 49.8721V12.6458C51.7888 7.00308 47.1431 2.40531 41.4416 2.40531H37.0335V1.15137H14.069V2.37919H10.5848Z" fill="black"/>
<path d="M41.3628 4.46915H34.843V3.24133H16.1019V4.46915H10.5851C6.04504 4.46915 2.34961 8.12647 2.34961 12.6197V49.8721C2.34961 54.3654 6.04504 58.0227 10.5851 58.0227H11.2186L11.1659 58.2056L10.9019 58.9371H9.42372C8.79021 58.9371 8.2623 59.4595 8.2623 60.0865C8.2623 60.7135 8.79021 61.236 9.42372 61.236H10.0836L8.97499 64.3186C8.65824 65.1806 9.13336 66.1211 9.97803 66.4084C10.8491 66.7219 11.7994 66.2517 12.0897 65.4157L13.5943 61.236H38.3273L39.8318 65.4157C40.0694 66.095 40.7029 66.5129 41.3892 66.5129C41.574 66.5129 41.7587 66.4868 41.9435 66.4084C42.8146 66.095 43.2633 65.1806 42.9466 64.3186L41.8379 61.236H42.6298C43.2633 61.236 43.7912 60.7135 43.7912 60.0865C43.7912 59.4595 43.2633 58.9371 42.6298 58.9371H41.0197L40.9141 58.6758L40.6765 58.0489H41.31C45.8501 58.0489 49.5455 54.3915 49.5455 49.8983V12.6459C49.5983 8.15259 45.9029 4.46915 41.3628 4.46915ZM14.7293 58.075H37.1922L37.509 58.9632H14.4125L14.7293 58.075Z" fill="black"/>
<path d="M12.9877 51.8314C9.31867 51.8314 6.33594 48.8794 6.33594 45.2482C6.33594 41.617 9.31867 38.665 12.9877 38.665C16.6567 38.665 19.6395 41.617 19.6395 45.2482C19.6395 48.8794 16.6567 51.8314 12.9877 51.8314Z" fill="white"/>
<path d="M39.3568 51.8314C35.6878 51.8314 32.7051 48.8794 32.7051 45.2482C32.7051 41.617 35.6878 38.665 39.3568 38.665C43.0259 38.665 46.0086 41.617 46.0086 45.2482C46.0086 48.8794 43.0259 51.8314 39.3568 51.8314Z" fill="white"/>
<path d="M20.3779 15.0488C17.8967 15.0488 15.8906 13.0634 15.8906 10.6078C15.8906 8.15215 17.8967 6.16675 20.3779 6.16675H31.1475C33.6287 6.16675 35.6348 8.15215 35.6348 10.6078C35.6348 13.0634 33.6287 15.0488 31.1475 15.0488H20.3779Z" fill="white"/>
<path d="M39.4098 5.12224H34.8433V3.24133H16.1022V5.12224H12.5387C7.28591 5.12224 3.00977 9.35428 3.00977 14.5529V47.9651C3.00977 52.8241 6.73159 56.821 11.4829 57.3435L10.9021 58.9371H9.42398C8.79047 58.9371 8.26256 59.4595 8.26256 60.0865C8.26256 60.7135 8.79047 61.236 9.42398 61.236H10.0839L8.97525 64.3186C8.6585 65.1806 9.13362 66.1211 9.97829 66.4084C10.8494 66.7219 11.7996 66.2517 12.09 65.4157L13.5945 61.236H38.3275L39.8321 65.4157C40.0697 66.095 40.7032 66.5129 41.3895 66.5129C41.5742 66.5129 41.759 66.4868 41.9438 66.4084C42.8148 66.095 43.2636 65.1806 42.9468 64.3186L41.8382 61.236H42.6301C43.2636 61.236 43.7915 60.7135 43.7915 60.0865C43.7915 59.4595 43.2636 58.9371 42.6301 58.9371H41.0199L40.4392 57.3435C45.2169 56.821 48.9123 52.8241 48.9123 47.9651V14.579C48.9387 9.35428 44.6626 5.12224 39.4098 5.12224ZM14.4128 58.9632L14.9671 57.4219H36.9549L37.5093 58.9632H14.4128Z" fill="black"/>
<path d="M41.3878 66.5391C40.7015 66.5391 40.068 66.1211 39.8305 65.4419L36.0031 54.6789H15.9421L12.1147 65.4419C11.798 66.304 10.8741 66.7481 10.0031 66.4346C9.132 66.1211 8.68326 65.2068 9.00001 64.3447L13.6193 51.4135H38.3523L42.9716 64.3447C43.2883 65.2068 42.8132 66.1472 41.9685 66.4346C41.7574 66.513 41.5726 66.5391 41.3878 66.5391Z" fill="black"/>
<path d="M41.365 57.422H10.5873C6.39039 57.422 3.01172 54.052 3.01172 49.9245V12.6459C3.01172 8.49227 6.41679 5.14844 10.5873 5.14844H41.365C45.562 5.14844 48.9406 8.5184 48.9406 12.6459V49.8983C48.9406 54.052 45.5356 57.422 41.365 57.422Z" fill="#92DDEA"/>
<path d="M41.3648 58.0752H10.5871C6.04699 58.0752 2.35156 54.4179 2.35156 49.9246V12.6461C2.35156 8.1528 6.04699 4.49548 10.5871 4.49548H41.3648C45.9049 4.49548 49.6003 8.1528 49.6003 12.6461V49.8985C49.6003 54.3918 45.9049 58.0752 41.3648 58.0752ZM10.5871 5.77555C6.75968 5.77555 3.67136 8.85814 3.67136 12.62V49.8724C3.67136 53.6603 6.78608 56.7168 10.5871 56.7168H41.3648C45.1922 56.7168 48.2805 53.6342 48.2805 49.8724V12.6461C48.2805 8.85814 45.1658 5.80167 41.3648 5.80167H10.5871V5.77555Z" fill="black"/>
<path d="M38.9601 33.0482H12.5378C10.7165 33.0482 9.23828 31.5852 9.23828 29.7827V18.8108C9.23828 17.0082 10.7165 15.5453 12.5378 15.5453H38.9601C40.7814 15.5453 42.2596 17.0082 42.2596 18.8108V29.8088C42.2596 31.6114 40.7814 33.0482 38.9601 33.0482Z" fill="white"/>
<path d="M12.9856 49.0364C15.0994 49.0364 16.813 47.3405 16.813 45.2485C16.813 43.1565 15.0994 41.4606 12.9856 41.4606C10.8718 41.4606 9.1582 43.1565 9.1582 45.2485C9.1582 47.3405 10.8718 49.0364 12.9856 49.0364Z" fill="white"/>
<path d="M39.3567 49.0364C41.4705 49.0364 43.1841 47.3405 43.1841 45.2485C43.1841 43.1565 41.4705 41.4606 39.3567 41.4606C37.2429 41.4606 35.5293 43.1565 35.5293 45.2485C35.5293 47.3405 37.2429 49.0364 39.3567 49.0364Z" fill="white"/>
<path d="M31.4905 12.28H20.0346C19.2956 12.28 18.7148 11.7053 18.7148 10.9738V10.2946C18.7148 9.56312 19.2956 8.9884 20.0346 8.9884H31.4905C32.2296 8.9884 32.8103 9.56312 32.8103 10.2946V10.9738C32.8103 11.6791 32.2032 12.28 31.4905 12.28Z" fill="white"/>
<path d="M34.8427 3.24133H16.1016V5.46185H34.8427V3.24133Z" fill="black"/>
<path d="M42.6556 61.2623H9.42314C8.78964 61.2623 8.26172 60.7398 8.26172 60.1128C8.26172 59.4859 8.78964 58.9634 9.42314 58.9634H42.6556C43.2891 58.9634 43.8171 59.4859 43.8171 60.1128C43.8171 60.7398 43.2891 61.2623 42.6556 61.2623Z" fill="black"/>
</svg>
