<svg width="67" height="50" viewBox="0 0 67 50" fill="none" xmlns="http://www.w3.org/2000/svg">
<path d="M43.6974 49.7562C41.5813 49.7562 39.862 48.0129 39.862 45.8673V44.2581H27.1656V45.8673C27.1656 48.0129 25.4463 49.7562 23.3302 49.7562H19.3626C17.2465 49.7562 15.5272 48.0129 15.5272 45.8673V44.2581H12.6705C7.93582 44.2581 4.10044 40.6643 4.10044 36.239V29.3731C1.90502 29.2926 0.132812 27.4689 0.132812 25.216V20.0129C0.132812 17.7332 1.98437 15.8558 4.23269 15.8558H5.81974C6.1107 15.8558 6.37521 15.8827 6.63971 15.9363L11.0306 1.02441H55.9705L60.3614 15.9363C60.6259 15.8827 60.8904 15.8558 61.1814 15.8558H62.7684C65.0167 15.8558 66.8683 17.7332 66.8683 20.0129V25.216C66.8683 27.4689 65.0961 29.2926 62.9007 29.3731V36.239C62.9007 40.6643 59.0653 44.2581 54.3306 44.2581H51.4739V45.8673C51.4739 48.0129 49.7546 49.7562 47.6385 49.7562H43.6974Z" fill="white"/>
<path d="M47.6644 49.8901H43.6968C41.5014 49.8901 39.7292 48.0932 39.7292 45.8671V44.3921H27.2973V45.8671C27.2973 48.0932 25.5251 49.8901 23.3297 49.8901H19.362C17.1666 49.8901 15.3944 48.0932 15.3944 45.8671V44.3921H12.67C7.88236 44.3921 3.96763 40.7445 3.96763 36.2388V29.507C1.71931 29.3729 0 27.5223 0 25.2158V20.0127C0 17.6526 1.90446 15.7216 4.23214 15.7216H5.81919C6.05725 15.7216 6.29531 15.7484 6.53336 15.7752L10.9242 0.890137H56.0758L60.4666 15.7752C60.7047 15.7216 60.9428 15.7216 61.1808 15.7216H62.7679C65.0955 15.7216 67 17.6526 67 20.0127V25.2158C67 27.4955 65.2807 29.3729 63.0324 29.507V36.2388C63.0324 40.7177 59.1441 44.3921 54.3301 44.3921H51.6056V45.8671C51.6321 48.0664 49.8599 49.8901 47.6644 49.8901ZM27.0328 44.1239H39.9937V45.8671C39.9937 47.9323 41.6601 49.6219 43.6968 49.6219H47.6644C49.7012 49.6219 51.3676 47.9323 51.3676 45.8671V44.1239H54.3565C59.0118 44.1239 62.7943 40.5836 62.7943 36.2388V29.2388H62.9266C65.0691 29.1583 66.762 27.415 66.762 25.2158V20.0127C66.762 17.7867 64.9897 15.9898 62.7943 15.9898H61.2073C60.9428 15.9898 60.6783 16.0166 60.4138 16.0702L60.3079 16.097L60.2815 15.9898L55.9171 1.18516H11.1623L6.74497 16.1239L6.63916 16.097C6.37465 16.0434 6.11014 16.0166 5.84563 16.0166H4.25858C2.06316 16.0166 0.290953 17.8135 0.290953 20.0396V25.2426C0.290953 27.415 1.98381 29.1852 4.12633 29.2656H4.25858V36.2656C4.25858 40.6104 8.04106 44.1507 12.6964 44.1507H15.6854V45.894C15.6854 47.9591 17.3518 49.6488 19.3885 49.6488H23.3561C25.3928 49.6488 27.0592 47.9591 27.0592 45.894V44.1239H27.0328Z" fill="black"/>
<path d="M62.7946 18.1351H61.2076C60.176 18.1351 59.356 18.9665 59.356 20.0125V20.388L54.3039 3.30371H12.7231L7.67103 20.388V20.0125C7.67103 18.9665 6.85105 18.1351 5.81947 18.1351H4.23242C3.20084 18.1351 2.38086 18.9665 2.38086 20.0125V25.2156C2.38086 26.2616 3.20084 27.093 4.23242 27.093H5.81947C6.00463 27.093 6.18978 27.0662 6.34849 27.0125V36.2386C6.34849 39.4033 9.17873 41.978 12.6702 41.978H17.7753V45.8669C17.7753 46.752 18.4894 47.4761 19.3623 47.4761H20.0765H22.6158H23.3299C24.2028 47.4761 24.917 46.752 24.917 45.8669V45.1428V41.978H42.11V45.1428V45.8669C42.11 46.752 42.8242 47.4761 43.6971 47.4761H44.4113H46.9505H47.6647C48.5376 47.4761 49.2518 46.752 49.2518 45.8669V45.1428V41.978H54.3568C57.8483 41.978 60.6785 39.4033 60.6785 36.2386V27.0125C60.8372 27.0662 61.0224 27.093 61.2076 27.093H62.7946C63.8262 27.093 64.6462 26.2616 64.6462 25.2156V20.0125C64.6462 18.9934 63.8262 18.1351 62.7946 18.1351Z" fill="black"/>
<path d="M59.2491 22.3727L53.8267 3.97424H13.2247L7.80224 22.3727C7.32612 23.1237 7.03516 23.9819 7.03516 24.9206V36.2386C7.03516 39.0279 9.57444 41.3076 12.6956 41.3076H17.8007V45.1428C17.8007 46.4302 18.8322 47.4762 20.1019 47.4762H22.6412C23.9108 47.4762 24.9424 46.4302 24.9424 45.1428V41.3076H42.1354V45.1428C42.1354 46.4302 43.167 47.4762 44.4367 47.4762H46.9759C48.2456 47.4762 49.2772 46.4302 49.2772 45.1428V41.3076H54.3822C57.5034 41.3076 60.0427 39.0547 60.0427 36.2386V24.9206C60.0162 23.9819 59.7252 23.1237 59.2491 22.3727Z" fill="white"/>
<path d="M23.3301 47.4765H19.3624C18.4896 47.4765 17.7754 46.7523 17.7754 45.8673V39.6987C17.7754 38.8136 18.4896 38.0895 19.3624 38.0895H23.3301C24.2029 38.0895 24.9171 38.8136 24.9171 39.6987V45.8673C24.9171 46.7523 24.2029 47.4765 23.3301 47.4765Z" fill="black"/>
<path d="M47.666 47.4763H43.6984C42.8255 47.4763 42.1113 46.7522 42.1113 45.8671V39.6986C42.1113 38.8135 42.8255 38.0894 43.6984 38.0894H47.666C48.5389 38.0894 49.2531 38.8135 49.2531 39.6986V45.8671C49.2531 46.7522 48.5389 47.4763 47.666 47.4763Z" fill="black"/>
<path d="M59.2491 22.3727L53.8267 3.97424H13.2247L7.80224 22.3727C7.32612 23.1237 7.03516 23.9819 7.03516 24.9206V36.2386C7.03516 39.0279 9.57444 41.3076 12.6956 41.3076H54.3822C57.5034 41.3076 60.0427 39.0547 60.0427 36.2386V24.9206C60.0162 23.9819 59.7252 23.1237 59.2491 22.3727Z" fill="#92DDEA"/>
<path d="M54.3559 41.9783H12.6694C9.1779 41.9783 6.34766 39.4036 6.34766 36.2389V24.9208C6.34766 23.9285 6.63861 22.963 7.16763 22.1048L12.7223 3.33081H54.303L59.8577 22.1048C60.3867 22.963 60.6777 23.9285 60.6777 24.9208V36.2389C60.6777 39.4036 57.8475 41.9783 54.3559 41.9783ZM13.701 4.67181L8.38437 22.668L8.33147 22.7484C7.90826 23.4189 7.6702 24.1699 7.6702 24.9208V36.2389C7.6702 38.6527 9.91853 40.6373 12.6694 40.6373H54.3559C57.1068 40.6373 59.3552 38.6795 59.3552 36.2389V24.9208C59.3552 24.1699 59.1171 23.4189 58.6939 22.7484L58.641 22.668L58.6145 22.5607L53.3244 4.64499H13.701V4.67181Z" fill="black"/>
<path d="M18.304 35.2734C20.7436 35.2734 22.7213 33.2681 22.7213 30.7945C22.7213 28.3208 20.7436 26.3156 18.304 26.3156C15.8644 26.3156 13.8867 28.3208 13.8867 30.7945C13.8867 33.2681 15.8644 35.2734 18.304 35.2734Z" fill="white"/>
<path d="M48.722 35.2734C51.1616 35.2734 53.1393 33.2681 53.1393 30.7945C53.1393 28.3208 51.1616 26.3156 48.722 26.3156C46.2824 26.3156 44.3047 28.3208 44.3047 30.7945C44.3047 33.2681 46.2824 35.2734 48.722 35.2734Z" fill="white"/>
<path d="M54.7515 20.3076H12.2715L15.7101 6.84399H51.3129L54.7515 20.3076Z" fill="white"/>
<path d="M5.8457 26.4223H4.25865C3.59738 26.4223 3.06836 25.8859 3.06836 25.2154V20.0123C3.06836 19.3418 3.59738 18.8054 4.25865 18.8054H5.8457C6.50697 18.8054 7.03599 19.3418 7.03599 20.0123V25.2154C7.03599 25.8859 6.48052 26.4223 5.8457 26.4223Z" fill="#92DDEA"/>
<path d="M5.84486 27.0931H4.25781C3.22623 27.0931 2.40625 26.2617 2.40625 25.2157V20.0127C2.40625 18.9667 3.22623 18.1353 4.25781 18.1353H5.84486C6.87644 18.1353 7.69642 18.9667 7.69642 20.0127V25.2157C7.69642 26.2617 6.84999 27.0931 5.84486 27.0931ZM4.25781 19.4763C3.96685 19.4763 3.72879 19.7176 3.72879 20.0127V25.2157C3.72879 25.5107 3.96685 25.7521 4.25781 25.7521H5.84486C6.13582 25.7521 6.37388 25.5107 6.37388 25.2157V20.0127C6.37388 19.7176 6.13582 19.4763 5.84486 19.4763H4.25781Z" fill="black"/>
<path d="M62.7949 26.4223H61.2079C60.5466 26.4223 60.0176 25.8859 60.0176 25.2154V20.0123C60.0176 19.3418 60.5466 18.8054 61.2079 18.8054H62.7949C63.4562 18.8054 63.9852 19.3418 63.9852 20.0123V25.2154C63.9852 25.8859 63.4562 26.4223 62.7949 26.4223Z" fill="#92DDEA"/>
<path d="M62.7941 27.0931H61.207C60.1754 27.0931 59.3555 26.2617 59.3555 25.2157V20.0127C59.3555 18.9667 60.1754 18.1353 61.207 18.1353H62.7941C63.8257 18.1353 64.6456 18.9667 64.6456 20.0127V25.2157C64.6456 26.2617 63.8257 27.0931 62.7941 27.0931ZM61.207 19.4763C60.9161 19.4763 60.678 19.7176 60.678 20.0127V25.2157C60.678 25.5107 60.9161 25.7521 61.207 25.7521H62.7941C63.085 25.7521 63.3231 25.5107 63.3231 25.2157V20.0127C63.3231 19.7176 63.085 19.4763 62.7941 19.4763H61.207Z" fill="black"/>
</svg>
