<svg width="51" height="63" viewBox="0 0 51 63" fill="none" xmlns="http://www.w3.org/2000/svg">
<path d="M2.39784 21.2079L2.39867 21.2002L2.39901 21.1924C2.91305 9.65657 13.7672 0.634112 26.6985 1.09765C39.6297 1.5612 49.6465 11.3318 49.1325 22.8677C48.9485 26.9968 47.3961 31.5087 45.1547 35.9655C42.9148 40.4194 39.9953 44.8015 37.0952 48.6672C34.1956 52.5322 31.3187 55.8765 29.1665 58.2547C28.0905 59.4436 27.196 60.3908 26.5707 61.0404C26.2581 61.3652 26.0128 61.6156 25.8458 61.7847C25.8141 61.8167 25.7853 61.8459 25.7593 61.872C25.7271 61.8425 25.6906 61.809 25.65 61.7715C25.4642 61.6 25.1916 61.3458 24.8451 61.0157C24.152 60.3554 23.1636 59.3915 21.9832 58.1781C19.6222 55.7508 16.4951 52.3269 13.4292 48.3393C10.3626 44.3508 7.36184 39.8043 5.24923 35.1317C3.13562 30.4568 1.91958 25.6748 2.39784 21.2079Z" fill="white" stroke="black" stroke-width="0.5"/>
<path d="M4.69065 21.888L4.69231 21.8725L4.693 21.857C5.15209 11.5541 14.8583 3.44673 26.4845 3.86349C38.1106 4.28025 47.0646 13.0566 46.6055 23.3594C46.4407 27.0561 45.0487 31.1153 43.0207 35.1479C40.9955 39.1748 38.3532 43.1417 35.7243 46.6459C33.0964 50.1488 30.4884 53.1804 28.5371 55.3367C27.5617 56.4145 26.7509 57.2729 26.1846 57.8613C25.9626 58.0919 25.7782 58.281 25.6362 58.4256C25.4752 58.2762 25.2616 58.0761 25.0021 57.8289C24.3746 57.2311 23.479 56.3578 22.4093 55.2581C20.2693 53.058 17.4356 49.9553 14.6583 46.3431C11.8796 42.7291 9.16648 38.6167 7.25869 34.3971C5.34887 30.173 4.26331 25.8793 4.69065 21.888Z" fill="#FFE927" stroke="black"/>
<path d="M25.4281 27.5914C23.6571 27.5252 21.222 26.7971 19.8938 23.5541C19.6724 23.0908 19.9676 22.4952 20.5579 22.3628C21.0745 22.1642 21.6648 22.429 21.8862 22.9585C22.6241 24.8116 23.8047 25.672 25.5019 25.7382C27.2729 25.8044 28.4535 25.0102 29.339 23.2232C29.5604 22.7599 30.2245 22.5614 30.741 22.7599C31.2576 22.9585 31.4789 23.5541 31.2576 24.0174C29.708 27.0619 27.1991 27.6575 25.4281 27.5914Z" fill="black"/>
<path d="M18.3074 19.9589C18.3692 18.571 17.1649 17.4009 15.6176 17.3454C14.0702 17.29 12.7656 18.3701 12.7038 19.758C12.6419 21.1459 13.8462 22.316 15.3936 22.3714C16.941 22.4269 18.2455 21.3468 18.3074 19.9589Z" fill="black"/>
<path d="M39.2703 20.7374C39.3321 19.3496 38.1278 18.1795 36.5804 18.124C35.0331 18.0685 33.7285 19.1487 33.6667 20.5366C33.6048 21.9245 34.8091 23.0945 36.3565 23.15C37.9039 23.2055 39.2084 22.1253 39.2703 20.7374Z" fill="black"/>
</svg>
