<svg width="49" height="63" viewBox="0 0 49 63" fill="none" xmlns="http://www.w3.org/2000/svg">
<path d="M10.6014 62.7604C9.6547 62.7604 8.73435 62.5517 7.86658 62.1605C6.31513 61.4302 5.13181 60.1521 4.5533 58.5349C3.97479 56.9177 4.05368 55.1962 4.78996 53.6573L4.86885 53.5008C5.73662 51.675 6.60438 49.8231 7.47215 47.9973C7.47215 47.9973 9.0236 44.7368 9.62841 43.4327C9.91766 42.8328 10.1806 42.2589 10.4699 41.659L10.4962 41.6329C10.9958 40.6157 11.4954 39.5724 11.9687 38.529C12.1791 38.0595 12.4158 37.6422 12.6261 37.2509C12.9417 36.651 13.3624 35.8685 13.3887 35.4512C13.415 35.1904 13.415 34.9034 13.415 34.5904C13.415 33.9905 13.415 33.2602 13.5728 32.4516L9.28656 34.4079C8.44509 34.7991 7.52474 35.0078 6.60438 35.0078C4.10627 35.0078 1.79223 33.5471 0.740398 31.2779C0.0304091 29.7389 -0.0484786 27.9914 0.556327 26.4003C1.16113 24.8092 2.34445 23.5311 3.8959 22.8008L16.5442 17.0103C16.8598 16.8799 17.149 16.7495 17.4383 16.6451C17.2542 16.3061 17.0701 15.967 16.9124 15.5757C14.6509 10.2286 17.2016 4.07299 22.5923 1.82982C23.8808 1.28207 25.2745 1.02124 26.6681 1.02124C30.9544 1.02124 34.7936 3.55132 36.4502 7.46381C38.2383 11.6893 37.0024 16.4365 33.7417 19.3317L35.3195 20.4794L41.2098 18.784C41.762 18.6275 42.3142 18.5492 42.8664 18.5492C45.5223 18.5492 47.8889 20.3229 48.6252 22.853C49.4667 25.7743 47.9941 28.826 45.1805 29.9998C44.9701 30.078 44.7597 30.1563 44.5231 30.2345L35.9506 32.7124C35.3984 32.8689 34.8462 32.9472 34.294 32.9472C33.4262 32.9472 32.5847 32.7646 31.8221 32.4255C31.6644 32.9733 31.5066 33.5471 31.3225 34.147C32.9003 35.8685 34.478 37.6161 36.0558 39.3376C37.1339 40.5113 37.7124 42.0242 37.7124 43.6153V56.3439C37.7124 59.8652 34.8199 62.7343 31.2699 62.7343C27.72 62.7343 24.8274 59.8652 24.8274 56.3439V46.0671L23.3549 44.4499L16.4653 59.0566C15.3872 61.2997 13.0995 62.7604 10.6014 62.7604Z" fill="white"/>
<mask id="path-2-inside-1_1684_2442" fill="white">
<path d="M10.602 62.8901C9.62903 62.8901 8.68238 62.6815 7.81461 62.2641C6.23686 61.5338 5.02725 60.2036 4.42244 58.5864C3.81764 56.9431 3.89653 55.1695 4.65911 53.6045L4.738 53.448C5.52687 51.8047 6.28945 50.1615 7.07833 48.4922L7.34129 47.9444C7.34129 47.9444 8.89275 44.684 9.49755 43.3798C9.76051 42.806 10.0498 42.2322 10.339 41.6322L10.3916 41.5279C10.8649 40.5107 11.3646 39.4934 11.8379 38.4762C12.0483 38.0067 12.2849 37.5633 12.4953 37.172C12.8108 36.5982 13.2053 35.8157 13.2579 35.4244C13.2842 35.1636 13.2842 34.8767 13.2842 34.5898C13.2842 34.042 13.2842 33.3899 13.3893 32.6857L9.33978 34.5376C8.47201 34.9288 7.55166 35.1375 6.57871 35.1375C4.02801 35.1375 1.66138 33.6508 0.60954 31.3293C-0.126744 29.7383 -0.205632 27.9646 0.425469 26.3474C1.03027 24.7042 2.23989 23.4 3.84393 22.6697L16.4923 16.8792C16.7289 16.7749 16.9919 16.6705 17.2548 16.5662C17.0708 16.2532 16.913 15.9402 16.7815 15.6011C15.6771 12.9928 15.6771 10.0975 16.7552 7.46313C17.8333 4.82872 19.8844 2.79422 22.5403 1.69872C23.8025 1.17705 25.1962 0.890137 26.6162 0.890137C30.955 0.890137 34.8468 3.4463 36.5297 7.41096C38.2653 11.5321 37.2134 16.3054 33.9001 19.331L35.3201 20.3483L41.1578 18.6789C41.71 18.5224 42.2885 18.4442 42.867 18.4442C45.5755 18.4442 47.9947 20.2439 48.7573 22.8262C49.6251 25.7997 48.0999 28.9297 45.2337 30.1295C45.0233 30.2078 44.7866 30.286 44.5763 30.3643L36.0038 32.8422C35.4516 32.9987 34.8731 33.0769 34.2946 33.0769C33.4794 33.0769 32.6642 32.9204 31.9016 32.6074C31.7702 33.103 31.6124 33.5986 31.4546 34.1203C33.0324 35.8418 34.5838 37.5372 36.1616 39.2587C37.2397 40.4585 37.8445 41.9974 37.8445 43.6146V56.3432C37.8445 59.9427 34.8994 62.8641 31.2705 62.8641C27.6417 62.8641 24.6966 59.9427 24.6966 56.3432V46.1186L23.4081 44.684L16.5974 59.1081C15.4667 61.4034 13.1527 62.8901 10.602 62.8901ZM13.6786 32.2162L13.626 32.4509C13.4945 33.2334 13.4682 33.9638 13.4682 34.5637C13.4682 34.8767 13.4682 35.1636 13.4419 35.4244C13.4156 35.8678 12.9949 36.6503 12.6531 37.2763C12.4427 37.6676 12.206 38.111 11.9957 38.5544C11.5486 39.5717 11.0227 40.615 10.5494 41.6322L10.4968 41.7366C10.2075 42.3104 9.94458 42.8842 9.65533 43.4581C9.05052 44.7622 7.49906 48.0227 7.49906 48.0227L7.2361 48.5704C6.44723 50.2137 5.68465 51.8569 4.89577 53.5262L4.81688 53.6827C4.10689 55.1956 4.02801 56.891 4.60652 58.4821C5.18502 60.0471 6.34204 61.3251 7.86721 62.0294C8.70867 62.4206 9.60274 62.6293 10.5494 62.6293C12.9949 62.6293 15.2301 61.2208 16.2556 59.0298L23.2503 44.2406L24.9332 46.0142V56.3432C24.9332 59.7862 27.7732 62.6032 31.2443 62.6032C34.7153 62.6032 37.5553 59.7862 37.5553 56.3432V43.6146C37.5553 42.0757 36.9768 40.5628 35.9249 39.4152C34.3472 37.6676 32.7694 35.9461 31.1917 34.2246L31.1391 34.1724L31.1654 34.0942C31.3494 33.4943 31.5072 32.9204 31.665 32.3727L31.7176 32.2162L31.8491 32.2683C32.6116 32.6074 33.4268 32.79 34.2683 32.79C34.8205 32.79 35.3727 32.7118 35.8986 32.5553L44.4711 30.0773C44.6815 30.0252 44.8918 29.9469 45.1022 29.8687C47.8633 28.721 49.3095 25.7214 48.4681 22.8784C47.7581 20.4004 45.4177 18.6789 42.8407 18.6789C42.2885 18.6789 41.7363 18.7572 41.2104 18.9137L35.2412 20.6352L33.4794 19.3571L33.6109 19.2528C36.9242 16.3054 38.0023 11.5843 36.2931 7.51529C34.6364 3.65497 30.8498 1.15097 26.6162 1.15097C25.2225 1.15097 23.8814 1.4118 22.5929 1.95955C20.0159 3.02897 18.0174 5.03738 16.9656 7.59354C15.9137 10.1497 15.9137 12.9667 16.9919 15.5229C17.1497 15.888 17.3337 16.2532 17.5178 16.5923L17.5967 16.7227L17.4389 16.7749C17.1234 16.8792 16.8341 17.0096 16.5448 17.14L3.89653 22.9044C2.37136 23.6087 1.18805 24.8607 0.60954 26.4257C0.0310309 27.9907 0.0836227 29.6861 0.793612 31.225C1.81915 33.4421 4.0806 34.8767 6.52612 34.8767C7.44647 34.8767 8.34053 34.6941 9.1557 34.3028L13.6786 32.2162Z"/>
</mask>
<path d="M10.602 62.8901C9.62903 62.8901 8.68238 62.6815 7.81461 62.2641C6.23686 61.5338 5.02725 60.2036 4.42244 58.5864C3.81764 56.9431 3.89653 55.1695 4.65911 53.6045L4.738 53.448C5.52687 51.8047 6.28945 50.1615 7.07833 48.4922L7.34129 47.9444C7.34129 47.9444 8.89275 44.684 9.49755 43.3798C9.76051 42.806 10.0498 42.2322 10.339 41.6322L10.3916 41.5279C10.8649 40.5107 11.3646 39.4934 11.8379 38.4762C12.0483 38.0067 12.2849 37.5633 12.4953 37.172C12.8108 36.5982 13.2053 35.8157 13.2579 35.4244C13.2842 35.1636 13.2842 34.8767 13.2842 34.5898C13.2842 34.042 13.2842 33.3899 13.3893 32.6857L9.33978 34.5376C8.47201 34.9288 7.55166 35.1375 6.57871 35.1375C4.02801 35.1375 1.66138 33.6508 0.60954 31.3293C-0.126744 29.7383 -0.205632 27.9646 0.425469 26.3474C1.03027 24.7042 2.23989 23.4 3.84393 22.6697L16.4923 16.8792C16.7289 16.7749 16.9919 16.6705 17.2548 16.5662C17.0708 16.2532 16.913 15.9402 16.7815 15.6011C15.6771 12.9928 15.6771 10.0975 16.7552 7.46313C17.8333 4.82872 19.8844 2.79422 22.5403 1.69872C23.8025 1.17705 25.1962 0.890137 26.6162 0.890137C30.955 0.890137 34.8468 3.4463 36.5297 7.41096C38.2653 11.5321 37.2134 16.3054 33.9001 19.331L35.3201 20.3483L41.1578 18.6789C41.71 18.5224 42.2885 18.4442 42.867 18.4442C45.5755 18.4442 47.9947 20.2439 48.7573 22.8262C49.6251 25.7997 48.0999 28.9297 45.2337 30.1295C45.0233 30.2078 44.7866 30.286 44.5763 30.3643L36.0038 32.8422C35.4516 32.9987 34.8731 33.0769 34.2946 33.0769C33.4794 33.0769 32.6642 32.9204 31.9016 32.6074C31.7702 33.103 31.6124 33.5986 31.4546 34.1203C33.0324 35.8418 34.5838 37.5372 36.1616 39.2587C37.2397 40.4585 37.8445 41.9974 37.8445 43.6146V56.3432C37.8445 59.9427 34.8994 62.8641 31.2705 62.8641C27.6417 62.8641 24.6966 59.9427 24.6966 56.3432V46.1186L23.4081 44.684L16.5974 59.1081C15.4667 61.4034 13.1527 62.8901 10.602 62.8901ZM13.6786 32.2162L13.626 32.4509C13.4945 33.2334 13.4682 33.9638 13.4682 34.5637C13.4682 34.8767 13.4682 35.1636 13.4419 35.4244C13.4156 35.8678 12.9949 36.6503 12.6531 37.2763C12.4427 37.6676 12.206 38.111 11.9957 38.5544C11.5486 39.5717 11.0227 40.615 10.5494 41.6322L10.4968 41.7366C10.2075 42.3104 9.94458 42.8842 9.65533 43.4581C9.05052 44.7622 7.49906 48.0227 7.49906 48.0227L7.2361 48.5704C6.44723 50.2137 5.68465 51.8569 4.89577 53.5262L4.81688 53.6827C4.10689 55.1956 4.02801 56.891 4.60652 58.4821C5.18502 60.0471 6.34204 61.3251 7.86721 62.0294C8.70867 62.4206 9.60274 62.6293 10.5494 62.6293C12.9949 62.6293 15.2301 61.2208 16.2556 59.0298L23.2503 44.2406L24.9332 46.0142V56.3432C24.9332 59.7862 27.7732 62.6032 31.2443 62.6032C34.7153 62.6032 37.5553 59.7862 37.5553 56.3432V43.6146C37.5553 42.0757 36.9768 40.5628 35.9249 39.4152C34.3472 37.6676 32.7694 35.9461 31.1917 34.2246L31.1391 34.1724L31.1654 34.0942C31.3494 33.4943 31.5072 32.9204 31.665 32.3727L31.7176 32.2162L31.8491 32.2683C32.6116 32.6074 33.4268 32.79 34.2683 32.79C34.8205 32.79 35.3727 32.7118 35.8986 32.5553L44.4711 30.0773C44.6815 30.0252 44.8918 29.9469 45.1022 29.8687C47.8633 28.721 49.3095 25.7214 48.4681 22.8784C47.7581 20.4004 45.4177 18.6789 42.8407 18.6789C42.2885 18.6789 41.7363 18.7572 41.2104 18.9137L35.2412 20.6352L33.4794 19.3571L33.6109 19.2528C36.9242 16.3054 38.0023 11.5843 36.2931 7.51529C34.6364 3.65497 30.8498 1.15097 26.6162 1.15097C25.2225 1.15097 23.8814 1.4118 22.5929 1.95955C20.0159 3.02897 18.0174 5.03738 16.9656 7.59354C15.9137 10.1497 15.9137 12.9667 16.9919 15.5229C17.1497 15.888 17.3337 16.2532 17.5178 16.5923L17.5967 16.7227L17.4389 16.7749C17.1234 16.8792 16.8341 17.0096 16.5448 17.14L3.89653 22.9044C2.37136 23.6087 1.18805 24.8607 0.60954 26.4257C0.0310309 27.9907 0.0836227 29.6861 0.793612 31.225C1.81915 33.4421 4.0806 34.8767 6.52612 34.8767C7.44647 34.8767 8.34053 34.6941 9.1557 34.3028L13.6786 32.2162Z" stroke="black" stroke-width="4" mask="url(#path-2-inside-1_1684_2442)"/>
<path d="M46.4705 23.4784C45.892 21.496 43.7883 20.3484 41.8162 20.9222L34.874 22.9306L30.3249 19.6702C30.0619 19.4876 29.8778 19.3311 29.6938 19.2268C29.7463 19.2007 29.7726 19.2007 29.8252 19.1746C34.0852 17.401 36.0837 12.5495 34.3218 8.32398C32.56 4.12456 27.6427 2.11615 23.409 3.88981C19.1491 5.6374 17.1506 10.515 18.9124 14.7144C19.4647 16.0185 20.3061 16.9054 21.2002 17.74C21.2002 17.74 21.2002 17.74 21.1739 17.74C20.6217 17.9748 20.0695 18.1313 19.4647 18.3139C18.781 18.4965 18.0973 18.7051 17.4136 19.0181L4.76525 24.8086C2.66158 25.7737 1.74122 28.2516 2.71417 30.3383C3.39786 31.825 4.89673 32.764 6.52708 32.764C7.13188 32.764 7.73669 32.6336 8.2889 32.3728L16.5984 28.5646L16.204 30.4687C16.1514 30.7034 16.0988 30.9382 16.0725 31.1729C15.9673 31.6424 15.8884 32.0859 15.7832 32.5293C15.6255 33.2596 15.5992 33.9117 15.5992 34.5638C15.5992 34.8768 15.5992 35.2159 15.5729 35.5549C15.5203 36.4418 15.0206 37.3547 14.5473 38.2415C14.337 38.6067 14.1266 38.9979 13.9688 39.3892C13.4955 40.4586 12.9696 41.528 12.4699 42.5713C12.1807 43.1713 11.8914 43.7451 11.6285 44.345C10.9185 45.8578 10.1822 47.3968 9.47221 48.9096C8.60445 50.7354 7.73669 52.5873 6.86892 54.4132L6.79003 54.5697C6.31671 55.5869 6.26412 56.7085 6.63226 57.7518C7.0267 58.7952 7.78928 59.6298 8.81482 60.0993C9.36703 60.3602 9.97184 60.4906 10.6029 60.4906C12.2333 60.4906 13.7321 59.5516 14.4158 58.0909L22.4887 41.0585L22.9094 40.6412L27.0379 45.2318V56.3694C27.0379 58.6647 28.9312 60.5427 31.2452 60.5427C33.5592 60.5427 35.4526 58.6647 35.4526 56.3694V43.6408C35.4526 42.5974 35.0581 41.6063 34.3744 40.8498C32.7178 39.024 31.0611 37.2243 29.4045 35.3984L28.7734 34.6942C29.273 33.2074 29.6675 31.8772 29.9304 30.6513C30.0093 30.2861 30.0619 29.9209 30.1408 29.5819C30.1671 29.3732 30.2197 29.1645 30.246 28.9559C30.7456 29.2428 31.403 29.6601 31.7185 29.8427C32.0604 30.0514 32.2182 30.1557 32.3233 30.2079C33.2174 30.7556 34.3218 30.886 35.3211 30.5991L43.8935 28.1212C44.025 28.069 44.1565 28.0429 44.288 27.9908C46.0761 27.2344 46.9964 25.3042 46.4705 23.4784Z" fill="black"/>
<path d="M45.8377 23.66C45.3644 22.0168 43.6289 21.0778 41.9985 21.5473L34.7408 23.6339L29.955 20.1909C28.2721 18.965 28.798 19.4084 28.2721 18.965C28.7191 18.8607 29.1661 18.7303 29.6131 18.5477C33.5312 16.9305 35.3719 12.4442 33.7416 8.55778C32.085 4.69745 27.5621 2.84553 23.644 4.48878C19.7259 6.10595 17.8852 10.5662 19.5155 14.4526C20.1466 15.9654 21.1985 16.8523 22.3555 17.8956C22.0662 18.0521 21.7507 18.2086 21.4351 18.339C20.1992 18.8607 18.9107 19.0433 17.6748 19.6171C16.4389 20.1648 15.2293 20.7387 13.9934 21.2864C11.3638 22.4863 8.7605 23.6861 6.13091 24.8859C5.76277 25.0424 5.39463 25.225 5.02648 25.3815C3.23836 26.1901 2.47578 28.2768 3.29095 30.0504C3.89576 31.3285 5.18426 32.111 6.52535 32.111C7.02497 32.111 7.52459 32.0067 7.99792 31.798L17.4907 27.4682C17.2804 28.5115 17.0437 29.5809 16.8333 30.6242C16.6756 31.3024 16.5441 32.0067 16.3863 32.6848C16.1496 33.7021 16.2548 34.5889 16.2022 35.6322C16.0971 37.0668 15.1241 38.3971 14.5456 39.6752C13.783 41.3445 12.9678 42.9877 12.2053 44.631C10.6275 47.9957 9.04975 51.3605 7.44571 54.6991C7.41941 54.7513 7.39311 54.8035 7.36682 54.8556C6.52535 56.6293 7.28793 58.716 9.07605 59.5506C9.57567 59.7854 10.0753 59.8897 10.5749 59.8897C11.916 59.8897 13.1782 59.1333 13.783 57.8552L21.8822 40.6924L22.8551 39.7012L27.641 44.9701V56.3424C27.641 58.2986 29.2187 59.8636 31.1909 59.8636C33.1631 59.8636 34.7408 58.2986 34.7408 56.3424V43.6137C34.7408 42.753 34.4253 41.8922 33.8205 41.2662C31.9535 39.2057 30.0602 37.1451 28.1932 35.1106C28.1143 35.0323 28.0354 34.9541 28.0091 34.8497C27.9828 34.7193 28.0091 34.615 28.0617 34.4846C28.5087 33.1543 28.9032 31.8502 29.2187 30.4938C29.4028 29.6853 29.4817 28.8245 29.7183 28.0159C29.7709 27.8333 32.3479 29.5027 32.5846 29.607C33.3209 30.0504 34.2412 30.1808 35.0827 29.9461L43.6551 27.4682C43.7603 27.4421 43.8918 27.3899 43.997 27.3378C45.4959 26.7639 46.2584 25.1728 45.8377 23.66Z" fill="#92DDEA"/>
<path d="M10.601 60.5423C9.96988 60.5423 9.39137 60.4119 8.81286 60.1511C7.78732 59.6816 7.02474 58.8469 6.63031 57.8036C6.23587 56.7603 6.28846 55.6126 6.78808 54.6214L6.86697 54.4649C7.73473 52.6391 8.6025 50.7872 9.47026 48.9614C10.1803 47.4485 10.9165 45.9096 11.6265 44.3968C11.9158 43.7969 12.1787 43.223 12.468 42.6231C12.9676 41.5798 13.4935 40.5104 13.9669 39.441C14.1509 39.0497 14.3613 38.6585 14.5454 38.2933C15.0187 37.4065 15.492 36.4935 15.5709 35.6067C15.5972 35.2676 15.5972 34.9285 15.5972 34.6155C15.5972 33.9635 15.5972 33.3114 15.7813 32.5811C15.8865 32.1376 15.9916 31.6681 16.0705 31.2247C16.1231 30.99 16.1757 30.7552 16.202 30.5205L16.5964 28.6164L8.28695 32.4246C7.73473 32.6854 7.12993 32.8158 6.52512 32.8158C4.89478 32.8158 3.39591 31.8507 2.71222 30.3901C1.73927 28.3034 2.65963 25.8255 4.7633 24.8604L17.4116 19.0699C18.0953 18.7569 18.8053 18.5482 19.4627 18.3657C20.0675 18.1831 20.6197 18.0266 21.1719 17.7918C21.1719 17.7918 21.1719 17.7918 21.1982 17.7918C20.2779 16.9311 19.4627 16.0703 18.9105 14.7662C17.1487 10.5146 19.1471 5.637 23.4071 3.88942C27.667 2.11576 32.5581 4.12417 34.3462 8.34967C36.1343 12.5752 34.1095 17.4267 29.8496 19.2003C29.797 19.2264 29.7707 19.2264 29.7181 19.2525C29.8759 19.3829 30.0862 19.5133 30.3492 19.6959L34.8458 22.9563L41.7879 20.9479C43.7864 20.3741 45.8638 21.5217 46.4423 23.5041C46.9682 25.3299 46.0478 27.2601 44.286 27.9904C44.1545 28.0426 44.0231 28.0947 43.8916 28.1208L35.3191 30.5987C34.3199 30.8856 33.2154 30.7552 32.3214 30.2075C32.2425 30.1553 32.0847 30.0771 31.7166 29.8423C31.401 29.6336 30.7436 29.2424 30.244 28.9555C30.1914 29.1641 30.1651 29.3728 30.1388 29.5815C30.0862 29.9206 30.0073 30.2857 29.9285 30.6509C29.6392 31.9029 29.2711 33.2331 28.7714 34.6938L29.4025 35.398C31.0592 37.2239 32.7158 39.0236 34.3725 40.8495C35.0825 41.6059 35.4506 42.597 35.4506 43.6404V56.369C35.4506 58.6643 33.5573 60.5423 31.2433 60.5423C28.9292 60.5423 27.0359 58.6643 27.0359 56.369V45.2315L22.8812 40.6669L22.4604 41.0842L14.4139 58.1427C13.7302 59.6033 12.2313 60.5423 10.601 60.5423ZM17.5168 26.8166C17.6746 26.8166 17.8061 26.8688 17.9375 26.9471C18.1216 27.1036 18.2268 27.3383 18.1742 27.5991L17.5168 30.7552C17.4642 30.99 17.4116 31.2247 17.3853 31.4334C17.2801 31.9029 17.2013 32.3724 17.0961 32.8419C16.9646 33.4418 16.9646 34.0156 16.9383 34.6155C16.9383 34.9546 16.9383 35.3198 16.912 35.685C16.8331 36.8326 16.2809 37.876 15.755 38.8671C15.5446 39.2323 15.3605 39.5975 15.2028 39.9365C14.6768 41.032 14.1509 42.1015 13.6513 43.1448C13.3621 43.7186 13.0991 44.3185 12.8098 44.8924C12.0999 46.4052 11.3636 47.9441 10.6536 49.4569C9.78581 51.2828 8.91805 53.1347 8.05028 54.9605L7.9714 55.117C7.62955 55.8213 7.60325 56.6038 7.86621 57.308C8.12917 58.0384 8.65509 58.6122 9.36508 58.9252C9.75952 59.1078 10.154 59.186 10.601 59.186C11.7317 59.186 12.7572 58.5339 13.2306 57.5428L21.3297 40.38C21.356 40.3017 21.4086 40.2495 21.4612 40.1974L22.4341 39.2062C22.5656 39.0758 22.7497 38.9975 22.9075 39.0236C23.0915 39.0236 23.2493 39.1019 23.3808 39.2323L28.1666 44.5011C28.2718 44.6315 28.3244 44.788 28.3244 44.9445V56.3169C28.3244 57.9079 29.6129 59.186 31.217 59.186C32.821 59.186 34.1095 57.9079 34.1095 56.3169V43.5882C34.1095 42.884 33.8465 42.2058 33.3732 41.658C31.7166 39.8322 30.0599 38.0325 28.4033 36.2066L27.7459 35.5024C27.6407 35.398 27.4829 35.2155 27.4304 34.9546C27.3515 34.6416 27.4566 34.3808 27.4829 34.2243C27.9826 32.7897 28.3507 31.5116 28.6137 30.2857C28.6926 29.9727 28.7451 29.6336 28.7977 29.2946C28.8766 28.799 28.9818 28.2773 29.1133 27.7817C29.1659 27.5731 29.3237 27.4166 29.534 27.3383C29.9285 27.1818 30.1388 27.2601 32.4003 28.6686C32.6106 28.799 32.8736 28.9555 32.9262 28.9816C32.9262 28.9816 32.9525 29.0076 32.9788 29.0076C33.5573 29.3728 34.2936 29.4511 34.951 29.2685L43.5234 26.7906C43.6023 26.7645 43.7075 26.7384 43.7864 26.6862C44.9434 26.2167 45.5482 24.9647 45.1801 23.7649C44.8119 22.4868 43.4445 21.7304 42.156 22.0956L34.8984 24.1822C34.7143 24.2344 34.5039 24.2083 34.3199 24.0779L29.5603 20.7131C28.7189 20.1132 28.4296 19.9306 28.2981 19.8263C28.1403 19.722 28.114 19.6959 27.8248 19.4611C27.6407 19.3046 27.5355 19.0438 27.6144 18.8091C27.667 18.5743 27.8774 18.3657 28.114 18.3135C28.5611 18.2092 28.9555 18.1048 29.3237 17.9483C32.8999 16.4616 34.6091 12.3665 33.1103 8.81916C31.6114 5.27184 27.4829 3.57642 23.9067 5.06317C20.3305 6.54992 18.6212 10.645 20.1201 14.1923C20.646 15.4443 21.5138 16.2268 22.5393 17.1658L22.8286 17.4267C22.9863 17.5571 23.0652 17.7657 23.0389 17.9744C23.0126 18.1831 22.8812 18.3657 22.6971 18.47C22.4078 18.6265 22.0923 18.783 21.7241 18.9395C21.093 19.2003 20.4619 19.3829 19.8571 19.5655C19.1997 19.7481 18.5949 19.9307 17.9901 20.1915L5.31551 25.982C4.60552 26.295 4.0796 26.8688 3.81665 27.5991C3.55369 28.3295 3.57998 29.0859 3.89553 29.7901C4.36886 30.8074 5.3944 31.4595 6.52512 31.4595C6.94586 31.4595 7.34029 31.3812 7.73473 31.1986L17.2275 26.8688C17.3327 26.8166 17.4116 26.8166 17.5168 26.8166Z" fill="black"/>
</svg>
