<svg width="52" height="67" viewBox="0 0 52 67" fill="none" xmlns="http://www.w3.org/2000/svg">
<path d="M41.4362 57.6931H10.6693C6.47024 57.6931 3.08984 54.3132 3.08984 50.1734V12.7848C3.08984 8.61885 6.49665 5.26514 10.6693 5.26514H41.4626C45.6617 5.26514 49.0421 8.64505 49.0421 12.7848V50.1472C49.0421 54.3132 45.6353 57.6931 41.4362 57.6931Z" fill="#92DDEA"/>
<path d="M41.4363 58.3483H10.6694C6.127 58.3483 2.42969 54.6802 2.42969 50.1737V12.785C2.42969 8.27847 6.127 4.61035 10.6694 4.61035H41.4627C46.0051 4.61035 49.7024 8.27847 49.7024 12.785V50.1475C49.7024 54.654 46.0051 58.3483 41.4363 58.3483ZM10.6694 5.89419C6.84005 5.89419 3.75015 8.9859 3.75015 12.7588V50.1213C3.75015 53.9204 6.86646 56.9859 10.6694 56.9859H41.4627C45.2921 56.9859 48.3819 53.8942 48.3819 50.1213V12.785C48.3819 8.9859 45.2656 5.9204 41.4627 5.9204H10.6694V5.89419Z" fill="black"/>
<path d="M33.8029 57.85C33.7237 58.0596 33.6973 58.2692 33.6973 58.505V62.5399C33.6973 63.6404 34.5952 64.5312 35.7044 64.5312H37.9228C39.032 64.5312 39.9299 63.6404 39.9299 62.5399V58.505C39.9299 58.2692 39.8771 58.0596 39.8242 57.85C39.7186 57.85 39.6394 57.85 39.5337 57.85H33.8029V57.85Z" fill="black"/>
<path d="M12.7559 58.505V62.5399C12.7559 63.6404 13.6538 64.5312 14.763 64.5312H16.9814C18.0905 64.5312 18.9885 63.6404 18.9885 62.5399V58.505C18.9885 58.2692 18.9356 58.0596 18.8828 57.85H12.9143C12.8087 58.0596 12.7559 58.2692 12.7559 58.505Z" fill="black"/>
<path d="M13.2308 49.3611C15.3603 49.3611 17.0865 47.6484 17.0865 45.5358C17.0865 43.4231 15.3603 41.7104 13.2308 41.7104C11.1013 41.7104 9.375 43.4231 9.375 45.5358C9.375 47.6484 11.1013 49.3611 13.2308 49.3611Z" fill="white"/>
<path d="M39.719 49.3611C41.8485 49.3611 43.5748 47.6484 43.5748 45.5358C43.5748 43.4231 41.8485 41.7104 39.719 41.7104C37.5896 41.7104 35.8633 43.4231 35.8633 45.5358C35.8633 47.6484 37.5896 49.3611 39.719 49.3611Z" fill="white"/>
<path d="M20.6527 12.3129H31.4806C32.4049 12.3129 33.1443 11.5793 33.1443 10.6623C33.1443 9.74522 32.4049 9.0116 31.4806 9.0116H20.6527C19.7284 9.0116 18.9889 9.74522 18.9889 10.6623C18.9625 11.5793 19.7284 12.3129 20.6527 12.3129Z" fill="white"/>
<path d="M35.1775 3.22168H16.3477V4.29592H35.1775V3.22168Z" fill="black"/>
<path d="M35.1775 4.29578H16.3477V5.1342H35.1775V4.29578Z" fill="black"/>
<path d="M9.77148 20.5139V28.9767C9.77148 31.5182 11.8314 33.5619 14.3931 33.5619H38.2936C40.8553 33.5619 42.9152 31.5182 42.9152 28.9767V20.5139C42.9152 17.9724 40.8553 15.9287 38.2936 15.9287H14.3931C11.8314 15.9549 9.77148 17.9986 9.77148 20.5139Z" fill="white"/>
<path d="M35.6778 66.7592C33.3274 66.7592 31.4259 64.8728 31.4259 62.5409V60.5758H21.2055V62.5409C21.2055 64.8728 19.304 66.7592 16.9536 66.7592H14.7352C12.3848 66.7592 10.4833 64.8728 10.4833 62.5409V60.5758C4.75249 60.4972 0.130859 55.8597 0.130859 50.1741V12.7854C0.130859 7.04744 4.83172 2.38369 10.6154 2.38369H14.0486V1.02124H37.368V2.38369H41.3823C47.1659 2.38369 51.8668 7.04744 51.8668 12.7854V50.1479C51.8668 55.6501 47.5356 60.1828 42.0689 60.5496V62.5409C42.0689 64.8728 40.1674 66.7592 37.817 66.7592H35.6778V66.7592Z" fill="white"/>
<mask id="path-12-inside-1_1684_2491" fill="white">
<path d="M37.8974 66.8901H35.679C33.2758 66.8901 31.2951 64.9513 31.2951 62.5408V60.7067H21.3388V62.5408C21.3388 64.9251 19.3845 66.8901 16.9548 66.8901H14.7364C12.3332 66.8901 10.3525 64.9513 10.3525 62.5408V60.7067C4.62163 60.5495 0 55.8596 0 50.174V12.7853C0 6.96874 4.78009 2.25258 10.6166 2.25258H13.9177V0.890137H37.5013V2.25258H41.3834C47.2463 2.25258 52 6.99494 52 12.7853V50.1478C52 55.65 47.6953 60.2351 42.2021 60.6543V62.5408C42.2814 64.9251 40.3271 66.8901 37.8974 66.8901ZM21.0747 60.4447H31.5592V62.5408C31.5592 64.7941 33.4078 66.6281 35.679 66.6281H37.8974C40.1686 66.6281 42.0173 64.7941 42.0173 62.5408V60.4185H42.1493C47.5632 60.0517 51.8151 55.5452 51.8151 50.1478V12.7853C51.8151 7.12594 47.1671 2.51459 41.4627 2.51459H37.3164V1.15215H14.261V2.51459H10.6694C4.96496 2.51459 0.316907 7.12594 0.316907 12.7853V50.1478C0.316907 55.7286 4.91214 60.3399 10.5373 60.4185H10.6694V62.5146C10.6694 64.7679 12.518 66.6019 14.7892 66.6019H17.0076C19.2788 66.6019 21.1275 64.7679 21.1275 62.5146V60.4447H21.0747Z"/>
</mask>
<path d="M31.2951 60.7067H37.2951V54.7067H31.2951V60.7067ZM21.3388 60.7067V54.7067H15.3388V60.7067H21.3388ZM10.3525 60.7067H16.3525V54.8691L10.517 54.709L10.3525 60.7067ZM13.9177 2.25258V8.25258H19.9177V2.25258H13.9177ZM13.9177 0.890137V-5.10986H7.91772V0.890137H13.9177ZM37.5013 0.890137H43.5013V-5.10986H37.5013V0.890137ZM37.5013 2.25258H31.5013V8.25258H37.5013V2.25258ZM42.2021 60.6543L41.7456 54.6717L36.2021 55.0948V60.6543H42.2021ZM42.2021 62.5408H36.2021V62.6405L36.2054 62.7401L42.2021 62.5408ZM31.5592 60.4447H37.5592V54.4447H31.5592V60.4447ZM42.0173 60.4185V54.4185H36.0173V60.4185H42.0173ZM42.1493 60.4185V66.4185H42.3523L42.5549 66.4048L42.1493 60.4185ZM37.3164 2.51459H31.3164V8.51459H37.3164V2.51459ZM37.3164 1.15215H43.3164V-4.84785H37.3164V1.15215ZM14.261 1.15215V-4.84785H8.26104V1.15215H14.261ZM14.261 2.51459V8.51459H20.261V2.51459H14.261ZM10.5373 60.4185L10.4535 66.4179L10.4954 66.4185H10.5373V60.4185ZM10.6694 60.4185H16.6694V54.4185H10.6694V60.4185ZM21.1275 60.4447H27.1275V54.4447H21.1275V60.4447ZM37.8974 60.8901H35.679V72.8901H37.8974V60.8901ZM35.679 60.8901C36.5209 60.8901 37.2951 61.5694 37.2951 62.5408H25.2951C25.2951 68.3331 30.0306 72.8901 35.679 72.8901V60.8901ZM37.2951 62.5408V60.7067H25.2951V62.5408H37.2951ZM31.2951 54.7067H21.3388V66.7067H31.2951V54.7067ZM15.3388 60.7067V62.5408H27.3388V60.7067H15.3388ZM15.3388 62.5408C15.3388 61.5901 16.0921 60.8901 16.9548 60.8901V72.8901C22.6768 72.8901 27.3388 68.2601 27.3388 62.5408H15.3388ZM16.9548 60.8901H14.7364V72.8901H16.9548V60.8901ZM14.7364 60.8901C15.5783 60.8901 16.3525 61.5694 16.3525 62.5408H4.35246C4.35246 68.3331 9.08803 72.8901 14.7364 72.8901V60.8901ZM16.3525 62.5408V60.7067H4.35246V62.5408H16.3525ZM10.517 54.709C7.97326 54.6392 6 52.549 6 50.174H-6C-6 59.1702 1.27 66.4598 10.1879 66.7045L10.517 54.709ZM6 50.174V12.7853H-6V50.174H6ZM6 12.7853C6 10.3369 8.03912 8.25258 10.6166 8.25258V-3.74742C1.52105 -3.74742 -6 3.60062 -6 12.7853H6ZM10.6166 8.25258H13.9177V-3.74742H10.6166V8.25258ZM19.9177 2.25258V0.890137H7.91772V2.25258H19.9177ZM13.9177 6.89014H37.5013V-5.10986H13.9177V6.89014ZM31.5013 0.890137V2.25258H43.5013V0.890137H31.5013ZM37.5013 8.25258H41.3834V-3.74742H37.5013V8.25258ZM41.3834 8.25258C43.9678 8.25258 46 10.3437 46 12.7853H58C58 3.64616 50.5248 -3.74742 41.3834 -3.74742V8.25258ZM46 12.7853V50.1478H58V12.7853H46ZM46 50.1478C46 52.4675 44.1572 54.4877 41.7456 54.6717L42.6587 66.6369C51.2334 65.9825 58 58.8325 58 50.1478H46ZM36.2021 60.6543V62.5408H48.2021V60.6543H36.2021ZM36.2054 62.7401C36.1674 61.5949 37.0765 60.8901 37.8974 60.8901V72.8901C43.5776 72.8901 48.3953 68.2553 48.1988 62.3415L36.2054 62.7401ZM21.0747 66.4447H31.5592V54.4447H21.0747V66.4447ZM25.5592 60.4447V62.5408H37.5592V60.4447H25.5592ZM25.5592 62.5408C25.5592 68.1525 30.1391 72.6281 35.679 72.6281V60.6281C36.6766 60.6281 37.5592 61.4356 37.5592 62.5408H25.5592ZM35.679 72.6281H37.8974V60.6281H35.679V72.6281ZM37.8974 72.6281C43.4374 72.6281 48.0173 68.1525 48.0173 62.5408H36.0173C36.0173 61.4356 36.8998 60.6281 37.8974 60.6281V72.6281ZM48.0173 62.5408V60.4185H36.0173V62.5408H48.0173ZM42.0173 66.4185H42.1493V54.4185H42.0173V66.4185ZM42.5549 66.4048C51.0754 65.8275 57.8151 58.7438 57.8151 50.1478H45.8151C45.8151 52.3465 44.051 54.2759 41.7437 54.4322L42.5549 66.4048ZM57.8151 50.1478V12.7853H45.8151V50.1478H57.8151ZM57.8151 12.7853C57.8151 3.76749 50.4359 -3.48541 41.4627 -3.48541V8.51459C43.8983 8.51459 45.8151 10.4844 45.8151 12.7853H57.8151ZM41.4627 -3.48541H37.3164V8.51459H41.4627V-3.48541ZM43.3164 2.51459V1.15215H31.3164V2.51459H43.3164ZM37.3164 -4.84785H14.261V7.15215H37.3164V-4.84785ZM8.26104 1.15215V2.51459H20.261V1.15215H8.26104ZM14.261 -3.48541H10.6694V8.51459H14.261V-3.48541ZM10.6694 -3.48541C1.69617 -3.48541 -5.68309 3.76749 -5.68309 12.7853H6.31691C6.31691 10.4844 8.23374 8.51459 10.6694 8.51459V-3.48541ZM-5.68309 12.7853V50.1478H6.31691V12.7853H-5.68309ZM-5.68309 50.1478C-5.68309 59.0628 1.60109 66.2942 10.4535 66.4179L10.6212 54.4191C8.22319 54.3856 6.31691 52.3943 6.31691 50.1478H-5.68309ZM10.5373 66.4185H10.6694V54.4185H10.5373V66.4185ZM4.66937 60.4185V62.5146H16.6694V60.4185H4.66937ZM4.66937 62.5146C4.66937 68.1263 9.24922 72.6019 14.7892 72.6019V60.6019C15.7868 60.6019 16.6694 61.4094 16.6694 62.5146H4.66937ZM14.7892 72.6019H17.0076V60.6019H14.7892V72.6019ZM17.0076 72.6019C22.5476 72.6019 27.1275 68.1263 27.1275 62.5146H15.1275C15.1275 61.4094 16.01 60.6019 17.0076 60.6019V72.6019ZM27.1275 62.5146V60.4447H15.1275V62.5146H27.1275ZM21.1275 54.4447H21.0747V66.4447H21.1275V54.4447Z" fill="black" mask="url(#path-12-inside-1_1684_2491)"/>
<path d="M41.7549 57.7986H10.7768C6.57767 57.7986 3.19727 54.4187 3.19727 50.279V12.6545C3.19727 8.4886 6.60407 5.13489 10.7768 5.13489H41.7549C45.954 5.13489 49.3344 8.5148 49.3344 12.6545V50.2528C49.3608 54.4449 45.954 57.7986 41.7549 57.7986Z" fill="#92DDEA"/>
<path d="M39.7736 58.637H12.7569C7.02602 58.637 2.35156 53.9995 2.35156 48.3139V14.6458C2.35156 8.96019 7.02602 4.32263 12.7569 4.32263H39.7736C45.5044 4.32263 50.1789 8.96019 50.1789 14.6458V48.3139C50.1789 53.9995 45.5044 58.637 39.7736 58.637ZM12.7569 5.97329C7.92394 5.97329 4.01535 9.87722 4.01535 14.6458V48.3139C4.01535 53.1087 7.95035 56.9864 12.7569 56.9864H39.7736C44.6065 56.9864 48.5151 53.0825 48.5151 48.3139V14.6458C48.5151 9.85102 44.5801 5.97329 39.7736 5.97329H12.7569V5.97329Z" fill="black"/>
<path d="M13.2308 49.3621C15.3603 49.3621 17.0865 47.6494 17.0865 45.5368C17.0865 43.4241 15.3603 41.7114 13.2308 41.7114C11.1013 41.7114 9.375 43.4241 9.375 45.5368C9.375 47.6494 11.1013 49.3621 13.2308 49.3621Z" fill="white"/>
<path d="M39.719 49.3621C41.8485 49.3621 43.5748 47.6494 43.5748 45.5368C43.5748 43.4241 41.8485 41.7114 39.719 41.7114C37.5896 41.7114 35.8633 43.4241 35.8633 45.5368C35.8633 47.6494 37.5896 49.3621 39.719 49.3621Z" fill="white"/>
<path d="M31.8232 12.3139H20.3087C19.5693 12.3139 18.9883 11.7375 18.9883 11.0038V10.3226C18.9883 9.58899 19.5693 9.01257 20.3087 9.01257H31.8232C32.5627 9.01257 33.1437 9.58899 33.1437 10.3226V11.0038C33.1437 11.7375 32.5627 12.3139 31.8232 12.3139Z" fill="white"/>
<path d="M35.1775 3.22168H16.3477V5.44875H35.1775V3.22168Z" fill="black"/>
<path d="M39.2443 33.5888H13.416C11.4089 33.5888 9.77148 31.9643 9.77148 29.973V19.5713C9.77148 17.58 11.4089 15.9556 13.416 15.9556H39.2443C41.2514 15.9556 42.8888 17.58 42.8888 19.5713V29.9468C42.9152 31.9643 41.2778 33.5888 39.2443 33.5888Z" fill="white"/>
<path d="M17.4029 65.2916H14.3658C13.4943 65.2916 12.7812 64.5842 12.7812 63.7196V58.8462C12.7812 57.9816 13.4943 57.2742 14.3658 57.2742H17.4029C18.2744 57.2742 18.9874 57.9816 18.9874 58.8462V63.7196C18.961 64.6104 18.2744 65.2916 17.4029 65.2916Z" fill="black"/>
<path d="M38.5845 65.2916H35.5475C34.6759 65.2916 33.9629 64.5842 33.9629 63.7196V58.8462C33.9629 57.9816 34.6759 57.2742 35.5475 57.2742H38.5845C39.456 57.2742 40.1691 57.9816 40.1691 58.8462V63.7196C40.1691 64.6104 39.456 65.2916 38.5845 65.2916Z" fill="black"/>
</svg>
