<svg width="68" height="65" viewBox="0 0 68 65" fill="none" xmlns="http://www.w3.org/2000/svg">
<path d="M15.3233 61.1068C21.7108 61.1068 26.8888 55.8949 26.8888 49.4656C26.8888 43.0364 21.7108 37.8245 15.3233 37.8245C8.93587 37.8245 3.75781 43.0364 3.75781 49.4656C3.75781 55.8949 8.93587 61.1068 15.3233 61.1068Z" fill="white"/>
<path d="M52.6749 61.1068C59.0624 61.1068 64.2404 55.8949 64.2404 49.4656C64.2404 43.0364 59.0624 37.8245 52.6749 37.8245C46.2874 37.8245 41.1094 43.0364 41.1094 49.4656C41.1094 55.8949 46.2874 61.1068 52.6749 61.1068Z" fill="white"/>
<path d="M52.6751 64.758C47.1026 64.758 42.2399 61.7419 39.5851 57.2177C38.2971 58.8051 36.3257 59.837 34.1177 59.837C31.8309 59.837 29.8069 58.7258 28.519 57.0325C25.8904 61.6361 20.9488 64.758 15.3237 64.758C6.93874 64.758 0.130859 57.9056 0.130859 49.4657C0.130859 41.0259 6.93874 34.1735 15.3237 34.1735C15.8232 34.1735 16.3226 34.1999 16.822 34.2528C16.7432 34.0941 16.6906 33.9354 16.638 33.7502C15.4552 30.8663 15.7969 27.6385 17.558 25.0986L23.6299 16.2355C24.4447 15.0449 25.5224 14.066 26.7578 13.4046C26.679 12.8754 26.6264 12.3198 26.6264 11.7642C26.6264 5.8378 31.4103 1.02258 37.2982 1.02258C43.1861 1.02258 47.9701 5.8378 47.9701 11.7642C47.9701 16.0767 45.3678 19.8866 41.6353 21.5534L41.793 21.7915L47.1815 22.4C50.7037 22.7969 53.2271 26.0246 52.8328 29.5435C52.6751 30.9457 52.0443 32.2421 51.098 33.2475L51.3608 34.1999C51.8077 34.1735 52.2283 34.147 52.6488 34.147C61.0338 34.147 67.8417 40.9994 67.8417 49.4393C67.8417 57.8791 61.0601 64.758 52.6751 64.758Z" fill="white"/>
<path d="M52.6757 64.8901C47.3398 64.8901 42.3456 62.0592 39.5593 57.4557C38.1925 59.0696 36.2211 59.9691 34.1183 59.9691C31.9366 59.9691 29.9126 58.9902 28.5458 57.2705C25.7859 61.9798 20.7391 64.8901 15.3243 64.8901C6.86045 64.8901 0 57.9583 0 49.4656C0 40.9728 6.88674 34.041 15.3243 34.041C15.7449 34.041 16.1917 34.0675 16.6123 34.0939C16.586 33.9881 16.5334 33.8823 16.5071 33.8029C15.3243 30.8926 15.666 27.6119 17.4271 25.0191L23.499 16.1559C24.2876 14.9918 25.3653 14.0129 26.6007 13.325C26.5218 12.8223 26.4955 12.2932 26.4955 11.7641C26.4955 5.78472 31.332 0.890137 37.2988 0.890137C43.2393 0.890137 48.1021 5.75826 48.1021 11.7641C48.1021 15.9707 45.6575 19.8335 41.8462 21.6061L41.8724 21.659L47.2084 22.2676C50.8094 22.6909 53.3854 25.9451 52.9648 29.5698C52.8071 30.9455 52.2026 32.2684 51.2563 33.3002L51.4666 34.0939C51.8608 34.0675 52.2814 34.041 52.6757 34.041C61.1395 34.041 68 40.9728 68 49.4656C68 57.9583 61.1132 64.8901 52.6757 64.8901ZM39.5856 57.0059L39.6908 57.1646C42.3982 61.7682 47.366 64.6256 52.6757 64.6256C60.9818 64.6256 67.7371 57.8261 67.7371 49.4656C67.7371 41.1051 60.9818 34.3056 52.6757 34.3056C52.2551 34.3056 51.8083 34.3321 51.3877 34.3585H51.2826L50.9671 33.2209L51.0197 33.1679C51.966 32.1626 52.5706 30.8662 52.702 29.5168C53.0963 26.0509 50.5991 22.9025 47.1558 22.5057L41.7147 21.8707L41.4256 21.4474L41.5833 21.368C45.3684 19.6483 47.8392 15.8649 47.8392 11.6847C47.8392 5.83763 43.1078 1.07534 37.2988 1.07534C31.4897 1.07534 26.7584 5.83763 26.7584 11.6847C26.7584 12.2138 26.811 12.7694 26.8898 13.2986L26.9161 13.3779L26.8373 13.4309C25.6019 14.0923 24.5504 15.0712 23.7619 16.2353L17.69 25.0985C15.9814 27.6119 15.6397 30.8132 16.7963 33.6177C16.8488 33.8029 16.9014 33.9617 16.9803 34.1204L17.0591 34.3321L16.8489 34.3056C16.3494 34.2527 15.85 34.2262 15.3769 34.2262C7.07075 34.2262 0.315426 41.0257 0.315426 49.3862C0.315426 57.7467 7.07075 64.5462 15.3769 64.5462C20.7654 64.5462 25.7858 61.6094 28.4669 56.9001L28.5721 56.7149L28.7035 56.8736C30.0178 58.6198 32.0155 59.6252 34.1971 59.6252C36.2737 59.6252 38.2188 58.6992 39.5593 57.0588L39.5856 57.0059Z" fill="black"/>
<path d="M52.6751 36.3957C51.6762 36.3957 50.7037 36.5016 49.7574 36.7397L48.5483 32.4536C49.6523 31.7922 50.4409 30.6545 50.5986 29.2787C50.8614 26.977 49.2054 24.8868 46.9186 24.6223L40.5576 23.8815L37.9028 20.1775C42.2661 19.86 45.7095 16.1824 45.7095 11.7112C45.7095 7.02822 41.9244 3.21838 37.2719 3.21838C32.6194 3.21838 28.8343 7.02822 28.8343 11.7112C28.8343 12.743 29.0183 13.7484 29.3601 14.7008C27.7829 15.1241 26.3635 16.0766 25.4173 17.4788L19.3454 26.342C18.0048 28.2998 17.7683 30.7603 18.6882 32.9563C18.7934 33.3267 18.9511 33.6971 19.1614 34.0146L18.3465 36.7661C17.374 36.528 16.3226 36.3957 15.2712 36.3957C8.12156 36.3957 2.3125 42.2428 2.3125 49.4391C2.3125 56.6355 8.12156 62.4825 15.2712 62.4825C22.4207 62.4825 28.2298 56.6355 28.2298 49.4391C28.2298 43.7773 24.6287 38.9356 19.5819 37.1365L20.1602 35.2316C20.3179 35.3639 20.4493 35.4697 20.607 35.5756C20.7648 35.7078 20.9225 35.8401 21.0802 35.946C21.3693 36.1312 21.6585 36.3164 22.0002 36.4751L29.2286 41.0787V52.7727C29.2286 55.4449 31.384 57.6144 34.0388 57.6144C36.6937 57.6144 38.849 55.4449 38.849 52.7727V42.9836L47.786 34.8348L48.4432 37.1101C43.3438 38.8563 39.6376 43.7508 39.6376 49.4656C39.6376 56.662 45.4466 62.509 52.5962 62.509C59.7458 62.509 65.5549 56.662 65.5549 49.4656C65.5549 42.2692 59.8247 36.3957 52.6751 36.3957ZM26.9681 49.4656C26.9681 55.9212 21.7373 61.1861 15.3237 61.1861C8.9101 61.1861 3.67934 55.9212 3.67934 49.4656C3.67934 43.01 8.9101 37.745 15.3237 37.745C16.2437 37.745 17.1637 37.8509 18.0048 38.0625L15.6128 46.1849C15.5077 46.1849 15.4289 46.1584 15.3237 46.1584C13.51 46.1584 12.0381 47.64 12.0381 49.4656C12.0381 51.2911 13.51 52.7727 15.3237 52.7727C17.1374 52.7727 18.6094 51.2911 18.6094 49.4656C18.6094 48.1956 17.8997 47.1109 16.8745 46.5553L19.2665 38.4329C23.7613 40.0468 26.9681 44.3858 26.9681 49.4656ZM35.9839 35.4697C36.2468 35.6285 36.4571 35.8137 36.6674 36.0253C36.4571 35.8401 36.2468 35.6285 35.9839 35.4697L35.0377 34.8612L35.9839 35.4697ZM32.9611 33.5384L30.5692 32.0038L34.0388 26.924L30.5692 32.0038L32.9611 33.5384ZM19.6345 31.5276C19.5819 31.2895 19.5556 31.0778 19.5294 30.8397C19.5556 31.0778 19.5819 31.2895 19.6345 31.5276ZM30.4115 15.8649C30.4903 15.8649 30.5429 15.8385 30.6218 15.8385C30.5692 15.8385 30.4903 15.8385 30.4115 15.8649ZM30.7532 15.8385C30.832 15.8385 30.9372 15.8385 31.016 15.8385C30.9372 15.812 30.832 15.812 30.7532 15.8385ZM31.0949 15.812C31.2 15.812 31.3052 15.812 31.4366 15.812C31.3315 15.812 31.2 15.812 31.0949 15.812ZM36.3782 19.6748C36.2731 19.3573 36.1417 19.0663 36.0102 18.7752C36.1154 18.8017 36.2205 18.8017 36.3256 18.8281C36.2205 18.8017 36.1154 18.8017 36.0102 18.7752C36.1417 19.0663 36.2731 19.3573 36.3782 19.6748ZM37.3245 30.6016C37.1931 30.5487 37.0616 30.4958 36.9302 30.4164C37.0616 30.4958 37.1931 30.5487 37.3245 30.6016ZM37.9028 30.7339L46.1038 31.6863C46.2089 31.6863 46.3141 31.7128 46.4455 31.7128C46.3403 31.7128 46.2352 31.7128 46.1038 31.6863L37.9028 30.7339C37.8239 30.7339 37.745 30.7074 37.6662 30.681C37.745 30.7074 37.8239 30.7339 37.9028 30.7339ZM49.3106 29.12C49.2843 29.3846 49.2054 29.6491 49.1003 29.9137C49.2054 29.6756 49.258 29.411 49.3106 29.12C49.3894 28.5379 49.258 27.9559 48.9951 27.4532C49.258 27.9559 49.3632 28.5379 49.3106 29.12ZM48.706 27.0034C48.6272 26.8976 48.522 26.7918 48.4169 26.7124C48.522 26.7918 48.6009 26.8976 48.706 27.0034ZM42.897 25.4954L39.8216 25.1514L42.897 25.4954ZM43.3701 15.4416C42.9496 16.1295 42.4238 16.738 41.8193 17.2672C41.6353 17.4259 41.4513 17.5582 41.2673 17.6905C41.4513 17.5582 41.6353 17.4259 41.8193 17.2672C42.4238 16.738 42.9496 16.1295 43.3701 15.4416C44.0272 14.3569 44.3952 13.0869 44.3952 11.7376C44.3952 11.1555 44.3164 10.5735 44.185 10.0179C44.3164 10.5735 44.3952 11.1291 44.3952 11.7376C44.3952 13.0869 44.0272 14.3569 43.3701 15.4416ZM42.9232 7.39862C42.9495 7.45154 43.0021 7.478 43.0284 7.53091C43.0021 7.478 42.9758 7.42508 42.9232 7.39862ZM43.7644 8.7744C43.9221 9.11834 44.0535 9.48874 44.1587 9.85915C44.0535 9.46229 43.9221 9.11834 43.7644 8.7744ZM33.9074 5.41433C33.8811 5.44079 33.8548 5.44079 33.8023 5.46725C33.8286 5.46725 33.8811 5.44079 33.9074 5.41433ZM33.4343 5.70536C33.3291 5.75828 33.2503 5.83765 33.1451 5.91702C33.224 5.83765 33.3291 5.78473 33.4343 5.70536ZM32.9611 6.04931C32.8297 6.15513 32.672 6.26096 32.5406 6.39325C32.672 6.28742 32.8034 6.15513 32.9611 6.04931ZM32.2514 6.65782C30.9635 7.95423 30.1749 9.75332 30.1749 11.7112C30.1749 13.2457 30.648 14.6479 31.4629 15.812C30.648 14.6479 30.1749 13.2457 30.1749 11.7112C30.1749 9.75332 30.9635 7.95423 32.2514 6.65782ZM30.28 15.8914C30.2012 15.8914 30.1486 15.9178 30.0697 15.9178C30.1486 15.8914 30.2275 15.8914 30.28 15.8914ZM29.9383 15.9443C29.8857 15.9708 29.8069 15.9708 29.7543 15.9972C29.8069 15.9708 29.8857 15.9443 29.9383 15.9443ZM29.5966 16.0237C29.5441 16.0501 29.4652 16.0501 29.4126 16.0766C29.4915 16.0501 29.5441 16.0501 29.5966 16.0237ZM29.2812 16.1295C29.2286 16.156 29.1498 16.1824 29.0972 16.1824C29.1498 16.156 29.2286 16.156 29.2812 16.1295ZM28.9658 16.2618C28.9132 16.2882 28.8606 16.3147 28.7818 16.3412C28.8344 16.2882 28.8869 16.2618 28.9658 16.2618ZM28.6504 16.3941C28.5978 16.4205 28.5452 16.447 28.4663 16.4734C28.5189 16.447 28.5978 16.4205 28.6504 16.3941ZM28.3349 16.5528C28.2823 16.5793 28.2298 16.6057 28.1772 16.6586C28.2298 16.6322 28.2823 16.5793 28.3349 16.5528ZM28.0458 16.738C27.9932 16.7645 27.9407 16.8174 27.8881 16.8438C27.9407 16.8174 27.9932 16.7645 28.0458 16.738ZM27.7567 16.9497C27.7041 17.0026 27.6515 17.029 27.599 17.082C27.6515 17.029 27.7041 16.9761 27.7567 16.9497ZM27.4938 17.1613C27.4412 17.2143 27.3887 17.2407 27.3361 17.2936C27.3887 17.2407 27.4412 17.2143 27.4938 17.1613ZM27.231 17.3995C27.1784 17.4524 27.1258 17.5053 27.0732 17.5582C27.1258 17.5053 27.1784 17.4524 27.231 17.3995ZM20.4756 27.1092L26.5475 18.2461C26.6264 18.1403 26.6789 18.0344 26.7578 17.9551C26.6789 18.0609 26.6001 18.1403 26.5475 18.2461L20.4756 27.1092C20.3442 27.3209 20.2128 27.5326 20.1076 27.7442C20.0025 27.9294 19.9236 28.1146 19.8711 28.3263C19.9499 28.1411 20.0288 27.9294 20.1076 27.7442C20.2128 27.5326 20.3442 27.3209 20.4756 27.1092ZM26.9944 17.664C26.9418 17.7169 26.8892 17.7963 26.8367 17.8492C26.8892 17.7699 26.9155 17.7169 26.9944 17.664ZM19.5031 30.1254C19.5031 30.2312 19.5031 30.3635 19.5031 30.4693C19.5031 30.3635 19.5031 30.2577 19.5031 30.1254ZM31.4366 54.9952C30.9372 54.3866 30.648 53.6194 30.648 52.7727V40.3908L22.7362 35.3374C22.6047 35.2845 22.447 35.2052 22.3156 35.1258C22.1842 35.0464 22.0527 34.967 21.9213 34.8877C22.0527 34.967 22.1842 35.0464 22.3156 35.1258C22.447 35.2052 22.5785 35.2845 22.7362 35.3374L30.648 40.3908V52.7727C30.6218 53.6194 30.9372 54.3866 31.4366 54.9952C31.568 55.1804 31.7257 55.3391 31.9097 55.4714C31.7257 55.3391 31.568 55.1804 31.4366 54.9952ZM34.1177 56.2651C34.2491 56.2651 34.3543 56.2651 34.4857 56.2386C34.3543 56.2651 34.2491 56.2651 34.1177 56.2651ZM37.6136 52.7727C37.6136 53.249 37.5085 53.7252 37.3508 54.1485C37.5085 53.6987 37.6136 53.249 37.6136 52.7727ZM38.9279 41.1845V38.4329C38.9279 37.0572 38.3496 35.7608 37.3508 34.8612H45.8409L38.9279 41.1845ZM35.4319 33.5384L32.4354 31.6334L34.0651 29.2258L34.8537 30.3106C35.5371 31.263 36.6148 31.898 37.7713 32.0303L45.9723 32.9827C46.13 33.0092 46.2878 33.0092 46.4455 33.0092C46.7346 33.0092 47.0238 32.9827 47.3129 32.9034L47.4969 33.5384H35.4319ZM52.6751 61.1861C46.2615 61.1861 41.0307 55.9212 41.0307 49.4656C41.0307 44.3329 44.3164 39.9675 48.8637 38.38L51.1768 46.5288C50.1254 47.0844 49.4157 48.1956 49.4157 49.4656C49.4157 51.2911 50.8877 52.7727 52.7014 52.7727C54.5151 52.7727 55.987 51.2911 55.987 49.4656C55.987 47.64 54.5151 46.1584 52.7014 46.1584C52.6225 46.1584 52.5437 46.1584 52.4648 46.1584L50.1517 38.0096C50.9665 37.8244 51.834 37.7186 52.7014 37.7186C59.115 37.7186 64.3457 42.9836 64.3457 49.4391C64.3457 55.8947 59.0887 61.1861 52.6751 61.1861Z" fill="black"/>
<path d="M15.3241 50.1264C15.2715 50.1264 15.1927 50.1264 15.1401 50.1C14.7984 49.9941 14.5881 49.6237 14.6932 49.2798L19.2143 34.0404C19.2932 33.7494 19.556 33.5642 19.8452 33.5642H47.5498C47.8127 33.5642 48.0755 33.723 48.1544 33.9875C48.2595 34.2521 48.1807 34.5431 47.9704 34.7283L37.9031 43.909C37.6403 44.1471 37.2197 44.1471 36.9831 43.8561C36.7466 43.5915 36.7466 43.1682 37.0357 42.9301L45.8413 34.8871H20.3183L15.9549 49.6767C15.8761 49.9412 15.6132 50.1264 15.3241 50.1264Z" fill="black"/>
<path d="M15.3239 62.5086C8.17428 62.5086 2.36523 56.6615 2.36523 49.4652C2.36523 42.2688 8.17428 36.4218 15.3239 36.4218C22.4735 36.4218 28.2825 42.2688 28.2825 49.4652C28.2825 56.6615 22.4735 62.5086 15.3239 62.5086ZM15.3239 37.7182C8.91026 37.7182 3.6795 42.9831 3.6795 49.4387C3.6795 55.8943 8.91026 61.1592 15.3239 61.1592C21.7375 61.1592 26.9683 55.8943 26.9683 49.4387C26.9683 42.9831 21.7375 37.7182 15.3239 37.7182Z" fill="black"/>
<path d="M15.3247 52.7725C17.1393 52.7725 18.6104 51.2918 18.6104 49.4654C18.6104 47.6389 17.1393 46.1582 15.3247 46.1582C13.5101 46.1582 12.0391 47.6389 12.0391 49.4654C12.0391 51.2918 13.5101 52.7725 15.3247 52.7725Z" fill="black"/>
<path d="M52.6754 62.5086C45.5258 62.5086 39.7168 56.6615 39.7168 49.4652C39.7168 42.2688 45.5258 36.4218 52.6754 36.4218C59.825 36.4218 65.6341 42.2688 65.6341 49.4652C65.6341 56.6615 59.825 62.5086 52.6754 62.5086ZM52.6754 37.7182C46.2618 37.7182 41.0311 42.9831 41.0311 49.4387C41.0311 55.8943 46.2618 61.1592 52.6754 61.1592C59.089 61.1592 64.3198 55.8943 64.3198 49.4387C64.3198 42.9831 59.089 37.7182 52.6754 37.7182Z" fill="black"/>
<path d="M52.6743 52.7725C54.4889 52.7725 55.96 51.2918 55.96 49.4654C55.96 47.6389 54.4889 46.1582 52.6743 46.1582C50.8597 46.1582 49.3887 47.6389 49.3887 49.4654C49.3887 51.2918 50.8597 52.7725 52.6743 52.7725Z" fill="black"/>
<path d="M52.6748 50.1266C52.3856 50.1266 52.1228 49.9414 52.0439 49.6503L45.8143 27.6115C45.7092 27.2675 45.9195 26.8971 46.2612 26.7913C46.6029 26.6855 46.9709 26.8971 47.076 27.2411L53.3056 49.2799C53.4108 49.6239 53.2005 49.9943 52.8588 50.1001C52.7799 50.1001 52.7273 50.1266 52.6748 50.1266Z" fill="black"/>
<path d="M46.7639 25.9181L39.8247 25.1244L36.5916 20.6002C36.5127 19.9652 36.3024 19.3302 35.987 18.7482C36.4075 18.8275 36.8281 18.8805 37.275 18.8805C41.1915 18.8805 44.3983 15.6791 44.3983 11.7106C44.3983 7.74197 41.2178 4.54065 37.275 4.54065C33.3322 4.54065 30.1517 7.74197 30.1517 11.7106C30.1517 13.2451 30.6248 14.6473 31.4396 15.8114C29.5471 15.7056 27.6808 16.5522 26.5243 18.219L20.4524 27.0822C19.3221 28.7225 19.217 30.7862 19.953 32.4795C20.1895 33.2732 20.689 34.014 21.425 34.4902C21.5564 34.6225 21.7141 34.7283 21.8718 34.8342C22.1347 35.0194 22.3975 35.1781 22.6866 35.2839L30.5985 40.3373V52.7722C30.5985 54.7035 32.1493 56.291 34.0945 56.291C36.0133 56.291 37.5904 54.73 37.5904 52.7722V38.4588C37.5904 37.2682 36.9858 36.1306 35.9607 35.4956L30.5459 32.0562L34.0156 26.9764L35.8819 29.5692C36.355 30.2306 37.091 30.6539 37.8795 30.7598L46.0805 31.7122C46.1857 31.7122 46.2908 31.7387 46.4223 31.7387C47.8679 31.7387 49.1033 30.6539 49.261 29.1723C49.4713 27.5584 48.3411 26.1033 46.7639 25.9181Z" fill="#92DDEA"/>
<path d="M37.2746 4.56725C41.1911 4.56725 44.3979 7.76857 44.3979 11.7372C44.3979 15.7057 41.2173 18.9071 37.2746 18.9071C36.8277 18.9071 36.4071 18.8541 35.9866 18.7748C36.302 19.3568 36.486 19.9918 36.5911 20.6268L39.8242 25.151L46.7635 25.9447C48.3406 26.1299 49.4709 27.5586 49.2869 29.146C49.1292 30.6276 47.8675 31.7123 46.4481 31.7123C46.343 31.7123 46.2378 31.7123 46.1064 31.6859L37.9054 30.7334C37.0906 30.6541 36.3809 30.2043 35.9077 29.5429L34.0415 26.95L30.5718 32.0298L35.9866 35.4693C36.9854 36.1042 37.6163 37.2419 37.6163 38.4325V52.7723C37.6163 54.7037 36.0654 56.2911 34.1203 56.2911C32.2015 56.2911 30.6244 54.7301 30.6244 52.7723V40.3903L22.7125 35.337C22.4234 35.2047 22.1605 35.046 21.8977 34.8872C21.74 34.7814 21.5823 34.6756 21.4508 34.5433C20.6886 34.067 20.1891 33.3262 19.9789 32.5325C19.2429 30.8128 19.348 28.7756 20.4783 27.1353L26.5502 18.2721C27.6279 16.7111 29.3627 15.8645 31.1238 15.8645C31.2289 15.8645 31.3604 15.8645 31.4655 15.8645C30.6507 14.7004 30.1775 13.2981 30.1775 11.7636C30.1775 7.76857 33.358 4.56725 37.2746 4.56725ZM37.2746 3.24438C32.6221 3.24438 28.837 7.05422 28.837 11.7372C28.837 12.769 29.021 13.7744 29.3627 14.7268C27.7856 15.1501 26.3662 16.1026 25.4199 17.5048L19.348 26.368C18.0075 28.3258 17.7709 30.7863 18.6909 32.9823C19.0063 34.067 19.6897 34.993 20.636 35.6016C20.7937 35.7338 20.9514 35.8661 21.1091 35.972C21.3982 36.1572 21.6874 36.3424 22.0291 36.5011L29.2575 41.1047V52.7723C29.2575 55.4445 31.413 57.614 34.0678 57.614C36.7226 57.614 38.8779 55.4445 38.8779 52.7723V38.4589C38.8779 36.7921 38.0368 35.2576 36.6437 34.3845L32.3855 31.6594L34.0152 29.2518L34.8037 30.3366C35.4871 31.289 36.5649 31.924 37.7214 32.0563L45.9224 33.0088C46.0801 33.0352 46.2379 33.0352 46.3956 33.0352C48.5247 33.0352 50.312 31.4213 50.5486 29.3047C50.8115 27.003 49.1555 24.9128 46.8687 24.6483L40.5077 23.9075L37.8528 20.2035C42.2162 19.886 45.6596 16.2084 45.6596 11.7372C45.7121 7.05422 41.927 3.24438 37.2746 3.24438Z" fill="black"/>
</svg>
