<svg width="46" height="46" viewBox="0 0 46 46" fill="none" xmlns="http://www.w3.org/2000/svg">
<mask id="path-1-inside-1_1684_2563" fill="white">
<path fill-rule="evenodd" clip-rule="evenodd" d="M32.4778 0.138959C30.0249 0.0273344 29.2436 1.04893e-05 22.9985 0C16.7553 1.04894e-05 15.9712 0.0273344 13.5184 0.138959C11.0698 0.251084 9.39846 0.638729 7.93603 1.2075C6.42329 1.79496 5.14007 2.58079 3.86165 3.85969C2.58226 5.1381 1.79642 6.42131 1.20704 7.93356C0.636825 9.39646 0.248689 11.0683 0.138479 13.5159C0.0287495 15.9692 0 16.7536 0 23C0 29.2464 0.0277945 30.0279 0.138962 32.4813C0.251567 34.9298 0.639224 36.6011 1.20752 38.0636C1.79546 39.5763 2.58131 40.8595 3.86021 42.1379C5.13816 43.4173 6.42137 44.205 7.93315 44.7925C9.39654 45.3613 11.0684 45.7489 13.5164 45.861C15.9698 45.9727 16.7532 46 22.9992 46C29.2462 46 30.0278 45.9727 32.4811 45.861C34.9297 45.7489 36.603 45.3613 38.0664 44.7925C39.5786 44.205 40.8599 43.4173 42.1379 42.1379C43.4173 40.8595 44.2031 39.5763 44.7925 38.064C45.3579 36.6011 45.746 34.9293 45.861 32.4817C45.9712 30.0284 46 29.2464 46 23C46 16.7536 45.9712 15.9697 45.861 13.5163C45.746 11.0678 45.3579 9.39646 44.7925 7.93404C44.2031 6.42131 43.4173 5.1381 42.1379 3.85969C40.8585 2.58031 39.5791 1.79448 38.0649 1.2075C36.5987 0.638729 34.9263 0.251084 32.4778 0.138959ZM32.7661 11.328C32.7661 9.65647 34.1217 8.30231 35.7925 8.30231C37.4633 8.30231 38.8189 9.657 38.8189 11.328C38.8189 12.999 37.4633 14.3548 35.7925 14.3548C34.1217 14.3548 32.7661 12.999 32.7661 11.328ZM9.37891 24.7919C9.37891 17.6385 15.1779 11.8388 22.3304 11.8388C29.4828 11.8388 35.2797 17.6385 35.2797 24.7919C35.2797 31.9452 29.4828 37.7423 22.3304 37.7423C15.1779 37.7423 9.37891 31.9452 9.37891 24.7919ZM30.737 24.7919C30.737 20.1482 26.9729 16.3842 22.3304 16.3842C17.6873 16.3842 13.9237 20.1482 13.9237 24.7919C13.9237 29.435 17.6873 33.1995 22.3304 33.1995C26.9729 33.1995 30.737 29.435 30.737 24.7919Z"/>
</mask>
<path fill-rule="evenodd" clip-rule="evenodd" d="M32.4778 0.138959C30.0249 0.0273344 29.2436 1.04893e-05 22.9985 0C16.7553 1.04894e-05 15.9712 0.0273344 13.5184 0.138959C11.0698 0.251084 9.39846 0.638729 7.93603 1.2075C6.42329 1.79496 5.14007 2.58079 3.86165 3.85969C2.58226 5.1381 1.79642 6.42131 1.20704 7.93356C0.636825 9.39646 0.248689 11.0683 0.138479 13.5159C0.0287495 15.9692 0 16.7536 0 23C0 29.2464 0.0277945 30.0279 0.138962 32.4813C0.251567 34.9298 0.639224 36.6011 1.20752 38.0636C1.79546 39.5763 2.58131 40.8595 3.86021 42.1379C5.13816 43.4173 6.42137 44.205 7.93315 44.7925C9.39654 45.3613 11.0684 45.7489 13.5164 45.861C15.9698 45.9727 16.7532 46 22.9992 46C29.2462 46 30.0278 45.9727 32.4811 45.861C34.9297 45.7489 36.603 45.3613 38.0664 44.7925C39.5786 44.205 40.8599 43.4173 42.1379 42.1379C43.4173 40.8595 44.2031 39.5763 44.7925 38.064C45.3579 36.6011 45.746 34.9293 45.861 32.4817C45.9712 30.0284 46 29.2464 46 23C46 16.7536 45.9712 15.9697 45.861 13.5163C45.746 11.0678 45.3579 9.39646 44.7925 7.93404C44.2031 6.42131 43.4173 5.1381 42.1379 3.85969C40.8585 2.58031 39.5791 1.79448 38.0649 1.2075C36.5987 0.638729 34.9263 0.251084 32.4778 0.138959ZM32.7661 11.328C32.7661 9.65647 34.1217 8.30231 35.7925 8.30231C37.4633 8.30231 38.8189 9.657 38.8189 11.328C38.8189 12.999 37.4633 14.3548 35.7925 14.3548C34.1217 14.3548 32.7661 12.999 32.7661 11.328ZM9.37891 24.7919C9.37891 17.6385 15.1779 11.8388 22.3304 11.8388C29.4828 11.8388 35.2797 17.6385 35.2797 24.7919C35.2797 31.9452 29.4828 37.7423 22.3304 37.7423C15.1779 37.7423 9.37891 31.9452 9.37891 24.7919ZM30.737 24.7919C30.737 20.1482 26.9729 16.3842 22.3304 16.3842C17.6873 16.3842 13.9237 20.1482 13.9237 24.7919C13.9237 29.435 17.6873 33.1995 22.3304 33.1995C26.9729 33.1995 30.737 29.435 30.737 24.7919Z" fill="#0E6372"/>
<path d="M22.9985 0L22.9985 -0.8L22.9985 -0.8L22.9985 0ZM32.4778 0.138959L32.5144 -0.660204L32.5142 -0.660214L32.4778 0.138959ZM13.5184 0.138959L13.482 -0.660214L13.4818 -0.660204L13.5184 0.138959ZM7.93603 1.2075L8.22564 1.95324L8.22601 1.9531L7.93603 1.2075ZM3.86165 3.85969L4.42712 4.42559L4.42743 4.42527L3.86165 3.85969ZM1.20704 7.93356L1.95242 8.2241L1.95243 8.22407L1.20704 7.93356ZM0.138479 13.5159L-0.660711 13.4799L-0.660722 13.4801L0.138479 13.5159ZM0.138962 32.4813L-0.660218 32.5175L-0.660193 32.518L0.138962 32.4813ZM1.20752 38.0636L0.461844 38.3533L0.461859 38.3534L1.20752 38.0636ZM3.86021 42.1379L4.42621 41.5725L4.42579 41.5721L3.86021 42.1379ZM7.93315 44.7925L8.22297 44.0468L8.22291 44.0468L7.93315 44.7925ZM13.5164 45.861L13.4798 46.6602L13.4801 46.6602L13.5164 45.861ZM32.4811 45.861L32.5175 46.6602L32.5177 46.6602L32.4811 45.861ZM38.0664 44.7925L37.7767 44.0468L37.7766 44.0468L38.0664 44.7925ZM42.1379 42.1379L41.5724 41.572L41.5719 41.5725L42.1379 42.1379ZM44.7925 38.064L45.5379 38.3545L45.5387 38.3525L44.7925 38.064ZM45.861 32.4817L46.6602 32.5193L46.6602 32.5176L45.861 32.4817ZM45.861 13.5163L46.6602 13.4804L46.6602 13.4788L45.861 13.5163ZM44.7925 7.93404L45.5387 7.64554L45.5379 7.64362L44.7925 7.93404ZM42.1379 3.85969L41.5722 4.42538L41.5724 4.42559L42.1379 3.85969ZM38.0649 1.2075L37.7756 1.95335L37.7758 1.95341L38.0649 1.2075ZM22.9985 0.8C29.2394 0.80001 30.0066 0.82733 32.4414 0.938132L32.5142 -0.660214C30.0432 -0.772661 29.2477 -0.79999 22.9985 -0.8L22.9985 0.8ZM13.5547 0.938132C15.9895 0.82733 16.7595 0.80001 22.9985 0.8L22.9985 -0.8C16.7512 -0.79999 15.953 -0.772661 13.482 -0.660214L13.5547 0.938132ZM8.22601 1.9531C9.59747 1.4197 11.1818 1.04679 13.555 0.938121L13.4818 -0.660204C10.9578 -0.544625 9.19945 -0.142245 7.64605 0.461905L8.22601 1.9531ZM4.42743 4.42527C5.62165 3.23061 6.80874 2.50348 8.22563 1.95324L7.64643 0.461758C6.03785 1.08644 4.65849 1.93097 3.29586 3.29411L4.42743 4.42527ZM1.95243 8.22407C2.50471 6.80701 3.23205 5.61975 4.42712 4.42559L3.29617 3.29379C1.93248 4.65645 1.08813 6.03562 0.461647 7.64306L1.95243 8.22407ZM0.93767 13.5518C1.04446 11.1802 1.41778 9.59573 1.95242 8.2241L0.461659 7.64303C-0.144126 9.19718 -0.547084 10.9564 -0.660711 13.4799L0.93767 13.5518ZM0.8 23C0.8 16.7582 0.828733 15.9874 0.93768 13.5516L-0.660722 13.4801C-0.771234 15.9509 -0.8 16.749 -0.8 23H0.8ZM0.938142 32.4451C0.827786 30.0096 0.8 29.2421 0.8 23H-0.8C-0.8 29.2507 -0.772197 30.0462 -0.660218 32.5175L0.938142 32.4451ZM1.9532 37.7738C1.42019 36.4022 1.04726 34.8177 0.938117 32.4445L-0.660193 32.518C-0.544123 35.0419 -0.141742 36.8001 0.461844 38.3533L1.9532 37.7738ZM4.42579 41.5721C3.23113 40.3779 2.50393 39.1908 1.95318 37.7737L0.461859 38.3534C1.08699 39.9618 1.93149 41.3411 3.29464 42.7037L4.42579 41.5721ZM8.22291 44.0468C6.80743 43.4968 5.62025 42.7679 4.42621 41.5725L3.29421 42.7033C4.65607 44.0667 6.03531 44.9133 7.64339 45.5382L8.22291 44.0468ZM13.553 45.0619C11.1804 44.9532 9.5955 44.5803 8.22297 44.0468L7.64334 45.5382C9.19758 46.1422 10.9563 46.5446 13.4798 46.6602L13.553 45.0619ZM22.9992 45.2C16.7574 45.2 15.9881 45.1727 13.5528 45.0619L13.4801 46.6602C15.9515 46.7727 16.7491 46.8 22.9992 46.8V45.2ZM32.4448 45.0619C30.0095 45.1727 29.242 45.2 22.9992 45.2V46.8C29.2503 46.8 30.0461 46.7727 32.5175 46.6602L32.4448 45.0619ZM37.7766 44.0468C36.4041 44.5803 34.8178 44.9532 32.4446 45.0619L32.5177 46.6602C35.0417 46.5446 36.8019 46.1423 38.3562 45.5382L37.7766 44.0468ZM41.5719 41.5725C40.3776 42.7681 39.1923 43.4969 37.7767 44.0468L38.3561 45.5382C39.965 44.9132 41.3423 44.0664 42.7039 42.7033L41.5719 41.5725ZM44.0471 37.7735C43.4948 39.1906 42.7675 40.3779 41.5724 41.572L42.7034 42.7038C44.0671 41.3411 44.9114 39.962 45.5379 38.3545L44.0471 37.7735ZM45.0619 32.4442C44.9504 34.8167 44.577 36.4025 44.0463 37.7756L45.5387 38.3525C46.1388 36.7998 46.5416 35.042 46.6602 32.5193L45.0619 32.4442ZM45.2 23C45.2 29.2418 45.1713 30.0101 45.0618 32.4458L46.6602 32.5176C46.7712 30.0467 46.8 29.251 46.8 23H45.2ZM45.0618 13.5522C45.1713 15.988 45.2 16.7581 45.2 23H46.8C46.8 16.749 46.7712 15.9514 46.6602 13.4804L45.0618 13.5522ZM44.0463 8.22254C44.577 9.59516 44.9504 11.1804 45.0619 13.5539L46.6602 13.4788C46.5416 10.9551 46.1388 9.19775 45.5387 7.64555L44.0463 8.22254ZM41.5724 4.42559C42.7675 5.61974 43.4948 6.80697 44.0471 8.22447L45.5379 7.64362C44.9114 6.03566 44.0671 4.65647 42.7034 3.29379L41.5724 4.42559ZM37.7758 1.95341C39.1931 2.50285 40.3765 3.22968 41.5722 4.42538L42.7036 3.294C41.3405 1.93095 39.9651 1.08611 38.3541 0.461586L37.7758 1.95341ZM32.4412 0.938121C34.8142 1.04679 36.3999 1.41969 37.7756 1.95335L38.3543 0.461649C36.7975 -0.142229 35.0385 -0.544621 32.5144 -0.660204L32.4412 0.938121ZM35.7925 7.50231C33.6802 7.50231 31.9661 9.21428 31.9661 11.328H33.5661C33.5661 10.0987 34.5632 9.10231 35.7925 9.10231V7.50231ZM39.6189 11.328C39.6189 9.2149 37.9049 7.50231 35.7925 7.50231V9.10231C37.0218 9.10231 38.0189 10.0991 38.0189 11.328H39.6189ZM35.7925 15.1548C37.9053 15.1548 39.6189 13.4408 39.6189 11.328H38.0189C38.0189 12.5573 37.0214 13.5548 35.7925 13.5548V15.1548ZM31.9661 11.328C31.9661 13.4408 33.6798 15.1548 35.7925 15.1548V13.5548C34.5636 13.5548 33.5661 12.5573 33.5661 11.328H31.9661ZM22.3304 11.0388C14.736 11.0388 8.57891 17.1968 8.57891 24.7919H10.1789C10.1789 18.0802 15.6198 12.6388 22.3304 12.6388V11.0388ZM36.0797 24.7919C36.0797 17.1969 29.9249 11.0388 22.3304 11.0388V12.6388C29.0407 12.6388 34.4797 18.0801 34.4797 24.7919H36.0797ZM22.3304 38.5423C29.9247 38.5423 36.0797 32.387 36.0797 24.7919H34.4797C34.4797 31.5034 29.0409 36.9423 22.3304 36.9423V38.5423ZM8.57891 24.7919C8.57891 32.3872 14.7362 38.5423 22.3304 38.5423V36.9423C15.6196 36.9423 10.1789 31.5033 10.1789 24.7919H8.57891ZM22.3304 17.1842C26.531 17.1842 29.937 20.59 29.937 24.7919H31.537C31.537 19.7064 27.4148 15.5842 22.3304 15.5842V17.1842ZM14.7237 24.7919C14.7237 20.5899 18.1292 17.1842 22.3304 17.1842V15.5842C17.2454 15.5842 13.1237 19.7065 13.1237 24.7919H14.7237ZM22.3304 32.3995C18.1292 32.3995 14.7237 28.9933 14.7237 24.7919H13.1237C13.1237 29.8767 17.2453 33.9995 22.3304 33.9995V32.3995ZM29.937 24.7919C29.937 28.9933 26.531 32.3995 22.3304 32.3995V33.9995C27.4148 33.9995 31.537 29.8767 31.537 24.7919H29.937Z" fill="black" mask="url(#path-1-inside-1_1684_2563)"/>
</svg>
